# Blender v2.73 (sub 0) OBJ File: ''
# www.blender.org
o initialShadingGroup_pCube6
v 20.227030 0.399995 30.833632
v 30.833632 0.399997 20.227030
v 20.227030 2.399995 30.833632
v 30.833632 2.399997 20.227030
v 19.166368 2.399995 29.772970
v 29.772970 2.399997 19.166368
v 19.166368 0.399995 29.772970
v 29.772970 0.399997 19.166368
vt 0.235294 0.999999
vt 0.235294 0.000000
vt 0.470588 0.999999
vt 0.470588 0.000000
vt 0.647059 1.000000
vt 0.647059 0.000000
vt 0.823529 1.000000
vt 0.823529 0.000000
vt 0.000000 0.000000
vt 0.000000 1.000000
vt 1.000000 0.000000
vt 0.823529 0.133333
vt 1.000000 0.133333
vt 1.000000 0.266667
vt 0.823529 0.266667
vn 0.707100 0.000000 0.707100
vn 0.000000 1.000000 0.000000
vn -0.707100 0.000000 -0.707100
vn -0.000000 -1.000000 -0.000000
vn 0.707100 0.000000 -0.707100
vn -0.707100 0.000000 0.707100
s 1
f 1/1/1 2/2/1 3/3/1
f 3/3/1 2/2/1 4/4/1
f 3/5/2 4/6/2 5/7/2
f 5/7/2 4/6/2 6/8/2
f 5/2/3 6/1/3 7/9/3
f 7/9/3 6/1/3 8/10/3
f 8/5/4 1/4/4 7/6/4
f 1/4/4 8/5/4 2/3/4
f 2/8/5 8/11/5 4/12/5
f 4/12/5 8/11/5 6/13/5
f 7/14/6 1/15/6 5/13/6
f 5/13/6 1/15/6 3/12/6
o initialShadingGroup_pCube1
v -50.000000 -0.500008 50.000000
v 50.000000 -0.500008 50.000000
v -50.000000 0.499992 50.000000
v 50.000000 0.499992 50.000000
v -50.000000 0.500008 -50.000000
v 50.000000 0.500008 -50.000000
v -50.000000 -0.499992 -50.000000
v 50.000000 -0.499992 -50.000000
vt 0.000000 0.000000
vt 1.000000 0.000000
vt 0.000000 1.000000
vt 1.000000 1.000000
vt 0.980769 0.500000
vt 0.980769 0.000000
vt 0.990385 0.500000
vt 0.990384 0.000000
vt 0.971154 0.500000
vt 0.971154 0.000000
vt 0.961538 0.500000
vt 0.961538 1.000000
vt 0.000000 0.500000
vt 1.000000 0.500000
vt 0.961538 0.000000
vn 0.000000 1.000000 0.000000
vn 0.000000 0.000000 1.000000
vn 0.000000 0.000000 -1.000000
vn 0.000000 -1.000000 -0.000000
vn 1.000000 0.000000 0.000000
vn -1.000000 0.000000 0.000000
s 1
f 11/16/7 12/17/7 13/18/7
f 13/18/7 12/17/7 14/19/7
f 9/20/8 10/21/8 11/22/8
f 11/22/8 10/21/8 12/23/8
f 13/24/9 14/25/9 15/20/9
f 15/20/9 14/25/9 16/21/9
f 16/18/10 9/26/10 15/27/10
f 9/26/10 16/18/10 10/28/10
f 10/22/11 16/23/11 12/29/11
f 12/29/11 16/23/11 14/17/11
f 15/26/12 9/30/12 13/24/12
f 13/24/12 9/30/12 11/25/12
o initialShadingGroup_pCube7
v -30.833632 0.399997 20.227030
v -20.227030 0.399995 30.833632
v -30.833632 2.399997 20.227030
v -20.227030 2.399995 30.833632
v -29.772970 2.399997 19.166368
v -19.166368 2.399995 29.772970
v -29.772970 0.399997 19.166368
v -19.166368 0.399995 29.772970
vt 0.235294 0.000000
vt 0.235294 1.000000
vt 0.000000 0.000000
vt 0.000000 1.000000
vt 0.470588 1.000000
vt 0.470588 0.000000
vt 0.647058 1.000000
vt 0.647058 0.000000
vt 0.823528 1.000000
vt 0.823528 0.000000
vt 0.823528 0.133333
vt 0.999999 0.133333
vt 0.823528 0.266667
vt 0.999999 0.266667
vt 1.000000 0.000000
vn -0.707100 0.000000 0.707100
vn -0.000000 1.000000 0.000000
vn 0.707100 0.000000 -0.707100
vn 0.000000 -1.000000 -0.000000
vn 0.707100 0.000000 0.707100
vn -0.707100 0.000000 -0.707100
s 1
f 17/31/13 18/32/13 19/33/13
f 19/33/13 18/32/13 20/34/13
f 19/35/14 20/36/14 21/37/14
f 21/37/14 20/36/14 22/38/14
f 21/36/15 22/35/15 23/31/15
f 23/31/15 22/35/15 24/32/15
f 24/39/16 17/38/16 23/40/16
f 17/38/16 24/39/16 18/37/16
f 18/41/17 24/42/17 20/43/17
f 20/43/17 24/42/17 22/44/17
f 23/42/18 17/41/18 21/45/18
f 21/45/18 17/41/18 19/40/18
o initialShadingGroup_pCube2
v -7.500000 0.400000 0.750000
v 7.500000 0.400000 0.750000
v -7.500000 2.400000 0.750000
v 7.500000 2.400000 0.750000
v -7.500000 2.400000 -0.750000
v 7.500000 2.400000 -0.750000
v -7.500000 0.400000 -0.750000
v 7.500000 0.400000 -0.750000
vt 0.000000 1.000000
vt 0.000000 0.000000
vt 0.235294 1.000000
vt 0.235294 0.000000
vt 0.470589 1.000000
vt 0.470588 0.000000
vt 0.647059 1.000000
vt 0.647059 0.000000
vt 0.823530 1.000000
vt 0.823529 0.000000
vt 0.823530 0.133333
vt 1.000000 0.133333
vt 0.823530 0.266667
vt 1.000000 0.266667
vt 1.000000 0.000000
vn 0.000000 -0.000000 1.000000
vn 0.000000 1.000000 0.000000
vn 0.000000 0.000000 -1.000000
vn 0.000000 -1.000000 -0.000000
vn 1.000000 0.000000 0.000000
vn -1.000000 0.000000 0.000000
s 1
f 25/46/19 26/47/19 27/48/19
f 27/48/19 26/47/19 28/49/19
f 27/50/20 28/51/20 29/52/20
f 29/52/20 28/51/20 30/53/20
f 29/48/21 30/49/21 31/50/21
f 31/50/21 30/49/21 32/51/21
f 32/54/22 25/53/22 31/55/22
f 25/53/22 32/54/22 26/52/22
f 26/56/23 32/57/23 28/58/23
f 28/58/23 32/57/23 30/59/23
f 31/57/24 25/56/24 29/60/24
f 29/60/24 25/56/24 27/55/24
o initialShadingGroup_pCube3
v 0.750000 0.399999 7.499999
v 0.750000 0.400001 -7.499999
v 0.750000 2.399999 7.500000
v 0.750000 2.400001 -7.499999
v -0.750000 2.399999 7.500000
v -0.750000 2.400001 -7.499999
v -0.750000 0.399999 7.499999
v -0.750000 0.400001 -7.499999
vt 0.470588 0.000000
vt 0.470588 1.000000
vt 0.235294 0.000000
vt 0.235294 1.000000
vt 0.823529 0.000000
vt 0.823529 1.000000
vt 0.647059 0.000000
vt 0.647059 1.000000
vt 0.000000 0.000000
vt 0.000000 1.000000
vt 1.000000 0.133333
vt 0.823530 0.133333
vt 1.000000 0.000000
vt 0.823529 0.266667
vt 1.000000 0.266667
vn 1.000000 0.000000 0.000000
vn 0.000000 1.000000 0.000000
vn -1.000000 0.000000 0.000000
vn 0.000000 -1.000000 -0.000000
vn 0.000000 0.000000 -1.000000
vn 0.000000 -0.000000 1.000000
s 1
f 33/61/25 34/62/25 35/63/25
f 35/63/25 34/62/25 36/64/25
f 35/65/26 36/66/26 37/67/26
f 37/67/26 36/66/26 38/68/26
f 37/63/27 38/64/27 39/69/27
f 39/69/27 38/64/27 40/70/27
f 40/68/28 33/61/28 39/67/28
f 33/61/28 40/68/28 34/62/28
f 34/71/29 40/72/29 36/73/29
f 36/73/29 40/72/29 38/65/29
f 39/72/30 33/71/30 37/74/30
f 37/74/30 33/71/30 35/75/30
o initialShadingGroup_pCube5
v 19.166368 0.400005 -29.772970
v 29.772970 0.400003 -19.166368
v 19.166368 2.400005 -29.772970
v 29.772970 2.400003 -19.166368
v 20.227030 2.400005 -30.833632
v 30.833632 2.400003 -20.227030
v 20.227030 0.400005 -30.833632
v 30.833632 0.400003 -20.227030
vt 0.000000 1.000000
vt 0.000000 0.000000
vt 0.235294 1.000000
vt 0.235294 0.000000
vt 0.470588 1.000000
vt 0.470588 0.000000
vt 0.647059 1.000000
vt 0.647058 0.000000
vt 0.823529 1.000000
vt 0.823529 0.000000
vt 0.823529 0.133333
vt 1.000000 0.133333
vt 0.823529 0.266667
vt 1.000000 0.266667
vt 1.000000 0.000000
vn -0.707100 0.000000 0.707100
vn -0.000000 1.000000 0.000000
vn 0.707100 0.000000 -0.707100
vn 0.000000 -1.000000 -0.000000
vn 0.707100 0.000000 0.707100
vn -0.707100 0.000000 -0.707100
s 1
f 41/76/31 42/77/31 43/78/31
f 43/78/31 42/77/31 44/79/31
f 43/80/32 44/81/32 45/82/32
f 45/82/32 44/81/32 46/83/32
f 45/81/33 46/80/33 47/79/33
f 47/79/33 46/80/33 48/78/33
f 48/84/34 41/83/34 47/85/34
f 41/83/34 48/84/34 42/82/34
f 42/86/35 48/87/35 44/88/35
f 44/88/35 48/87/35 46/89/35
f 47/87/36 41/86/36 45/90/36
f 45/90/36 41/86/36 43/85/36
o initialShadingGroup_pCube4
v -29.772970 0.400003 -19.166368
v -19.166368 0.400005 -29.772970
v -29.772970 2.400003 -19.166368
v -19.166368 2.400005 -29.772970
v -30.833632 2.400003 -20.227030
v -20.227030 2.400005 -30.833632
v -30.833632 0.400003 -20.227030
v -20.227030 0.400005 -30.833632
vt 0.235294 0.999999
vt 0.235294 0.000000
vt 0.470588 0.999999
vt 0.470588 0.000000
vt 0.823529 0.000000
vt 0.823528 1.000000
vt 0.647058 0.000000
vt 0.647058 1.000000
vt 0.000000 0.000000
vt 0.000000 1.000000
vt 0.823529 0.133333
vt 0.999999 0.133333
vt 0.823529 0.266667
vt 0.999999 0.266667
vt 1.000000 0.000000
vn 0.707100 0.000000 0.707100
vn 0.000000 1.000000 0.000000
vn -0.707100 0.000000 -0.707100
vn -0.000000 -1.000000 -0.000000
vn 0.707100 0.000000 -0.707100
vn -0.707100 0.000000 0.707100
s 1
f 49/91/37 50/92/37 51/93/37
f 51/93/37 50/92/37 52/94/37
f 51/95/38 52/96/38 53/97/38
f 53/97/38 52/96/38 54/98/38
f 53/92/39 54/91/39 55/99/39
f 55/99/39 54/91/39 56/100/39
f 56/98/40 49/94/40 55/97/40
f 49/94/40 56/98/40 50/93/40
f 50/101/41 56/102/41 52/103/41
f 52/103/41 56/102/41 54/104/41
f 55/102/42 49/101/42 53/105/42
f 53/105/42 49/101/42 51/95/42
