# This file uses centimeters as units for non-parametric coordinates.

mtllib PowerUp_Shield.mtl
g default
v -0.077037 1.617979 0.015806
v 0.077037 1.617979 0.015806
v -0.077037 1.919294 0.382657
v 0.077037 1.919294 0.382657
v -0.077037 2.220610 0.451973
v 0.077037 2.220610 0.451973
v -0.077037 2.700923 0.451973
v 0.077037 2.700923 0.451973
v -0.077037 2.521925 0.338980
v 0.077037 2.521925 0.338980
v -0.077037 2.442351 0.225987
v 0.077037 2.442351 0.225987
v -0.077037 2.521925 0.112993
v 0.077037 2.521925 0.112993
v -0.077037 2.611349 0.000000
v 0.077037 2.611349 0.000000
v -0.077037 2.521925 -0.112993
v 0.077037 2.521925 -0.112993
v -0.077037 2.442351 -0.225987
v 0.077037 2.442351 -0.225987
v -0.077037 2.521925 -0.338980
v 0.077037 2.521925 -0.338980
v -0.077037 2.700923 -0.451973
v 0.077037 2.700923 -0.451973
v -0.077037 2.220610 -0.451973
v 0.077037 2.220610 -0.451973
v -0.077037 1.919294 -0.377157
v 0.077037 1.919294 -0.377157
v -0.077037 1.617979 -0.022741
v 0.077037 1.617979 -0.022741
v -0.077037 1.617979 -0.015239
v 0.077037 1.617979 -0.015239
v -0.077037 1.617979 -0.008014
v 0.077037 1.617979 -0.008014
v -0.077037 1.617979 -0.005902
v 0.077037 1.617979 -0.005902
v -0.077037 1.617979 0.000000
v 0.077037 1.617979 0.000000
v -0.077037 1.617979 0.002767
v 0.077037 1.617979 0.002767
v -0.077037 1.617979 0.002997
v 0.077037 1.617979 0.002997
v -0.077037 1.617979 0.007217
v 0.077037 1.617979 0.007217
v 0.077037 1.919294 -0.338980
v 0.077037 1.919294 -0.225987
v 0.077037 1.919294 -0.112993
v 0.077037 1.919294 0.000000
v 0.077037 1.919294 0.112993
v 0.077037 1.919294 0.225987
v 0.077037 1.919294 0.338980
v 0.077037 2.220610 -0.338980
v 0.077037 2.220610 -0.225987
v 0.077037 2.220610 -0.112993
v 0.077037 2.220610 0.000000
v 0.077037 2.220610 0.112993
v 0.077037 2.220610 0.225987
v 0.077037 2.220610 0.338980
v -0.077037 1.919294 -0.338980
v -0.077037 1.919294 -0.225987
v -0.077037 1.919294 -0.112993
v -0.077037 1.919294 0.000000
v -0.077037 1.919294 0.112993
v -0.077037 1.919294 0.225987
v -0.077037 1.919294 0.338980
v -0.077037 2.220610 -0.338980
v -0.077037 2.220610 -0.225987
v -0.077037 2.220610 -0.112993
v -0.077037 2.220610 0.000000
v -0.077037 2.220610 0.112993
v -0.077037 2.220610 0.225987
v -0.077037 2.220610 0.338980
vt 0.375000 0.000000
vt 0.625000 0.000000
vt 0.375000 0.083333
vt 0.625000 0.083333
vt 0.375000 0.166667
vt 0.625000 0.166667
vt 0.375000 0.250000
vt 0.625000 0.250000
vt 0.375000 0.281250
vt 0.625000 0.281250
vt 0.375000 0.312500
vt 0.625000 0.312500
vt 0.375000 0.343750
vt 0.625000 0.343750
vt 0.375000 0.375000
vt 0.625000 0.375000
vt 0.375000 0.406250
vt 0.625000 0.406250
vt 0.375000 0.437500
vt 0.625000 0.437500
vt 0.375000 0.468750
vt 0.625000 0.468750
vt 0.375000 0.500000
vt 0.625000 0.500000
vt 0.375000 0.583333
vt 0.625000 0.583333
vt 0.375000 0.666667
vt 0.625000 0.666667
vt 0.375000 0.750000
vt 0.625000 0.750000
vt 0.375000 0.781250
vt 0.625000 0.781250
vt 0.375000 0.812500
vt 0.625000 0.812500
vt 0.375000 0.843750
vt 0.625000 0.843750
vt 0.375000 0.875000
vt 0.625000 0.875000
vt 0.375000 0.906250
vt 0.625000 0.906250
vt 0.375000 0.937500
vt 0.625000 0.937500
vt 0.375000 0.968750
vt 0.625000 0.968750
vt 0.375000 1.000000
vt 0.625000 1.000000
vt 0.875000 0.000000
vt 0.843750 0.000000
vt 0.812500 0.000000
vt 0.781250 0.000000
vt 0.750000 0.000000
vt 0.718750 0.000000
vt 0.687500 0.000000
vt 0.656250 0.000000
vt 0.875000 0.083333
vt 0.843750 0.083333
vt 0.812500 0.083333
vt 0.781250 0.083333
vt 0.750000 0.083333
vt 0.718750 0.083333
vt 0.687500 0.083333
vt 0.656250 0.083333
vt 0.875000 0.166667
vt 0.843750 0.166667
vt 0.812500 0.166667
vt 0.781250 0.166667
vt 0.750000 0.166667
vt 0.718750 0.166667
vt 0.687500 0.166667
vt 0.656250 0.166667
vt 0.875000 0.250000
vt 0.843750 0.250000
vt 0.812500 0.250000
vt 0.781250 0.250000
vt 0.750000 0.250000
vt 0.718750 0.250000
vt 0.687500 0.250000
vt 0.656250 0.250000
vt 0.125000 0.000000
vt 0.156250 0.000000
vt 0.187500 0.000000
vt 0.218750 0.000000
vt 0.250000 0.000000
vt 0.281250 0.000000
vt 0.312500 0.000000
vt 0.343750 0.000000
vt 0.125000 0.083333
vt 0.156250 0.083333
vt 0.187500 0.083333
vt 0.218750 0.083333
vt 0.250000 0.083333
vt 0.281250 0.083333
vt 0.312500 0.083333
vt 0.343750 0.083333
vt 0.125000 0.166667
vt 0.156250 0.166667
vt 0.187500 0.166667
vt 0.218750 0.166667
vt 0.250000 0.166667
vt 0.281250 0.166667
vt 0.312500 0.166667
vt 0.343750 0.166667
vt 0.125000 0.250000
vt 0.156250 0.250000
vt 0.187500 0.250000
vt 0.218750 0.250000
vt 0.250000 0.250000
vt 0.281250 0.250000
vt 0.312500 0.250000
vt 0.343750 0.250000
vn 0.000000 -0.772753 0.634707
vn 0.000000 -0.772753 0.634707
vn 0.000000 -0.586315 0.810083
vn 0.000000 -0.586315 0.810083
vn 0.000000 -0.088335 0.996091
vn 0.000000 -0.088335 0.996091
vn 0.000000 0.000000 1.000000
vn 0.000000 0.000000 1.000000
vn 0.000000 0.533797 -0.845613
vn 0.000000 0.533797 -0.845613
vn 0.000000 0.658069 -0.752958
vn 0.000000 0.658069 -0.752958
vn 0.000000 1.000000 0.000000
vn 0.000000 1.000000 -0.000000
vn 0.000000 0.800835 0.598884
vn 0.000000 0.800835 0.598884
vn 0.000000 1.000000 -0.000000
vn 0.000000 1.000000 0.000000
vn 0.000000 0.800835 -0.598884
vn 0.000000 0.800835 -0.598884
vn 0.000000 1.000000 0.000000
vn 0.000000 1.000000 -0.000000
vn 0.000000 0.658069 0.752958
vn 0.000000 0.658069 0.752958
vn 0.000000 0.533797 0.845613
vn 0.000000 0.533797 0.845613
vn 0.000000 0.000000 -1.000000
vn 0.000000 0.000000 -1.000000
vn 0.000000 -0.095283 -0.995450
vn 0.000000 -0.095283 -0.995450
vn 0.000000 -0.580148 -0.814511
vn 0.000000 -0.580148 -0.814511
vn 0.000000 -0.761874 -0.647725
vn 0.000000 -0.761874 -0.647725
vn 0.000000 -1.000000 0.000000
vn 0.000000 -1.000000 0.000000
vn 0.000000 -1.000000 0.000000
vn 0.000000 -1.000000 0.000000
vn 0.000000 -1.000000 0.000000
vn 0.000000 -1.000000 0.000000
vn 0.000000 -1.000000 0.000000
vn 0.000000 -1.000000 0.000000
vn 0.000000 -1.000000 0.000000
vn 0.000000 -1.000000 0.000000
vn 0.000000 -1.000000 0.000000
vn 0.000000 -1.000000 0.000000
vn 0.000000 -1.000000 0.000000
vn 0.000000 -1.000000 0.000000
vn 0.000000 -1.000000 0.000000
vn 0.000000 -1.000000 0.000000
vn 0.000000 -1.000000 0.000000
vn 0.000000 -1.000000 0.000000
vn 1.000000 0.000000 0.000000
vn 1.000000 0.000000 0.000000
vn 1.000000 0.000000 0.000000
vn 1.000000 0.000000 0.000000
vn 1.000000 -0.000000 0.000000
vn 1.000000 -0.000000 0.000000
vn 1.000000 0.000000 0.000000
vn 1.000000 -0.000000 0.000000
vn 1.000000 0.000000 0.000000
vn 1.000000 0.000000 0.000000
vn 1.000000 -0.000000 0.000000
vn 1.000000 -0.000000 0.000000
vn 1.000000 -0.000000 0.000000
vn 1.000000 0.000000 0.000000
vn 1.000000 0.000000 0.000000
vn 1.000000 0.000000 0.000000
vn 1.000000 0.000000 0.000000
vn 1.000000 0.000000 0.000000
vn 1.000000 0.000000 0.000000
vn 1.000000 0.000000 0.000000
vn 1.000000 0.000000 0.000000
vn 1.000000 0.000000 0.000000
vn 1.000000 0.000000 0.000000
vn 1.000000 0.000000 0.000000
vn 1.000000 0.000000 0.000000
vn 1.000000 0.000000 0.000000
vn 1.000000 0.000000 0.000000
vn 1.000000 0.000000 0.000000
vn 1.000000 0.000000 0.000000
vn 1.000000 0.000000 0.000000
vn 1.000000 0.000000 0.000000
vn 1.000000 0.000000 0.000000
vn 1.000000 0.000000 0.000000
vn 1.000000 0.000000 0.000000
vn 1.000000 0.000000 0.000000
vn 1.000000 0.000000 0.000000
vn -1.000000 0.000000 0.000000
vn -1.000000 -0.000000 0.000000
vn -1.000000 0.000000 0.000000
vn -1.000000 0.000000 0.000000
vn -1.000000 0.000000 0.000000
vn -1.000000 -0.000000 0.000000
vn -1.000000 0.000000 0.000000
vn -1.000000 -0.000000 0.000000
vn -1.000000 0.000000 0.000000
vn -1.000000 0.000000 0.000000
vn -1.000000 0.000000 0.000000
vn -1.000000 0.000000 0.000000
vn -1.000000 0.000000 0.000000
vn -1.000000 0.000000 0.000000
vn -1.000000 0.000000 0.000000
vn -1.000000 0.000000 0.000000
vn -1.000000 0.000000 0.000000
vn -1.000000 0.000000 0.000000
vn -1.000000 0.000000 0.000000
vn -1.000000 0.000000 0.000000
vn -1.000000 0.000000 0.000000
vn -1.000000 0.000000 0.000000
vn -1.000000 0.000000 0.000000
vn -1.000000 0.000000 0.000000
vn -1.000000 0.000000 0.000000
vn -1.000000 0.000000 0.000000
vn -1.000000 0.000000 0.000000
vn -1.000000 0.000000 0.000000
vn -1.000000 0.000000 0.000000
vn -1.000000 0.000000 0.000000
vn -1.000000 0.000000 0.000000
vn -1.000000 0.000000 0.000000
vn -1.000000 0.000000 0.000000
vn -1.000000 0.000000 0.000000
vn -1.000000 0.000000 0.000000
vn -1.000000 0.000000 0.000000
s 1
g pCube1
usemtl initialShadingGroup
f 1/1/1 2/2/2 3/3/3
f 3/3/3 2/2/2 4/4/4
f 3/3/3 4/4/4 5/5/5
f 5/5/5 4/4/4 6/6/6
f 5/5/5 6/6/6 7/7/7
f 7/7/7 6/6/6 8/8/8
s 2
f 7/7/9 8/8/10 9/9/11
f 9/9/11 8/8/10 10/10/12
f 9/9/11 10/10/12 11/11/13
f 11/11/13 10/10/12 12/12/14
f 11/11/13 12/12/14 13/13/15
f 13/13/15 12/12/14 14/14/16
f 13/13/15 14/14/16 15/15/17
f 15/15/17 14/14/16 16/16/18
f 15/15/17 16/16/18 17/17/19
f 17/17/19 16/16/18 18/18/20
f 17/17/19 18/18/20 19/19/21
f 19/19/21 18/18/20 20/20/22
f 19/19/21 20/20/22 21/21/23
f 21/21/23 20/20/22 22/22/24
f 21/21/23 22/22/24 23/23/25
f 23/23/25 22/22/24 24/24/26
s 3
f 23/23/27 24/24/28 25/25/29
f 25/25/29 24/24/28 26/26/30
f 25/25/29 26/26/30 27/27/31
f 27/27/31 26/26/30 28/28/32
f 27/27/31 28/28/32 29/29/33
f 29/29/33 28/28/32 30/30/34
s 4
f 29/29/35 30/30/36 31/31/37
f 31/31/37 30/30/36 32/32/38
f 31/31/37 32/32/38 33/33/39
f 33/33/39 32/32/38 34/34/40
f 33/33/39 34/34/40 35/35/41
f 35/35/41 34/34/40 36/36/42
f 35/35/41 36/36/42 37/37/43
f 37/37/43 36/36/42 38/38/44
f 37/37/43 38/38/44 39/39/45
f 39/39/45 38/38/44 40/40/46
f 39/39/45 40/40/46 41/41/47
f 41/41/47 40/40/46 42/42/48
f 41/41/47 42/42/48 43/43/49
f 43/43/49 42/42/48 44/44/50
f 43/43/49 44/44/50 1/45/51
f 1/45/51 44/44/50 2/46/52
s 5
f 32/48/53 30/47/54 45/56/55
f 45/56/55 30/47/54 28/55/56
f 34/49/57 32/48/53 46/57/58
f 32/48/53 45/56/55 46/57/58
f 36/50/59 34/49/57 47/58/60
f 34/49/57 46/57/58 47/58/60
f 38/51/61 36/50/59 48/59/62
f 36/50/59 47/58/60 48/59/62
f 38/51/61 48/59/62 40/52/63
f 40/52/63 48/59/62 49/60/64
f 40/52/63 49/60/64 42/53/65
f 42/53/65 49/60/64 50/61/66
f 42/53/65 50/61/66 44/54/67
f 44/54/67 50/61/66 51/62/68
f 44/54/67 51/62/68 2/2/69
f 2/2/69 51/62/68 4/4/70
f 45/56/55 28/55/56 52/64/71
f 52/64/71 28/55/56 26/63/72
f 46/57/58 45/56/55 53/65/73
f 53/65/73 45/56/55 52/64/71
f 47/58/60 46/57/58 54/66/74
f 54/66/74 46/57/58 53/65/73
f 48/59/62 47/58/60 55/67/75
f 55/67/75 47/58/60 54/66/74
f 49/60/64 48/59/62 56/68/76
f 56/68/76 48/59/62 55/67/75
f 50/61/66 49/60/64 57/69/77
f 57/69/77 49/60/64 56/68/76
f 51/62/68 50/61/66 58/70/78
f 58/70/78 50/61/66 57/69/77
f 51/62/68 58/70/78 4/4/70
f 4/4/70 58/70/78 6/6/79
f 52/64/71 26/63/72 22/72/80
f 22/72/80 26/63/72 24/71/81
f 53/65/73 52/64/71 20/73/82
f 20/73/82 52/64/71 22/72/80
f 53/65/73 20/73/82 54/66/74
f 54/66/74 20/73/82 18/74/83
f 54/66/74 18/74/83 55/67/75
f 55/67/75 18/74/83 16/75/84
f 56/68/76 55/67/75 14/76/85
f 14/76/85 55/67/75 16/75/84
f 57/69/77 56/68/76 12/77/86
f 12/77/86 56/68/76 14/76/85
f 57/69/77 12/77/86 58/70/78
f 58/70/78 12/77/86 10/78/87
f 58/70/78 10/78/87 6/6/79
f 6/6/79 10/78/87 8/8/88
s 6
f 31/80/89 59/88/90 29/79/91
f 29/79/91 59/88/90 27/87/92
f 33/81/93 60/89/94 31/80/89
f 31/80/89 60/89/94 59/88/90
f 35/82/95 61/90/96 33/81/93
f 33/81/93 61/90/96 60/89/94
f 37/83/97 62/91/98 35/82/95
f 35/82/95 62/91/98 61/90/96
f 37/83/97 39/84/99 62/91/98
f 39/84/99 63/92/100 62/91/98
f 39/84/99 41/85/101 63/92/100
f 41/85/101 64/93/102 63/92/100
f 41/85/101 43/86/103 64/93/102
f 43/86/103 65/94/104 64/93/102
f 43/86/103 1/1/105 65/94/104
f 65/94/104 1/1/105 3/3/106
f 59/88/90 66/96/107 27/87/92
f 27/87/92 66/96/107 25/95/108
f 59/88/90 60/89/94 66/96/107
f 66/96/107 60/89/94 67/97/109
f 60/89/94 61/90/96 67/97/109
f 67/97/109 61/90/96 68/98/110
f 61/90/96 62/91/98 68/98/110
f 68/98/110 62/91/98 69/99/111
f 62/91/98 63/92/100 69/99/111
f 69/99/111 63/92/100 70/100/112
f 63/92/100 64/93/102 70/100/112
f 70/100/112 64/93/102 71/101/113
f 64/93/102 65/94/104 71/101/113
f 71/101/113 65/94/104 72/102/114
f 65/94/104 3/3/106 72/102/114
f 72/102/114 3/3/106 5/5/115
f 66/96/107 21/104/116 25/95/108
f 25/95/108 21/104/116 23/103/117
f 67/97/109 19/105/118 66/96/107
f 66/96/107 19/105/118 21/104/116
f 67/97/109 68/98/110 19/105/118
f 19/105/118 68/98/110 17/106/119
f 68/98/110 69/99/111 17/106/119
f 17/106/119 69/99/111 15/107/120
f 70/100/112 13/108/121 69/99/111
f 69/99/111 13/108/121 15/107/120
f 71/101/113 11/109/122 70/100/112
f 70/100/112 11/109/122 13/108/121
f 71/101/113 72/102/114 11/109/122
f 11/109/122 72/102/114 9/110/123
f 72/102/114 5/5/115 9/110/123
f 9/110/123 5/5/115 7/7/124
