# This file uses centimeters as units for non-parametric coordinates.

mtllib projectile.mtl
g projectile_1:default1
v 0.244450 0.370513 -0.308815
v 0.244450 0.350316 -0.113073
v 0.000000 0.192738 -0.074061
v 0.253865 0.539444 -0.219076
v 0.287368 0.438882 -0.127018
v -0.213657 0.735096 -0.143483
v 0.244450 0.636071 0.005365
v 0.283078 0.612925 -0.131212
v 0.166389 0.633979 -0.263647
v 0.137176 0.793522 -0.029490
v -0.087476 0.654679 0.195162
vt 0.050000 0.400000
vt 0.000000 0.300000
vt 0.675000 0.000000
vt 1.000000 0.300000
vt 0.050000 0.550000
vt 0.000000 0.400000
vt 1.000000 0.400000
vt 0.400000 0.750000
vt 0.900000 0.700000
vt 1.000000 0.550000
vt 0.000000 0.600000
vt 0.100000 0.650000
vt 0.950000 0.650000
vt 0.000000 0.700000
vt 0.000000 0.850000
vt 0.650000 0.650000
vt 1.000000 0.750000
vt 0.900000 0.850000
vt 0.075000 0.000000
vn 0.662379 -0.618364 -0.422943
vn 0.715635 -0.448573 -0.535396
vn 0.723408 -0.659706 -0.203639
vn 0.799328 -0.535048 -0.273492
vn 0.672812 -0.675268 -0.302220
vn 0.893206 -0.377972 -0.243558
vn 0.673870 -0.486540 -0.556038
vn 0.855727 0.069152 -0.512786
vn 0.893206 -0.377972 -0.243558
vn -0.808375 -0.039820 -0.587319
vn -0.945100 -0.231944 -0.230192
vn -0.940584 -0.085192 -0.328701
vn 0.999763 0.013549 0.017028
vn 0.957551 0.000573 0.288264
vn 0.956519 -0.288754 -0.041140
vn 0.555497 0.210760 -0.804365
vn 0.397136 0.092444 -0.913092
vn 0.563921 -0.031610 -0.825224
vn -0.941250 0.151212 0.301965
vn -0.957551 0.000573 0.288264
vn -0.817553 0.180602 0.546800
vn 0.941250 0.151213 0.301964
vn 0.817553 0.180603 0.546800
vn 0.957551 0.000573 0.288264
vn 0.957551 0.000573 0.288264
vn 0.999763 0.013549 0.017028
vn 0.941250 0.151213 0.301964
vn 0.988131 0.152486 0.018555
vn 0.961905 0.028439 -0.271901
vn 0.911013 0.150570 -0.383906
vn 0.904277 0.281096 -0.321355
vn 0.837513 0.076126 -0.541088
vn 0.804227 0.228045 -0.548830
vn 0.351906 0.189089 -0.916737
vn 0.024931 0.203339 -0.978791
vn 0.053137 0.102513 -0.993311
vn 0.904277 0.281096 -0.321355
vn 0.804227 0.228045 -0.548830
vn 0.846820 0.455548 -0.274540
vn 0.404805 0.652311 0.640799
vn 0.293866 0.311304 0.903733
vn 0.526113 0.415895 0.741779
vn 0.372665 0.607865 -0.701157
vn 0.049775 0.689501 -0.722572
vn 0.353246 0.627914 -0.693500
vn -0.493140 0.630316 0.599596
vn -0.152417 0.770450 0.619012
vn -0.563473 0.629915 0.534514
vn 0.153395 0.924260 0.349589
vn 0.544059 0.402767 0.736056
vn 0.198632 0.801536 0.563990
vn 0.662709 0.679381 -0.315053
vn 0.556963 0.780645 -0.283524
vn 0.728094 0.675166 0.118450
s off
g projectile_1:initialShadingGroup projectile_1:pSphere1 projectile_1:polySurface1
usemtl initialShadingGroup
f 3/19/1 1/1/2 2/2/3
f 2/2/4 1/1/5 5/6/6
f 1/1/7 4/5/8 5/6/9
f 1/1/10 3/3/11 6/8/12
f 8/13/13 2/4/14 5/7/15
f 4/5/16 1/1/17 9/12/18
f 6/8/19 3/3/20 11/16/21
f 7/9/22 3/3/23 2/4/24
f 2/4/25 8/13/26 7/9/27
f 8/13/28 5/7/29 4/10/30
f 8/11/31 4/5/32 9/12/33
f 9/12/34 1/1/35 6/8/36
f 8/11/37 9/12/38 7/14/39
f 3/3/40 7/9/41 11/16/42
f 9/12/43 6/8/44 10/15/45
f 6/8/46 11/16/47 10/15/48
f 11/16/49 7/9/50 10/15/51
f 9/17/52 10/18/53 7/9/54
