# This file uses centimeters as units for non-parametric coordinates.

mtllib Range3.mtl
g default
v -0.011703 1.802547 0.700000
v 0.013027 1.802547 0.700000
v 0.013027 2.094690 0.700000
v 0.500000 2.094690 0.700000
v 0.500000 2.102547 0.700000
v 0.005000 2.102547 0.700000
v 0.005000 1.813030 0.700000
v -0.005000 1.813030 0.700000
v -0.005000 2.102547 0.700000
v -0.500000 2.102547 0.700000
v -0.500000 2.094690 0.700000
v -0.011703 2.094690 0.700000
v -0.011703 2.094690 -0.667041
v -0.011703 2.093450 -0.667041
v -0.011703 2.092969 -0.664791
v -0.011703 1.802547 0.690504
v -0.011703 1.802547 0.696663
v 0.013027 1.802547 0.696825
v 0.013027 1.802547 0.690353
v 0.013027 2.093289 -0.666436
v 0.013027 2.094690 -0.666436
v 0.500000 2.094690 0.687386
v 0.500000 2.102547 0.687386
v 0.000955 2.102547 -0.700000
v 0.000126 2.102547 -0.700000
v -0.500000 2.102547 0.693479
v -0.005000 2.102547 -0.653266
v 0.005000 2.102547 -0.653266
v -0.500000 2.094690 0.693479
v 0.000126 2.100497 -0.700000
v 0.000955 2.100497 -0.700000
vt 0.497074 0.000000
vt 0.503257 0.000000
vt 0.503257 0.243452
vt 0.625000 0.243452
vt 0.625000 0.250000
vt 0.501250 0.250000
vt 0.501250 0.008735
vt 0.498750 0.008735
vt 0.498750 0.250000
vt 0.375000 0.250000
vt 0.375000 0.243452
vt 0.497074 0.243452
vt 0.869115 0.250000
vt 0.869115 0.249690
vt 0.868713 0.249570
vt 0.626696 0.176964
vt 0.625596 0.176964
vt 0.625000 0.176964
vt 0.625000 0.250000
vt 0.503257 1.000000
vt 0.497074 1.000000
vt 0.497074 0.999404
vt 0.503257 0.999433
vt 0.375000 0.176964
vt 0.374433 0.176964
vt 0.373277 0.176964
vt 0.130994 0.249650
vt 0.130994 0.250000
vt 0.375000 0.250000
vt 0.375000 0.494007
vt 0.496743 0.252253
vt 0.496743 0.250000
vt 0.627253 0.243452
vt 0.627253 0.250000
vt 0.501268 0.500000
vt 0.499277 0.500000
vt 0.375000 0.251164
vt 0.498589 0.491655
vt 0.501619 0.491655
vt 0.625000 0.252253
vt 0.373836 0.250000
vt 0.373836 0.243452
vt 0.502926 0.250000
vt 0.502926 0.251164
vt 0.625000 0.494115
vt 0.648816 0.159588
vt 0.854302 0.159588
vt 0.854302 0.084588
vt 0.849441 0.084588
vt 0.849442 0.094526
vt 0.648817 0.157623
vt 0.496338 0.755885
vt 0.499277 0.750000
vt 0.501268 0.750000
vt 0.498078 0.756287
vt 0.503257 0.998277
vt 0.497074 0.998304
vt 0.504262 0.755993
vt 0.350285 0.159588
vt 0.350285 0.157623
vt 0.150648 0.095628
vt 0.150648 0.084588
vt 0.145699 0.084588
vt 0.145699 0.159588
vt 0.625000 0.751973
vt 0.375000 0.751973
vt 0.375000 0.999096
vt 0.625000 0.999096
vt 0.625904 0.000000
vt 0.636720 0.235926
vt 0.873027 0.000000
vt 0.126973 0.000000
vt 0.363280 0.235926
vt 0.374096 0.000000
vn 0.000000 0.000000 1.000000
vn 0.000000 0.000000 1.000000
vn -0.000001 0.000000 1.000000
vn -0.000001 0.000000 1.000000
vn -0.000000 0.000000 1.000000
vn 0.000000 0.000000 1.000000
vn 0.000000 0.000000 1.000000
vn 0.000000 0.000000 1.000000
vn 0.000000 0.000000 1.000000
vn 0.000000 0.000000 1.000000
vn 0.000000 0.000000 1.000000
vn 0.000000 0.000000 1.000000
vn -0.951725 0.000000 -0.306952
vn -0.999975 0.000000 -0.007048
vn -1.000000 0.000000 0.000000
vn -1.000000 0.000000 0.000000
vn -1.000000 0.000000 0.000000
vn -1.000000 0.000000 0.000000
vn -1.000000 0.000000 0.000000
vn 0.000000 -1.000000 0.000000
vn 0.000000 -1.000000 0.000000
vn 0.000000 -1.000000 0.000000
vn 0.000000 -1.000000 0.000000
vn 1.000000 0.000000 0.000000
vn 1.000000 -0.000000 0.000000
vn 1.000000 -0.000000 0.000000
vn 0.952718 0.000000 -0.303856
vn 1.000000 -0.000000 -0.000264
vn 1.000000 -0.000000 0.000000
vn 0.000000 -1.000000 0.000000
vn 0.000000 -1.000000 0.000000
vn 0.000000 -1.000000 0.000000
vn 0.000000 -1.000000 0.000000
vn 0.941950 0.000000 -0.335753
vn 0.941949 0.000000 -0.335757
vn 1.000000 0.000000 0.000000
vn 1.000000 0.000000 0.000000
vn 0.000000 1.000000 0.000000
vn 0.000000 1.000000 0.000000
vn 0.000000 1.000000 -0.000000
vn 0.000000 0.999889 0.014910
vn 0.000000 1.000000 -0.000014
vn 0.000000 0.999891 0.014773
vn 0.000000 1.000000 -0.000013
vn 0.000000 1.000000 -0.000000
vn 0.000000 1.000000 0.000000
vn 0.000000 1.000000 0.000000
vn -1.000000 0.000000 0.000000
vn -1.000000 0.000000 0.000000
vn -0.941717 0.000000 -0.336407
vn -0.941716 0.000000 -0.336409
vn 0.000000 -1.000000 0.000000
vn 0.000000 -1.000000 0.000000
vn 0.000000 -1.000000 0.000000
vn 0.000000 -1.000000 0.000000
vn -0.941226 0.000000 -0.337778
vn -0.941230 0.000000 -0.337766
vn 0.000000 -0.977913 -0.209013
vn -0.001211 -0.977808 -0.209498
vn 0.000099 -0.977924 -0.208960
vn -0.001282 -0.977801 -0.209530
vn -0.001282 -0.977801 -0.209530
vn -0.001271 -0.978002 -0.208592
vn -0.001271 -0.977997 -0.208616
vn 0.940981 0.000000 -0.338460
vn 0.940984 0.000000 -0.338451
vn 0.000000 0.000000 -1.000000
vn 0.000000 0.000000 -1.000000
vn 0.000000 0.000000 -1.000000
vn 0.000000 0.000000 -1.000000
vn 0.000000 0.977872 0.209206
vn 0.000000 0.977872 0.209206
vn -1.000000 0.000000 0.000000
vn -1.000000 0.000000 0.000000
vn -1.000000 0.000000 0.000000
vn 1.000000 0.000000 0.000000
vn 1.000000 0.000000 0.000000
vn 1.000000 0.000000 0.000000
s 1
g pCube11
usemtl initialShadingGroup
f 4/4/1 5/5/2 3/3/3
f 5/5/2 6/6/4 3/3/3
f 6/6/4 7/7/5 3/3/3
f 3/3/3 7/7/5 2/2/6
f 2/2/6 7/7/5 1/1/7
f 7/7/5 8/8/8 1/1/7
f 1/1/7 8/8/8 12/12/9
f 8/8/8 9/9/10 12/12/9
f 9/9/10 10/10/11 12/12/9
f 10/10/11 11/11/12 12/12/9
s 2
f 13/13/13 14/14/14 12/19/15
f 14/14/14 15/15/16 12/19/15
f 1/18/17 12/19/15 17/17/18
f 17/17/18 12/19/15 16/16/19
f 15/15/16 16/16/19 12/19/15
s 4
f 2/20/20 1/21/21 18/23/22
f 18/23/22 1/21/21 17/22/23
s 5
f 2/24/24 18/25/25 3/29/26
f 21/28/27 3/29/26 20/27/28
f 18/25/25 19/26/29 3/29/26
f 19/26/29 20/27/28 3/29/26
s 7
f 4/32/30 3/29/31 22/31/32
f 3/29/31 21/30/33 22/31/32
s 5
f 22/33/34 23/34/35 4/4/36
f 4/4/36 23/34/35 5/5/37
s 9
f 10/10/38 9/9/39 26/37/40
f 9/9/39 27/38/41 26/37/40
f 26/37/40 27/38/41 25/36/42
f 27/38/41 28/39/43 25/36/42
f 25/36/42 28/39/43 24/35/44
f 24/35/44 28/39/43 23/40/45
f 6/6/46 5/5/47 28/39/43
f 28/39/43 5/5/47 23/40/45
s 2
f 11/11/48 10/10/49 29/42/50
f 29/42/50 10/10/49 26/41/51
s 11
f 11/43/52 29/44/53 12/19/54
f 29/44/53 13/45/55 12/19/54
s 2
f 14/49/14 13/50/13 30/48/56
f 26/46/51 25/47/57 29/51/50
f 25/47/57 30/48/56 29/51/50
f 30/48/56 13/50/13 29/51/50
s 4
f 30/53/58 31/54/59 14/52/60
f 14/52/60 31/54/59 15/55/61
f 31/54/59 20/58/62 15/55/61
f 20/58/62 19/56/63 15/55/61
f 19/56/63 16/57/64 15/55/61
f 18/23/22 17/22/23 19/56/63
f 19/56/63 17/22/23 16/57/64
s 5
f 20/62/28 31/63/65 21/61/27
f 23/59/35 22/60/34 24/64/66
f 24/64/66 22/60/34 31/63/65
f 22/60/34 21/61/27 31/63/65
s 13
f 31/54/67 30/53/68 24/35/69
f 24/35/69 30/53/68 25/36/70
s 9
f 28/65/43 27/66/41 7/68/71
f 7/68/71 27/66/41 8/67/72
s off
f 7/69/73 6/70/74 28/71/75
f 27/72/76 9/73/77 8/74/78
