# This file uses centimeters as units for non-parametric coordinates.

mtllib projectile_1.mtl
g default
v 0.132047 0.285792 -0.255809
v 0.069421 0.285792 -0.287718
v 0.000000 0.192738 -0.074061
v 0.000000 0.285792 0.150591
v 0.109765 0.278058 0.018859
v -0.137176 0.227366 -0.118633
v -0.151078 0.253414 0.035703
v 0.244450 0.370513 -0.308815
v -0.079427 0.323701 -0.318511
v -0.229015 0.392823 -0.200035
v -0.166389 0.338498 0.074677
v 0.244450 0.350316 -0.113073
v 0.096968 0.460744 -0.372498
v -0.079427 0.348344 0.112230
v 0.079427 0.323701 0.170388
v 0.229015 0.390851 0.034170
v -0.098177 0.510444 -0.376218
v -0.287368 0.436911 -0.038848
v -0.184444 0.485387 0.121646
v 0.184444 0.485387 0.121646
v 0.253865 0.539444 -0.219076
v -0.186743 0.489744 -0.291662
v -0.302156 0.489744 -0.132809
v -0.096968 0.485387 0.166217
v 0.098177 0.510444 0.228095
v 0.287368 0.438882 -0.127018
v -0.287368 0.587920 -0.128003
v 0.000000 0.655433 0.125818
v -0.287368 0.547505 0.019310
v 0.298436 0.560144 0.022906
v 0.283078 0.612925 -0.131212
v 0.166389 0.633979 -0.263647
v 0.093372 0.595773 -0.340734
v -0.087476 0.654679 -0.343285
v -0.166389 0.633979 -0.263647
v -0.244450 0.636072 0.005365
v 0.166389 0.626970 0.074677
v -0.087476 0.654679 0.195162
v 0.244450 0.636071 0.005365
v 0.109765 0.726338 -0.185710
v -0.213657 0.735096 -0.143483
v 0.087476 0.654679 0.195162
v -0.181747 0.735096 0.057986
v 0.137176 0.793522 -0.029490
v -0.109765 0.746773 -0.185710
v -0.093371 0.812600 -0.043723
v 0.000000 0.767035 -0.074061
vt 0.100000 0.250000
vt 0.150000 0.250000
vt 0.400000 0.150000
vt 0.700000 0.250000
vt 0.800000 0.200000
vt 0.550000 0.200000
vt 0.050000 0.400000
vt 0.250000 0.300000
vt 0.350000 0.350000
vt 0.600000 0.350000
vt 0.000000 0.300000
vt 0.150000 0.450000
vt 0.650000 0.300000
vt 0.750000 0.300000
vt 0.850000 0.350000
vt 1.000000 0.300000
vt 0.250000 0.500000
vt 0.500000 0.400000
vt 0.600000 0.450000
vt 0.800000 0.450000
vt 0.050000 0.550000
vt 0.300000 0.500000
vt 0.400000 0.500000
vt 0.650000 0.450000
vt 0.750000 0.500000
vt 0.000000 0.400000
vt 0.400000 0.600000
vt 0.700000 0.700000
vt 1.000000 0.400000
vt 0.500000 0.600000
vt 0.900000 0.550000
vt 1.000000 0.550000
vt 0.000000 0.600000
vt 0.100000 0.650000
vt 0.150000 0.600000
vt 0.250000 0.650000
vt 0.300000 0.650000
vt 0.500000 0.700000
vt 0.800000 0.650000
vt 0.950000 0.650000
vt 0.650000 0.650000
vt 0.000000 0.700000
vt 0.100000 0.800000
vt 0.400000 0.750000
vt 0.750000 0.650000
vt 0.900000 0.700000
vt 0.550000 0.750000
vt 1.000000 0.750000
vt 0.000000 0.850000
vt 0.300000 0.800000
vt 0.500000 0.900000
vt 0.825000 1.000000
vt 0.900000 0.850000
vt 0.475000 1.000000
vt 0.075000 0.000000
vt 0.125000 0.000000
vt 0.225000 0.000000
vt 0.675000 0.000000
vt 0.775000 0.000000
vt 0.925000 0.000000
vn 0.133221 -0.973627 0.185208
vn 0.188734 -0.956396 -0.222904
vn 0.565770 -0.799482 0.201824
vn 0.000000 -0.800252 -0.599664
vn -0.145470 -0.882266 -0.447711
vn -0.185306 -0.800252 -0.570314
vn -0.664607 -0.724456 0.182925
vn -0.609367 -0.744235 0.273472
vn -0.649262 -0.718868 0.248369
vn -0.528782 -0.718987 0.451050
vn -0.334631 -0.838865 0.429334
vn -0.467434 -0.704502 0.534024
vn 0.334631 -0.838865 0.429334
vn 0.584565 -0.636011 0.503760
vn 0.305295 -0.393073 0.867346
vn 0.662379 -0.618364 -0.422943
vn 0.715635 -0.448573 -0.535396
vn 0.723408 -0.659706 -0.203639
vn 0.520674 -0.499487 -0.692395
vn 0.540093 -0.412138 -0.733786
vn 0.662379 -0.618364 -0.422943
vn 0.520674 -0.499487 -0.692395
vn 0.336126 -0.237456 -0.911391
vn 0.540093 -0.412138 -0.733786
vn -0.540093 -0.412138 -0.733786
vn -0.662379 -0.618363 -0.422943
vn -0.641108 -0.515621 -0.568433
vn -0.662379 -0.618363 -0.422943
vn -0.723408 -0.659706 -0.203639
vn -0.641108 -0.515621 -0.568433
vn -0.644378 -0.453541 0.615692
vn -0.719003 -0.603188 0.345254
vn -0.597721 -0.700239 0.390379
vn -0.116836 0.051133 0.991834
vn -0.073398 -0.730579 0.678872
vn -0.557410 -0.473163 0.682211
vn -0.310369 -0.746134 0.589029
vn 0.070221 -0.780871 0.620733
vn 0.584565 -0.636011 0.503760
vn 0.585166 -0.585794 0.560736
vn 0.584565 -0.636011 0.503760
vn 0.597721 -0.700239 0.390379
vn 0.585166 -0.585794 0.560736
vn 0.336126 -0.237456 -0.911391
vn 0.172646 -0.584126 -0.793089
vn 0.540093 -0.412138 -0.733786
vn 0.336126 -0.237456 -0.911391
vn 0.000000 -0.512978 -0.858402
vn 0.172646 -0.584126 -0.793089
vn -0.099947 -0.514408 0.851701
vn 0.070221 -0.780871 0.620733
vn -0.165326 -0.716295 0.677930
vn 0.799328 -0.535048 -0.273492
vn 0.672812 -0.675268 -0.302220
vn 0.893206 -0.377972 -0.243558
vn 0.199158 -0.610277 -0.766745
vn 0.000000 -0.512978 -0.858402
vn 0.000000 -0.689081 -0.724684
vn -0.820562 -0.429641 0.376943
vn -0.877620 -0.376238 0.297033
vn -0.885496 -0.461205 0.056456
vn -0.877620 -0.376238 0.297033
vn -0.718478 -0.562695 0.408856
vn -0.718812 -0.493198 0.489965
vn -0.482661 -0.676508 0.556215
vn -0.371731 0.018345 0.928159
vn -0.384745 -0.219634 0.896511
vn 0.747868 -0.507815 0.427571
vn 0.752111 -0.415216 0.511786
vn 0.544119 -0.602037 0.584368
vn 0.907901 -0.419006 0.012210
vn 0.893206 -0.377972 -0.243558
vn 0.956261 -0.292516 0.000353
vn 0.673870 -0.486540 -0.556038
vn 0.855727 0.069152 -0.512786
vn 0.893206 -0.377972 -0.243558
vn 0.393503 -0.394352 -0.830447
vn 0.199158 -0.610277 -0.766745
vn 0.549444 0.219815 -0.806097
vn -0.346769 -0.067208 -0.935540
vn -0.511589 -0.492403 -0.704142
vn -0.592443 0.007862 -0.805574
vn -0.511589 -0.492403 -0.704142
vn -0.740265 -0.383937 -0.551905
vn -0.592443 0.007862 -0.805574
vn -0.808375 -0.039820 -0.587319
vn -0.945100 -0.231944 -0.230192
vn -0.940584 -0.085192 -0.328701
vn -0.945100 -0.231944 -0.230192
vn -0.966417 -0.255670 0.025896
vn -0.940584 -0.085192 -0.328701
vn -0.371731 0.018345 0.928159
vn -0.284792 -0.468987 0.836029
vn -0.384745 -0.219634 0.896511
vn 0.284804 0.211486 0.934965
vn 0.284792 -0.468987 0.836029
vn 0.000000 0.181520 0.983387
vn 0.000000 -0.468425 0.883503
vn 0.284792 -0.468987 0.836029
vn 0.355716 -0.080196 0.931147
vn 0.294166 -0.325658 0.898562
vn -0.961904 0.028439 -0.271903
vn -0.972590 -0.229437 -0.037771
vn -0.999763 0.013549 0.017027
vn 0.000000 -0.468425 0.883503
vn 0.245813 -0.572996 0.781826
vn 0.000000 -0.588457 0.808528
vn 0.999763 0.013549 0.017028
vn 0.957551 0.000573 0.288264
vn 0.956519 -0.288754 -0.041140
vn 0.555497 0.210760 -0.804365
vn 0.397136 0.092444 -0.913092
vn 0.563921 -0.031610 -0.825224
vn -0.957551 0.000573 0.288264
vn -0.941250 0.151212 0.301965
vn -0.999763 0.013549 0.017027
vn -0.941250 0.151212 0.301965
vn -0.957551 0.000573 0.288264
vn -0.817553 0.180602 0.546800
vn 0.064261 0.289913 0.954893
vn 0.245813 -0.572996 0.781826
vn 0.371982 0.516773 0.771087
vn 0.245813 -0.572996 0.781826
vn 0.417135 -0.548969 0.724315
vn 0.371982 0.516773 0.771087
vn 0.941250 0.151213 0.301964
vn 0.817553 0.180603 0.546800
vn 0.957551 0.000573 0.288264
vn 0.957551 0.000573 0.288264
vn 0.999763 0.013549 0.017028
vn 0.941250 0.151213 0.301964
vn 0.988131 0.152486 0.018555
vn 0.961905 0.028439 -0.271901
vn 0.911013 0.150570 -0.383906
vn 0.904277 0.281096 -0.321355
vn 0.837513 0.076126 -0.541088
vn 0.804227 0.228045 -0.548830
vn 0.837513 0.076126 -0.541088
vn 0.563921 -0.031610 -0.825224
vn 0.804227 0.228045 -0.548830
vn 0.397136 0.092444 -0.913092
vn 0.024931 0.203339 -0.978791
vn 0.351906 0.189089 -0.916737
vn 0.053137 0.102513 -0.993311
vn -0.577635 -0.011536 -0.816214
vn -0.573669 0.277498 -0.770649
vn -0.366794 0.063781 -0.928113
vn -0.348691 0.195912 -0.916533
vn -0.843240 0.100595 -0.528040
vn -0.804227 0.228045 -0.548829
vn -0.577635 -0.011536 -0.816214
vn -0.843240 0.100595 -0.528040
vn -0.911013 0.150570 -0.383906
vn -0.804227 0.228045 -0.548829
vn -0.988131 0.152486 0.018554
vn -0.941250 0.151212 0.301965
vn -0.955068 0.292364 0.048673
vn -0.785006 0.241819 0.570341
vn -0.900296 0.272246 0.339630
vn -0.817553 0.180602 0.546800
vn 0.616239 0.433739 0.657358
vn 0.817553 0.180603 0.546800
vn 0.893890 0.318568 0.315398
vn 0.904277 0.281096 -0.321355
vn 0.804227 0.228045 -0.548830
vn 0.846820 0.455548 -0.274540
vn -0.913082 0.281388 -0.295131
vn -0.856897 0.429067 -0.285709
vn -0.804227 0.228045 -0.548829
vn -0.601214 0.272246 0.751281
vn -0.573765 0.359407 0.735948
vn -0.785006 0.241819 0.570341
vn -0.601214 0.272246 0.751281
vn -0.383744 0.300412 0.873209
vn -0.573765 0.359407 0.735948
vn -0.383744 0.300412 0.873209
vn 0.168121 0.533398 0.828988
vn -0.316028 0.489547 0.812693
vn 0.404805 0.652311 0.640799
vn 0.293866 0.311304 0.903733
vn 0.526113 0.415895 0.741779
vn 0.893890 0.318568 0.315398
vn 0.845647 0.490596 0.210229
vn 0.616239 0.433739 0.657358
vn 0.893890 0.318568 0.315398
vn 0.911930 0.400880 0.087633
vn 0.845647 0.490596 0.210229
vn 0.372665 0.607865 -0.701157
vn 0.353246 0.627914 -0.693500
vn 0.289204 0.666222 -0.687394
vn 0.372665 0.607865 -0.701157
vn 0.049775 0.689501 -0.722572
vn 0.353246 0.627914 -0.693500
vn -0.334615 0.491463 -0.804050
vn -0.450830 0.535980 -0.713777
vn -0.448839 0.515950 -0.729615
vn -0.450830 0.535980 -0.713777
vn -0.635039 0.643783 -0.426930
vn -0.448839 0.515950 -0.729615
vn -0.724071 0.454344 -0.518934
vn -0.856897 0.429067 -0.285709
vn -0.635039 0.643783 -0.426930
vn -0.727562 0.633543 -0.263204
vn -0.809750 0.583408 0.062765
vn -0.712937 0.615760 -0.335501
vn -0.455282 0.800357 0.390060
vn -0.493140 0.630316 0.599596
vn -0.598878 0.723731 0.342868
vn 0.231351 0.929001 0.288849
vn 0.585114 0.731719 0.349611
vn 0.580160 0.540080 0.609695
vn 0.556963 0.780645 -0.283524
vn 0.482747 0.760330 -0.434573
vn 0.504034 0.644091 -0.575410
vn -0.493140 0.630316 0.599596
vn -0.152417 0.770450 0.619012
vn -0.563473 0.629915 0.534514
vn -0.135978 0.805984 0.576107
vn 0.159810 0.722922 0.672194
vn 0.209748 0.849039 0.484912
vn 0.159810 0.722922 0.672194
vn 0.153395 0.924260 0.349589
vn 0.209748 0.849039 0.484912
vn 0.153395 0.924260 0.349589
vn 0.544059 0.402767 0.736056
vn 0.198632 0.801536 0.563990
vn 0.662709 0.679381 -0.315053
vn 0.556963 0.780645 -0.283524
vn 0.728094 0.675166 0.118450
vn -0.248118 0.965548 -0.078454
vn -0.599664 0.800252 0.000000
vn -0.319018 0.946395 -0.050635
vn 0.248804 0.928235 -0.276545
vn -0.097321 0.990977 -0.092162
vn 0.400424 0.906784 -0.131920
vn 0.000001 0.995996 -0.089398
vn 0.079168 0.981080 0.176679
vn 0.199968 0.964653 -0.171629
vn 0.000001 0.995996 -0.089398
vn -0.142388 0.972484 -0.184391
vn 0.079168 0.981080 0.176679
vn 0.143196 0.988233 -0.053765
vn -0.177310 0.944591 -0.276240
vn -0.000711 1.000000 0.000604
vn -0.177310 0.944591 -0.276240
vn -0.248118 0.965548 -0.078454
vn -0.000711 1.000000 0.000604
vn -0.326249 0.914933 0.237611
vn -0.001799 0.907595 0.419843
vn -0.207083 0.954997 0.212361
vn 0.224603 0.970205 0.090865
vn 0.157587 0.791148 0.590974
vn 0.213493 0.914730 0.343059
vn 0.061915 -0.979722 -0.190555
vn 0.117769 -0.979722 -0.162096
vn 0.120759 -0.991797 -0.041893
vn -0.061915 -0.979722 -0.190555
vn 0.000000 -0.979722 -0.200361
vn 0.120759 -0.991797 -0.041893
vn 0.375459 -0.924796 0.061508
vn 0.061915 -0.979722 0.190555
vn 0.120759 -0.991797 -0.041893
s off
g initialShadingGroup pSphere1
f 5/5/1 3/60/2 12/16/3
f 2/2/4 6/3/5 9/8/6
f 6/3/7 3/58/8 7/6/9
f 3/58/10 4/4/11 7/6/12
f 4/4/13 5/5/14 15/14/15
f 3/55/16 8/7/17 12/11/18
f 1/1/19 8/7/20 3/55/21
f 1/1/22 2/2/23 8/7/24
f 9/8/25 6/3/26 10/9/27
f 6/3/28 7/6/29 10/9/30
f 11/10/31 10/9/32 7/6/33
s 1
f 4/4/34 14/13/35 7/6/36
f 7/6/36 14/13/35 11/10/37
s off
f 15/14/38 5/5/39 16/15/40
f 5/5/41 12/16/42 16/15/43
f 2/2/44 13/12/45 8/7/46
f 2/2/47 9/8/48 13/12/49
f 4/4/50 15/14/51 14/13/52
f 12/11/53 8/7/54 26/26/55
f 13/12/56 9/8/57 17/17/58
f 11/10/59 18/18/60 10/9/61
f 18/18/62 11/10/63 19/19/64
f 11/10/65 14/13/66 19/19/67
f 16/15/68 20/20/69 15/14/70
f 12/16/71 26/29/72 16/15/73
f 8/7/74 21/21/75 26/26/76
f 8/7/77 13/12/78 21/21/79
f 17/17/80 9/8/81 22/22/82
f 9/8/83 10/9/84 22/22/85
f 22/22/86 10/9/87 23/23/88
f 10/9/89 18/18/90 23/23/91
f 14/13/92 24/24/93 19/19/94
s 2
f 15/14/95 25/25/96 14/13/97
f 14/13/97 25/25/96 24/24/98
s off
f 25/25/99 15/14/100 20/20/101
f 23/23/102 18/18/103 27/27/104
f 24/24/105 25/25/106 28/28/107
f 31/40/108 16/15/109 26/29/110
f 21/21/111 13/12/112 33/35/113
f 18/18/114 29/30/115 27/27/116
f 29/30/117 18/18/118 19/19/119
f 28/28/120 25/25/121 42/45/122
f 25/25/123 20/20/124 42/45/125
f 30/31/126 20/20/127 16/15/128
f 16/15/129 31/40/130 30/31/131
f 31/40/132 26/29/133 21/32/134
f 31/33/135 21/21/136 32/34/137
f 21/21/138 33/35/139 32/34/140
s 3
f 13/12/141 17/17/142 33/35/143
f 33/35/143 17/17/142 34/36/144
s 4
f 22/22/145 35/37/146 17/17/147
f 17/17/147 35/37/146 34/36/148
s off
f 23/23/149 35/37/150 22/22/151
f 23/23/152 27/27/153 35/37/154
f 27/27/155 29/30/156 36/38/157
f 36/38/158 29/30/159 19/19/160
f 37/39/161 20/20/162 30/31/163
f 31/33/164 32/34/165 39/42/166
f 27/27/167 36/38/168 35/37/169
f 19/19/170 38/41/171 36/38/172
f 19/19/173 24/24/174 38/41/175
f 24/24/176 28/28/177 38/41/178
f 20/20/179 37/39/180 42/45/181
f 30/31/182 39/46/183 37/39/184
f 30/31/185 31/40/186 39/46/187
f 33/35/188 40/43/189 32/34/190
f 33/35/191 34/36/192 40/43/193
f 34/36/194 35/37/195 45/50/196
f 35/37/197 41/44/198 45/50/199
f 35/37/200 36/38/201 41/44/202
f 36/38/203 43/47/204 41/44/205
f 38/41/206 43/47/207 36/38/208
f 37/39/209 39/46/210 44/53/211
f 44/49/212 32/34/213 40/43/214
f 43/47/215 38/41/216 46/51/217
f 38/41/218 28/28/219 47/52/220
f 28/28/221 42/45/222 47/52/223
f 42/45/224 37/39/225 47/52/226
f 32/48/227 44/53/228 39/46/229
f 41/44/230 43/47/231 46/51/232
f 40/43/233 47/54/234 44/49/235
f 34/36/236 47/54/237 40/43/238
f 34/36/239 45/50/240 47/54/241
f 47/54/242 45/50/243 46/51/244
f 45/50/245 41/44/246 46/51/247
f 46/51/248 38/41/249 47/52/250
f 47/52/251 37/39/252 44/53/253
f 2/2/254 1/1/255 3/56/256
f 6/3/257 2/2/258 3/57/259
f 5/5/260 4/4/261 3/59/262
