# This file uses centimeters as units for non-parametric coordinates.

mtllib ranged_2.mtl
g default
v 0.012500 1.163505 -0.112355
v -0.012500 1.163505 -0.112355
v -0.012500 1.070779 -0.300000
v 0.012500 1.070779 -0.300000
v 0.012500 0.977111 -0.006177
v 0.012500 1.177111 -0.100000
v -0.012500 0.977111 -0.006177
v -0.012500 1.177111 -0.100000
v -0.012500 1.270779 -0.300000
v 0.012500 1.270779 -0.300000
v 0.012500 0.977111 0.193823
v 0.012500 1.177111 0.100000
v 0.012500 1.377111 -0.100000
v -0.012500 0.977111 0.193823
v -0.012500 1.177111 0.100000
v -0.012500 1.377111 -0.100000
v -0.012500 1.388373 -0.111282
v 0.012500 1.388373 -0.111282
v 0.012500 1.163505 0.112355
v 0.012500 1.275937 0.300000
v 0.012500 1.327111 -0.050000
v 0.012500 1.227111 -0.050000
v 0.012500 1.227111 0.050000
v 0.012500 1.327111 0.050000
v 0.012500 1.377111 0.100000
v 0.012500 1.577111 -0.208911
v -0.012500 1.163505 0.112355
v -0.012500 1.275937 0.300000
v -0.012500 1.327111 -0.050000
v -0.012500 1.327111 0.050000
v -0.012500 1.227111 0.050000
v -0.012500 1.377111 0.100000
v -0.012500 1.227111 -0.050000
v -0.012500 1.577111 -0.208911
v 0.012500 1.475937 0.300000
v 0.012500 1.577111 -0.008911
v -0.012500 1.475937 0.300000
v -0.012500 1.577111 -0.008911
v 0.012500 1.388215 0.112355
v -0.012500 1.388215 0.112355
vt 0.375000 0.000000
vt 0.625000 0.000000
vt 0.375000 0.083333
vt 0.625000 0.083333
vt 0.291667 0.000000
vt 0.291667 0.083333
vt 0.375000 0.916667
vt 0.625000 0.916667
vt 0.375000 1.000000
vt 0.625000 1.000000
vt 0.708333 0.000000
vt 0.708333 0.083333
vt 0.375000 0.166667
vt 0.625000 0.166667
vt 0.208333 0.000000
vt 0.208333 0.083333
vt 0.291667 0.166667
vt 0.375000 0.833333
vt 0.625000 0.833333
vt 0.791667 0.000000
vt 0.791667 0.083333
vt 0.708333 0.166667
vt 0.375000 0.250000
vt 0.625000 0.250000
vt 0.125000 0.000000
vt 0.125000 0.083333
vt 0.229167 0.104167
vt 0.270833 0.104167
vt 0.270833 0.145833
vt 0.208333 0.166667
vt 0.229167 0.145833
vt 0.291667 0.250000
vt 0.375000 0.750000
vt 0.625000 0.750000
vt 0.875000 0.000000
vt 0.875000 0.083333
vt 0.791667 0.166667
vt 0.770833 0.104167
vt 0.770833 0.145833
vt 0.729167 0.145833
vt 0.729167 0.104167
vt 0.708333 0.250000
vt 0.375000 0.333333
vt 0.625000 0.333333
vt 0.375000 0.666667
vt 0.625000 0.666667
vt 0.125000 0.166667
vt 0.208333 0.250000
vt 0.875000 0.166667
vt 0.791667 0.250000
vt 0.375000 0.416667
vt 0.625000 0.416667
vt 0.375000 0.583333
vt 0.625000 0.583333
vt 0.125000 0.250000
vt 0.875000 0.250000
vt 0.375000 0.500000
vt 0.625000 0.500000
vt 0.468750 0.000000
vt 0.468750 0.250000
vt 0.531250 0.000000
vt 0.531250 0.250000
vt 0.468750 0.750000
vt 0.468750 1.000000
vt 0.531250 0.750000
vt 0.531250 1.000000
vt 0.468750 0.500000
vt 0.531250 0.500000
vn 0.000000 -0.896513 0.443018
vn 0.000000 -0.896513 0.443018
vn -0.000000 -0.868148 -0.496306
vn -0.000000 -0.868148 -0.496306
vn 0.000000 -0.896513 0.443018
vn -0.000000 -0.868148 -0.496306
vn 1.000000 0.000000 -0.000000
vn 1.000000 0.000000 -0.000000
vn 1.000000 0.000000 -0.000000
vn 1.000000 0.000000 -0.000000
vn 1.000000 0.000000 -0.000000
vn 1.000000 0.000000 -0.000000
vn -0.000000 -0.854167 -0.519998
vn -0.000000 -0.854167 -0.519998
vn -0.000000 -0.494966 -0.868912
vn -0.000000 -0.494966 -0.868912
vn -0.000000 -0.854167 -0.519998
vn -0.000000 -0.494966 -0.868912
vn -1.000000 -0.000000 0.000000
vn -1.000000 -0.000000 0.000000
vn -1.000000 0.000000 0.000000
vn -1.000000 0.000000 0.000000
vn -1.000000 -0.000000 0.000000
vn -1.000000 0.000000 0.000000
vn -0.000000 -0.868148 -0.496306
vn -0.000000 -0.868148 -0.496306
vn -0.000000 0.510832 -0.859681
vn -0.000000 0.510832 -0.859681
vn -0.000000 -0.868148 -0.496306
vn -0.000000 0.510832 -0.859681
vn 1.000000 0.000000 -0.000000
vn 1.000000 0.000000 -0.000000
vn 1.000000 0.000000 -0.000000
vn 1.000000 0.000000 -0.000000
vn 1.000000 0.000000 -0.000000
vn 1.000000 0.000000 -0.000000
vn 1.000000 0.000000 -0.000000
vn 1.000000 0.000000 -0.000000
vn 1.000000 0.000000 -0.000000
vn 1.000000 0.000000 -0.000000
vn 1.000000 0.000000 -0.000000
vn 1.000000 0.000000 -0.000000
vn 0.000000 -0.536611 0.843830
vn 0.000000 -0.536611 0.843830
vn -0.000000 -0.854167 -0.519998
vn -0.000000 -0.854167 -0.519998
vn 0.000000 -0.536611 0.843830
vn -0.000000 -0.854167 -0.519998
vn -1.000000 0.000000 0.000000
vn -1.000000 -0.000000 0.000000
vn -1.000000 -0.000000 0.000000
vn -1.000000 -0.000000 0.000000
vn -1.000000 -0.000000 0.000000
vn -1.000000 -0.000000 0.000000
vn -1.000000 0.000000 0.000000
vn -1.000000 -0.000000 0.000000
vn -1.000000 0.000000 0.000000
vn -1.000000 0.000000 0.000000
vn -1.000000 -0.000000 0.000000
vn -1.000000 0.000000 0.000000
vn -0.000000 0.510832 -0.859681
vn -0.000000 0.510832 -0.859681
vn -0.000000 0.848714 -0.528852
vn -0.000000 0.848714 -0.528852
vn -0.000000 0.510832 -0.859681
vn -0.000000 0.848714 -0.528852
vn 1.000000 0.000000 -0.000000
vn 1.000000 0.000000 -0.000000
vn 1.000000 0.000000 -0.000000
vn 1.000000 0.000000 -0.000000
vn 1.000000 0.000000 -0.000000
vn 1.000000 0.000000 -0.000000
vn 1.000000 0.000000 -0.000000
vn 1.000000 0.000000 -0.000000
vn 1.000000 0.000000 -0.000000
vn 1.000000 0.000000 -0.000000
vn 1.000000 0.000000 -0.000000
vn 1.000000 0.000000 -0.000000
vn 1.000000 0.000000 -0.000000
vn 1.000000 0.000000 -0.000000
vn 1.000000 0.000000 -0.000000
vn 1.000000 0.000000 -0.000000
vn 1.000000 0.000000 -0.000000
vn 1.000000 0.000000 -0.000000
vn 1.000000 0.000000 -0.000000
vn 1.000000 0.000000 -0.000000
vn 1.000000 0.000000 -0.000000
vn 1.000000 0.000000 -0.000000
vn 1.000000 0.000000 -0.000000
vn 1.000000 0.000000 -0.000000
vn 1.000000 0.000000 -0.000000
vn 1.000000 0.000000 -0.000000
vn 1.000000 0.000000 -0.000000
vn 1.000000 0.000000 -0.000000
vn 1.000000 0.000000 -0.000000
vn 1.000000 0.000000 -0.000000
vn 1.000000 0.000000 -0.000000
vn 1.000000 0.000000 -0.000000
vn 1.000000 0.000000 -0.000000
vn 1.000000 0.000000 -0.000000
vn 1.000000 0.000000 -0.000000
vn 1.000000 0.000000 -0.000000
vn 0.000000 0.400490 0.916301
vn 0.000000 0.400490 0.916301
vn 0.000000 -0.536611 0.843830
vn 0.000000 -0.536611 0.843830
vn 0.000000 0.400490 0.916301
vn 0.000000 -0.536611 0.843830
vn -1.000000 0.000000 0.000000
vn -1.000000 -0.000000 0.000000
vn -1.000000 -0.000000 0.000000
vn -1.000000 -0.000000 0.000000
vn -1.000000 -0.000000 0.000000
vn -1.000000 -0.000000 0.000000
vn -1.000000 -0.000000 0.000000
vn -1.000000 0.000000 0.000000
vn -1.000000 0.000000 0.000000
vn -1.000000 0.000000 0.000000
vn -1.000000 0.000000 0.000000
vn -1.000000 -0.000000 0.000000
vn -1.000000 0.000000 0.000000
vn -1.000000 0.000000 0.000000
vn -1.000000 -0.000000 0.000000
vn -1.000000 0.000000 0.000000
vn -1.000000 -0.000000 0.000000
vn -1.000000 0.000000 0.000000
vn -1.000000 -0.000000 0.000000
vn -1.000000 0.000000 0.000000
vn -1.000000 -0.000000 0.000000
vn -1.000000 0.000000 0.000000
vn -1.000000 -0.000000 0.000000
vn -1.000000 -0.000000 0.000000
vn -1.000000 -0.000000 0.000000
vn -1.000000 -0.000000 0.000000
vn -1.000000 0.000000 0.000000
vn -1.000000 -0.000000 0.000000
vn -1.000000 0.000000 0.000000
vn -1.000000 0.000000 0.000000
vn -1.000000 0.000000 0.000000
vn -1.000000 0.000000 0.000000
vn -1.000000 0.000000 0.000000
vn -1.000000 0.000000 0.000000
vn -1.000000 0.000000 0.000000
vn -1.000000 -0.000000 0.000000
vn -0.000000 -0.459444 -0.888207
vn -0.000000 -0.459444 -0.888207
vn -0.000000 0.476780 -0.879023
vn -0.000000 0.476780 -0.879023
vn -0.000000 -0.459444 -0.888207
vn -0.000000 0.476780 -0.879023
vn 0.000000 -0.514870 0.857268
vn 0.000000 -0.514870 0.857268
vn 0.000000 -0.857805 0.513976
vn 0.000000 -0.857805 0.513976
vn 0.000000 -0.514870 0.857268
vn 0.000000 -0.857805 0.513976
vn 1.000000 0.000000 -0.000000
vn 1.000000 0.000000 -0.000000
vn 1.000000 0.000000 -0.000000
vn 1.000000 0.000000 -0.000000
vn 1.000000 0.000000 -0.000000
vn 1.000000 0.000000 -0.000000
vn 1.000000 0.000000 -0.000000
vn 1.000000 0.000000 -0.000000
vn 1.000000 0.000000 -0.000000
vn 1.000000 0.000000 -0.000000
vn 1.000000 0.000000 -0.000000
vn 1.000000 0.000000 -0.000000
vn -1.000000 -0.000000 0.000000
vn -1.000000 -0.000000 0.000000
vn -1.000000 0.000000 0.000000
vn -1.000000 0.000000 0.000000
vn -1.000000 -0.000000 0.000000
vn -1.000000 0.000000 0.000000
vn -1.000000 0.000000 0.000000
vn -1.000000 0.000000 0.000000
vn -1.000000 0.000000 0.000000
vn -1.000000 0.000000 0.000000
vn -1.000000 0.000000 0.000000
vn -1.000000 -0.000000 0.000000
vn -0.000000 0.476780 -0.879023
vn -0.000000 0.476780 -0.879023
vn 0.000000 0.862033 0.506853
vn 0.000000 0.862033 0.506853
vn -0.000000 0.476780 -0.879023
vn 0.000000 0.862033 0.506853
vn 0.000000 0.858117 0.513454
vn 0.000000 0.858117 0.513455
vn 0.000000 -0.514870 0.857268
vn 0.000000 -0.514870 0.857268
vn 0.000000 0.858117 0.513455
vn 0.000000 -0.514870 0.857268
vn 1.000000 0.000000 -0.000000
vn 1.000000 0.000000 -0.000000
vn 1.000000 0.000000 -0.000000
vn 1.000000 0.000000 -0.000000
vn 1.000000 0.000000 -0.000000
vn 1.000000 0.000000 -0.000000
vn -1.000000 0.000000 0.000000
vn -1.000000 0.000000 0.000000
vn -1.000000 0.000000 0.000000
vn -1.000000 0.000000 0.000000
vn -1.000000 0.000000 0.000000
vn -1.000000 0.000000 0.000000
vn 0.000000 0.862033 0.506853
vn 0.000000 0.862033 0.506853
vn 0.000000 0.540231 0.841517
vn 0.000000 0.540231 0.841517
vn 0.000000 0.862033 0.506853
vn 0.000000 0.540231 0.841517
vn -0.000000 0.905897 -0.423499
vn -0.000000 0.905897 -0.423499
vn 0.000000 0.858117 0.513454
vn 0.000000 0.858117 0.513454
vn -0.000000 0.905897 -0.423499
vn 0.000000 0.858117 0.513455
vn 0.000000 0.000000 1.000000
vn 0.000000 0.000000 1.000000
vn 0.000000 0.000000 1.000000
vn 0.000000 0.000000 1.000000
vn 0.000000 0.000000 1.000000
vn 0.000000 0.000000 1.000000
vn -0.000000 1.000000 0.000000
vn -0.000000 1.000000 0.000000
vn -0.000000 1.000000 0.000000
vn -0.000000 1.000000 0.000000
vn -0.000000 1.000000 0.000000
vn -0.000000 1.000000 0.000000
vn 0.000000 -1.000000 0.000000
vn 0.000000 -1.000000 0.000000
vn 0.000000 -1.000000 0.000000
vn 0.000000 -1.000000 0.000000
vn 0.000000 -1.000000 0.000000
vn 0.000000 -1.000000 0.000000
vn -0.000000 0.000000 -1.000000
vn -0.000000 0.000000 -1.000000
vn -0.000000 0.000000 -1.000000
vn -0.000000 0.000000 -1.000000
vn -0.000000 0.000000 -1.000000
vn -0.000000 0.000000 -1.000000
s off
g ranged_4:pCube8
usemtl ranged_4:initialShadingGroup
f 1/1/1 2/2/2 4/3/3
f 4/3/4 2/2/5 3/4/6
f 5/5/7 1/1/8 6/6/9
f 6/6/10 1/1/11 4/3/12
f 5/7/13 7/8/14 1/9/15
f 1/9/16 7/8/17 2/10/18
f 7/11/19 8/12/20 2/2/21
f 2/2/22 8/12/23 3/4/24
f 4/3/25 3/4/26 10/13/27
f 10/13/28 3/4/29 9/14/30
f 11/15/31 5/5/32 12/16/33
f 12/16/34 5/5/35 6/6/36
f 4/3/37 10/13/38 6/6/39
f 6/6/40 10/13/41 13/17/42
f 11/18/43 14/19/44 5/7/45
f 5/7/46 14/19/47 7/8/48
f 14/20/49 15/21/50 7/11/51
f 7/11/52 15/21/53 8/12/54
f 3/4/55 8/12/56 9/14/57
f 9/14/58 8/12/59 16/22/60
f 10/13/61 9/14/62 18/23/63
f 18/23/64 9/14/65 17/24/66
f 11/15/67 12/16/68 19/25/69
f 19/25/70 12/16/71 20/26/72
f 12/16/73 6/6/74 23/27/75
f 23/27/76 6/6/77 22/28/78
f 6/6/79 13/17/80 22/28/81
f 21/29/82 22/28/83 13/17/84
f 12/16/85 23/27/86 25/30/87
f 23/27/88 24/31/89 25/30/90
f 13/17/91 25/30/92 21/29/93
f 24/31/94 21/29/95 25/30/96
f 10/13/97 18/23/98 13/17/99
f 13/17/100 18/23/101 26/32/102
f 19/33/103 27/34/104 11/18/105
f 11/18/106 27/34/107 14/19/108
f 14/20/109 27/35/110 15/21/111
f 15/21/112 27/35/113 28/36/114
f 15/21/115 32/37/116 31/38/117
f 31/38/118 32/37/119 30/39/120
f 32/37/121 16/22/122 30/39/123
f 29/40/124 30/39/125 16/22/126
f 15/21/127 31/38/128 8/12/129
f 31/38/130 33/41/131 8/12/132
f 8/12/133 33/41/134 16/22/135
f 33/41/136 29/40/137 16/22/138
f 9/14/139 16/22/140 17/24/141
f 17/24/142 16/22/143 34/42/144
f 18/23/145 17/24/146 26/43/147
f 26/43/148 17/24/149 34/44/150
f 20/45/151 28/46/152 19/33/153
f 19/33/154 28/46/155 27/34/156
f 12/16/157 25/30/158 20/26/159
f 20/26/160 25/30/161 35/47/162
f 25/30/163 13/17/164 36/48/165
f 36/48/166 13/17/167 26/32/168
f 15/21/169 28/36/170 32/37/171
f 32/37/172 28/36/173 37/49/174
f 32/37/175 38/50/176 16/22/177
f 16/22/178 38/50/179 34/42/180
f 26/43/181 34/44/182 36/51/183
f 36/51/184 34/44/185 38/52/186
f 35/53/187 37/54/188 20/45/189
f 20/45/190 37/54/191 28/46/192
f 35/47/193 25/30/194 39/55/195
f 39/55/196 25/30/197 36/48/198
f 37/49/199 40/56/200 32/37/201
f 32/37/202 40/56/203 38/50/204
f 36/51/205 38/52/206 39/57/207
f 39/57/208 38/52/209 40/58/210
f 39/57/211 40/58/212 35/53/213
f 35/53/214 40/58/215 37/54/216
f 22/59/217 21/60/218 33/61/219
f 33/61/220 21/60/221 29/62/222
f 23/63/223 22/64/224 31/65/225
f 31/65/226 22/64/227 33/66/228
f 21/60/229 24/67/230 29/62/231
f 29/62/232 24/67/233 30/68/234
f 24/67/235 23/63/236 30/68/237
f 30/68/238 23/63/239 31/65/240
