# This file uses centimeters as units for non-parametric coordinates.

mtllib Range2.mtl
g default
v -0.012500 -0.113606 0.112355
v 0.012500 -0.113606 0.112355
v 0.012500 -0.206332 0.300000
v -0.012500 -0.206332 0.300000
v -0.012500 -0.300000 0.006177
v -0.012500 -0.100000 0.100000
v 0.012500 -0.300000 0.006177
v 0.012500 -0.100000 0.100000
v 0.012500 -0.006332 0.300000
v -0.012500 -0.006332 0.300000
v -0.012500 -0.300000 -0.193823
v -0.012500 -0.100000 -0.100000
v -0.012500 0.100000 0.100000
v 0.012500 -0.300000 -0.193823
v 0.012500 -0.100000 -0.100000
v 0.012500 0.100000 0.100000
v 0.012500 0.111262 0.111282
v -0.012500 0.111262 0.111282
v -0.012500 -0.113606 -0.112355
v -0.012500 -0.001174 -0.300000
v -0.012500 0.050000 0.050000
v -0.012500 -0.050000 0.050000
v -0.012500 -0.050000 -0.050000
v -0.012500 0.050000 -0.050000
v -0.012500 0.100000 -0.100000
v -0.012500 0.300000 0.208911
v 0.012500 -0.113606 -0.112355
v 0.012500 -0.001174 -0.300000
v 0.012500 0.050000 0.050000
v 0.012500 0.050000 -0.050000
v 0.012500 -0.050000 -0.050000
v 0.012500 0.100000 -0.100000
v 0.012500 -0.050000 0.050000
v 0.012500 0.300000 0.208911
v -0.012500 0.198826 -0.300000
v -0.012500 0.300000 0.008911
v 0.012500 0.198826 -0.300000
v 0.012500 0.300000 0.008911
v -0.012500 0.111104 -0.112355
v 0.012500 0.111104 -0.112355
vt 0.375000 0.000000
vt 0.625000 0.000000
vt 0.625000 0.083333
vt 0.375000 0.083333
vt 0.291667 0.000000
vt 0.291667 0.083333
vt 0.375000 0.916667
vt 0.625000 0.916667
vt 0.625000 1.000000
vt 0.375000 1.000000
vt 0.708333 0.000000
vt 0.708333 0.083333
vt 0.625000 0.166667
vt 0.375000 0.166667
vt 0.208333 0.000000
vt 0.208333 0.083333
vt 0.291667 0.166667
vt 0.375000 0.833333
vt 0.625000 0.833333
vt 0.791667 0.000000
vt 0.791667 0.083333
vt 0.708333 0.166667
vt 0.625000 0.250000
vt 0.375000 0.250000
vt 0.125000 0.000000
vt 0.125000 0.083333
vt 0.270833 0.145833
vt 0.270833 0.104167
vt 0.229167 0.104167
vt 0.229167 0.145833
vt 0.208333 0.166667
vt 0.291667 0.250000
vt 0.375000 0.750000
vt 0.625000 0.750000
vt 0.875000 0.000000
vt 0.875000 0.083333
vt 0.729167 0.145833
vt 0.770833 0.145833
vt 0.770833 0.104167
vt 0.791667 0.166667
vt 0.729167 0.104167
vt 0.708333 0.250000
vt 0.625000 0.333333
vt 0.375000 0.333333
vt 0.375000 0.666667
vt 0.625000 0.666667
vt 0.125000 0.166667
vt 0.208333 0.250000
vt 0.875000 0.166667
vt 0.791667 0.250000
vt 0.625000 0.416667
vt 0.375000 0.416667
vt 0.375000 0.583333
vt 0.625000 0.583333
vt 0.125000 0.250000
vt 0.875000 0.250000
vt 0.625000 0.500000
vt 0.375000 0.500000
vt 0.468750 0.000000
vt 0.468750 0.250000
vt 0.531250 0.250000
vt 0.531250 0.000000
vt 0.468750 0.750000
vt 0.468750 1.000000
vt 0.531250 1.000000
vt 0.531250 0.750000
vt 0.468750 0.500000
vt 0.531250 0.500000
vn 0.000000 -0.896513 -0.443018
vn 0.000000 -0.896513 -0.443018
vn 0.000000 -0.868148 0.496306
vn 0.000000 -0.868148 0.496306
vn -1.000000 -0.000000 0.000000
vn -1.000000 0.000000 0.000000
vn -1.000000 -0.000000 0.000000
vn -1.000000 0.000000 0.000000
vn 0.000000 -0.854167 0.519998
vn 0.000000 -0.854167 0.519998
vn 0.000000 -0.494966 0.868912
vn 0.000000 -0.494966 0.868912
vn 1.000000 -0.000000 0.000000
vn 1.000000 -0.000000 0.000000
vn 1.000000 0.000000 0.000000
vn 1.000000 0.000000 0.000000
vn 0.000000 0.510832 0.859681
vn 0.000000 0.510832 0.859681
vn -1.000000 0.000000 0.000000
vn -1.000000 -0.000000 0.000000
vn -1.000000 0.000000 0.000000
vn -1.000000 -0.000000 0.000000
vn 0.000000 -0.536611 -0.843830
vn 0.000000 -0.536611 -0.843830
vn 1.000000 0.000000 0.000000
vn 1.000000 -0.000000 0.000000
vn 1.000000 0.000000 0.000000
vn 1.000000 0.000000 0.000000
vn 0.000000 0.848714 0.528852
vn 0.000000 0.848714 0.528852
vn -1.000000 -0.000000 0.000000
vn -1.000000 -0.000000 0.000000
vn -1.000000 0.000000 0.000000
vn -1.000000 -0.000000 0.000000
vn -1.000000 -0.000000 0.000000
vn -1.000000 0.000000 0.000000
vn -1.000000 0.000000 0.000000
vn -1.000000 0.000000 0.000000
vn -1.000000 0.000000 0.000000
vn 0.000000 0.400490 -0.916301
vn 0.000000 0.400490 -0.916301
vn 1.000000 -0.000000 0.000000
vn 1.000000 -0.000000 0.000000
vn 1.000000 0.000000 0.000000
vn 1.000000 0.000000 0.000000
vn 1.000000 -0.000000 0.000000
vn 1.000000 0.000000 0.000000
vn 1.000000 -0.000000 0.000000
vn 1.000000 0.000000 0.000000
vn 1.000000 -0.000000 0.000000
vn 0.000000 -0.459444 0.888207
vn 0.000000 -0.459444 0.888207
vn 0.000000 0.476780 0.879023
vn 0.000000 0.476780 0.879023
vn 0.000000 -0.514870 -0.857268
vn 0.000000 -0.514870 -0.857268
vn 0.000000 -0.857805 -0.513976
vn 0.000000 -0.857805 -0.513976
vn -1.000000 0.000000 0.000000
vn -1.000000 0.000000 0.000000
vn 1.000000 0.000000 0.000000
vn 1.000000 0.000000 0.000000
vn 0.000000 0.862033 -0.506853
vn 0.000000 0.862033 -0.506853
vn 0.000000 0.858117 -0.513454
vn 0.000000 0.858117 -0.513455
vn -1.000000 0.000000 0.000000
vn 1.000000 0.000000 0.000000
vn 0.000000 0.540231 -0.841517
vn 0.000000 0.540231 -0.841517
vn 0.000000 0.905897 0.423499
vn 0.000000 0.905897 0.423499
vn 0.000000 0.000000 -1.000000
vn 0.000000 0.000000 -1.000000
vn 0.000000 0.000000 -1.000000
vn 0.000000 0.000000 -1.000000
vn 0.000000 1.000000 0.000000
vn 0.000000 1.000000 0.000000
vn 0.000000 1.000000 0.000000
vn 0.000000 1.000000 0.000000
vn 0.000000 -1.000000 0.000000
vn 0.000000 -1.000000 0.000000
vn 0.000000 -1.000000 0.000000
vn 0.000000 -1.000000 0.000000
vn 0.000000 0.000000 1.000000
vn 0.000000 0.000000 1.000000
vn 0.000000 0.000000 1.000000
vn 0.000000 0.000000 1.000000
s 1
g pCube8
usemtl initialShadingGroup
f 1/1/1 2/2/2 4/4/3
f 4/4/3 2/2/2 3/3/4
s 2
f 5/5/5 1/1/6 6/6/7
f 6/6/7 1/1/6 4/4/8
s 3
f 5/7/9 7/8/10 1/10/11
f 1/10/11 7/8/10 2/9/12
s 4
f 7/11/13 8/12/14 2/2/15
f 2/2/15 8/12/14 3/3/16
s 1
f 4/4/3 3/3/4 10/14/17
f 10/14/17 3/3/4 9/13/18
s 2
f 11/15/19 5/5/5 12/16/20
f 12/16/20 5/5/5 6/6/7
f 4/4/8 10/14/21 6/6/7
f 6/6/7 10/14/21 13/17/22
s 3
f 11/18/23 14/19/24 5/7/9
f 5/7/9 14/19/24 7/8/10
s 4
f 14/20/25 15/21/26 7/11/13
f 7/11/13 15/21/26 8/12/14
f 3/3/16 8/12/14 9/13/27
f 9/13/27 8/12/14 16/22/28
s 1
f 10/14/17 9/13/18 18/24/29
f 18/24/29 9/13/18 17/23/30
s 2
f 11/15/19 12/16/20 19/25/31
f 19/25/31 12/16/20 20/26/32
f 12/16/20 6/6/7 23/29/33
f 23/29/33 6/6/7 22/28/34
f 6/6/7 13/17/22 22/28/34
f 21/27/35 22/28/34 13/17/22
f 12/16/20 23/29/33 25/31/36
f 23/29/33 24/30/37 25/31/36
f 13/17/22 25/31/36 21/27/35
f 24/30/37 21/27/35 25/31/36
f 10/14/21 18/24/38 13/17/22
f 13/17/22 18/24/38 26/32/39
s 3
f 19/33/40 27/34/41 11/18/23
f 11/18/23 27/34/41 14/19/24
s 4
f 14/20/25 27/35/42 15/21/26
f 15/21/26 27/35/42 28/36/43
f 15/21/26 32/40/44 31/39/45
f 31/39/45 32/40/44 30/38/46
f 32/40/44 16/22/28 30/38/46
f 29/37/47 30/38/46 16/22/28
f 15/21/26 31/39/45 8/12/14
f 31/39/45 33/41/48 8/12/14
f 8/12/14 33/41/48 16/22/28
f 33/41/48 29/37/47 16/22/28
f 9/13/27 16/22/28 17/23/49
f 17/23/49 16/22/28 34/42/50
s 7
f 18/24/51 17/23/52 26/44/53
f 26/44/53 17/23/52 34/43/54
s 8
f 20/45/55 28/46/56 19/33/57
f 19/33/57 28/46/56 27/34/58
s 2
f 12/16/20 25/31/36 20/26/32
f 20/26/32 25/31/36 35/47/59
f 25/31/36 13/17/22 36/48/60
f 36/48/60 13/17/22 26/32/39
s 4
f 15/21/26 28/36/43 32/40/44
f 32/40/44 28/36/43 37/49/61
f 32/40/44 38/50/62 16/22/28
f 16/22/28 38/50/62 34/42/50
s 7
f 26/44/53 34/43/54 36/52/63
f 36/52/63 34/43/54 38/51/64
s 8
f 35/53/65 37/54/66 20/45/55
f 20/45/55 37/54/66 28/46/56
s 2
f 35/47/59 25/31/36 39/55/67
f 39/55/67 25/31/36 36/48/60
s 4
f 37/49/61 40/56/68 32/40/44
f 32/40/44 40/56/68 38/50/62
s 7
f 36/52/63 38/51/64 39/58/69
f 39/58/69 38/51/64 40/57/70
s 8
f 39/58/71 40/57/72 35/53/65
f 35/53/65 40/57/72 37/54/66
s 10
f 22/59/73 21/60/74 33/62/75
f 33/62/75 21/60/74 29/61/76
s 11
f 23/63/77 22/64/78 31/66/79
f 31/66/79 22/64/78 33/65/80
s 12
f 21/60/81 24/67/82 29/61/83
f 29/61/83 24/67/82 30/68/84
s 13
f 24/67/85 23/63/86 30/68/87
f 30/68/87 23/63/86 31/66/88
