# Blender v2.73 (sub 0) OBJ File: ''
# www.blender.org
mtllib shield_2_corrected_uvs.mtl
o pCube2
v -1.001459 0.193668 1.011918
v -0.500000 0.193668 1.500000
v -1.001459 0.593668 1.011918
v -0.500000 0.593668 1.500000
v -1.500000 0.193668 0.500000
v -1.500000 0.593668 0.500000
v -0.853746 0.193668 0.500000
v -0.809017 0.193668 0.587785
v -0.500000 0.193668 0.853746
v -0.587785 0.193668 0.809017
v 0.500000 0.193668 1.500000
v 0.500000 0.593668 1.500000
v -0.500000 0.593668 0.853746
v -0.587785 0.593668 0.809017
v -0.853746 0.593668 0.500000
v -0.809017 0.593668 0.587785
v -1.500000 0.193668 -0.500000
v -1.500000 0.593668 -0.500000
v -0.853746 0.193668 -0.500000
v -0.951057 0.193668 -0.309017
v -0.951057 0.193668 0.309017
v -1.000000 0.193668 0.000000
v 0.500000 0.193668 0.853746
v 0.309017 0.193668 0.951057
v -0.309017 0.193668 0.951057
v 0.000000 0.193668 1.000000
v 1.008431 0.193668 1.015404
v 1.008431 0.593668 1.015404
v 0.500000 0.593668 0.853746
v 0.309017 0.593668 0.951057
v -0.309017 0.593668 0.951057
v 0.000000 0.593668 1.000000
v -0.951057 0.593668 0.309017
v -0.853746 0.593668 -0.500000
v -0.951057 0.593668 -0.309017
v -1.000000 0.593668 0.000000
v -1.018890 0.193668 -0.977055
v -1.018890 0.593668 -0.977055
v -0.500000 0.193668 -1.500000
v -0.500000 0.193668 -0.853746
v -0.587785 0.193668 -0.809017
v -0.809017 0.193668 -0.587785
v 1.500000 0.193668 0.500000
v 0.853746 0.193668 0.500000
v 0.809017 0.193668 0.587785
v 0.587785 0.193668 0.809017
v 1.500000 0.593668 0.500000
v 0.853746 0.593668 0.500000
v 0.809017 0.593668 0.587785
v 0.587785 0.593668 0.809017
v -0.809017 0.593668 -0.587785
v -0.500000 0.593668 -1.500000
v -0.500000 0.593668 -0.853746
v -0.587785 0.593668 -0.809017
v 0.500000 0.193668 -0.853746
v 0.309017 0.193668 -0.951057
v 0.500000 0.193668 -1.500000
v -0.309017 0.193668 -0.951057
v 0.000000 0.193668 -1.000000
v 0.853747 0.193668 -0.500000
v 1.500000 0.193668 -0.500000
v 0.951057 0.193668 -0.309017
v 0.951057 0.193668 0.309017
v 1.000000 0.193668 0.000000
v 1.500000 0.593668 -0.500000
v 0.951057 0.593668 0.309017
v 0.853747 0.593668 -0.500000
v 0.951057 0.593668 -0.309017
v 1.000000 0.593668 0.000000
v 0.500000 0.593668 -0.853746
v 0.500000 0.593668 -1.500000
v 0.309017 0.593668 -0.951057
v -0.309017 0.593668 -0.951057
v 0.000000 0.593668 -1.000000
v 1.018056 0.193668 -0.990930
v 0.587786 0.193668 -0.809017
v 0.809018 0.193668 -0.587786
v 1.018056 0.593668 -0.990930
v 0.809018 0.593668 -0.587786
v 0.587786 0.593668 -0.809017
v 0.809018 0.450678 -0.587786
v 0.951057 0.450678 -0.309017
v 0.587786 0.450678 -0.809017
v 1.000000 0.450678 0.000000
v 0.309017 0.450678 -0.951057
v 0.951057 0.450678 0.309017
v 0.000000 0.333333 -1.000000
v 0.809017 0.450678 0.587785
v -0.309017 0.450678 -0.951057
v 0.587785 0.450678 0.809017
v -0.587785 0.450678 -0.809017
v 0.309017 0.450678 0.951057
v -0.809017 0.450678 -0.587785
v 0.000000 0.450678 1.000000
v -0.951057 0.450678 -0.309017
v -0.309017 0.450678 0.951057
v -1.000000 0.450678 0.000000
v -0.587785 0.450678 0.809017
v -0.951057 0.450678 0.309017
v -0.809017 0.450678 0.587785
vt 0.281270 0.611899
vt 0.281270 0.595015
vt 0.326451 0.611899
vt 0.326451 0.558284
vt 0.281270 0.558284
vt 0.281270 0.668273
vt 0.326451 0.668273
vt 0.351588 0.558284
vt 0.351588 0.595015
vt 0.351588 0.611899
vt 0.281270 0.512677
vt 0.326451 0.512677
vt 0.281270 0.721889
vt 0.281270 0.685157
vt 0.326451 0.721889
vt 0.351588 0.668273
vt 0.351588 0.512677
vt 0.421905 0.756339
vt 0.421905 0.703030
vt 0.467086 0.756339
vt 0.467086 0.703030
vt 0.281270 0.767498
vt 0.305823 0.767498
vt 0.351588 0.685157
vt 0.351588 0.721889
vt 0.492223 0.703030
vt 0.492223 0.756339
vt 0.421905 0.664414
vt 0.421905 0.646664
vt 0.467086 0.646664
vt 0.570318 0.722424
vt 0.545765 0.722424
vt 0.570318 0.669114
vt 0.525137 0.669114
vt 0.351588 0.767498
vt 0.492223 0.646664
vt 0.492223 0.664414
vt 0.421905 0.592758
vt 0.467086 0.592758
vt 0.570318 0.612748
vt 0.570318 0.630498
vt 0.525137 0.612748
vt 0.500000 0.669114
vt 0.500000 0.722424
vt 0.492223 0.592758
vt 0.421905 0.578219
vt 0.467086 0.546589
vt 0.421905 0.546589
vt 0.570318 0.558843
vt 0.525137 0.558843
vt 0.500000 0.630498
vt 0.500000 0.612748
vt 0.492223 0.546589
vt 0.492223 0.578219
vt 0.421905 0.512677
vt 0.467086 0.512677
vt 0.570318 0.512677
vt 0.570318 0.544306
vt 0.525137 0.512677
vt 0.500000 0.558843
vt 0.492223 0.512677
vt 0.281270 0.546586
vt 0.236089 0.512677
vt 0.236089 0.546586
vt 0.281270 0.756332
vt 0.281270 0.801369
vt 0.236089 0.756332
vt 0.236089 0.801369
vt 0.500000 0.544306
vt 0.500000 0.512677
vt 0.210953 0.546586
vt 0.210953 0.512677
vt 0.281270 0.578214
vt 0.281270 0.592752
vt 0.236089 0.592752
vt 0.281270 0.703022
vt 0.236089 0.703022
vt 0.210953 0.801369
vt 0.210953 0.756332
vt 0.210953 0.592752
vt 0.210953 0.578214
vt 0.281270 0.646656
vt 0.236089 0.646656
vt 0.281270 0.664406
vt 0.210953 0.703022
vt 0.210953 0.646656
vt 0.210953 0.664406
vt 0.351588 0.638755
vt 0.421905 0.638755
vt 0.421905 0.767498
vt 0.918005 0.302928
vt 1.000000 0.256525
vt 0.998337 0.385267
vt 0.923357 0.286044
vt 0.998337 0.130447
vt 0.918005 0.212786
vt 0.923357 0.229670
vt 0.140635 0.512677
vt 0.140635 0.671806
vt 0.070318 0.512677
vt 0.070318 0.671806
vt 0.001663 0.130447
vt 0.081995 0.212786
vt 0.000000 0.256525
vt 0.076643 0.229670
vt 0.001663 0.385267
vt 0.081995 0.302928
vt 0.076643 0.286044
vt 0.000000 0.671799
vt 0.000000 0.512677
vt 0.793699 0.430338
vt 0.829536 0.418403
vt 0.874032 0.512677
vt 0.906361 0.339660
vt 0.874032 0.385267
vt 0.793700 0.085376
vt 0.874032 0.003037
vt 0.829536 0.097311
vt 0.906361 0.176055
vt 0.874032 0.130447
vt 0.140635 0.793673
vt 0.070318 0.793673
vt 0.206300 0.085376
vt 0.170464 0.097311
vt 0.125968 0.003037
vt 0.093639 0.176055
vt 0.125968 0.130447
vt 0.093639 0.339660
vt 0.206301 0.430338
vt 0.125968 0.512677
vt 0.170464 0.418403
vt 0.125968 0.385267
vt 0.000000 0.788382
vt 0.070318 0.788382
vt 0.625422 0.512677
vt 0.705755 0.430338
vt 0.754927 0.512161
vt 0.722227 0.435824
vt 0.777227 0.435824
vt 0.625422 0.003037
vt 0.750594 0.000000
vt 0.705755 0.085376
vt 0.722227 0.079890
vt 0.777227 0.079890
vt 0.140635 0.915461
vt 0.070318 0.915461
vt 0.249406 0.000000
vt 0.374578 0.003037
vt 0.294245 0.085376
vt 0.277773 0.079890
vt 0.222773 0.079890
vt 0.245073 0.512161
vt 0.222773 0.435824
vt 0.374578 0.512677
vt 0.294245 0.430338
vt 0.277773 0.435824
vt 0.000000 0.915461
vt 0.581450 0.302928
vt 0.593094 0.339659
vt 0.501117 0.385267
vt 0.669918 0.418403
vt 0.625422 0.385267
vt 0.581450 0.212786
vt 0.501117 0.130447
vt 0.593094 0.176055
vt 0.669918 0.097311
vt 0.625422 0.130447
vt 0.140635 0.756332
vt 0.210953 0.915461
vt 0.330082 0.097311
vt 0.418550 0.212786
vt 0.406906 0.176055
vt 0.498883 0.130447
vt 0.374578 0.130447
vt 0.418550 0.302928
vt 0.498883 0.385267
vt 0.406906 0.339660
vt 0.330082 0.418403
vt 0.374578 0.385267
vt 0.070318 1.000000
vt 0.000000 1.000000
vt 0.500000 0.254401
vt 0.576097 0.286044
vt 0.576097 0.229670
vt 0.140635 0.637474
vt 0.210953 0.637474
vt 0.423903 0.229670
vt 0.423903 0.286044
vn -0.809000 0.000000 0.587800
vn -0.891000 -0.000000 0.454000
vn -0.951000 0.000000 0.309000
vn -0.951100 0.000000 0.309000
vn -0.587800 0.000000 0.809000
vn -1.000000 0.000000 0.000000
vn -0.309000 0.000000 0.951100
vn -0.454000 0.000000 0.891000
vn -0.309000 0.000000 0.951000
vn -0.951100 -0.000000 -0.309000
vn -0.951000 0.000000 -0.309000
vn 0.000000 0.000000 1.000000
vn -0.891000 -0.000000 -0.454000
vn -0.809000 0.000000 -0.587800
vn 0.309000 0.000000 0.951100
vn 0.309000 0.000000 0.951000
vn -0.587800 0.000000 -0.809000
vn 0.587800 0.000000 0.809000
vn 0.454000 -0.000000 0.891000
vn -0.454000 -0.000000 -0.891000
vn -0.309000 0.000000 -0.951000
vn -0.309000 0.000000 -0.951100
vn 0.809000 0.000000 0.587800
vn 0.000000 0.000000 -1.000000
vn 0.951100 -0.000000 0.309000
vn 0.891000 -0.000000 0.454000
vn 0.951000 0.000000 0.309000
vn 0.309000 0.000000 -0.951100
vn 0.309000 0.000000 -0.951000
vn 1.000000 0.000000 -0.000000
vn 0.454000 -0.000000 -0.891000
vn 0.587800 0.000000 -0.809000
vn 0.951100 -0.000000 -0.309000
vn 0.951000 0.000000 -0.309000
vn 0.809000 0.000000 -0.587800
vn 0.891000 -0.000000 -0.454000
vn -0.697500 -0.000000 0.716600
vn -0.376400 -0.000000 0.926400
vn -0.926400 -0.000000 0.376600
vn -0.716400 -0.000000 0.697700
vn 0.000000 -1.000000 -0.000000
vn 0.371600 -0.000000 0.928400
vn 0.000000 1.000000 0.000000
vn -0.923100 -0.000000 -0.384600
vn 0.689900 -0.000000 0.723900
vn -0.704100 0.000000 -0.710100
vn 0.723600 -0.000000 0.690200
vn 0.928300 -0.000000 0.371700
vn -0.709900 0.000000 -0.704300
vn -0.384500 0.000000 -0.923100
vn 0.925600 0.000000 -0.378400
vn 0.378600 0.000000 -0.925500
vn 0.713600 0.000000 -0.700500
vn 0.700900 0.000000 -0.713300
usemtl Roomba:blinn1SG
s 1
f 77/1/1 60/2/2 81/3/1
f 81/3/1 60/2/2 82/4/3
f 60/2/2 62/5/4 82/4/3
f 76/6/5 77/1/1 83/7/5
f 83/7/5 77/1/1 81/3/1
f 68/8/4 67/9/2 82/4/3
f 79/10/1 81/3/1 67/9/2
f 82/4/3 67/9/2 81/3/1
f 62/5/4 64/11/6 82/4/3
f 82/4/3 64/11/6 84/12/6
f 56/13/7 55/14/8 85/15/9
f 76/6/5 83/7/5 55/14/8
f 55/14/8 83/7/5 85/15/9
f 79/10/1 80/16/5 81/3/1
f 81/3/1 80/16/5 83/7/5
f 69/17/6 68/8/4 84/12/6
f 84/12/6 68/8/4 82/4/3
f 64/18/6 63/19/10 84/20/6
f 84/20/6 63/19/10 86/21/11
f 59/22/12 56/13/7 87/23/12
f 87/23/12 56/13/7 85/15/9
f 80/16/5 70/24/8 83/7/5
f 83/7/5 70/24/8 85/15/9
f 70/24/8 72/25/7 85/15/9
f 66/26/10 69/27/6 86/21/11
f 86/21/11 69/27/6 84/20/6
f 63/19/10 44/28/13 86/21/11
f 45/29/14 88/30/14 44/28/13
f 44/28/13 88/30/14 86/21/11
f 59/31/12 87/32/12 58/33/15
f 58/33/15 87/32/12 89/34/16
f 72/25/7 74/35/12 85/15/9
f 85/15/9 74/35/12 87/23/12
f 49/36/14 48/37/13 88/30/14
f 88/30/14 48/37/13 86/21/11
f 48/37/13 66/26/10 86/21/11
f 45/29/14 46/38/17 88/30/14
f 88/30/14 46/38/17 90/39/17
f 41/40/18 40/41/19 91/42/18
f 91/42/18 40/41/19 89/34/16
f 40/41/19 58/33/15 89/34/16
f 73/43/15 89/34/16 74/44/12
f 74/44/12 89/34/16 87/32/12
f 50/45/17 49/36/14 90/39/17
f 90/39/17 49/36/14 88/30/14
f 46/38/17 23/46/20 90/39/17
f 90/39/17 23/46/20 92/47/21
f 23/46/20 24/48/22 92/47/21
f 42/49/23 41/40/18 93/50/23
f 93/50/23 41/40/18 91/42/18
f 73/43/15 53/51/19 89/34/16
f 54/52/18 91/42/18 53/51/19
f 89/34/16 53/51/19 91/42/18
f 30/53/22 29/54/20 92/47/21
f 50/45/17 90/39/17 29/54/20
f 92/47/21 29/54/20 90/39/17
f 24/48/22 26/55/24 92/47/21
f 92/47/21 26/55/24 94/56/24
f 20/57/25 19/58/26 95/59/27
f 42/49/23 93/50/23 19/58/26
f 19/58/26 93/50/23 95/59/27
f 54/52/18 51/60/23 91/42/18
f 91/42/18 51/60/23 93/50/23
f 32/61/24 30/53/22 94/56/24
f 94/56/24 30/53/22 92/47/21
f 26/11/24 25/62/28 94/63/24
f 94/63/24 25/62/28 96/64/29
f 22/65/30 20/66/25 97/67/30
f 97/67/30 20/66/25 95/68/27
f 51/60/23 34/69/26 93/50/23
f 93/50/23 34/69/26 95/59/27
f 34/69/26 35/70/25 95/59/27
f 31/71/28 32/72/24 96/64/29
f 96/64/29 32/72/24 94/63/24
f 25/62/28 9/73/31 96/64/29
f 10/74/32 98/75/32 9/73/31
f 9/73/31 98/75/32 96/64/29
f 21/76/33 22/65/30 99/77/34
f 99/77/34 22/65/30 97/67/30
f 35/78/25 36/79/30 95/68/27
f 95/68/27 36/79/30 97/67/30
f 14/80/32 13/81/31 98/75/32
f 98/75/32 13/81/31 96/64/29
f 13/81/31 31/71/28 96/64/29
f 10/74/32 8/82/35 98/75/32
f 98/75/32 8/82/35 100/83/35
f 8/82/35 7/84/36 100/83/35
f 100/83/35 7/84/36 99/77/34
f 7/84/36 21/76/33 99/77/34
f 36/79/30 33/85/33 97/67/30
f 97/67/30 33/85/33 99/77/34
f 16/86/35 14/80/32 100/83/35
f 100/83/35 14/80/32 98/75/32
f 33/85/33 15/87/36 99/77/34
f 16/86/35 100/83/35 15/87/36
f 99/77/34 15/87/36 100/83/35
usemtl initialShadingGroup.001
f 1/88/37 2/17/38 3/89/37
f 3/89/37 2/17/38 4/55/38
f 5/35/39 1/88/40 6/90/39
f 6/90/39 1/88/40 3/89/40
f 7/91/41 1/92/41 5/93/41
f 8/94/41 1/92/41 7/91/41
f 2/95/41 1/92/41 9/96/41
f 9/96/41 1/92/41 10/97/41
f 10/97/41 1/92/41 8/94/41
f 2/98/38 11/99/42 4/100/38
f 4/100/38 11/99/42 12/101/42
f 4/102/43 13/103/43 3/104/43
f 13/103/43 14/105/43 3/104/43
f 6/106/43 3/104/43 15/107/43
f 15/107/43 3/104/43 16/108/43
f 3/104/43 14/105/43 16/108/43
f 17/109/44 5/110/39 18/101/44
f 18/101/44 5/110/39 6/100/39
f 19/111/41 20/112/41 17/113/41
f 7/91/41 5/93/41 21/114/41
f 17/113/41 20/112/41 5/93/41
f 20/112/41 22/115/41 5/93/41
f 22/115/41 21/114/41 5/93/41
f 23/116/41 11/117/41 24/118/41
f 9/96/41 25/119/41 2/95/41
f 11/117/41 2/95/41 24/118/41
f 24/118/41 2/95/41 26/120/41
f 2/95/41 25/119/41 26/120/41
f 11/99/42 27/121/45 12/101/42
f 12/101/42 27/121/45 28/122/45
f 29/123/43 30/124/43 12/125/43
f 13/103/43 4/102/43 31/126/43
f 4/102/43 12/125/43 31/126/43
f 31/126/43 12/125/43 32/127/43
f 12/125/43 30/124/43 32/127/43
f 15/107/43 33/128/43 6/106/43
f 34/129/43 18/130/43 35/131/43
f 6/106/43 33/128/43 18/130/43
f 33/128/43 36/132/43 18/130/43
f 36/132/43 35/131/43 18/130/43
f 37/133/46 17/109/44 38/134/46
f 38/134/46 17/109/44 18/101/44
f 39/135/41 40/136/41 37/137/41
f 40/136/41 41/138/41 37/137/41
f 17/113/41 37/137/41 19/111/41
f 19/111/41 37/137/41 42/139/41
f 37/137/41 41/138/41 42/139/41
f 43/140/41 27/141/41 44/142/41
f 44/142/41 27/141/41 45/143/41
f 11/117/41 23/116/41 27/141/41
f 23/116/41 46/144/41 27/141/41
f 27/141/41 46/144/41 45/143/41
f 27/121/47 43/145/48 28/122/47
f 28/122/47 43/145/48 47/146/48
f 12/125/43 28/147/43 29/123/43
f 47/148/43 48/149/43 28/147/43
f 48/149/43 49/150/43 28/147/43
f 29/123/43 28/147/43 50/151/43
f 28/147/43 49/150/43 50/151/43
f 18/130/43 34/129/43 38/152/43
f 34/129/43 51/153/43 38/152/43
f 52/154/43 38/152/43 53/155/43
f 53/155/43 38/152/43 54/156/43
f 51/153/43 54/156/43 38/152/43
f 38/134/49 52/146/50 37/133/49
f 37/133/49 52/146/50 39/157/50
f 55/158/41 56/159/41 57/160/41
f 40/136/41 39/135/41 58/161/41
f 39/135/41 57/160/41 58/161/41
f 58/161/41 57/160/41 59/162/41
f 57/160/41 56/159/41 59/162/41
f 60/163/41 61/164/41 62/165/41
f 44/142/41 63/166/41 43/140/41
f 61/164/41 43/140/41 62/165/41
f 62/165/41 43/140/41 64/167/41
f 43/140/41 63/166/41 64/167/41
f 43/145/48 61/168/51 47/169/48
f 47/169/48 61/168/51 65/79/51
f 48/149/43 47/148/43 66/170/43
f 67/171/43 68/172/43 65/173/43
f 47/148/43 65/173/43 66/170/43
f 66/170/43 65/173/43 69/174/43
f 65/173/43 68/172/43 69/174/43
f 70/175/43 71/176/43 72/177/43
f 53/155/43 73/178/43 52/154/43
f 71/176/43 52/154/43 72/177/43
f 72/177/43 52/154/43 74/179/43
f 52/154/43 73/178/43 74/179/43
f 52/146/50 71/180/52 39/157/50
f 39/157/50 71/180/52 57/181/52
f 57/160/41 75/182/41 55/158/41
f 55/158/41 75/182/41 76/183/41
f 61/164/41 60/163/41 75/182/41
f 60/163/41 77/184/41 75/182/41
f 75/182/41 77/184/41 76/183/41
f 61/168/51 75/185/53 65/79/51
f 65/79/51 75/185/53 78/186/53
f 65/173/43 78/182/43 67/171/43
f 67/171/43 78/182/43 79/187/43
f 71/176/43 70/175/43 78/182/43
f 70/175/43 80/188/43 78/182/43
f 78/182/43 80/188/43 79/187/43
f 71/72/52 78/186/54 57/98/52
f 57/98/52 78/186/54 75/185/54
