# This file uses centimeters as units for non-parametric coordinates.

mtllib underline.mtl
g default
v 0.041689 0.015051 0.000000
v 9.098206 0.015051 0.000000
v 0.041689 0.247270 0.000000
v 9.098206 0.247270 0.000000
vt 0.000000 0.000000
vt 1.000000 0.000000
vt 0.000000 0.025641
vt 1.000000 0.025641
vn 0.000000 0.000000 1.000000
vn 0.000000 0.000000 1.000000
vn 0.000000 0.000000 1.000000
vn 0.000000 0.000000 1.000000
s 1
g pPlane1
usemtl initialShadingGroup
f 1/1/1 2/2/2 3/3/3
f 3/3/3 2/2/2 4/4/4
g default
v 0.013353 0.012407 0.000000
v 0.206868 0.012407 0.000000
v 0.013353 0.999335 0.000000
v 0.206868 0.999335 0.000000
vt 0.000000 0.000000
vt 0.196078 0.000000
vt 0.000000 1.000000
vt 0.196078 1.000000
vn 0.000000 0.000000 1.000000
vn 0.000000 0.000000 1.000000
vn 0.000000 0.000000 1.000000
vn 0.000000 0.000000 1.000000
s 1
g pPlane2
usemtl initialShadingGroup
f 5/5/5 6/6/6 7/7/7
f 7/7/7 6/6/6 8/8/8
g default
v 0.041689 0.766030 0.000000
v 9.098206 0.766030 0.000000
v 0.041689 0.998249 0.000000
v 9.098206 0.998249 0.000000
vt 0.000000 0.000000
vt 1.000000 0.000000
vt 0.000000 0.025641
vt 1.000000 0.025641
vn 0.000000 0.000000 1.000000
vn 0.000000 0.000000 1.000000
vn 0.000000 0.000000 1.000000
vn 0.000000 0.000000 1.000000
s 1
g pasted__pPlane1 group
usemtl initialShadingGroup
f 9/9/9 10/10/10 11/11/11
f 11/11/11 10/10/10 12/12/12
g default
v 8.904137 0.012407 0.000000
v 9.097652 0.012407 0.000000
v 8.904137 0.999335 0.000000
v 9.097652 0.999335 0.000000
vt 0.000000 0.000000
vt 0.196078 0.000000
vt 0.000000 1.000000
vt 0.196078 1.000000
vn 0.000000 0.000000 1.000000
vn 0.000000 0.000000 1.000000
vn 0.000000 0.000000 1.000000
vn 0.000000 0.000000 1.000000
s 1
g pasted__pPlane2 group1
usemtl initialShadingGroup
f 13/13/13 14/14/14 15/15/15
f 15/15/15 14/14/14 16/16/16
g default
v 0.041689 0.015051 0.000000
v 9.098206 0.015051 0.000000
v 0.041689 0.247270 0.000000
v 9.098206 0.247270 0.000000
vt 0.000000 0.000000
vt 1.000000 0.000000
vt 0.000000 0.025641
vt 1.000000 0.025641
vn 0.000000 0.000000 1.000000
vn 0.000000 0.000000 1.000000
vn 0.000000 0.000000 1.000000
vn 0.000000 0.000000 1.000000
s 1
g pPlane1
f 17/17/17 18/18/18 19/19/19
f 19/19/19 18/18/18 20/20/20
g default
v 0.013353 0.012407 0.000000
v 0.206868 0.012407 0.000000
v 0.013353 0.999335 0.000000
v 0.206868 0.999335 0.000000
vt 0.000000 0.000000
vt 0.196078 0.000000
vt 0.000000 1.000000
vt 0.196078 1.000000
vn 0.000000 0.000000 1.000000
vn 0.000000 0.000000 1.000000
vn 0.000000 0.000000 1.000000
vn 0.000000 0.000000 1.000000
s 1
g pPlane2
f 21/21/21 22/22/22 23/23/23
f 23/23/23 22/22/22 24/24/24
g default
v 0.041689 0.766030 0.000000
v 9.098206 0.766030 0.000000
v 0.041689 0.998249 0.000000
v 9.098206 0.998249 0.000000
vt 0.000000 0.000000
vt 1.000000 0.000000
vt 0.000000 0.025641
vt 1.000000 0.025641
vn 0.000000 0.000000 1.000000
vn 0.000000 0.000000 1.000000
vn 0.000000 0.000000 1.000000
vn 0.000000 0.000000 1.000000
s 1
g pasted__pPlane1 group
f 25/25/25 26/26/26 27/27/27
f 27/27/27 26/26/26 28/28/28
g default
v 8.904137 0.012407 0.000000
v 9.097652 0.012407 0.000000
v 8.904137 0.999335 0.000000
v 9.097652 0.999335 0.000000
vt 0.000000 0.000000
vt 0.196078 0.000000
vt 0.000000 1.000000
vt 0.196078 1.000000
vn 0.000000 0.000000 1.000000
vn 0.000000 0.000000 1.000000
vn 0.000000 0.000000 1.000000
vn 0.000000 0.000000 1.000000
s 1
g pasted__pPlane2 group1
f 29/29/29 30/30/30 31/31/31
f 31/31/31 30/30/30 32/32/32
