# This file uses centimeters as units for non-parametric coordinates.

mtllib letterq.mtl
g default
v 1.250483 0.051237 0.000000
v 1.250483 0.999675 0.000000
v 1.350483 2.298113 0.000000
v 0.050470 1.669987 0.000000
v 0.747362 0.750880 0.000000
v 0.809857 2.551671 0.000000
v 1.350483 2.551237 0.000000
v 1.750483 2.551237 0.000000
v 1.750483 0.051237 0.000000
v 1.250483 1.673112 0.000000
v 0.550481 1.643426 0.000000
v 0.905171 2.251263 0.000000
v 0.889548 1.051017 0.000000
v 0.168601 1.122748 0.000000
v 1.750483 1.122665 0.000000
v 0.706883 1.122398 0.000000
v 1.067959 1.122818 0.000000
v 0.900484 0.769868 0.000000
v 0.900489 1.051336 0.000000
v 1.250483 0.408380 0.000000
v 1.750483 0.408380 0.000000
v 1.325483 0.408380 0.000000
v 1.325483 0.051237 0.000000
v 1.250483 0.765523 0.000000
v 1.750483 0.765523 0.000000
v 1.325483 0.765523 0.000000
v 1.325483 1.122665 0.000000
v 1.250483 0.944094 0.000000
v 1.202575 0.944097 0.000000
v 0.900483 0.944094 0.000000
v 1.325483 0.944094 0.000000
v 1.112983 0.944094 0.000000
v 1.112981 0.867204 0.000000
v 1.112983 1.122665 0.000000
v 0.881721 0.765521 0.000000
v 0.606575 0.765471 0.000000
v 0.475558 0.810351 0.000000
v 0.475483 1.122665 0.000000
v 0.295381 0.944037 0.000000
v 0.475483 0.944094 0.000000
v 0.262900 0.980763 0.000000
v 0.262983 1.122665 0.000000
v 0.059995 1.836951 0.000000
v 1.750483 1.836951 0.000000
v 1.241422 1.836949 0.000000
v 0.561845 1.836953 0.000000
v 1.750483 1.479808 0.000000
v 1.238656 1.479808 0.000000
v 1.325483 1.479808 0.000000
v 1.192442 1.301237 0.000000
v 1.325483 1.301237 0.000000
v 1.113128 1.169216 0.000000
v 1.325483 1.836951 0.000000
v 0.061601 1.479807 0.000000
v 0.558243 1.479812 0.000000
v 0.475483 1.479808 0.000000
v 0.594209 1.301235 0.000000
v 0.475483 1.301237 0.000000
v 0.687585 1.140935 0.000000
v 0.687983 1.122665 0.000000
v 0.475483 1.836951 0.000000
v 0.900495 2.547718 0.000000
v 0.900482 2.251227 0.000000
v 1.750483 2.194094 0.000000
v 1.073020 2.194200 0.000000
v 1.325483 2.194094 0.000000
v 1.199877 2.015523 0.000000
v 1.325483 2.015523 0.000000
v 1.113379 2.157675 0.000000
v 1.112983 2.194094 0.000000
v 1.325533 2.332349 0.000000
v 1.291899 2.372814 0.000000
v 0.900483 2.372665 0.000000
v 1.112983 2.372665 0.000000
v 1.113102 2.500599 0.000000
v 0.175097 2.194025 0.000000
v 0.734790 2.193942 0.000000
v 0.475483 2.194094 0.000000
v 0.604764 2.015522 0.000000
v 0.475483 2.015523 0.000000
v 0.687983 2.194094 0.000000
v 0.687853 2.151232 0.000000
v 0.475483 2.475635 0.000000
vt 0.294118 0.000000
vt 0.294118 0.379375
vt 0.235294 0.898750
vt 1.000000 0.647500
vt 0.590073 0.280000
vt 0.553308 1.000000
vt 0.235294 1.000000
vt 0.000000 1.000000
vt 0.000000 0.000000
vt 0.294118 0.648750
vt 0.705882 0.636876
vt 0.497242 0.880000
vt 0.506433 0.400000
vt 0.930611 0.428571
vt 0.000000 0.428571
vt 0.613743 0.428571
vt 0.401406 0.428571
vt 0.500000 0.287454
vt 0.500000 0.400090
vt 0.294118 0.142857
vt 0.000000 0.142857
vt 0.250000 0.142857
vt 0.250000 0.000000
vt 0.294118 0.285714
vt 0.000000 0.285714
vt 0.250000 0.285714
vt 0.250000 0.428571
vt 0.294118 0.357143
vt 0.322297 0.357143
vt 0.500000 0.357143
vt 0.250000 0.357143
vt 0.375000 0.357143
vt 0.375000 0.326386
vt 0.375000 0.428571
vt 0.511037 0.285714
vt 0.672880 0.285714
vt 0.750000 0.303583
vt 0.750000 0.428571
vt 0.855907 0.357143
vt 0.750000 0.357143
vt 0.875000 0.371838
vt 0.875000 0.428571
vt 0.994404 0.714286
vt 0.000000 0.714286
vt 0.299436 0.714286
vt 0.699191 0.714286
vt 0.000000 0.571429
vt 0.301077 0.571429
vt 0.250000 0.571429
vt 0.328259 0.500000
vt 0.250000 0.500000
vt 0.375000 0.447240
vt 0.250000 0.714286
vt 0.993453 0.571429
vt 0.701339 0.571429
vt 0.750000 0.571429
vt 0.680158 0.500000
vt 0.750000 0.500000
vt 0.625000 0.436032
vt 0.625000 0.428571
vt 0.750000 0.714286
vt 0.500000 0.998538
vt 0.500000 0.879986
vt 0.000000 0.857143
vt 0.398555 0.857143
vt 0.250000 0.857143
vt 0.323887 0.785714
vt 0.250000 0.785714
vt 0.375000 0.842426
vt 0.375000 0.857143
vt 0.250000 0.912429
vt 0.269852 0.928571
vt 0.500000 0.928571
vt 0.375000 0.928571
vt 0.375000 0.979629
vt 0.926765 0.857143
vt 0.597533 0.857143
vt 0.750000 0.857143
vt 0.673953 0.785714
vt 0.750000 0.785714
vt 0.625000 0.857143
vt 0.625000 0.839950
vt 0.750000 0.969759
vn 0.000000 0.000000 -1.000000
vn 0.000000 0.000000 -1.000000
vn 0.000000 0.000000 -1.000000
vn 0.000000 0.000000 -1.000000
vn 0.000000 0.000000 -1.000000
vn 0.000000 0.000000 -1.000000
vn 0.000000 0.000000 -1.000000
vn 0.000000 0.000000 -1.000000
vn 0.000000 0.000000 -1.000000
vn 0.000000 0.000000 -1.000000
vn 0.000000 0.000000 -1.000000
vn 0.000000 0.000000 -1.000000
vn 0.000000 0.000000 -1.000000
vn 0.000000 0.000000 -1.000000
vn 0.000000 0.000000 -1.000000
vn 0.000000 0.000000 -1.000000
vn 0.000000 0.000000 -1.000000
vn 0.000000 0.000000 -1.000000
vn 0.000000 0.000000 -1.000000
vn 0.000000 0.000000 -1.000000
vn 0.000000 0.000000 -1.000000
vn 0.000000 0.000000 -1.000000
vn 0.000000 0.000000 -1.000000
vn 0.000000 0.000000 -1.000000
vn 0.000000 0.000000 -1.000000
vn 0.000000 0.000000 -1.000000
vn 0.000000 0.000000 -1.000000
vn 0.000000 0.000000 -1.000000
vn 0.000000 0.000000 -1.000000
vn 0.000000 0.000000 -1.000000
vn 0.000000 0.000000 -1.000000
vn 0.000000 0.000000 -1.000000
vn 0.000000 0.000000 -1.000000
vn 0.000000 0.000000 -1.000000
vn 0.000000 0.000000 -1.000000
vn 0.000000 0.000000 -1.000000
vn 0.000000 0.000000 -1.000000
vn 0.000000 0.000000 -1.000000
vn 0.000000 0.000000 -1.000000
vn 0.000000 0.000000 -1.000000
vn 0.000000 0.000000 -1.000000
vn 0.000000 0.000000 -1.000000
vn 0.000000 0.000000 -1.000000
vn 0.000000 0.000000 -1.000000
vn 0.000000 0.000000 -1.000000
vn 0.000000 0.000000 -1.000000
vn 0.000000 0.000000 -1.000000
vn 0.000000 0.000000 -1.000000
vn 0.000000 0.000000 -1.000000
vn 0.000000 0.000000 -1.000000
vn 0.000000 0.000000 -1.000000
vn 0.000000 0.000000 -1.000000
vn 0.000000 0.000000 -1.000000
vn 0.000000 0.000000 -1.000000
vn 0.000000 0.000000 -1.000000
vn 0.000000 0.000000 -1.000000
vn 0.000000 0.000000 -1.000000
vn 0.000000 0.000000 -1.000000
vn 0.000000 0.000000 -1.000000
vn 0.000000 0.000000 -1.000000
vn 0.000000 0.000000 -1.000000
vn 0.000000 0.000000 -1.000000
vn 0.000000 0.000000 -1.000000
vn 0.000000 0.000000 -1.000000
vn 0.000000 0.000000 -1.000000
vn 0.000000 0.000000 -1.000000
vn 0.000000 0.000000 -1.000000
vn 0.000000 0.000000 -1.000000
vn 0.000000 0.000000 -1.000000
vn 0.000000 0.000000 -1.000000
vn 0.000000 0.000000 -1.000000
vn 0.000000 0.000000 -1.000000
vn 0.000000 0.000000 -1.000000
vn 0.000000 0.000000 -1.000000
vn 0.000000 0.000000 -1.000000
vn 0.000000 0.000000 -1.000000
vn 0.000000 0.000000 -1.000000
vn 0.000000 0.000000 -1.000000
vn 0.000000 0.000000 -1.000000
vn 0.000000 0.000000 -1.000000
vn 0.000000 0.000000 -1.000000
vn 0.000000 0.000000 -1.000000
vn 0.000000 0.000000 -1.000000
s 1
g Trim_Char_q_3_1 Trim_Text_mnopqrstuvwxyz_1_1
usemtl initialShadingGroup
f 76/76/1 83/83/2 78/78/3
f 41/41/4 14/14/5 42/42/6
f 32/32/7 30/30/8 19/19/9
f 1/1/10 20/20/11 23/23/12
f 9/9/13 23/23/12 22/22/14
f 20/20/11 24/24/15 22/22/14
f 21/21/16 22/22/14 26/26/17
f 27/27/18 15/15/19 25/25/20
f 30/30/8 32/32/7 33/33/21
f 24/24/15 28/28/22 26/26/17
f 2/2/23 27/27/18 31/31/24
f 35/35/25 5/5/26 30/30/8
f 36/36/27 16/16/28 30/30/8
f 37/37/29 39/39/30 40/40/31
f 42/42/6 38/38/32 40/40/31
f 4/4/33 43/43/34 61/61/35
f 49/49/36 48/48/37 10/10/38
f 48/48/37 49/49/36 51/51/39
f 15/15/19 27/27/18 51/51/39
f 34/34/40 17/17/41 52/52/42
f 27/27/18 34/34/40 52/52/42
f 47/47/43 49/49/36 53/53/44
f 54/54/45 56/56/46 58/58/47
f 55/55/48 57/57/49 58/58/47
f 59/59/50 60/60/51 38/38/32
f 59/59/50 16/16/28 60/60/51
f 61/61/35 46/46/52 11/11/53
f 75/75/54 74/74/55 73/73/56
f 69/69/57 65/65/58 70/70/59
f 44/44/60 53/53/44 68/68/61
f 45/45/62 67/67/63 68/68/61
f 69/69/57 70/70/59 66/66/64
f 7/7/65 8/8/66 64/64/67
f 12/12/68 73/73/56 74/74/55
f 66/66/64 70/70/59 74/74/55
f 75/75/54 72/72/69 74/74/55
f 43/43/34 76/76/1 78/78/3
f 78/78/3 81/81/70 82/82/71
f 46/46/52 61/61/35 80/80/72
f 81/81/70 77/77/73 82/82/71
f 6/6/74 73/73/56 81/81/70
f 32/32/7 29/29/75 33/33/21
f 17/17/41 34/34/40 32/32/7
f 32/32/7 19/19/9 17/17/41
f 20/20/11 22/22/14 23/23/12
f 22/22/14 21/21/16 9/9/13
f 24/24/15 26/26/17 22/22/14
f 26/26/17 25/25/20 21/21/16
f 25/25/20 26/26/17 31/31/24
f 31/31/24 27/27/18 25/25/20
f 33/33/21 18/18/76 30/30/8
f 28/28/22 31/31/24 26/26/17
f 29/29/75 32/32/7 34/34/40
f 31/31/24 28/28/22 2/2/23
f 34/34/40 27/27/18 2/2/23
f 34/34/40 2/2/23 29/29/75
f 60/60/51 16/16/28 36/36/27
f 13/13/77 19/19/9 30/30/8
f 30/30/8 18/18/76 35/35/25
f 30/30/8 5/5/26 36/36/27
f 30/30/8 16/16/28 13/13/77
f 36/36/27 37/37/29 40/40/31
f 40/40/31 38/38/32 60/60/51
f 60/60/51 36/36/27 40/40/31
f 40/40/31 39/39/30 41/41/4
f 41/41/4 42/42/6 40/40/31
f 61/61/35 56/56/46 54/54/45
f 61/61/35 54/54/45 4/4/33
f 10/10/38 45/45/62 53/53/44
f 53/53/44 49/49/36 10/10/38
f 51/51/39 50/50/78 48/48/37
f 49/49/36 47/47/43 15/15/19
f 51/51/39 49/49/36 15/15/19
f 50/50/78 51/51/39 27/27/18
f 52/52/42 50/50/78 27/27/18
f 53/53/44 44/44/60 47/47/43
f 58/58/47 38/38/32 42/42/6
f 42/42/6 14/14/5 54/54/45
f 54/54/45 58/58/47 42/42/6
f 58/58/47 56/56/46 55/55/48
f 38/38/32 58/58/47 57/57/49
f 38/38/32 57/57/49 59/59/50
f 11/11/53 55/55/48 56/56/46
f 56/56/46 61/61/35 11/11/53
f 73/73/56 62/62/79 75/75/54
f 66/66/64 64/64/67 44/44/60
f 68/68/61 66/66/64 44/44/60
f 68/68/61 53/53/44 45/45/62
f 66/66/64 68/68/61 67/67/63
f 66/66/64 67/67/63 69/69/57
f 66/66/64 71/71/80 3/3/81
f 64/64/67 66/66/64 3/3/81
f 3/3/81 7/7/65 64/64/67
f 12/12/68 63/63/82 73/73/56
f 74/74/55 70/70/59 65/65/58
f 65/65/58 12/12/68 74/74/55
f 74/74/55 72/72/69 71/71/80
f 71/71/80 66/66/64 74/74/55
f 80/80/72 61/61/35 43/43/34
f 43/43/34 78/78/3 80/80/72
f 79/79/83 80/80/72 78/78/3
f 82/82/71 79/79/83 78/78/3
f 80/80/72 79/79/83 46/46/52
f 73/73/56 63/63/82 77/77/73
f 6/6/74 62/62/79 73/73/56
f 78/78/3 83/83/2 6/6/74
f 81/81/70 78/78/3 6/6/74
f 77/77/73 81/81/70 73/73/56
