# This file uses centimeters as units for non-parametric coordinates.

mtllib letterCapB.mtl
g default
v 0.071909 0.754696 0.000000
v 1.620347 1.984384 0.000000
v 0.614080 0.753857 0.000000
v 2.071955 1.426310 0.000000
v 0.071909 3.154696 0.000000
v 1.015870 3.155630 0.000000
v 1.972604 2.530846 0.000000
v 0.571909 2.154696 0.000000
v 0.571909 2.754696 0.000000
v 1.124414 2.751802 0.000000
v 0.831376 2.755200 0.000000
v 1.471959 2.459404 0.000000
v 0.841924 2.154009 0.000000
v 0.571909 1.154696 0.000000
v 0.571909 1.754696 0.000000
v 1.571907 1.448184 0.000000
v 0.835120 1.754987 0.000000
v 1.707551 1.954521 0.000000
v 0.071909 1.954511 0.000000
v 0.871955 0.754549 0.000000
v 0.871954 1.954511 0.000000
v 0.871954 1.754910 0.000000
v 0.871954 1.154701 0.000000
v 0.871954 1.054593 0.000000
v 0.071909 1.054593 0.000000
v 0.471931 0.754008 0.000000
v 0.471931 1.054593 0.000000
v 0.071909 1.554435 0.000000
v 0.571909 1.554435 0.000000
v 0.471931 1.554435 0.000000
v 0.471931 1.954511 0.000000
v 1.959969 1.054513 0.000000
v 1.271978 0.760419 0.000000
v 1.271977 1.054593 0.000000
v 1.672000 0.818406 0.000000
v 1.671999 1.054593 0.000000
v 1.271977 1.954511 0.000000
v 1.272013 1.742690 0.000000
v 1.271994 1.160561 0.000000
v 2.058697 1.554436 0.000000
v 1.555185 1.554434 0.000000
v 1.671999 1.554435 0.000000
v 1.538422 1.304506 0.000000
v 1.671999 1.304514 0.000000
v 1.471992 1.227021 0.000000
v 1.471988 1.054593 0.000000
v 1.671999 1.954511 0.000000
v 1.271977 1.754473 0.000000
v 1.671999 1.754473 0.000000
v 1.471989 1.671379 0.000000
v 1.471988 1.754473 0.000000
v 1.471988 1.954511 0.000000
v 1.971021 1.754481 0.000000
v 1.872011 1.754473 0.000000
v 1.872011 1.554435 0.000000
v 1.872028 1.858598 0.000000
v 0.871952 3.154978 0.000000
v 0.871954 2.755157 0.000000
v 0.871954 2.154038 0.000000
v 0.071909 2.354588 0.000000
v 0.571909 2.354588 0.000000
v 0.471931 2.354588 0.000000
v 0.071909 2.654669 0.000000
v 0.571909 2.654669 0.000000
v 0.471931 2.654669 0.000000
v 0.471931 3.154696 0.000000
v 1.947325 2.354605 0.000000
v 1.457367 2.354588 0.000000
v 1.272011 2.175600 0.000000
v 1.672001 1.968060 0.000000
v 1.672023 2.010669 0.000000
v 1.671999 2.354588 0.000000
v 1.671999 2.154549 0.000000
v 1.271977 2.154549 0.000000
v 1.471988 2.154549 0.000000
v 1.471988 2.354588 0.000000
v 1.402105 2.254561 0.000000
v 1.471988 2.254569 0.000000
v 1.371983 2.226210 0.000000
v 1.371982 2.154549 0.000000
v 1.841838 2.154453 0.000000
v 1.872071 2.195402 0.000000
v 1.872011 2.354588 0.000000
v 1.271952 3.149025 0.000000
v 1.271975 2.739075 0.000000
v 1.959569 2.654670 0.000000
v 1.412671 2.654665 0.000000
v 1.671999 2.654669 0.000000
v 1.672004 3.053100 0.000000
v 1.839956 2.904705 0.000000
v 1.671999 2.904705 0.000000
v 1.872010 2.860571 0.000000
v 1.872011 2.654669 0.000000
vt 0.000000 0.000173
vt 0.774175 0.512445
vt 0.271070 0.000000
vt 1.000000 0.279958
vt 0.000000 0.999982
vt 0.471953 1.000000
vt 0.950219 0.740093
vt 0.249986 0.583394
vt 0.249986 0.833347
vt 0.526223 0.832147
vt 0.379712 0.833557
vt 0.699960 0.710332
vt 0.384986 0.583108
vt 0.249986 0.166807
vt 0.249986 0.416760
vt 0.749957 0.289071
vt 0.381584 0.416856
vt 0.817773 0.500000
vt 0.000000 0.500000
vt 0.400000 0.000164
vt 0.400000 0.500000
vt 0.400000 0.416850
vt 0.400000 0.166807
vt 0.400000 0.125106
vt 0.000000 0.125106
vt 0.200000 0.000023
vt 0.200000 0.125106
vt 0.000000 0.333333
vt 0.249986 0.333333
vt 0.200000 0.333333
vt 0.200000 0.500000
vt 0.943916 0.125106
vt 0.600000 0.002572
vt 0.600000 0.125106
vt 0.800000 0.026714
vt 0.800000 0.125106
vt 0.600000 0.500000
vt 0.600000 0.411620
vt 0.600000 0.169342
vt 0.993335 0.333333
vt 0.741598 0.333333
vt 0.800000 0.333333
vt 0.733208 0.229219
vt 0.800000 0.229219
vt 0.700000 0.196939
vt 0.700000 0.125106
vt 0.800000 0.500000
vt 0.600000 0.416667
vt 0.800000 0.416667
vt 0.700000 0.382051
vt 0.700000 0.416667
vt 0.700000 0.500000
vt 0.949497 0.416667
vt 0.900000 0.416667
vt 0.900000 0.333333
vt 0.900000 0.460035
vt 0.400000 0.999982
vt 0.400000 0.833540
vt 0.400000 0.583120
vt 0.000000 0.666667
vt 0.249986 0.666667
vt 0.200000 0.666667
vt 0.000000 0.791677
vt 0.249986 0.791677
vt 0.200000 0.791677
vt 0.200000 0.999982
vt 0.937684 0.666667
vt 0.692690 0.666667
vt 0.600000 0.592153
vt 0.800000 0.505642
vt 0.800000 0.523412
vt 0.800000 0.666667
vt 0.800000 0.583333
vt 0.600000 0.583333
vt 0.700000 0.583333
vt 0.700000 0.666667
vt 0.665056 0.625000
vt 0.700000 0.625000
vt 0.650000 0.613186
vt 0.650000 0.583333
vt 0.884855 0.583333
vt 0.900000 0.600369
vt 0.900000 0.666667
vt 0.600000 0.997786
vt 0.600000 0.826842
vt 0.943775 0.791677
vt 0.670346 0.791677
vt 0.800000 0.791677
vt 0.800000 0.957654
vt 0.883973 0.895838
vt 0.800000 0.895838
vt 0.900000 0.877453
vt 0.900000 0.791677
vn 0.000000 0.000000 1.000000
vn 0.000000 0.000000 1.000000
vn 0.000000 0.000000 1.000000
vn 0.000000 0.000000 1.000000
vn 0.000000 0.000000 1.000000
vn 0.000000 0.000000 1.000000
vn 0.000000 0.000000 1.000000
vn 0.000000 0.000000 1.000000
vn 0.000000 0.000000 1.000000
vn 0.000000 0.000000 1.000000
vn 0.000000 0.000000 1.000000
vn 0.000000 0.000000 1.000000
vn 0.000000 0.000000 1.000000
vn 0.000000 0.000000 1.000000
vn 0.000000 0.000000 1.000000
vn 0.000000 0.000000 1.000000
vn 0.000000 0.000000 1.000000
vn 0.000000 0.000000 1.000000
vn 0.000000 0.000000 1.000000
vn 0.000000 0.000000 1.000000
vn 0.000000 0.000000 1.000000
vn 0.000000 0.000000 1.000000
vn 0.000000 0.000000 1.000000
vn 0.000000 0.000000 1.000000
vn 0.000000 0.000000 1.000000
vn 0.000000 0.000000 1.000000
vn 0.000000 0.000000 1.000000
vn 0.000000 0.000000 1.000000
vn 0.000000 0.000000 1.000000
vn 0.000000 0.000000 1.000000
vn 0.000000 0.000000 1.000000
vn 0.000000 0.000000 1.000000
vn 0.000000 0.000000 1.000000
vn 0.000000 0.000000 1.000000
vn 0.000000 0.000000 1.000000
vn 0.000000 0.000000 1.000000
vn 0.000000 0.000000 1.000000
vn 0.000000 0.000000 1.000000
vn 0.000000 0.000000 1.000000
vn 0.000000 0.000000 1.000000
vn 0.000000 0.000000 1.000000
vn 0.000000 0.000000 1.000000
vn 0.000000 0.000000 1.000000
vn 0.000000 0.000000 1.000000
vn 0.000000 0.000000 1.000000
vn 0.000000 0.000000 1.000000
vn 0.000000 0.000000 1.000000
vn 0.000000 0.000000 1.000000
vn 0.000000 0.000000 1.000000
vn 0.000000 0.000000 1.000000
vn 0.000000 0.000000 1.000000
vn 0.000000 0.000000 1.000000
vn 0.000000 0.000000 1.000000
vn 0.000000 0.000000 1.000000
vn 0.000000 0.000000 1.000000
vn 0.000000 0.000000 1.000000
vn 0.000000 0.000000 1.000000
vn 0.000000 0.000000 1.000000
vn 0.000000 0.000000 1.000000
vn 0.000000 0.000000 1.000000
vn 0.000000 0.000000 1.000000
vn 0.000000 0.000000 1.000000
vn 0.000000 0.000000 1.000000
vn 0.000000 0.000000 1.000000
vn 0.000000 0.000000 1.000000
vn 0.000000 0.000000 1.000000
vn 0.000000 0.000000 1.000000
vn 0.000000 0.000000 1.000000
vn 0.000000 0.000000 1.000000
vn 0.000000 0.000000 1.000000
vn 0.000000 0.000000 1.000000
vn 0.000000 0.000000 1.000000
vn 0.000000 0.000000 1.000000
vn 0.000000 0.000000 1.000000
vn 0.000000 0.000000 1.000000
vn 0.000000 0.000000 1.000000
vn 0.000000 0.000000 1.000000
vn 0.000000 0.000000 1.000000
vn 0.000000 0.000000 1.000000
vn 0.000000 0.000000 1.000000
vn 0.000000 0.000000 1.000000
vn 0.000000 0.000000 1.000000
vn 0.000000 0.000000 1.000000
vn 0.000000 0.000000 1.000000
vn 0.000000 0.000000 1.000000
vn 0.000000 0.000000 1.000000
vn 0.000000 0.000000 1.000000
vn 0.000000 0.000000 1.000000
vn 0.000000 0.000000 1.000000
vn 0.000000 0.000000 1.000000
vn 0.000000 0.000000 1.000000
vn 0.000000 0.000000 1.000000
vn 0.000000 0.000000 1.000000
s 1
g Trim_Char_B_1_1 Trim_Text_ABCDEFGHIJKLMN_1_1
usemtl initialShadingGroup
f 90/90/1 89/89/2 91/91/3
f 53/53/4 56/56/5 54/54/6
f 21/21/7 31/31/8 15/15/9
f 20/20/10 24/24/11 27/27/12
f 1/1/13 26/26/14 27/27/12
f 14/14/15 29/29/16 30/30/17
f 25/25/18 27/27/12 30/30/17
f 28/28/19 30/30/17 31/31/8
f 35/35/20 32/32/21 36/36/22
f 33/33/23 34/34/24 24/24/11
f 33/33/23 35/35/20 46/46/25
f 22/22/26 38/38/27 48/48/28
f 23/23/29 24/24/11 34/34/24
f 55/55/30 42/42/31 44/44/32
f 16/16/33 43/43/34 44/44/32
f 45/45/35 46/46/25 36/36/22
f 39/39/36 34/34/24 46/46/25
f 51/51/37 49/49/38 47/47/39
f 41/41/40 42/42/31 49/49/38
f 38/38/27 50/50/41 51/51/37
f 48/48/28 51/51/37 52/52/42
f 53/53/4 54/54/6 55/55/30
f 42/42/31 55/55/30 54/54/6
f 18/18/43 47/47/39 49/49/38
f 65/65/44 64/64/45 9/9/46
f 21/21/7 59/59/47 13/13/48
f 19/19/49 31/31/8 62/62/50
f 62/62/50 61/61/51 64/64/45
f 60/60/52 62/62/50 65/65/44
f 63/63/53 65/65/44 66/66/54
f 82/82/55 67/67/56 83/83/57
f 59/59/47 21/21/7 37/37/58
f 73/73/59 72/72/60 76/76/61
f 70/70/62 2/2/63 47/47/39
f 80/80/64 74/74/65 37/37/58
f 68/68/66 77/77/67 78/78/68
f 79/79/69 80/80/64 75/75/70
f 69/69/71 74/74/65 80/80/64
f 18/18/43 70/70/62 47/47/39
f 72/72/60 73/73/59 81/81/72
f 10/10/73 85/85/74 84/84/75
f 7/7/76 86/86/77 93/93/78
f 88/88/79 87/87/80 12/12/81
f 89/89/2 84/84/75 85/85/74
f 86/86/77 92/92/82 93/93/78
f 90/90/1 91/91/3 88/88/79
f 81/81/72 73/73/59 71/71/83
f 30/30/17 29/29/16 15/15/9
f 17/17/84 22/22/26 21/21/7
f 21/21/7 15/15/9 17/17/84
f 15/15/9 31/31/8 30/30/17
f 27/27/12 26/26/14 3/3/85
f 3/3/85 20/20/10 27/27/12
f 27/27/12 25/25/18 1/1/13
f 24/24/11 23/23/29 14/14/15
f 27/27/12 24/24/11 14/14/15
f 30/30/17 27/27/12 14/14/15
f 30/30/17 28/28/19 25/25/18
f 31/31/8 19/19/49 28/28/19
f 24/24/11 20/20/10 33/33/23
f 46/46/25 34/34/24 33/33/23
f 46/46/25 35/35/20 36/36/22
f 37/37/58 21/21/7 22/22/26
f 22/22/26 48/48/28 37/37/58
f 34/34/24 39/39/36 23/23/29
f 44/44/32 36/36/22 32/32/21
f 44/44/32 4/4/86 55/55/30
f 40/40/87 55/55/30 4/4/86
f 32/32/21 4/4/86 44/44/32
f 42/42/31 41/41/40 16/16/33
f 16/16/33 44/44/32 42/42/31
f 36/36/22 44/44/32 43/43/34
f 43/43/34 45/45/35 36/36/22
f 46/46/25 45/45/35 39/39/36
f 47/47/39 52/52/42 51/51/37
f 49/49/38 51/51/37 50/50/41
f 50/50/41 41/41/40 49/49/38
f 51/51/37 48/48/28 38/38/27
f 52/52/42 37/37/58 48/48/28
f 55/55/30 40/40/87 53/53/4
f 54/54/6 49/49/38 42/42/31
f 49/49/38 54/54/6 56/56/5
f 49/49/38 56/56/5 18/18/43
f 11/11/88 58/58/89 57/57/90
f 9/9/46 66/66/54 65/65/44
f 57/57/90 66/66/54 9/9/46
f 57/57/90 9/9/46 11/11/88
f 8/8/91 61/61/51 62/62/50
f 8/8/91 31/31/8 21/21/7
f 13/13/48 8/8/91 21/21/7
f 62/62/50 31/31/8 8/8/91
f 62/62/50 60/60/52 19/19/49
f 64/64/45 65/65/44 62/62/50
f 65/65/44 63/63/53 60/60/52
f 66/66/54 5/5/92 63/63/53
f 74/74/65 69/69/71 59/59/47
f 37/37/58 74/74/65 59/59/47
f 78/78/68 75/75/70 73/73/59
f 73/73/59 76/76/61 78/78/68
f 71/71/83 73/73/59 75/75/70
f 52/52/42 47/47/39 2/2/63
f 75/75/70 52/52/42 2/2/63
f 75/75/70 2/2/63 71/71/83
f 37/37/58 52/52/42 75/75/70
f 37/37/58 75/75/70 80/80/64
f 78/78/68 76/76/61 68/68/66
f 75/75/70 78/78/68 77/77/67
f 77/77/67 79/79/69 75/75/70
f 80/80/64 79/79/69 69/69/71
f 82/82/55 83/83/57 72/72/60
f 81/81/72 82/82/55 72/72/60
f 84/84/75 6/6/93 58/58/89
f 58/58/89 6/6/93 57/57/90
f 84/84/75 58/58/89 10/10/73
f 72/72/60 83/83/57 93/93/78
f 93/93/78 83/83/57 67/67/56
f 93/93/78 67/67/56 7/7/76
f 93/93/78 88/88/79 72/72/60
f 12/12/81 68/68/66 76/76/61
f 12/12/81 76/76/61 72/72/60
f 72/72/60 88/88/79 12/12/81
f 87/87/80 88/88/79 91/91/3
f 85/85/74 87/87/80 91/91/3
f 91/91/3 89/89/2 85/85/74
f 88/88/79 93/93/78 92/92/82
f 88/88/79 92/92/82 90/90/1
