# This file uses centimeters as units for non-parametric coordinates.

mtllib lettert.mtl
g default
v 0.763927 2.551237 0.000000
v 0.763927 3.151237 0.000000
v 0.263927 2.851237 0.000000
v 0.263927 2.551237 0.000000
v 0.063928 2.551237 0.000000
v 0.063928 2.251237 0.000000
v 0.263927 2.251237 0.000000
v 1.063928 0.805925 0.000000
v 0.264011 1.438375 0.000000
v 0.714968 0.751457 0.000000
v 1.013928 1.093425 0.000000
v 0.763927 2.251237 0.000000
v 0.771763 1.146866 0.000000
v 0.867182 1.051133 0.000000
v 0.763711 1.464788 0.000000
v 1.063928 2.251237 0.000000
v 1.063928 2.551237 0.000000
v 0.263927 1.951066 0.000000
v 0.763930 1.951066 0.000000
v 0.264725 1.350987 0.000000
v 0.763952 1.350980 0.000000
v 0.308605 0.975894 0.000000
v 1.034337 0.976074 0.000000
v 0.563941 0.768456 0.000000
v 0.563928 0.976074 0.000000
v 0.381481 0.863624 0.000000
v 0.563928 0.863485 0.000000
v 0.313576 0.963818 0.000000
v 0.313928 0.976074 0.000000
v 0.563928 1.350981 0.000000
v 0.769061 1.163594 0.000000
v 0.563928 1.163527 0.000000
v 0.813928 0.976074 0.000000
v 0.813461 1.068011 0.000000
v 0.263823 1.651024 0.000000
v 0.763881 1.651024 0.000000
v 0.563928 1.651024 0.000000
v 0.563928 1.951066 0.000000
v 0.063928 2.457476 0.000000
v 1.063928 2.457476 0.000000
v 0.263927 2.176194 0.000000
v 0.763930 2.176194 0.000000
v 0.563928 2.176194 0.000000
v 0.563928 2.457476 0.000000
v 0.763927 2.752797 0.000000
v 0.263927 2.752797 0.000000
v 0.563928 2.752797 0.000000
v 0.563928 3.031237 0.000000
vt 0.700000 0.750036
vt 0.700000 1.000000
vt 0.200000 0.875018
vt 0.200000 0.750036
vt 0.000000 0.750036
vt 0.000000 0.625053
vt 0.200000 0.625053
vt 1.000000 0.022926
vt 0.199922 0.286409
vt 0.651035 0.000000
vt 0.950001 0.142700
vt 0.700000 0.625053
vt 0.706881 0.164888
vt 0.803254 0.125081
vt 0.699763 0.297413
vt 1.000000 0.625053
vt 1.000000 0.750036
vt 0.200000 0.500000
vt 0.700000 0.500000
vt 0.200315 0.250000
vt 0.700145 0.250000
vt 0.245136 0.093811
vt 0.970409 0.093811
vt 0.500000 0.007294
vt 0.500000 0.093811
vt 0.317417 0.046905
vt 0.500000 0.046905
vt 0.250000 0.088768
vt 0.250000 0.093811
vt 0.500000 0.250000
vt 0.704633 0.171905
vt 0.500000 0.171905
vt 0.750000 0.093811
vt 0.750000 0.132380
vt 0.200000 0.375000
vt 0.700000 0.375000
vt 0.500000 0.375000
vt 0.500000 0.500000
vt 0.000000 0.710974
vt 1.000000 0.710974
vt 0.200000 0.593790
vt 0.700000 0.593790
vt 0.500000 0.593790
vt 0.500000 0.710974
vt 0.700000 0.834007
vt 0.200000 0.834007
vt 0.500000 0.834007
vt 0.500000 0.950007
vn 0.000000 0.000000 1.000000
vn 0.000000 0.000000 1.000000
vn 0.000000 0.000000 1.000000
vn 0.000000 0.000000 1.000000
vn 0.000000 0.000000 1.000000
vn 0.000000 0.000000 1.000000
vn 0.000000 0.000000 1.000000
vn 0.000000 0.000000 1.000000
vn 0.000000 0.000000 1.000000
vn 0.000000 0.000000 1.000000
vn 0.000000 0.000000 1.000000
vn 0.000000 0.000000 1.000000
vn 0.000000 0.000000 1.000000
vn 0.000000 0.000000 1.000000
vn 0.000000 0.000000 1.000000
vn 0.000000 0.000000 1.000000
vn 0.000000 0.000000 1.000000
vn 0.000000 0.000000 1.000000
vn 0.000000 0.000000 1.000000
vn 0.000000 0.000000 1.000000
vn 0.000000 0.000000 1.000000
vn 0.000000 0.000000 1.000000
vn 0.000000 0.000000 1.000000
vn 0.000000 0.000000 1.000000
vn 0.000000 0.000000 1.000000
vn 0.000000 0.000000 1.000000
vn 0.000000 0.000000 1.000000
vn 0.000000 0.000000 1.000000
vn 0.000000 0.000000 1.000000
vn 0.000000 0.000000 1.000000
vn 0.000000 0.000000 1.000000
vn 0.000000 0.000000 1.000000
vn 0.000000 0.000000 1.000000
vn 0.000000 0.000000 1.000000
vn 0.000000 0.000000 1.000000
vn 0.000000 0.000000 1.000000
vn 0.000000 0.000000 1.000000
vn 0.000000 0.000000 1.000000
vn 0.000000 0.000000 1.000000
vn 0.000000 0.000000 1.000000
vn 0.000000 0.000000 1.000000
vn 0.000000 0.000000 1.000000
vn 0.000000 0.000000 1.000000
vn 0.000000 0.000000 1.000000
vn 0.000000 0.000000 1.000000
vn 0.000000 0.000000 1.000000
vn 0.000000 0.000000 1.000000
vn 0.000000 0.000000 1.000000
s 1
g Trim_Char_t_3_1 Trim_Text_mnopqrstuvwxyz_1_1
usemtl initialShadingGroup
f 45/45/1 2/2/2 48/48/3
f 37/37/4 36/36/5 19/19/6
f 21/21/7 30/30/8 32/32/9
f 24/24/10 10/10/11 33/33/12
f 26/26/13 27/27/14 25/25/15
f 26/26/13 24/24/10 27/27/14
f 22/22/16 28/28/17 29/29/18
f 20/20/19 22/22/16 29/29/18
f 23/23/20 11/11/21 14/14/22
f 25/25/15 33/33/12 34/34/23
f 15/15/24 36/36/5 37/37/4
f 9/9/25 20/20/19 30/30/8
f 35/35/26 37/37/4 38/38/27
f 12/12/28 16/16/29 40/40/30
f 38/38/27 19/19/6 42/42/31
f 18/18/32 38/38/27 43/43/33
f 7/7/34 41/41/35 43/43/33
f 40/40/30 17/17/36 1/1/37
f 4/4/38 7/7/34 44/44/39
f 3/3/40 46/46/41 47/47/42
f 48/48/3 47/47/42 45/45/1
f 19/19/6 38/38/27 37/37/4
f 32/32/9 31/31/43 21/21/7
f 10/10/11 8/8/44 23/23/20
f 33/33/12 25/25/15 27/27/14
f 27/27/14 24/24/10 33/33/12
f 23/23/20 33/33/12 10/10/11
f 25/25/15 29/29/18 28/28/17
f 28/28/17 26/26/13 25/25/15
f 32/32/9 30/30/8 20/20/19
f 29/29/18 25/25/15 20/20/19
f 20/20/19 25/25/15 32/32/9
f 14/14/22 34/34/23 33/33/12
f 33/33/12 23/23/20 14/14/22
f 13/13/45 31/31/43 32/32/9
f 34/34/23 13/13/45 25/25/15
f 32/32/9 25/25/15 13/13/45
f 30/30/8 21/21/7 15/15/24
f 15/15/24 37/37/4 30/30/8
f 30/30/8 37/37/4 35/35/26
f 30/30/8 35/35/26 9/9/25
f 38/38/27 18/18/32 35/35/26
f 43/43/33 42/42/31 12/12/28
f 44/44/39 43/43/33 12/12/28
f 12/12/28 1/1/37 44/44/39
f 42/42/31 43/43/33 38/38/27
f 43/43/33 41/41/35 18/18/32
f 39/39/46 6/6/47 7/7/34
f 43/43/33 44/44/39 7/7/34
f 7/7/34 4/4/38 39/39/46
f 1/1/37 45/45/1 47/47/42
f 1/1/37 47/47/42 44/44/39
f 1/1/37 12/12/28 40/40/30
f 4/4/38 5/5/48 39/39/46
f 47/47/42 46/46/41 4/4/38
f 4/4/38 44/44/39 47/47/42
f 47/47/42 48/48/3 3/3/40
