# This file uses centimeters as units for non-parametric coordinates.

mtllib letterCapE.mtl
g default
v 1.886988 0.754696 0.000000
v 1.886988 1.154696 0.000000
v 0.586988 1.154696 0.000000
v 0.586988 1.854696 0.000000
v 1.786988 1.854696 0.000000
v 1.786988 2.254696 0.000000
v 0.586988 2.254696 0.000000
v 0.586988 2.754696 0.000000
v 1.886988 2.754696 0.000000
v 1.886988 3.154696 0.000000
v 0.086988 3.154696 0.000000
v 0.086988 0.754696 0.000000
v 0.586988 1.783268 0.000000
v 0.086988 1.783268 0.000000
v 0.986988 1.154696 0.000000
v 0.986988 0.754696 0.000000
v 0.086988 1.097553 0.000000
v 0.986988 1.097553 0.000000
v 0.536988 0.754696 0.000000
v 0.536988 1.097553 0.000000
v 0.586988 1.440411 0.000000
v 0.086988 1.440411 0.000000
v 0.536988 1.440411 0.000000
v 0.536988 1.783268 0.000000
v 1.886988 1.097553 0.000000
v 1.436988 1.097553 0.000000
v 1.436988 0.754696 0.000000
v 1.436988 1.154696 0.000000
v 0.586988 2.468982 0.000000
v 0.086988 2.468982 0.000000
v 0.986988 1.854696 0.000000
v 0.986988 2.254696 0.000000
v 0.986988 2.126125 0.000000
v 0.086988 2.126125 0.000000
v 0.536988 2.126125 0.000000
v 0.536988 2.468982 0.000000
v 1.786988 2.126125 0.000000
v 1.436988 1.854696 0.000000
v 1.436988 2.126125 0.000000
v 1.436988 2.254696 0.000000
v 0.986988 2.754696 0.000000
v 0.986988 3.154696 0.000000
v 0.986988 2.811839 0.000000
v 0.086988 2.811839 0.000000
v 0.536988 2.811839 0.000000
v 0.536988 3.154696 0.000000
v 1.886988 2.811839 0.000000
v 1.436988 2.754696 0.000000
v 1.436988 2.811839 0.000000
v 1.436988 3.154696 0.000000
vt 1.000000 0.000000
vt 1.000000 0.166667
vt 0.277778 0.166667
vt 0.277778 0.458333
vt 0.944444 0.458333
vt 0.944444 0.625000
vt 0.277778 0.625000
vt 0.277778 0.833333
vt 1.000000 0.833333
vt 1.000000 1.000000
vt 0.000000 1.000000
vt 0.000000 0.000000
vt 0.277778 0.428571
vt 0.000000 0.428571
vt 0.500000 0.166667
vt 0.500000 0.000000
vt 0.000000 0.142857
vt 0.500000 0.142857
vt 0.250000 0.000000
vt 0.250000 0.142857
vt 0.277778 0.285714
vt 0.000000 0.285714
vt 0.250000 0.285714
vt 0.250000 0.428571
vt 1.000000 0.142857
vt 0.750000 0.142857
vt 0.750000 0.000000
vt 0.750000 0.166667
vt 0.277778 0.714286
vt 0.000000 0.714286
vt 0.500000 0.458333
vt 0.500000 0.625000
vt 0.500000 0.571429
vt 0.000000 0.571429
vt 0.250000 0.571429
vt 0.250000 0.714286
vt 0.944444 0.571429
vt 0.750000 0.458333
vt 0.750000 0.571429
vt 0.750000 0.625000
vt 0.500000 0.833333
vt 0.500000 1.000000
vt 0.500000 0.857143
vt 0.000000 0.857143
vt 0.250000 0.857143
vt 0.250000 1.000000
vt 1.000000 0.857143
vt 0.750000 0.833333
vt 0.750000 0.857143
vt 0.750000 1.000000
vn 0.000000 0.000000 1.000000
vn 0.000000 0.000000 1.000000
vn 0.000000 0.000000 1.000000
vn 0.000000 0.000000 1.000000
vn 0.000000 0.000000 1.000000
vn 0.000000 0.000000 1.000000
vn 0.000000 0.000000 1.000000
vn 0.000000 0.000000 1.000000
vn 0.000000 0.000000 1.000000
vn 0.000000 0.000000 1.000000
vn 0.000000 0.000000 1.000000
vn 0.000000 0.000000 1.000000
vn 0.000000 0.000000 1.000000
vn 0.000000 0.000000 1.000000
vn 0.000000 0.000000 1.000000
vn 0.000000 0.000000 1.000000
vn 0.000000 0.000000 1.000000
vn 0.000000 0.000000 1.000000
vn 0.000000 0.000000 1.000000
vn 0.000000 0.000000 1.000000
vn 0.000000 0.000000 1.000000
vn 0.000000 0.000000 1.000000
vn 0.000000 0.000000 1.000000
vn 0.000000 0.000000 1.000000
vn 0.000000 0.000000 1.000000
vn 0.000000 0.000000 1.000000
vn 0.000000 0.000000 1.000000
vn 0.000000 0.000000 1.000000
vn 0.000000 0.000000 1.000000
vn 0.000000 0.000000 1.000000
vn 0.000000 0.000000 1.000000
vn 0.000000 0.000000 1.000000
vn 0.000000 0.000000 1.000000
vn 0.000000 0.000000 1.000000
vn 0.000000 0.000000 1.000000
vn 0.000000 0.000000 1.000000
vn 0.000000 0.000000 1.000000
vn 0.000000 0.000000 1.000000
vn 0.000000 0.000000 1.000000
vn 0.000000 0.000000 1.000000
vn 0.000000 0.000000 1.000000
vn 0.000000 0.000000 1.000000
vn 0.000000 0.000000 1.000000
vn 0.000000 0.000000 1.000000
vn 0.000000 0.000000 1.000000
vn 0.000000 0.000000 1.000000
vn 0.000000 0.000000 1.000000
vn 0.000000 0.000000 1.000000
vn 0.000000 0.000000 1.000000
vn 0.000000 0.000000 1.000000
s 1
g Trim_Char_E_1_1 Trim_Text_ABCDEFGHIJKLMN_1_1
usemtl initialShadingGroup
f 47/47/1 10/10/2 49/49/3
f 25/25/4 2/2/5 26/26/6
f 21/21/7 13/13/8 23/23/9
f 19/19/10 16/16/11 18/18/12
f 12/12/13 19/19/10 20/20/14
f 3/3/15 23/23/9 20/20/14
f 17/17/16 20/20/14 23/23/9
f 22/22/17 23/23/9 24/24/18
f 1/1/19 25/25/4 27/27/20
f 16/16/11 27/27/20 26/26/6
f 18/18/12 26/26/6 28/28/21
f 37/37/22 6/6/23 39/39/24
f 7/7/25 36/36/26 35/35/27
f 4/4/28 31/31/29 33/33/30
f 14/14/31 24/24/18 35/35/27
f 34/34/32 35/35/27 36/36/26
f 38/38/33 5/5/34 37/37/22
f 31/31/29 38/38/33 39/39/24
f 33/33/30 39/39/24 40/40/35
f 43/43/36 42/42/37 45/45/38
f 8/8/39 41/41/40 43/43/36
f 30/30/41 36/36/26 45/45/38
f 44/44/42 45/45/38 46/46/43
f 48/48/44 9/9/45 47/47/1
f 41/41/40 48/48/44 49/49/3
f 43/43/36 49/49/3 50/50/46
f 10/10/2 50/50/46 49/49/3
f 2/2/5 28/28/21 26/26/6
f 13/13/8 24/24/18 23/23/9
f 18/18/12 20/20/14 19/19/10
f 20/20/14 17/17/16 12/12/13
f 3/3/15 21/21/7 23/23/9
f 18/18/12 15/15/47 3/3/15
f 3/3/15 20/20/14 18/18/12
f 23/23/9 22/22/17 17/17/16
f 24/24/18 14/14/31 22/22/17
f 25/25/4 26/26/6 27/27/20
f 26/26/6 18/18/12 16/16/11
f 28/28/21 15/15/47 18/18/12
f 6/6/23 40/40/35 39/39/24
f 7/7/25 29/29/48 36/36/26
f 33/33/30 32/32/49 7/7/25
f 7/7/25 35/35/27 33/33/30
f 24/24/18 13/13/8 4/4/28
f 35/35/27 24/24/18 4/4/28
f 33/33/30 35/35/27 4/4/28
f 35/35/27 34/34/32 14/14/31
f 36/36/26 30/30/41 34/34/32
f 37/37/22 39/39/24 38/38/33
f 39/39/24 33/33/30 31/31/29
f 40/40/35 32/32/49 33/33/30
f 42/42/37 46/46/43 45/45/38
f 36/36/26 29/29/48 8/8/39
f 45/45/38 36/36/26 8/8/39
f 43/43/36 45/45/38 8/8/39
f 45/45/38 44/44/42 30/30/41
f 46/46/43 11/11/50 44/44/42
f 47/47/1 49/49/3 48/48/44
f 49/49/3 43/43/36 41/41/40
f 50/50/46 42/42/37 43/43/36
