# This file uses centimeters as units for non-parametric coordinates.

mtllib lettern.mtl
g default
v 0.462390 2.299675 0.000000
v 0.462390 2.551237 0.000000
v 0.062390 2.551237 0.000000
v 0.062390 0.751237 0.000000
v 0.562390 0.751237 0.000000
v 1.162390 0.751237 0.000000
v 0.561920 1.487908 0.000000
v 0.903778 2.251248 0.000000
v 1.162843 1.380995 0.000000
v 1.662390 0.751237 0.000000
v 1.662640 1.740617 0.000000
v 1.053813 2.552019 0.000000
v 0.062390 1.651610 0.000000
v 0.562801 1.651611 0.000000
v 1.162634 1.651610 0.000000
v 1.662583 1.651610 0.000000
v 0.062390 1.051361 0.000000
v 0.562390 1.051361 0.000000
v 0.382448 0.751237 0.000000
v 0.382448 1.051361 0.000000
v 0.062390 1.351485 0.000000
v 0.562078 1.351485 0.000000
v 0.382448 1.351485 0.000000
v 0.382448 1.651610 0.000000
v 1.162601 1.051361 0.000000
v 1.662390 1.051361 0.000000
v 1.342623 0.751237 0.000000
v 1.342623 1.051361 0.000000
v 1.162841 1.351485 0.000000
v 1.662390 1.351485 0.000000
v 1.342623 1.351485 0.000000
v 1.342623 1.651610 0.000000
v 0.702510 2.174870 0.000000
v 0.702557 2.476498 0.000000
v 0.062390 1.951734 0.000000
v 0.583914 1.951703 0.000000
v 0.382448 1.951734 0.000000
v 0.462390 2.326433 0.000000
v 0.062390 2.326433 0.000000
v 0.702507 2.326433 0.000000
v 0.488571 2.326419 0.000000
v 0.382448 2.326433 0.000000
v 0.382448 2.551237 0.000000
v 1.154217 1.951750 0.000000
v 1.660304 1.951733 0.000000
v 1.342623 1.951734 0.000000
v 1.022650 2.221198 0.000000
v 1.022559 2.551589 0.000000
v 1.022565 2.326433 0.000000
v 1.563083 2.326486 0.000000
v 1.342623 2.326433 0.000000
v 1.104000 2.138927 0.000000
v 1.342623 2.139084 0.000000
v 1.182594 1.951734 0.000000
v 1.182594 2.139084 0.000000
v 1.182594 2.326433 0.000000
v 1.640134 2.139073 0.000000
v 1.502652 1.951734 0.000000
v 1.502652 2.139084 0.000000
v 1.502652 2.326433 0.000000
v 1.342650 2.497429 0.000000
vt 0.249954 0.859887
vt 0.249954 0.999586
vt 0.000000 0.999586
vt 0.000000 0.000000
vt 0.312443 0.000000
vt 0.687375 0.000000
vt 0.312081 0.409092
vt 0.525772 0.832996
vt 0.687658 0.349721
vt 0.999818 0.000000
vt 1.000000 0.549428
vt 0.619527 1.000000
vt 0.000000 0.500000
vt 0.312741 0.500000
vt 0.687455 0.500000
vt 0.999938 0.500000
vt 0.000000 0.166667
vt 0.312443 0.166667
vt 0.200000 0.000000
vt 0.200000 0.166667
vt 0.000000 0.333333
vt 0.312285 0.333333
vt 0.200000 0.333333
vt 0.200000 0.500000
vt 0.687507 0.166667
vt 0.999818 0.166667
vt 0.800000 0.000000
vt 0.800000 0.166667
vt 0.687656 0.333333
vt 0.999818 0.333333
vt 0.800000 0.333333
vt 0.800000 0.500000
vt 0.400000 0.790582
vt 0.400000 0.958140
vt 0.000000 0.666667
vt 0.325783 0.666667
vt 0.200000 0.666667
vt 0.249954 0.874747
vt 0.000000 0.874747
vt 0.400000 0.874747
vt 0.266305 0.874747
vt 0.200000 0.874747
vt 0.200000 0.999586
vt 0.682145 0.666667
vt 0.998533 0.666667
vt 0.800000 0.666667
vt 0.600000 0.816225
vt 0.600000 0.999676
vt 0.600000 0.874747
vt 0.937715 0.874747
vt 0.800000 0.874747
vt 0.651052 0.770707
vt 0.800000 0.770707
vt 0.700000 0.666667
vt 0.700000 0.770707
vt 0.700000 0.874747
vt 0.985943 0.770707
vt 0.900000 0.666667
vt 0.900000 0.770707
vt 0.900000 0.874747
vt 0.800000 0.969668
vn 0.000000 0.000000 1.000000
vn 0.000000 0.000000 1.000000
vn 0.000000 0.000000 1.000000
vn 0.000000 0.000000 1.000000
vn 0.000000 0.000000 1.000000
vn 0.000000 0.000000 1.000000
vn 0.000000 0.000000 1.000000
vn 0.000000 0.000000 1.000000
vn 0.000000 0.000000 1.000000
vn 0.000000 0.000000 1.000000
vn 0.000000 0.000000 1.000000
vn 0.000000 0.000000 1.000000
vn 0.000000 0.000000 1.000000
vn 0.000000 0.000000 1.000000
vn 0.000000 0.000000 1.000000
vn 0.000000 0.000000 1.000000
vn 0.000000 0.000000 1.000000
vn 0.000000 0.000000 1.000000
vn 0.000000 0.000000 1.000000
vn 0.000000 0.000000 1.000000
vn 0.000000 0.000000 1.000000
vn 0.000000 0.000000 1.000000
vn 0.000000 0.000000 1.000000
vn 0.000000 0.000000 1.000000
vn 0.000000 0.000000 1.000000
vn 0.000000 0.000000 1.000000
vn 0.000000 0.000000 1.000000
vn 0.000000 0.000000 1.000000
vn 0.000000 0.000000 1.000000
vn 0.000000 0.000000 1.000000
vn 0.000000 0.000000 1.000000
vn 0.000000 0.000000 1.000000
vn 0.000000 0.000000 1.000000
vn 0.000000 0.000000 1.000000
vn 0.000000 0.000000 1.000000
vn 0.000000 0.000000 1.000000
vn 0.000000 0.000000 1.000000
vn 0.000000 0.000000 1.000000
vn 0.000000 0.000000 1.000000
vn 0.000000 0.000000 1.000000
vn 0.000000 0.000000 1.000000
vn 0.000000 0.000000 1.000000
vn 0.000000 0.000000 1.000000
vn 0.000000 0.000000 1.000000
vn 0.000000 0.000000 1.000000
vn 0.000000 0.000000 1.000000
vn 0.000000 0.000000 1.000000
vn 0.000000 0.000000 1.000000
vn 0.000000 0.000000 1.000000
vn 0.000000 0.000000 1.000000
vn 0.000000 0.000000 1.000000
vn 0.000000 0.000000 1.000000
vn 0.000000 0.000000 1.000000
vn 0.000000 0.000000 1.000000
vn 0.000000 0.000000 1.000000
vn 0.000000 0.000000 1.000000
vn 0.000000 0.000000 1.000000
vn 0.000000 0.000000 1.000000
vn 0.000000 0.000000 1.000000
vn 0.000000 0.000000 1.000000
vn 0.000000 0.000000 1.000000
s 1
g Trim_Char_n_3_1 Trim_Text_mnopqrstuvwxyz_1_1
usemtl initialShadingGroup
f 61/61/1 51/51/2 60/60/3
f 32/32/4 31/31/5 30/30/6
f 7/7/7 14/14/8 24/24/9
f 19/19/10 5/5/11 18/18/12
f 4/4/13 19/19/10 20/20/14
f 20/20/14 18/18/12 22/22/15
f 17/17/16 20/20/14 23/23/17
f 21/21/18 23/23/17 24/24/9
f 27/27/19 10/10/20 26/26/21
f 25/25/22 6/6/23 27/27/19
f 28/28/24 26/26/21 30/30/6
f 29/29/25 25/25/22 28/28/24
f 32/32/4 15/15/26 9/9/27
f 38/38/28 2/2/29 42/42/30
f 14/14/8 36/36/31 37/37/32
f 13/13/33 24/24/9 37/37/32
f 1/1/34 38/38/28 42/42/30
f 35/35/35 37/37/32 42/42/30
f 39/39/36 42/42/30 43/43/37
f 32/32/4 16/16/38 11/11/39
f 15/15/26 32/32/4 46/46/40
f 49/49/41 48/48/42 34/34/43
f 8/8/44 47/47/45 49/49/41
f 50/50/46 60/60/3 59/59/47
f 55/55/48 53/53/49 51/51/2
f 54/54/50 46/46/40 53/53/49
f 44/44/51 54/54/50 55/55/48
f 52/52/52 55/55/48 56/56/53
f 58/58/54 45/45/55 57/57/56
f 46/46/40 58/58/54 59/59/47
f 53/53/49 59/59/47 60/60/3
f 12/12/57 49/49/41 56/56/53
f 40/40/58 34/34/43 41/41/59
f 60/60/3 50/50/46 61/61/1
f 30/30/6 16/16/38 32/32/4
f 23/23/17 22/22/15 7/7/7
f 7/7/7 24/24/9 23/23/17
f 18/18/12 20/20/14 19/19/10
f 20/20/14 17/17/16 4/4/13
f 22/22/15 23/23/17 20/20/14
f 23/23/17 21/21/18 17/17/16
f 24/24/9 13/13/33 21/21/18
f 26/26/21 28/28/24 27/27/19
f 27/27/19 28/28/24 25/25/22
f 30/30/6 31/31/5 28/28/24
f 28/28/24 31/31/5 29/29/25
f 9/9/27 29/29/25 31/31/5
f 31/31/5 32/32/4 9/9/27
f 2/2/29 43/43/37 42/42/30
f 37/37/32 24/24/9 14/14/8
f 37/37/32 35/35/35 13/13/33
f 33/33/60 40/40/58 41/41/59
f 37/37/32 36/36/31 1/1/34
f 42/42/30 37/37/32 1/1/34
f 1/1/34 36/36/31 33/33/60
f 33/33/60 41/41/59 1/1/34
f 42/42/30 39/39/36 35/35/35
f 43/43/37 3/3/61 39/39/36
f 11/11/39 45/45/55 58/58/54
f 58/58/54 46/46/40 32/32/4
f 11/11/39 58/58/54 32/32/4
f 54/54/50 44/44/51 15/15/26
f 15/15/26 46/46/40 54/54/50
f 34/34/43 40/40/58 49/49/41
f 40/40/58 33/33/60 8/8/44
f 49/49/41 40/40/58 8/8/44
f 59/59/47 57/57/56 50/50/46
f 51/51/2 56/56/53 55/55/48
f 53/53/49 55/55/48 54/54/50
f 55/55/48 52/52/52 44/44/51
f 56/56/53 49/49/41 47/47/45
f 56/56/53 47/47/45 52/52/52
f 57/57/56 59/59/47 58/58/54
f 59/59/47 53/53/49 46/46/40
f 60/60/3 51/51/2 53/53/49
f 12/12/57 48/48/42 49/49/41
f 56/56/53 51/51/2 61/61/1
f 61/61/1 12/12/57 56/56/53
