# This file uses centimeters as units for non-parametric coordinates.

mtllib letterCapS.mtl
g default
v 1.350607 2.428307 0.000000
v 1.850607 2.428307 0.000000
v 0.550607 1.528307 0.000000
v 0.150467 2.468856 0.000000
v 0.985379 3.128803 0.000000
v 1.451244 1.425349 0.000000
v 1.027863 1.127998 0.000000
v 0.050607 1.528307 0.000000
v 1.950812 1.406505 0.000000
v 1.015948 0.727804 0.000000
v 0.650502 2.471133 0.000000
v 0.988249 2.729109 0.000000
v 0.452428 1.928401 0.000000
v 1.686529 1.928273 0.000000
v 0.810696 1.779113 0.000000
v 0.810697 1.164274 0.000000
v 0.810707 0.740636 0.000000
v 0.810695 1.928355 0.000000
v 0.703285 1.228077 0.000000
v 0.125323 1.228020 0.000000
v 0.430651 1.228077 0.000000
v 0.430763 0.864962 0.000000
v 0.287151 0.978077 0.000000
v 0.430651 0.978117 0.000000
v 0.240629 1.228077 0.000000
v 0.240526 1.030565 0.000000
v 0.568363 1.453248 0.000000
v 0.061654 1.453247 0.000000
v 0.430651 1.453249 0.000000
v 0.430651 1.528307 0.000000
v 1.355106 1.228144 0.000000
v 1.925152 1.228066 0.000000
v 1.190721 1.145881 0.000000
v 1.190774 0.735293 0.000000
v 1.570728 0.828342 0.000000
v 1.570783 1.228077 0.000000
v 1.780465 0.978102 0.000000
v 1.570783 0.978117 0.000000
v 1.760783 0.957967 0.000000
v 1.760805 0.978117 0.000000
v 1.760805 1.228077 0.000000
v 1.190768 1.669074 0.000000
v 1.190739 1.928355 0.000000
v 1.449355 1.453255 0.000000
v 1.949338 1.453249 0.000000
v 1.570783 1.453249 0.000000
v 1.435382 1.340589 0.000000
v 1.570783 1.340663 0.000000
v 1.380692 1.253436 0.000000
v 1.380761 1.228077 0.000000
v 1.570783 1.928355 0.000000
v 1.570783 1.690802 0.000000
v 1.190739 1.690802 0.000000
v 1.380321 1.578895 0.000000
v 1.380761 1.690802 0.000000
v 1.380761 1.928355 0.000000
v 1.892302 1.690831 0.000000
v 1.760805 1.453249 0.000000
v 1.760805 1.690802 0.000000
v 1.760912 1.869939 0.000000
v 0.810696 3.118816 0.000000
v 0.810634 2.247989 0.000000
v 0.810685 2.696306 0.000000
v 0.166106 2.328523 0.000000
v 0.700421 2.328421 0.000000
v 0.430708 1.942419 0.000000
v 0.430651 2.328421 0.000000
v 0.249073 2.128386 0.000000
v 0.430651 2.128388 0.000000
v 0.240632 2.142033 0.000000
v 0.240629 2.328421 0.000000
v 0.170471 2.628566 0.000000
v 0.709536 2.628307 0.000000
v 0.430651 2.628552 0.000000
v 0.430642 2.991264 0.000000
v 0.300894 2.878596 0.000000
v 0.430651 2.878552 0.000000
v 0.240629 2.795752 0.000000
v 0.240629 2.628552 0.000000
v 1.190739 2.122135 0.000000
v 1.570780 1.992350 0.000000
v 1.190745 3.115083 0.000000
v 1.190730 2.689478 0.000000
v 1.819551 2.628436 0.000000
v 1.270439 2.628563 0.000000
v 1.570783 2.428307 0.000000
v 1.570783 2.628552 0.000000
v 1.570862 2.978805 0.000000
v 1.683250 2.879013 0.000000
v 1.570783 2.878552 0.000000
v 1.760846 2.769589 0.000000
v 1.760805 2.628552 0.000000
vt 0.684132 0.708279
vt 0.947259 0.708279
vt 0.263128 0.333341
vt 0.052565 0.725172
vt 0.491929 1.000000
vt 0.736989 0.290448
vt 0.514286 0.166577
vt 0.000000 0.333341
vt 1.000000 0.282599
vt 0.508016 0.000000
vt 0.315775 0.726120
vt 0.493442 0.833379
vt 0.211445 0.500000
vt 0.860941 0.500000
vt 0.400000 0.437825
vt 0.400000 0.181684
vt 0.400000 0.005159
vt 0.400000 0.500000
vt 0.343475 0.208266
vt 0.039394 0.208266
vt 0.200000 0.208266
vt 0.200000 0.056916
vt 0.124504 0.104133
vt 0.200000 0.104133
vt 0.100000 0.208266
vt 0.100000 0.126017
vt 0.272474 0.302072
vt 0.005821 0.302072
vt 0.200000 0.302072
vt 0.200000 0.333341
vt 0.686530 0.208266
vt 0.986469 0.208266
vt 0.600000 0.173993
vt 0.600000 0.003133
vt 0.800000 0.041687
vt 0.800000 0.208266
vt 0.910338 0.104133
vt 0.800000 0.104133
vt 0.900000 0.095729
vt 0.900000 0.104133
vt 0.900000 0.208266
vt 0.600000 0.391947
vt 0.600000 0.500000
vt 0.736075 0.302072
vt 0.999218 0.302072
vt 0.800000 0.302072
vt 0.728644 0.255169
vt 0.800000 0.255169
vt 0.700000 0.218805
vt 0.700000 0.208266
vt 0.800000 0.500000
vt 0.800000 0.401036
vt 0.600000 0.401036
vt 0.700000 0.354631
vt 0.700000 0.401036
vt 0.700000 0.500000
vt 0.969169 0.401036
vt 0.900000 0.302072
vt 0.900000 0.401036
vt 0.900000 0.475615
vt 0.400000 0.995946
vt 0.400000 0.633211
vt 0.400000 0.819917
vt 0.060543 0.666667
vt 0.341968 0.666667
vt 0.200000 0.505823
vt 0.200000 0.666667
vt 0.104445 0.583333
vt 0.200000 0.583333
vt 0.100000 0.589017
vt 0.100000 0.666667
vt 0.063107 0.791701
vt 0.346625 0.791701
vt 0.200000 0.791701
vt 0.200000 0.942800
vt 0.131742 0.895850
vt 0.200000 0.895850
vt 0.100000 0.861356
vt 0.100000 0.791701
vt 0.600000 0.580728
vt 0.800000 0.526663
vt 0.600000 0.994371
vt 0.600000 0.817090
vt 0.931125 0.791701
vt 0.641936 0.791701
vt 0.800000 0.708279
vt 0.800000 0.791701
vt 0.800000 0.937568
vt 0.858913 0.895850
vt 0.800000 0.895850
vt 0.900000 0.850447
vt 0.900000 0.791701
vn 0.000000 0.000000 1.000000
vn 0.000000 0.000000 1.000000
vn 0.000000 0.000000 1.000000
vn 0.000000 0.000000 1.000000
vn 0.000000 0.000000 1.000000
vn 0.000000 0.000000 1.000000
vn 0.000000 0.000000 1.000000
vn 0.000000 0.000000 1.000000
vn 0.000000 0.000000 1.000000
vn 0.000000 0.000000 1.000000
vn 0.000000 0.000000 1.000000
vn 0.000000 0.000000 1.000000
vn 0.000000 0.000000 1.000000
vn 0.000000 0.000000 1.000000
vn 0.000000 0.000000 1.000000
vn 0.000000 0.000000 1.000000
vn 0.000000 0.000000 1.000000
vn 0.000000 0.000000 1.000000
vn 0.000000 0.000000 1.000000
vn 0.000000 0.000000 1.000000
vn 0.000000 0.000000 1.000000
vn 0.000000 0.000000 1.000000
vn 0.000000 0.000000 1.000000
vn 0.000000 0.000000 1.000000
vn 0.000000 0.000000 1.000000
vn 0.000000 0.000000 1.000000
vn 0.000000 0.000000 1.000000
vn 0.000000 0.000000 1.000000
vn 0.000000 0.000000 1.000000
vn 0.000000 0.000000 1.000000
vn 0.000000 0.000000 1.000000
vn 0.000000 0.000000 1.000000
vn 0.000000 0.000000 1.000000
vn 0.000000 0.000000 1.000000
vn 0.000000 0.000000 1.000000
vn 0.000000 0.000000 1.000000
vn 0.000000 0.000000 1.000000
vn 0.000000 0.000000 1.000000
vn 0.000000 0.000000 1.000000
vn 0.000000 0.000000 1.000000
vn 0.000000 0.000000 1.000000
vn 0.000000 0.000000 1.000000
vn 0.000000 0.000000 1.000000
vn 0.000000 0.000000 1.000000
vn 0.000000 0.000000 1.000000
vn 0.000000 0.000000 1.000000
vn 0.000000 0.000000 1.000000
vn 0.000000 0.000000 1.000000
vn 0.000000 0.000000 1.000000
vn 0.000000 0.000000 1.000000
vn 0.000000 0.000000 1.000000
vn 0.000000 0.000000 1.000000
vn 0.000000 0.000000 1.000000
vn 0.000000 0.000000 1.000000
vn 0.000000 0.000000 1.000000
vn 0.000000 0.000000 1.000000
vn 0.000000 0.000000 1.000000
vn 0.000000 0.000000 1.000000
vn 0.000000 0.000000 1.000000
vn 0.000000 0.000000 1.000000
vn 0.000000 0.000000 1.000000
vn 0.000000 0.000000 1.000000
vn 0.000000 0.000000 1.000000
vn 0.000000 0.000000 1.000000
vn 0.000000 0.000000 1.000000
vn 0.000000 0.000000 1.000000
vn 0.000000 0.000000 1.000000
vn 0.000000 0.000000 1.000000
vn 0.000000 0.000000 1.000000
vn 0.000000 0.000000 1.000000
vn 0.000000 0.000000 1.000000
vn 0.000000 0.000000 1.000000
vn 0.000000 0.000000 1.000000
vn 0.000000 0.000000 1.000000
vn 0.000000 0.000000 1.000000
vn 0.000000 0.000000 1.000000
vn 0.000000 0.000000 1.000000
vn 0.000000 0.000000 1.000000
vn 0.000000 0.000000 1.000000
vn 0.000000 0.000000 1.000000
vn 0.000000 0.000000 1.000000
vn 0.000000 0.000000 1.000000
vn 0.000000 0.000000 1.000000
vn 0.000000 0.000000 1.000000
vn 0.000000 0.000000 1.000000
vn 0.000000 0.000000 1.000000
vn 0.000000 0.000000 1.000000
vn 0.000000 0.000000 1.000000
vn 0.000000 0.000000 1.000000
vn 0.000000 0.000000 1.000000
vn 0.000000 0.000000 1.000000
vn 0.000000 0.000000 1.000000
s 1
g Trim_Char_S_1_1 Trim_Text_OPQRSTUVWXYZ_1_1
usemtl initialShadingGroup
f 89/89/1 88/88/2 90/90/3
f 57/57/4 60/60/5 59/59/6
f 13/13/7 15/15/8 18/18/9
f 24/24/10 22/22/11 17/17/12
f 21/21/13 25/25/14 26/26/15
f 23/23/16 22/22/11 24/24/10
f 25/25/14 20/20/17 26/26/15
f 27/27/18 29/29/19 21/21/13
f 28/28/20 20/20/17 25/25/14
f 30/30/21 8/8/22 28/28/20
f 37/37/23 32/32/24 41/41/25
f 7/7/26 16/16/27 17/17/12
f 33/33/28 34/34/29 35/35/30
f 39/39/31 37/37/23 40/40/32
f 39/39/31 40/40/32 38/38/33
f 38/38/33 40/40/32 41/41/25
f 15/15/8 42/42/34 53/53/35
f 41/41/25 32/32/24 58/58/36
f 6/6/37 47/47/38 48/48/39
f 49/49/40 50/50/41 36/36/42
f 49/49/40 31/31/43 50/50/41
f 52/52/44 51/51/45 55/55/46
f 44/44/47 46/46/48 52/52/44
f 42/42/34 54/54/49 55/55/46
f 53/53/35 55/55/46 56/56/50
f 58/58/36 45/45/51 57/57/4
f 46/46/48 58/58/36 59/59/6
f 14/14/52 51/51/45 52/52/44
f 61/61/53 75/75/54 77/77/55
f 18/18/9 62/62/56 69/69/57
f 68/68/58 69/69/57 67/67/59
f 68/68/58 66/66/60 69/69/57
f 64/64/61 70/70/62 71/71/63
f 11/11/64 73/73/65 74/74/66
f 4/4/67 64/64/61 71/71/63
f 75/75/54 76/76/68 77/77/55
f 78/78/69 79/79/70 74/74/66
f 78/78/69 72/72/71 79/79/70
f 51/51/45 14/14/52 81/81/72
f 18/18/9 43/43/73 80/80/74
f 56/56/50 51/51/45 81/81/72
f 61/61/53 63/63/75 12/12/76
f 2/2/77 84/84/78 92/92/79
f 1/1/80 86/86/81 87/87/82
f 82/82/83 83/83/84 85/85/85
f 84/84/78 91/91/86 92/92/79
f 89/89/1 90/90/3 87/87/82
f 3/3/87 30/30/21 29/29/19
f 17/17/12 16/16/27 19/19/88
f 24/24/10 19/19/88 21/21/13
f 19/19/88 24/24/10 17/17/12
f 23/23/16 24/24/10 21/21/13
f 21/21/13 26/26/15 23/23/16
f 21/21/13 19/19/88 27/27/18
f 25/25/14 21/21/13 29/29/19
f 25/25/14 29/29/19 28/28/20
f 28/28/20 29/29/19 30/30/21
f 41/41/25 40/40/32 37/37/23
f 17/17/12 10/10/89 7/7/26
f 34/34/29 33/33/28 7/7/26
f 7/7/26 10/10/89 34/34/29
f 38/38/33 36/36/42 50/50/41
f 38/38/33 31/31/43 33/33/28
f 33/33/28 35/35/30 38/38/33
f 50/50/41 31/31/43 38/38/33
f 38/38/33 35/35/30 39/39/31
f 41/41/25 36/36/42 38/38/33
f 43/43/73 18/18/9 15/15/8
f 15/15/8 53/53/35 43/43/73
f 9/9/90 45/45/51 58/58/36
f 48/48/39 36/36/42 41/41/25
f 58/58/36 46/46/48 48/48/39
f 48/48/39 41/41/25 58/58/36
f 58/58/36 32/32/24 9/9/90
f 46/46/48 44/44/47 6/6/37
f 6/6/37 48/48/39 46/46/48
f 36/36/42 48/48/39 47/47/38
f 36/36/42 47/47/38 49/49/40
f 51/51/45 56/56/50 55/55/46
f 52/52/44 55/55/46 54/54/49
f 54/54/49 44/44/47 52/52/44
f 55/55/46 53/53/35 42/42/34
f 56/56/50 43/43/73 53/53/35
f 57/57/4 59/59/6 58/58/36
f 59/59/6 52/52/44 46/46/48
f 52/52/44 59/59/6 60/60/5
f 52/52/44 60/60/5 14/14/52
f 73/73/65 63/63/75 61/61/53
f 77/77/55 73/73/65 61/61/53
f 73/73/65 77/77/55 74/74/66
f 65/65/91 67/67/59 69/69/57
f 69/69/57 66/66/60 13/13/7
f 13/13/7 18/18/9 69/69/57
f 69/69/57 62/62/56 65/65/91
f 67/67/59 71/71/63 70/70/62
f 67/67/59 70/70/62 68/68/58
f 67/67/59 65/65/91 11/11/64
f 11/11/64 74/74/66 67/67/59
f 71/71/63 67/67/59 74/74/66
f 71/71/63 79/79/70 72/72/71
f 71/71/63 72/72/71 4/4/67
f 74/74/66 79/79/70 71/71/63
f 74/74/66 77/77/55 76/76/68
f 76/76/68 78/78/69 74/74/66
f 80/80/74 62/62/56 18/18/9
f 80/80/74 43/43/73 56/56/50
f 81/81/72 80/80/74 56/56/50
f 82/82/83 5/5/92 83/83/84
f 83/83/84 5/5/92 61/61/53
f 12/12/76 83/83/84 61/61/53
f 92/92/79 87/87/82 86/86/81
f 92/92/79 86/86/81 2/2/77
f 87/87/82 85/85/85 1/1/80
f 90/90/3 88/88/2 82/82/83
f 85/85/85 87/87/82 82/82/83
f 82/82/83 87/87/82 90/90/3
f 87/87/82 92/92/79 91/91/86
f 87/87/82 91/91/86 89/89/1
f 29/29/19 27/27/18 3/3/87
