# This file uses centimeters as units for non-parametric coordinates.

mtllib letterc.mtl
g default
v 1.708538 1.258293 0.000000
v 1.208538 1.358292 0.000000
v 1.208538 1.958293 0.000000
v 0.608492 1.684855 0.000000
v 0.930406 1.057685 0.000000
v 0.935101 2.258744 0.000000
v 1.708538 2.058293 0.000000
v 0.108528 1.656732 0.000000
v 0.942908 2.558933 0.000000
v 0.922598 0.758007 0.000000
v 0.608829 1.732126 0.000000
v 0.110325 1.732122 0.000000
v 0.748097 1.132671 0.000000
v 0.748538 0.772713 0.000000
v 0.747921 1.132845 0.000000
v 0.229194 1.133294 0.000000
v 0.428537 1.133293 0.000000
v 0.428416 0.907259 0.000000
v 0.622943 1.433162 0.000000
v 0.125904 1.433290 0.000000
v 0.428537 1.433293 0.000000
v 0.658085 1.283372 0.000000
v 0.428537 1.283293 0.000000
v 0.588537 1.283293 0.000000
v 0.588537 1.133293 0.000000
v 0.588537 1.433293 0.000000
v 0.428537 1.732122 0.000000
v 1.118023 1.133292 0.000000
v 1.662262 1.133268 0.000000
v 1.068430 1.092666 0.000000
v 1.068537 0.765190 0.000000
v 1.388543 0.851973 0.000000
v 1.388537 1.133293 0.000000
v 1.525065 0.945713 0.000000
v 1.388537 0.945793 0.000000
v 1.548623 0.968520 0.000000
v 1.548537 1.133293 0.000000
v 1.388537 1.322292 0.000000
v 0.748212 2.186921 0.000000
v 0.748541 2.541316 0.000000
v 0.653081 2.033200 0.000000
v 0.163525 2.033292 0.000000
v 0.428537 2.033293 0.000000
v 0.748538 2.333293 0.000000
v 0.345492 2.333450 0.000000
v 0.428537 2.333293 0.000000
v 0.428406 2.405494 0.000000
v 1.193775 2.033300 0.000000
v 1.583538 2.033293 0.000000
v 1.388537 1.994293 0.000000
v 1.388537 2.033293 0.000000
v 1.068450 2.223461 0.000000
v 1.068587 2.553562 0.000000
v 1.068537 2.333293 0.000000
v 1.559045 2.333396 0.000000
v 1.388537 2.333293 0.000000
v 1.388538 2.466660 0.000000
vt 1.000000 0.277778
vt 0.687500 0.333333
vt 0.687500 0.666667
vt 0.312500 0.514757
vt 0.513672 0.166667
vt 0.516602 0.833333
vt 1.000000 0.722222
vt 0.000000 0.499133
vt 0.521485 1.000000
vt 0.508789 0.000000
vt 0.312821 0.541016
vt 0.001118 0.541016
vt 0.400000 0.208237
vt 0.400000 0.008012
vt 0.399891 0.208333
vt 0.075409 0.208333
vt 0.200000 0.208333
vt 0.200000 0.082850
vt 0.322074 0.375000
vt 0.010863 0.375000
vt 0.200000 0.375000
vt 0.343326 0.291667
vt 0.200000 0.291667
vt 0.300000 0.291667
vt 0.300000 0.208333
vt 0.300000 0.375000
vt 0.200000 0.541016
vt 0.630928 0.208333
vt 0.971045 0.208333
vt 0.600000 0.185662
vt 0.600000 0.003832
vt 0.800000 0.052050
vt 0.800000 0.208333
vt 0.885284 0.104167
vt 0.800000 0.104167
vt 0.900000 0.116839
vt 0.900000 0.208333
vt 0.800000 0.313333
vt 0.400000 0.793486
vt 0.400000 0.990580
vt 0.340175 0.708333
vt 0.034367 0.708333
vt 0.200000 0.708333
vt 0.400000 0.875000
vt 0.148197 0.875000
vt 0.200000 0.875000
vt 0.200000 0.915013
vt 0.678256 0.708333
vt 0.921875 0.708333
vt 0.800000 0.686667
vt 0.800000 0.708333
vt 0.600000 0.814063
vt 0.600000 0.997080
vt 0.600000 0.875000
vt 0.906495 0.875000
vt 0.800000 0.875000
vt 0.800000 0.949092
vn 0.000000 0.000000 1.000000
vn 0.000000 0.000000 1.000000
vn 0.000000 0.000000 1.000000
vn 0.000000 0.000000 1.000000
vn 0.000000 0.000000 1.000000
vn 0.000000 0.000000 1.000000
vn 0.000000 0.000000 1.000000
vn 0.000000 0.000000 1.000000
vn 0.000000 0.000000 1.000000
vn 0.000000 0.000000 1.000000
vn 0.000000 0.000000 1.000000
vn 0.000000 0.000000 1.000000
vn 0.000000 0.000000 1.000000
vn 0.000000 0.000000 1.000000
vn 0.000000 0.000000 1.000000
vn 0.000000 0.000000 1.000000
vn 0.000000 0.000000 1.000000
vn 0.000000 0.000000 1.000000
vn 0.000000 0.000000 1.000000
vn 0.000000 0.000000 1.000000
vn 0.000000 0.000000 1.000000
vn 0.000000 0.000000 1.000000
vn 0.000000 0.000000 1.000000
vn 0.000000 0.000000 1.000000
vn 0.000000 0.000000 1.000000
vn 0.000000 0.000000 1.000000
vn 0.000000 0.000000 1.000000
vn 0.000000 0.000000 1.000000
vn 0.000000 0.000000 1.000000
vn 0.000000 0.000000 1.000000
vn 0.000000 0.000000 1.000000
vn 0.000000 0.000000 1.000000
vn 0.000000 0.000000 1.000000
vn 0.000000 0.000000 1.000000
vn 0.000000 0.000000 1.000000
vn 0.000000 0.000000 1.000000
vn 0.000000 0.000000 1.000000
vn 0.000000 0.000000 1.000000
vn 0.000000 0.000000 1.000000
vn 0.000000 0.000000 1.000000
vn 0.000000 0.000000 1.000000
vn 0.000000 0.000000 1.000000
vn 0.000000 0.000000 1.000000
vn 0.000000 0.000000 1.000000
vn 0.000000 0.000000 1.000000
vn 0.000000 0.000000 1.000000
vn 0.000000 0.000000 1.000000
vn 0.000000 0.000000 1.000000
vn 0.000000 0.000000 1.000000
vn 0.000000 0.000000 1.000000
vn 0.000000 0.000000 1.000000
vn 0.000000 0.000000 1.000000
vn 0.000000 0.000000 1.000000
vn 0.000000 0.000000 1.000000
vn 0.000000 0.000000 1.000000
vn 0.000000 0.000000 1.000000
vn 0.000000 0.000000 1.000000
s 1
g Trim_Char_c_2_1 Trim_Text_abcdefghijklmnopqrstuvwxyz_1_1
usemtl initialShadingGroup
f 55/55/1 57/57/2 56/56/3
f 38/38/4 33/33/5 37/37/6
f 4/4/7 27/27/8 21/21/9
f 17/17/10 18/18/11 14/14/12
f 17/17/10 16/16/13 18/18/11
f 19/19/14 26/26/15 24/24/16
f 20/20/17 16/16/13 23/23/18
f 22/22/19 24/24/16 25/25/20
f 17/17/10 25/25/20 24/24/16
f 23/23/18 24/24/16 26/26/15
f 27/27/8 12/12/21 8/8/22
f 36/36/23 29/29/24 37/37/6
f 5/5/25 13/13/26 14/14/12
f 31/31/27 32/32/28 35/35/29
f 32/32/28 34/34/30 35/35/29
f 37/37/6 33/33/5 35/35/29
f 38/38/4 2/2/31 28/28/32
f 44/44/33 40/40/34 47/47/35
f 11/11/36 41/41/37 43/43/38
f 42/42/39 12/12/21 27/27/8
f 39/39/40 44/44/33 46/46/41
f 45/45/42 42/42/39 43/43/38
f 47/47/35 45/45/42 46/46/41
f 50/50/43 49/49/44 51/51/45
f 48/48/46 3/3/47 50/50/43
f 54/54/48 53/53/49 9/9/50
f 6/6/51 52/52/52 54/54/48
f 49/49/44 7/7/53 55/55/1
f 48/48/46 51/51/45 56/56/3
f 57/57/2 53/53/49 54/54/48
f 37/37/6 29/29/24 1/1/54
f 1/1/54 38/38/4 37/37/6
f 4/4/7 11/11/36 27/27/8
f 26/26/15 19/19/14 4/4/7
f 4/4/7 21/21/9 26/26/15
f 13/13/26 15/15/55 25/25/20
f 14/14/12 13/13/26 25/25/20
f 25/25/20 17/17/10 14/14/12
f 24/24/16 22/22/19 19/19/14
f 23/23/18 21/21/9 20/20/17
f 23/23/18 16/16/13 17/17/10
f 25/25/20 15/15/55 22/22/19
f 24/24/16 23/23/18 17/17/10
f 26/26/15 21/21/9 23/23/18
f 20/20/17 21/21/9 27/27/8
f 8/8/22 20/20/17 27/27/8
f 14/14/12 10/10/56 5/5/25
f 31/31/27 30/30/57 5/5/25
f 5/5/25 10/10/56 31/31/27
f 28/28/32 30/30/57 31/31/27
f 35/35/29 33/33/5 31/31/27
f 31/31/27 33/33/5 28/28/32
f 34/34/30 36/36/23 37/37/6
f 37/37/6 35/35/29 34/34/30
f 28/28/32 33/33/5 38/38/4
f 47/47/35 46/46/41 44/44/33
f 43/43/38 27/27/8 11/11/36
f 27/27/8 43/43/38 42/42/39
f 46/46/41 43/43/38 41/41/37
f 46/46/41 41/41/37 39/39/40
f 43/43/38 46/46/41 45/45/42
f 50/50/43 51/51/45 48/48/46
f 40/40/34 44/44/33 54/54/48
f 9/9/50 40/40/34 54/54/48
f 44/44/33 39/39/40 6/6/51
f 54/54/48 44/44/33 6/6/51
f 55/55/1 56/56/3 51/51/45
f 55/55/1 51/51/45 49/49/44
f 56/56/3 54/54/48 52/52/52
f 52/52/52 48/48/46 56/56/3
f 54/54/48 56/56/3 57/57/2
