# This file uses centimeters as units for non-parametric coordinates.

mtllib lettercolon.mtl
g default
v 0.561468 0.788991 0.000000
v 0.561468 1.288991 0.000000
v 0.061468 1.288991 0.000000
v 0.061468 0.788991 0.000000
v 0.561468 1.238991 0.000000
v 0.061468 1.238991 0.000000
v 0.561468 1.013991 0.000000
v 0.061468 1.013991 0.000000
v 0.311468 1.013991 0.000000
v 0.311468 0.788991 0.000000
v 0.311468 1.238991 0.000000
v 0.311468 1.288991 0.000000
v 0.561468 2.088991 0.000000
v 0.561468 2.588991 0.000000
v 0.061468 2.588991 0.000000
v 0.061468 2.088991 0.000000
v 0.561468 2.138991 0.000000
v 0.061468 2.138991 0.000000
v 0.311468 2.138991 0.000000
v 0.311468 2.088991 0.000000
v 0.561468 2.363991 0.000000
v 0.061468 2.363991 0.000000
v 0.311468 2.363991 0.000000
v 0.311468 2.588991 0.000000
vt 1.000000 0.000000
vt 1.000000 1.000000
vt 0.000000 1.000000
vt 0.000000 0.000000
vt 1.000000 0.900000
vt 0.000000 0.900000
vt 1.000000 0.450000
vt 0.000000 0.450000
vt 0.500000 0.450000
vt 0.500000 0.000000
vt 0.500000 0.900000
vt 0.500000 1.000000
vt 1.000000 2.600000
vt 1.000000 3.600000
vt 0.000000 3.600000
vt 0.000000 2.600000
vt 1.000000 2.700000
vt 0.000000 2.700000
vt 0.500000 2.700000
vt 0.500000 2.600000
vt 1.000000 3.150000
vt 0.000000 3.150000
vt 0.500000 3.150000
vt 0.500000 3.600000
vn 0.000000 0.000000 1.000000
vn 0.000000 0.000000 1.000000
vn 0.000000 0.000000 1.000000
vn 0.000000 0.000000 1.000000
vn 0.000000 0.000000 1.000000
vn 0.000000 0.000000 1.000000
vn 0.000000 0.000000 1.000000
vn 0.000000 0.000000 1.000000
vn 0.000000 0.000000 1.000000
vn 0.000000 0.000000 1.000000
vn 0.000000 0.000000 1.000000
vn 0.000000 0.000000 1.000000
vn 0.000000 0.000000 1.000000
vn 0.000000 0.000000 1.000000
vn 0.000000 0.000000 1.000000
vn 0.000000 0.000000 1.000000
vn 0.000000 0.000000 1.000000
vn 0.000000 0.000000 1.000000
vn 0.000000 0.000000 1.000000
vn 0.000000 0.000000 1.000000
vn 0.000000 0.000000 1.000000
vn 0.000000 0.000000 1.000000
vn 0.000000 0.000000 1.000000
vn 0.000000 0.000000 1.000000
s 1
g Trim_Char_x_1_1 Trim_Text_x_1_1
usemtl initialShadingGroup
f 5/5/1 2/2/2 11/11/3
f 7/7/4 5/5/1 9/9/5
f 1/1/6 7/7/4 10/10/7
f 4/4/8 10/10/7 9/9/5
f 8/8/9 9/9/5 11/11/3
f 6/6/10 11/11/3 12/12/11
f 2/2/2 12/12/11 11/11/3
f 5/5/1 11/11/3 9/9/5
f 7/7/4 9/9/5 10/10/7
f 9/9/5 8/8/9 4/4/8
f 11/11/3 6/6/10 8/8/9
f 12/12/11 3/3/12 6/6/10
s 2
f 21/21/13 14/14/14 23/23/15
f 13/13/16 17/17/17 20/20/18
f 16/16/19 20/20/18 19/19/20
f 17/17/17 21/21/13 19/19/20
f 18/18/21 19/19/20 23/23/15
f 22/22/22 23/23/15 24/24/23
f 14/14/14 24/24/23 23/23/15
f 17/17/17 19/19/20 20/20/18
f 19/19/20 18/18/21 16/16/19
f 21/21/13 23/23/15 19/19/20
f 23/23/15 22/22/22 18/18/21
f 24/24/23 15/15/24 22/22/22
