# This file uses centimeters as units for non-parametric coordinates.

mtllib letterCapC.mtl
g default
v 1.643386 2.354696 0.000000
v 2.143386 2.454696 0.000000
v 2.143386 1.554696 0.000000
v 0.042949 1.934383 0.000000
v 1.174637 3.154832 0.000000
v 1.141825 0.754552 0.000000
v 1.643386 1.654696 0.000000
v 0.543393 1.968759 0.000000
v 1.121518 1.154011 0.000000
v 1.140265 2.755012 0.000000
v 0.042972 1.954699 0.000000
v 0.543426 1.954696 0.000000
v 0.883386 0.780073 0.000000
v 0.883437 1.204077 0.000000
v 0.209923 1.254709 0.000000
v 0.797501 1.254704 0.000000
v 0.463386 0.971721 0.000000
v 0.463386 1.254696 0.000000
v 0.065844 1.654695 0.000000
v 0.569453 1.654686 0.000000
v 0.463386 1.654696 0.000000
v 0.631920 1.454716 0.000000
v 0.463386 1.454696 0.000000
v 0.673386 1.254696 0.000000
v 0.673883 1.382107 0.000000
v 0.463386 1.954696 0.000000
v 2.028901 1.254771 0.000000
v 1.422730 1.254705 0.000000
v 1.303455 0.763202 0.000000
v 1.303235 1.187391 0.000000
v 1.723475 0.908878 0.000000
v 1.723387 1.254696 0.000000
v 1.723387 1.638696 0.000000
v 1.577300 1.454674 0.000000
v 1.723387 1.454696 0.000000
v 1.513173 1.347056 0.000000
v 1.513386 1.254696 0.000000
v 0.883400 3.124954 0.000000
v 0.883403 2.701077 0.000000
v 0.123016 2.454613 0.000000
v 0.632661 2.454637 0.000000
v 0.463386 2.454696 0.000000
v 0.375264 2.854834 0.000000
v 0.883387 2.854696 0.000000
v 0.463386 2.854696 0.000000
v 0.463397 2.931439 0.000000
v 1.611343 2.454690 0.000000
v 1.723387 2.370696 0.000000
v 1.723387 2.454696 0.000000
v 1.303348 3.148541 0.000000
v 1.303316 2.731714 0.000000
v 1.303386 2.854696 0.000000
v 1.936517 2.854686 0.000000
v 1.723387 2.854696 0.000000
v 1.457787 2.654733 0.000000
v 1.723387 2.654696 0.000000
v 1.513440 2.605196 0.000000
v 1.513386 2.654696 0.000000
v 1.513386 2.854696 0.000000
v 1.723312 3.022711 0.000000
vt 0.761905 0.666667
vt 1.000000 0.708333
vt 1.000000 0.333333
vt 0.000000 0.491537
vt 0.538691 1.000000
vt 0.523066 0.000000
vt 0.761905 0.375000
vt 0.238095 0.505859
vt 0.513393 0.166667
vt 0.522322 0.833333
vt 0.000045 0.500000
vt 0.238114 0.500000
vt 0.400000 0.010574
vt 0.400000 0.187197
vt 0.079293 0.208333
vt 0.359099 0.208333
vt 0.200000 0.090427
vt 0.200000 0.208333
vt 0.010697 0.375000
vt 0.250533 0.375000
vt 0.200000 0.375000
vt 0.280235 0.291667
vt 0.200000 0.291667
vt 0.300000 0.208333
vt 0.300000 0.261279
vt 0.200000 0.500000
vt 0.945551 0.208333
vt 0.656833 0.208333
vt 0.600000 0.003793
vt 0.600000 0.180125
vt 0.800000 0.064298
vt 0.800000 0.208333
vt 0.800000 0.368333
vt 0.730413 0.291667
vt 0.800000 0.291667
vt 0.700000 0.246750
vt 0.700000 0.208333
vt 0.400000 0.987634
vt 0.400000 0.811007
vt 0.037805 0.708333
vt 0.280551 0.708333
vt 0.200000 0.708333
vt 0.158101 0.875000
vt 0.400000 0.875000
vt 0.200000 0.875000
vt 0.200000 0.906981
vt 0.746653 0.708333
vt 0.800000 0.673333
vt 0.800000 0.708333
vt 0.600000 0.997603
vt 0.600000 0.823858
vt 0.600000 0.875000
vt 0.901496 0.875000
vt 0.800000 0.875000
vt 0.673511 0.791667
vt 0.800000 0.791667
vt 0.700000 0.771020
vt 0.700000 0.791667
vt 0.700000 0.875000
vt 0.800000 0.945060
vn 0.000000 0.000000 1.000000
vn 0.000000 0.000000 1.000000
vn 0.000000 0.000000 1.000000
vn 0.000000 0.000000 1.000000
vn 0.000000 0.000000 1.000000
vn 0.000000 0.000000 1.000000
vn 0.000000 0.000000 1.000000
vn 0.000000 0.000000 1.000000
vn 0.000000 0.000000 1.000000
vn 0.000000 0.000000 1.000000
vn 0.000000 0.000000 1.000000
vn 0.000000 0.000000 1.000000
vn 0.000000 0.000000 1.000000
vn 0.000000 0.000000 1.000000
vn 0.000000 0.000000 1.000000
vn 0.000000 0.000000 1.000000
vn 0.000000 0.000000 1.000000
vn 0.000000 0.000000 1.000000
vn 0.000000 0.000000 1.000000
vn 0.000000 0.000000 1.000000
vn 0.000000 0.000000 1.000000
vn 0.000000 0.000000 1.000000
vn 0.000000 0.000000 1.000000
vn 0.000000 0.000000 1.000000
vn 0.000000 0.000000 1.000000
vn 0.000000 0.000000 1.000000
vn 0.000000 0.000000 1.000000
vn 0.000000 0.000000 1.000000
vn 0.000000 0.000000 1.000000
vn 0.000000 0.000000 1.000000
vn 0.000000 0.000000 1.000000
vn 0.000000 0.000000 1.000000
vn 0.000000 0.000000 1.000000
vn 0.000000 0.000000 1.000000
vn 0.000000 0.000000 1.000000
vn 0.000000 0.000000 1.000000
vn 0.000000 0.000000 1.000000
vn 0.000000 0.000000 1.000000
vn 0.000000 0.000000 1.000000
vn 0.000000 0.000000 1.000000
vn 0.000000 0.000000 1.000000
vn 0.000000 0.000000 1.000000
vn 0.000000 0.000000 1.000000
vn 0.000000 0.000000 1.000000
vn 0.000000 0.000000 1.000000
vn 0.000000 0.000000 1.000000
vn 0.000000 0.000000 1.000000
vn 0.000000 0.000000 1.000000
vn 0.000000 0.000000 1.000000
vn 0.000000 0.000000 1.000000
vn 0.000000 0.000000 1.000000
vn 0.000000 0.000000 1.000000
vn 0.000000 0.000000 1.000000
vn 0.000000 0.000000 1.000000
vn 0.000000 0.000000 1.000000
vn 0.000000 0.000000 1.000000
vn 0.000000 0.000000 1.000000
vn 0.000000 0.000000 1.000000
vn 0.000000 0.000000 1.000000
vn 0.000000 0.000000 1.000000
s 1
g Trim_Char_C_1_1 Trim_Text_ABCDEFGHIJKLMN_1_1
usemtl initialShadingGroup
f 53/53/1 60/60/2 54/54/3
f 3/3/4 33/33/5 35/35/6
f 21/21/7 20/20/8 12/12/9
f 17/17/10 13/13/11 14/14/12
f 15/15/13 17/17/10 18/18/14
f 20/20/8 21/21/7 23/23/15
f 19/19/16 15/15/13 23/23/15
f 24/24/17 16/16/18 25/25/19
f 18/18/14 24/24/17 25/25/19
f 19/19/16 21/21/7 26/26/20
f 31/31/21 27/27/22 32/32/23
f 9/9/24 14/14/12 13/13/11
f 31/31/21 32/32/23 37/37/25
f 33/33/5 7/7/26 34/34/27
f 36/36/28 37/37/25 32/32/23
f 36/36/28 28/28/29 37/37/25
f 46/46/30 45/45/31 44/44/32
f 8/8/33 41/41/34 42/42/35
f 40/40/36 11/11/37 26/26/20
f 39/39/38 44/44/32 45/45/31
f 43/43/39 40/40/36 42/42/35
f 46/46/30 43/43/39 45/45/31
f 48/48/40 2/2/41 49/49/42
f 48/48/40 49/49/42 47/47/43
f 38/38/44 44/44/32 52/52/45
f 44/44/32 39/39/38 10/10/46
f 53/53/1 54/54/3 56/56/47
f 58/58/48 56/56/47 54/54/3
f 47/47/43 49/49/42 56/56/47
f 55/55/49 57/57/50 58/58/48
f 59/59/51 52/52/45 51/51/52
f 50/50/53 52/52/45 59/59/51
f 35/35/6 32/32/23 27/27/22
f 27/27/22 3/3/4 35/35/6
f 12/12/9 26/26/20 21/21/7
f 14/14/12 16/16/18 24/24/17
f 24/24/17 18/18/14 17/17/10
f 17/17/10 14/14/12 24/24/17
f 23/23/15 22/22/54 20/20/8
f 23/23/15 21/21/7 19/19/16
f 23/23/15 15/15/13 18/18/14
f 22/22/54 23/23/15 18/18/14
f 25/25/19 22/22/54 18/18/14
f 26/26/20 11/11/37 4/4/55
f 4/4/55 19/19/16 26/26/20
f 13/13/11 6/6/56 9/9/24
f 29/29/57 30/30/58 9/9/24
f 9/9/24 6/6/56 29/29/57
f 37/37/25 28/28/29 30/30/58
f 30/30/58 29/29/57 31/31/21
f 37/37/25 30/30/58 31/31/21
f 34/34/27 35/35/6 33/33/5
f 32/32/23 35/35/6 34/34/27
f 32/32/23 34/34/27 36/36/28
f 44/44/32 38/38/44 46/46/30
f 26/26/20 12/12/9 8/8/33
f 8/8/33 42/42/35 26/26/20
f 26/26/20 42/42/35 40/40/36
f 45/45/31 42/42/35 41/41/34
f 45/45/31 41/41/34 39/39/38
f 42/42/35 45/45/31 43/43/39
f 47/47/43 1/1/59 48/48/40
f 52/52/45 50/50/53 5/5/60
f 5/5/60 38/38/44 52/52/45
f 10/10/46 51/51/52 52/52/45
f 52/52/45 44/44/32 10/10/46
f 56/56/47 49/49/42 2/2/41
f 56/56/47 2/2/41 53/53/1
f 54/54/3 59/59/51 58/58/48
f 56/56/47 58/58/48 57/57/50
f 57/57/50 47/47/43 56/56/47
f 55/55/49 58/58/48 59/59/51
f 59/59/51 51/51/52 55/55/49
f 59/59/51 54/54/3 60/60/2
f 60/60/2 50/50/53 59/59/51
