# This file uses centimeters as units for non-parametric coordinates.

mtllib letterCapK.mtl
g default
v 0.575030 0.754696 0.000000
v 0.575030 1.471884 0.000000
v 0.957844 1.864071 0.000000
v 1.653156 0.754696 0.000000
v 2.225031 0.754696 0.000000
v 1.256282 2.218760 0.000000
v 2.225031 3.154696 0.000000
v 1.565657 3.154696 0.000000
v 0.575030 2.143760 0.000000
v 0.575030 3.154696 0.000000
v 0.075030 3.154696 0.000000
v 0.075030 0.754696 0.000000
v 1.431008 1.954696 0.000000
v 0.075030 1.954696 0.000000
v 0.935031 1.840699 0.000000
v 0.935031 1.954696 0.000000
v 0.575030 1.154696 0.000000
v 0.075030 1.154696 0.000000
v 0.505031 1.154696 0.000000
v 0.505031 0.754696 0.000000
v 0.655863 1.554696 0.000000
v 0.075030 1.554696 0.000000
v 0.505031 1.554696 0.000000
v 0.505031 1.954696 0.000000
v 1.402452 1.154696 0.000000
v 1.960357 1.154696 0.000000
v 1.795031 0.754696 0.000000
v 1.795031 1.154696 0.000000
v 1.365031 1.214403 0.000000
v 1.365031 1.954696 0.000000
v 1.151748 1.554696 0.000000
v 1.365031 1.554696 0.000000
v 1.695682 1.554696 0.000000
v 1.795031 1.404552 0.000000
v 0.935031 2.511141 0.000000
v 0.781729 2.354696 0.000000
v 0.575030 2.354696 0.000000
v 0.075030 2.354696 0.000000
v 0.935031 2.354696 0.000000
v 0.505031 2.354696 0.000000
v 0.575030 2.754696 0.000000
v 0.075030 2.754696 0.000000
v 0.505031 2.754696 0.000000
v 0.505031 3.154696 0.000000
v 1.396984 2.354696 0.000000
v 1.365031 2.054408 0.000000
v 1.365031 2.323825 0.000000
v 1.365031 2.354696 0.000000
v 1.365031 2.949957 0.000000
v 1.173693 2.754696 0.000000
v 1.365031 2.754696 0.000000
v 1.811007 2.754696 0.000000
v 1.795031 2.739261 0.000000
v 1.795031 2.754696 0.000000
v 1.795031 3.154696 0.000000
vt 0.232558 0.000000
vt 0.232558 0.298828
vt 0.410611 0.462240
vt 0.734012 0.000000
vt 1.000000 0.000000
vt 0.549419 0.610026
vt 1.000000 1.000000
vt 0.693314 1.000000
vt 0.232558 0.578777
vt 0.232558 1.000000
vt 0.000000 1.000000
vt 0.000000 0.000000
vt 0.630687 0.500000
vt 0.000000 0.500000
vt 0.400000 0.452501
vt 0.400000 0.500000
vt 0.232558 0.166667
vt 0.000000 0.166667
vt 0.200000 0.166667
vt 0.200000 0.000000
vt 0.270155 0.333333
vt 0.000000 0.333333
vt 0.200000 0.333333
vt 0.200000 0.500000
vt 0.617405 0.166667
vt 0.876896 0.166667
vt 0.800000 0.000000
vt 0.800000 0.166667
vt 0.600000 0.191544
vt 0.600000 0.500000
vt 0.500799 0.333333
vt 0.600000 0.333333
vt 0.753792 0.333333
vt 0.800000 0.270773
vt 0.400000 0.731852
vt 0.328697 0.666667
vt 0.232558 0.666667
vt 0.000000 0.666667
vt 0.400000 0.666667
vt 0.200000 0.666667
vt 0.232558 0.833333
vt 0.000000 0.833333
vt 0.200000 0.833333
vt 0.200000 1.000000
vt 0.614862 0.666667
vt 0.600000 0.541547
vt 0.600000 0.653804
vt 0.600000 0.666667
vt 0.600000 0.914692
vt 0.511006 0.833333
vt 0.600000 0.833333
vt 0.807431 0.833333
vt 0.800000 0.826902
vt 0.800000 0.833333
vt 0.800000 1.000000
vn 0.000000 0.000000 1.000000
vn 0.000000 0.000000 1.000000
vn 0.000000 0.000000 1.000000
vn 0.000000 0.000000 1.000000
vn 0.000000 0.000000 1.000000
vn 0.000000 0.000000 1.000000
vn 0.000000 0.000000 1.000000
vn 0.000000 0.000000 1.000000
vn 0.000000 0.000000 1.000000
vn 0.000000 0.000000 1.000000
vn 0.000000 0.000000 1.000000
vn 0.000000 0.000000 1.000000
vn 0.000000 0.000000 1.000000
vn 0.000000 0.000000 1.000000
vn 0.000000 0.000000 1.000000
vn 0.000000 0.000000 1.000000
vn 0.000000 0.000000 1.000000
vn 0.000000 0.000000 1.000000
vn 0.000000 0.000000 1.000000
vn 0.000000 0.000000 1.000000
vn 0.000000 0.000000 1.000000
vn 0.000000 0.000000 1.000000
vn 0.000000 0.000000 1.000000
vn 0.000000 0.000000 1.000000
vn 0.000000 0.000000 1.000000
vn 0.000000 0.000000 1.000000
vn 0.000000 0.000000 1.000000
vn 0.000000 0.000000 1.000000
vn 0.000000 0.000000 1.000000
vn 0.000000 0.000000 1.000000
vn 0.000000 0.000000 1.000000
vn 0.000000 0.000000 1.000000
vn 0.000000 0.000000 1.000000
vn 0.000000 0.000000 1.000000
vn 0.000000 0.000000 1.000000
vn 0.000000 0.000000 1.000000
vn 0.000000 0.000000 1.000000
vn 0.000000 0.000000 1.000000
vn 0.000000 0.000000 1.000000
vn 0.000000 0.000000 1.000000
vn 0.000000 0.000000 1.000000
vn 0.000000 0.000000 1.000000
vn 0.000000 0.000000 1.000000
vn 0.000000 0.000000 1.000000
vn 0.000000 0.000000 1.000000
vn 0.000000 0.000000 1.000000
vn 0.000000 0.000000 1.000000
vn 0.000000 0.000000 1.000000
vn 0.000000 0.000000 1.000000
vn 0.000000 0.000000 1.000000
vn 0.000000 0.000000 1.000000
vn 0.000000 0.000000 1.000000
vn 0.000000 0.000000 1.000000
vn 0.000000 0.000000 1.000000
vn 0.000000 0.000000 1.000000
s 1
g Trim_Char_K_2_1 Trim_Text_ABCDEFGHIJKLMN_1_1
usemtl initialShadingGroup
f 52/52/1 7/7/2 55/55/3
f 13/13/4 30/30/5 32/32/6
f 15/15/7 16/16/8 24/24/9
f 1/1/10 17/17/11 20/20/12
f 12/12/13 20/20/12 19/19/14
f 2/2/15 21/21/16 23/23/17
f 18/18/18 19/19/14 23/23/17
f 22/22/19 23/23/17 24/24/9
f 27/27/20 5/5/21 26/26/22
f 4/4/23 27/27/20 28/28/24
f 31/31/25 32/32/6 30/30/5
f 31/31/25 29/29/26 32/32/6
f 28/28/24 26/26/22 34/34/27
f 25/25/28 28/28/24 34/34/27
f 41/41/29 10/10/30 43/43/31
f 9/9/32 24/24/9 16/16/8
f 14/14/33 24/24/9 40/40/34
f 35/35/35 36/36/36 39/39/37
f 38/38/38 40/40/34 43/43/31
f 42/42/39 43/43/31 44/44/40
f 13/13/4 46/46/41 30/30/5
f 47/47/42 48/48/43 39/39/37
f 49/49/44 50/50/45 51/51/46
f 35/35/35 39/39/37 48/48/43
f 53/53/47 52/52/1 54/54/48
f 53/53/47 54/54/48 51/51/46
f 49/49/44 51/51/46 54/54/48
f 37/37/49 41/41/29 40/40/34
f 48/48/43 47/47/42 45/45/50
f 55/55/3 54/54/48 52/52/1
f 32/32/6 33/33/51 13/13/4
f 24/24/9 23/23/17 21/21/16
f 24/24/9 21/21/16 15/15/7
f 17/17/11 19/19/14 20/20/12
f 19/19/14 18/18/18 12/12/13
f 19/19/14 17/17/11 2/2/15
f 2/2/15 23/23/17 19/19/14
f 23/23/17 22/22/19 18/18/18
f 24/24/9 14/14/33 22/22/19
f 26/26/22 28/28/24 27/27/20
f 28/28/24 25/25/28 4/4/23
f 16/16/8 15/15/7 3/3/52
f 30/30/5 16/16/8 3/3/52
f 30/30/5 3/3/52 31/31/25
f 32/32/6 29/29/26 25/25/28
f 33/33/51 32/32/6 25/25/28
f 34/34/27 33/33/51 25/25/28
f 10/10/30 44/44/40 43/43/31
f 9/9/32 37/37/49 40/40/34
f 16/16/8 39/39/37 36/36/36
f 36/36/36 9/9/32 16/16/8
f 40/40/34 24/24/9 9/9/32
f 40/40/34 38/38/38 14/14/33
f 43/43/31 42/42/39 38/38/38
f 44/44/40 11/11/53 42/42/39
f 16/16/8 30/30/5 46/46/41
f 39/39/37 6/6/54 47/47/42
f 6/6/54 39/39/37 16/16/8
f 46/46/41 6/6/54 16/16/8
f 48/48/43 51/51/46 50/50/45
f 48/48/43 50/50/45 35/35/35
f 51/51/46 48/48/43 45/45/50
f 51/51/46 45/45/50 53/53/47
f 54/54/48 55/55/3 8/8/55
f 54/54/48 8/8/55 49/49/44
f 41/41/29 43/43/31 40/40/34
