# This file uses centimeters as units for non-parametric coordinates.

mtllib letterw.mtl
g default
v 1.044898 0.751237 0.000000
v 1.329272 1.909050 0.000000
v 1.619897 0.751237 0.000000
v 2.046460 0.751237 0.000000
v 2.579272 2.551237 0.000000
v 2.146461 2.551237 0.000000
v 1.829272 1.371550 0.000000
v 1.548022 2.551237 0.000000
v 1.118335 2.551237 0.000000
v 0.829272 1.371550 0.000000
v 0.513646 2.551237 0.000000
v 0.079272 2.551237 0.000000
v 0.613647 0.751237 0.000000
v 1.150701 1.182005 0.000000
v 1.150701 2.551237 0.000000
v 1.150701 1.651237 0.000000
v 0.897805 1.651237 0.000000
v 0.754441 1.651237 0.000000
v 0.346460 1.651237 0.000000
v 0.436414 1.651237 0.000000
v 0.436414 1.348231 0.000000
v 1.150701 1.201237 0.000000
v 0.480054 1.201237 0.000000
v 0.793557 1.201237 0.000000
v 0.793557 0.751237 0.000000
v 0.793557 1.505039 0.000000
v 0.436414 2.551237 0.000000
v 0.212865 2.101237 0.000000
v 0.436414 2.101237 0.000000
v 1.150701 2.101237 0.000000
v 1.008069 2.101237 0.000000
v 0.634044 2.101237 0.000000
v 1.265950 1.651237 0.000000
v 1.393987 1.651237 0.000000
v 2.312865 1.651237 0.000000
v 1.904474 1.651237 0.000000
v 1.762592 1.651237 0.000000
v 1.864986 0.751237 0.000000
v 1.864986 1.504376 0.000000
v 1.155423 1.201237 0.000000
v 1.506942 1.201237 0.000000
v 1.864986 1.201237 0.000000
v 1.507842 1.201237 0.000000
v 1.507842 1.197647 0.000000
v 1.507842 1.651237 0.000000
v 2.179664 1.201237 0.000000
v 2.222129 1.344699 0.000000
v 2.222129 1.651237 0.000000
v 1.655307 2.101237 0.000000
v 1.507842 2.101237 0.000000
v 1.507842 2.551237 0.000000
v 2.446069 2.101237 0.000000
v 2.025466 2.101237 0.000000
v 2.222129 2.101237 0.000000
v 2.222129 2.551237 0.000000
vt 0.386250 0.000000
vt 0.500000 0.643230
vt 0.616250 0.000000
vt 0.786875 0.000000
vt 1.000000 1.000000
vt 0.826875 1.000000
vt 0.700000 0.344618
vt 0.587500 1.000000
vt 0.415625 1.000000
vt 0.300000 0.344618
vt 0.173750 1.000000
vt 0.000000 1.000000
vt 0.213750 0.000000
vt 0.428571 0.239316
vt 0.428571 1.000000
vt 0.428571 0.500000
vt 0.327413 0.500000
vt 0.270068 0.500000
vt 0.106875 0.500000
vt 0.142857 0.500000
vt 0.142857 0.331663
vt 0.428571 0.250000
vt 0.160313 0.250000
vt 0.285714 0.250000
vt 0.285714 0.000000
vt 0.285714 0.418779
vt 0.142857 1.000000
vt 0.053438 0.750000
vt 0.142857 0.750000
vt 0.428571 0.750000
vt 0.371519 0.750000
vt 0.221909 0.750000
vt 0.474671 0.500000
vt 0.525886 0.500000
vt 0.893438 0.500000
vt 0.730081 0.500000
vt 0.673328 0.500000
vt 0.714286 0.000000
vt 0.714286 0.418410
vt 0.430461 0.250000
vt 0.571068 0.250000
vt 0.714286 0.250000
vt 0.571429 0.250000
vt 0.571429 0.248006
vt 0.571429 0.500000
vt 0.840157 0.250000
vt 0.857143 0.329701
vt 0.857143 0.500000
vt 0.630414 0.750000
vt 0.571429 0.750000
vt 0.571429 1.000000
vt 0.946719 0.750000
vt 0.778478 0.750000
vt 0.857143 0.750000
vt 0.857143 1.000000
vn 0.000000 0.000000 1.000000
vn 0.000000 0.000000 1.000000
vn 0.000000 0.000000 1.000000
vn 0.000000 0.000000 1.000000
vn 0.000000 0.000000 1.000000
vn 0.000000 0.000000 1.000000
vn 0.000000 0.000000 1.000000
vn 0.000000 0.000000 1.000000
vn 0.000000 0.000000 1.000000
vn 0.000000 0.000000 1.000000
vn 0.000000 0.000000 1.000000
vn 0.000000 0.000000 1.000000
vn 0.000000 0.000000 1.000000
vn 0.000000 0.000000 1.000000
vn 0.000000 0.000000 1.000000
vn 0.000000 0.000000 1.000000
vn 0.000000 0.000000 1.000000
vn 0.000000 0.000000 1.000000
vn 0.000000 0.000000 1.000000
vn 0.000000 0.000000 1.000000
vn 0.000000 0.000000 1.000000
vn 0.000000 0.000000 1.000000
vn 0.000000 0.000000 1.000000
vn 0.000000 0.000000 1.000000
vn 0.000000 0.000000 1.000000
vn 0.000000 0.000000 1.000000
vn 0.000000 0.000000 1.000000
vn 0.000000 0.000000 1.000000
vn 0.000000 0.000000 1.000000
vn 0.000000 0.000000 1.000000
vn 0.000000 0.000000 1.000000
vn 0.000000 0.000000 1.000000
vn 0.000000 0.000000 1.000000
vn 0.000000 0.000000 1.000000
vn 0.000000 0.000000 1.000000
vn 0.000000 0.000000 1.000000
vn 0.000000 0.000000 1.000000
vn 0.000000 0.000000 1.000000
vn 0.000000 0.000000 1.000000
vn 0.000000 0.000000 1.000000
vn 0.000000 0.000000 1.000000
vn 0.000000 0.000000 1.000000
vn 0.000000 0.000000 1.000000
vn 0.000000 0.000000 1.000000
vn 0.000000 0.000000 1.000000
vn 0.000000 0.000000 1.000000
vn 0.000000 0.000000 1.000000
vn 0.000000 0.000000 1.000000
vn 0.000000 0.000000 1.000000
vn 0.000000 0.000000 1.000000
vn 0.000000 0.000000 1.000000
vn 0.000000 0.000000 1.000000
vn 0.000000 0.000000 1.000000
vn 0.000000 0.000000 1.000000
vn 0.000000 0.000000 1.000000
s 1
g Trim_Char_w_3_1 Trim_Text_mnopqrstuvwxyz_1_1
usemtl initialShadingGroup
f 52/52/1 5/5/2 55/55/3
f 30/30/4 15/15/5 9/9/6
f 22/22/7 16/16/8 17/17/9
f 20/20/10 19/19/11 21/21/12
f 14/14/13 22/22/7 24/24/14
f 24/24/14 23/23/15 13/13/16
f 23/23/15 24/24/14 26/26/17
f 27/27/18 12/12/19 28/28/20
f 19/19/11 20/20/10 29/29/21
f 16/16/8 30/30/4 31/31/22
f 32/32/23 29/29/21 20/20/10
f 11/11/24 27/27/18 29/29/21
f 47/47/25 35/35/26 48/48/27
f 37/37/28 45/45/29 43/43/30
f 42/42/31 43/43/30 44/44/32
f 14/14/13 40/40/33 22/22/7
f 40/40/33 33/33/34 16/16/8
f 4/4/35 46/46/36 42/42/31
f 47/47/25 48/48/27 36/36/37
f 8/8/38 51/51/39 50/50/40
f 45/45/29 37/37/28 49/49/41
f 34/34/42 45/45/29 50/50/40
f 30/30/4 50/50/40 51/51/39
f 35/35/26 52/52/1 54/54/43
f 53/53/44 36/36/37 48/48/27
f 6/6/45 53/53/44 54/54/43
f 43/43/30 41/41/46 44/44/32
f 45/45/29 34/34/42 41/41/46
f 55/55/3 54/54/43 52/52/1
f 9/9/6 31/31/22 30/30/4
f 10/10/47 26/26/17 24/24/14
f 10/10/47 24/24/14 22/22/7
f 22/22/7 17/17/9 10/10/47
f 24/24/14 25/25/48 1/1/49
f 24/24/14 1/1/49 14/14/13
f 13/13/16 25/25/48 24/24/14
f 26/26/17 18/18/50 20/20/10
f 26/26/17 20/20/10 21/21/12
f 26/26/17 21/21/12 23/23/15
f 28/28/20 29/29/21 27/27/18
f 29/29/21 28/28/20 19/19/11
f 31/31/22 17/17/9 16/16/8
f 20/20/10 18/18/50 32/32/23
f 29/29/21 32/32/23 11/11/24
f 42/42/31 39/39/51 7/7/52
f 43/43/30 42/42/31 7/7/52
f 7/7/52 37/37/28 43/43/30
f 3/3/53 38/38/54 42/42/31
f 44/44/32 3/3/53 42/42/31
f 16/16/8 22/22/7 40/40/33
f 42/42/31 38/38/54 4/4/35
f 42/42/31 46/46/36 47/47/25
f 39/39/51 42/42/31 47/47/25
f 36/36/37 39/39/51 47/47/25
f 50/50/40 49/49/41 8/8/38
f 49/49/41 50/50/40 45/45/29
f 30/30/4 16/16/8 33/33/34
f 50/50/40 2/2/55 34/34/42
f 2/2/55 50/50/40 30/30/4
f 33/33/34 2/2/55 30/30/4
f 51/51/39 15/15/5 30/30/4
f 54/54/43 48/48/27 35/35/26
f 48/48/27 54/54/43 53/53/44
f 54/54/43 55/55/3 6/6/45
f 41/41/46 43/43/30 45/45/29
