# This file uses centimeters as units for non-parametric coordinates.

mtllib letterCapF.mtl
g default
v 0.558466 0.754696 0.000000
v 0.558466 1.754696 0.000000
v 1.558466 1.754696 0.000000
v 1.558466 2.154696 0.000000
v 0.558466 2.154696 0.000000
v 0.558466 2.754696 0.000000
v 1.658466 2.754696 0.000000
v 1.658466 3.154696 0.000000
v 0.058466 3.154696 0.000000
v 0.058466 0.754696 0.000000
v 1.558466 1.783268 0.000000
v 0.058466 1.783268 0.000000
v 0.858466 1.754696 0.000000
v 0.858466 1.783268 0.000000
v 0.558466 1.097553 0.000000
v 0.058466 1.097553 0.000000
v 0.458466 1.097553 0.000000
v 0.458466 0.754696 0.000000
v 0.558466 1.440411 0.000000
v 0.058466 1.440411 0.000000
v 0.458466 1.440411 0.000000
v 0.458466 1.783268 0.000000
v 1.258466 1.754696 0.000000
v 1.258466 1.783268 0.000000
v 0.558466 2.468982 0.000000
v 0.058466 2.468982 0.000000
v 0.858466 2.154696 0.000000
v 0.058466 2.126125 0.000000
v 0.858466 2.126125 0.000000
v 0.458466 2.126125 0.000000
v 0.458466 2.468982 0.000000
v 1.558466 2.126125 0.000000
v 1.258466 2.126125 0.000000
v 1.258466 2.154696 0.000000
v 0.858466 2.754696 0.000000
v 0.858466 3.154696 0.000000
v 0.858466 2.811839 0.000000
v 0.058466 2.811839 0.000000
v 0.458466 2.811839 0.000000
v 0.458466 3.154696 0.000000
v 1.658466 2.811839 0.000000
v 1.258466 2.754696 0.000000
v 1.258466 2.811839 0.000000
v 1.258466 3.154696 0.000000
vt 0.312500 0.000000
vt 0.312500 0.416667
vt 0.937500 0.416667
vt 0.937500 0.583333
vt 0.312500 0.583333
vt 0.312500 0.833333
vt 1.000000 0.833333
vt 1.000000 1.000000
vt 0.000000 1.000000
vt 0.000000 0.000000
vt 0.937500 0.428571
vt 0.000000 0.428571
vt 0.500000 0.416667
vt 0.500000 0.428571
vt 0.312500 0.142857
vt 0.000000 0.142857
vt 0.250000 0.142857
vt 0.250000 0.000000
vt 0.312500 0.285714
vt 0.000000 0.285714
vt 0.250000 0.285714
vt 0.250000 0.428571
vt 0.750000 0.416667
vt 0.750000 0.428571
vt 0.312500 0.714286
vt 0.000000 0.714286
vt 0.500000 0.583333
vt 0.000000 0.571429
vt 0.500000 0.571429
vt 0.250000 0.571429
vt 0.250000 0.714286
vt 0.937500 0.571429
vt 0.750000 0.571429
vt 0.750000 0.583333
vt 0.500000 0.833333
vt 0.500000 1.000000
vt 0.500000 0.857143
vt 0.000000 0.857143
vt 0.250000 0.857143
vt 0.250000 1.000000
vt 1.000000 0.857143
vt 0.750000 0.833333
vt 0.750000 0.857143
vt 0.750000 1.000000
vn 0.000000 0.000000 1.000000
vn 0.000000 0.000000 1.000000
vn 0.000000 0.000000 1.000000
vn 0.000000 0.000000 1.000000
vn 0.000000 0.000000 1.000000
vn 0.000000 0.000000 1.000000
vn 0.000000 0.000000 1.000000
vn 0.000000 0.000000 1.000000
vn 0.000000 0.000000 1.000000
vn 0.000000 0.000000 1.000000
vn 0.000000 0.000000 1.000000
vn 0.000000 0.000000 1.000000
vn 0.000000 0.000000 1.000000
vn 0.000000 0.000000 1.000000
vn 0.000000 0.000000 1.000000
vn 0.000000 0.000000 1.000000
vn 0.000000 0.000000 1.000000
vn 0.000000 0.000000 1.000000
vn 0.000000 0.000000 1.000000
vn 0.000000 0.000000 1.000000
vn 0.000000 0.000000 1.000000
vn 0.000000 0.000000 1.000000
vn 0.000000 0.000000 1.000000
vn 0.000000 0.000000 1.000000
vn 0.000000 0.000000 1.000000
vn 0.000000 0.000000 1.000000
vn 0.000000 0.000000 1.000000
vn 0.000000 0.000000 1.000000
vn 0.000000 0.000000 1.000000
vn 0.000000 0.000000 1.000000
vn 0.000000 0.000000 1.000000
vn 0.000000 0.000000 1.000000
vn 0.000000 0.000000 1.000000
vn 0.000000 0.000000 1.000000
vn 0.000000 0.000000 1.000000
vn 0.000000 0.000000 1.000000
vn 0.000000 0.000000 1.000000
vn 0.000000 0.000000 1.000000
vn 0.000000 0.000000 1.000000
vn 0.000000 0.000000 1.000000
vn 0.000000 0.000000 1.000000
vn 0.000000 0.000000 1.000000
vn 0.000000 0.000000 1.000000
vn 0.000000 0.000000 1.000000
s 1
g Trim_Char_F_1_1 Trim_Text_ABCDEFGHIJKLMN_1_1
usemtl initialShadingGroup
f 41/41/1 8/8/2 43/43/3
f 23/23/4 3/3/5 11/11/6
f 2/2/7 14/14/8 22/22/9
f 1/1/10 15/15/11 18/18/12
f 10/10/13 18/18/12 17/17/14
f 15/15/11 19/19/15 17/17/14
f 16/16/16 17/17/14 21/21/17
f 20/20/18 21/21/17 22/22/9
f 13/13/19 23/23/4 24/24/20
f 32/32/21 4/4/22 33/33/23
f 5/5/24 25/25/25 31/31/26
f 22/22/9 14/14/8 29/29/27
f 12/12/28 22/22/9 30/30/29
f 28/28/30 30/30/29 31/31/26
f 11/11/6 32/32/21 24/24/20
f 14/14/8 24/24/20 33/33/23
f 29/29/27 33/33/23 34/34/31
f 37/37/32 36/36/33 39/39/34
f 6/6/35 35/35/36 37/37/32
f 26/26/37 31/31/26 39/39/34
f 38/38/38 39/39/34 40/40/39
f 42/42/40 7/7/41 41/41/1
f 35/35/36 42/42/40 43/43/3
f 37/37/32 43/43/3 44/44/42
f 8/8/2 44/44/42 43/43/3
f 11/11/6 24/24/20 23/23/4
f 2/2/7 13/13/19 14/14/8
f 21/21/17 19/19/15 2/2/7
f 2/2/7 22/22/9 21/21/17
f 15/15/11 17/17/14 18/18/12
f 17/17/14 16/16/16 10/10/13
f 19/19/15 21/21/17 17/17/14
f 21/21/17 20/20/18 16/16/16
f 22/22/9 12/12/28 20/20/18
f 24/24/20 14/14/8 13/13/19
f 4/4/22 34/34/31 33/33/23
f 29/29/27 27/27/43 5/5/24
f 5/5/24 22/22/9 29/29/27
f 31/31/26 30/30/29 5/5/24
f 22/22/9 5/5/24 30/30/29
f 30/30/29 28/28/30 12/12/28
f 31/31/26 26/26/37 28/28/30
f 32/32/21 33/33/23 24/24/20
f 33/33/23 29/29/27 14/14/8
f 34/34/31 27/27/43 29/29/27
f 36/36/33 40/40/39 39/39/34
f 31/31/26 25/25/25 6/6/35
f 39/39/34 31/31/26 6/6/35
f 37/37/32 39/39/34 6/6/35
f 39/39/34 38/38/38 26/26/37
f 40/40/39 9/9/44 38/38/38
f 41/41/1 43/43/3 42/42/40
f 43/43/3 37/37/32 35/35/36
f 44/44/42 36/36/33 37/37/32
