# This file uses centimeters as units for non-parametric coordinates.

mtllib letterCapO.mtl
g default
v 0.061344 1.914245 0.000000
v 2.361495 1.924330 0.000000
v 1.216392 0.728054 0.000000
v 1.213301 3.128820 0.000000
v 0.561344 1.929869 0.000000
v 1.861344 1.936119 0.000000
v 1.214469 2.728306 0.000000
v 1.214469 1.128307 0.000000
v 0.063257 1.829479 0.000000
v 2.359186 1.829473 0.000000
v 1.858146 1.829479 0.000000
v 0.564383 1.829479 0.000000
v 0.981420 0.745354 0.000000
v 0.981463 1.168766 0.000000
v 0.388389 1.028118 0.000000
v 0.981400 1.028243 0.000000
v 0.520968 0.919982 0.000000
v 0.521372 1.028243 0.000000
v 0.106294 1.528305 0.000000
v 0.626111 1.528309 0.000000
v 0.521372 1.528309 0.000000
v 0.201109 1.278270 0.000000
v 0.521372 1.278276 0.000000
v 0.291356 1.136969 0.000000
v 0.291358 1.278276 0.000000
v 0.291358 1.528309 0.000000
v 0.799838 1.277804 0.000000
v 0.751386 1.028243 0.000000
v 0.751386 1.278276 0.000000
v 0.751118 1.325776 0.000000
v 0.521372 1.829479 0.000000
v 2.032838 1.028218 0.000000
v 1.441431 0.744723 0.000000
v 1.441428 1.028243 0.000000
v 1.901604 0.920333 0.000000
v 1.901457 1.028243 0.000000
v 1.441368 1.166749 0.000000
v 2.314709 1.528303 0.000000
v 1.797965 1.528309 0.000000
v 1.901457 1.528309 0.000000
v 1.627152 1.277798 0.000000
v 1.901457 1.278276 0.000000
v 1.671442 1.028243 0.000000
v 1.671442 1.278276 0.000000
v 1.671721 1.321792 0.000000
v 2.218741 1.278106 0.000000
v 2.131555 1.140742 0.000000
v 2.131471 1.278276 0.000000
v 2.131471 1.528309 0.000000
v 1.901457 1.829479 0.000000
v 0.981343 3.113144 0.000000
v 0.981447 2.690970 0.000000
v 0.106662 2.328574 0.000000
v 0.621412 2.328565 0.000000
v 0.521372 2.328564 0.000000
v 0.391154 2.828415 0.000000
v 0.981400 2.828435 0.000000
v 0.521372 2.828435 0.000000
v 0.204004 2.578425 0.000000
v 0.521372 2.578500 0.000000
v 0.291358 2.328564 0.000000
v 0.291358 2.578500 0.000000
v 0.291319 2.713416 0.000000
v 0.789750 2.578907 0.000000
v 0.751131 2.541278 0.000000
v 0.751386 2.578500 0.000000
v 0.751386 2.828435 0.000000
v 0.521758 2.939013 0.000000
v 2.313816 2.328582 0.000000
v 1.803632 2.328563 0.000000
v 1.901457 2.328564 0.000000
v 1.441428 3.111459 0.000000
v 1.441381 2.692999 0.000000
v 1.441428 2.828435 0.000000
v 2.028138 2.828434 0.000000
v 1.901457 2.828435 0.000000
v 1.637882 2.578913 0.000000
v 1.901457 2.578500 0.000000
v 1.671720 2.545965 0.000000
v 1.671442 2.578500 0.000000
v 1.671442 2.828435 0.000000
v 2.217291 2.578502 0.000000
v 2.131471 2.578500 0.000000
v 2.131471 2.328564 0.000000
v 2.131422 2.712486 0.000000
v 1.901457 2.932197 0.000000
vt 0.000000 0.494089
vt 1.000000 0.498289
vt 0.502164 0.000000
vt 0.500820 1.000000
vt 0.217378 0.500597
vt 0.782561 0.503200
vt 0.501328 0.833173
vt 0.501328 0.166719
vt 0.000832 0.458781
vt 0.998950 0.458781
vt 0.781170 0.458781
vt 0.218700 0.458781
vt 0.400000 0.007152
vt 0.400000 0.183501
vt 0.142238 0.125039
vt 0.400000 0.125039
vt 0.200000 0.080192
vt 0.200000 0.125039
vt 0.019549 0.333333
vt 0.245536 0.333333
vt 0.200000 0.333333
vt 0.060769 0.229186
vt 0.200000 0.229186
vt 0.100000 0.170327
vt 0.100000 0.229186
vt 0.100000 0.333333
vt 0.321246 0.229186
vt 0.300000 0.125039
vt 0.300000 0.229186
vt 0.300000 0.249073
vt 0.200000 0.458781
vt 0.857108 0.125039
vt 0.600000 0.006951
vt 0.600000 0.125039
vt 0.800000 0.080180
vt 0.800000 0.125039
vt 0.600000 0.182663
vt 0.979653 0.333333
vt 0.755006 0.333333
vt 0.800000 0.333333
vt 0.680559 0.229186
vt 0.800000 0.229186
vt 0.700000 0.125039
vt 0.700000 0.229186
vt 0.700000 0.247418
vt 0.937801 0.229186
vt 0.900000 0.171925
vt 0.900000 0.229186
vt 0.900000 0.333333
vt 0.800000 0.458781
vt 0.400000 0.993303
vt 0.400000 0.817676
vt 0.019719 0.666667
vt 0.243493 0.666667
vt 0.200000 0.666667
vt 0.143379 0.874880
vt 0.400000 0.874880
vt 0.200000 0.874880
vt 0.061963 0.770773
vt 0.200000 0.770773
vt 0.100000 0.666667
vt 0.100000 0.770773
vt 0.100000 0.826958
vt 0.316836 0.770773
vt 0.300000 0.755170
vt 0.300000 0.770773
vt 0.300000 0.874880
vt 0.200000 0.921167
vt 0.979246 0.666667
vt 0.757471 0.666667
vt 0.800000 0.666667
vt 0.600000 0.992768
vt 0.600000 0.818525
vt 0.600000 0.874880
vt 0.855076 0.874880
vt 0.800000 0.874880
vt 0.685248 0.770773
vt 0.800000 0.770773
vt 0.700000 0.757112
vt 0.700000 0.770773
vt 0.700000 0.874880
vt 0.937309 0.770773
vt 0.900000 0.770773
vt 0.900000 0.666667
vt 0.900000 0.826598
vt 0.800000 0.918100
vn 0.000000 0.000000 1.000000
vn 0.000000 0.000000 1.000000
vn 0.000000 0.000000 1.000000
vn 0.000000 0.000000 1.000000
vn 0.000000 0.000000 1.000000
vn 0.000000 0.000000 1.000000
vn 0.000000 0.000000 1.000000
vn 0.000000 0.000000 1.000000
vn 0.000000 0.000000 1.000000
vn 0.000000 0.000000 1.000000
vn 0.000000 0.000000 1.000000
vn 0.000000 0.000000 1.000000
vn 0.000000 0.000000 1.000000
vn 0.000000 0.000000 1.000000
vn 0.000000 0.000000 1.000000
vn 0.000000 0.000000 1.000000
vn 0.000000 0.000000 1.000000
vn 0.000000 0.000000 1.000000
vn 0.000000 0.000000 1.000000
vn 0.000000 0.000000 1.000000
vn 0.000000 0.000000 1.000000
vn 0.000000 0.000000 1.000000
vn 0.000000 0.000000 1.000000
vn 0.000000 0.000000 1.000000
vn 0.000000 0.000000 1.000000
vn 0.000000 0.000000 1.000000
vn 0.000000 0.000000 1.000000
vn 0.000000 0.000000 1.000000
vn 0.000000 0.000000 1.000000
vn 0.000000 0.000000 1.000000
vn 0.000000 0.000000 1.000000
vn 0.000000 0.000000 1.000000
vn 0.000000 0.000000 1.000000
vn 0.000000 0.000000 1.000000
vn 0.000000 0.000000 1.000000
vn 0.000000 0.000000 1.000000
vn 0.000000 0.000000 1.000000
vn 0.000000 0.000000 1.000000
vn 0.000000 0.000000 1.000000
vn 0.000000 0.000000 1.000000
vn 0.000000 0.000000 1.000000
vn 0.000000 0.000000 1.000000
vn 0.000000 0.000000 1.000000
vn 0.000000 0.000000 1.000000
vn 0.000000 0.000000 1.000000
vn 0.000000 0.000000 1.000000
vn 0.000000 0.000000 1.000000
vn 0.000000 0.000000 1.000000
vn 0.000000 0.000000 1.000000
vn 0.000000 0.000000 1.000000
vn 0.000000 0.000000 1.000000
vn 0.000000 0.000000 1.000000
vn 0.000000 0.000000 1.000000
vn 0.000000 0.000000 1.000000
vn 0.000000 0.000000 1.000000
vn 0.000000 0.000000 1.000000
vn 0.000000 0.000000 1.000000
vn 0.000000 0.000000 1.000000
vn 0.000000 0.000000 1.000000
vn 0.000000 0.000000 1.000000
vn 0.000000 0.000000 1.000000
vn 0.000000 0.000000 1.000000
vn 0.000000 0.000000 1.000000
vn 0.000000 0.000000 1.000000
vn 0.000000 0.000000 1.000000
vn 0.000000 0.000000 1.000000
vn 0.000000 0.000000 1.000000
vn 0.000000 0.000000 1.000000
vn 0.000000 0.000000 1.000000
vn 0.000000 0.000000 1.000000
vn 0.000000 0.000000 1.000000
vn 0.000000 0.000000 1.000000
vn 0.000000 0.000000 1.000000
vn 0.000000 0.000000 1.000000
vn 0.000000 0.000000 1.000000
vn 0.000000 0.000000 1.000000
vn 0.000000 0.000000 1.000000
vn 0.000000 0.000000 1.000000
vn 0.000000 0.000000 1.000000
vn 0.000000 0.000000 1.000000
vn 0.000000 0.000000 1.000000
vn 0.000000 0.000000 1.000000
vn 0.000000 0.000000 1.000000
vn 0.000000 0.000000 1.000000
vn 0.000000 0.000000 1.000000
vn 0.000000 0.000000 1.000000
s 1
g Trim_Char_O_1_1 Trim_Text_OPQRSTUVWXYZ_1_1
usemtl initialShadingGroup
f 75/75/1 86/86/2 76/76/3
f 50/50/4 40/40/5 49/49/6
f 21/21/7 20/20/8 12/12/9
f 13/13/10 16/16/11 28/28/12
f 15/15/13 17/17/14 18/18/15
f 27/27/16 30/30/17 29/29/18
f 25/25/19 23/23/20 21/21/7
f 15/15/13 18/18/15 23/23/20
f 22/22/21 24/24/22 25/25/19
f 22/22/21 25/25/19 26/26/23
f 28/28/12 16/16/11 14/14/24
f 18/18/15 28/28/12 29/29/18
f 20/20/8 21/21/7 23/23/20
f 26/26/23 21/21/7 31/31/25
f 35/35/26 32/32/27 36/36/28
f 3/3/29 33/33/30 34/34/31
f 35/35/26 36/36/28 43/43/32
f 8/8/33 14/14/24 16/16/11
f 46/46/34 38/38/35 49/49/6
f 45/45/36 44/44/37 42/42/38
f 43/43/32 36/36/28 42/42/38
f 37/37/39 34/34/31 43/43/32
f 45/45/36 41/41/40 44/44/37
f 47/47/41 46/46/34 48/48/42
f 47/47/41 48/48/42 42/42/38
f 42/42/38 48/48/42 49/49/6
f 11/11/43 39/39/44 40/40/5
f 68/68/45 58/58/46 67/67/47
f 5/5/48 54/54/49 55/55/50
f 31/31/25 55/55/50 61/61/51
f 52/52/52 57/57/53 67/67/47
f 63/63/54 62/62/55 60/60/56
f 61/61/51 55/55/50 60/60/56
f 59/59/57 53/53/58 61/61/51
f 63/63/54 59/59/57 62/62/55
f 65/65/59 64/64/60 66/66/61
f 65/65/59 66/66/61 60/60/56
f 60/60/56 66/66/61 67/67/47
f 68/68/45 56/56/62 58/58/46
f 84/84/63 71/71/64 50/50/4
f 71/71/64 70/70/65 6/6/66
f 4/4/67 51/51/68 57/57/53
f 57/57/53 52/52/52 7/7/69
f 82/82/70 85/85/71 83/83/72
f 80/80/73 78/78/74 76/76/3
f 70/70/65 71/71/64 78/78/74
f 77/77/75 79/79/76 80/80/73
f 81/81/77 74/74/78 73/73/79
f 82/82/70 83/83/72 84/84/63
f 71/71/64 84/84/63 83/83/72
f 75/75/1 76/76/3 78/78/74
f 72/72/80 74/74/78 81/81/77
f 49/49/6 38/38/35 10/10/81
f 10/10/81 50/50/4 49/49/6
f 12/12/9 31/31/25 21/21/7
f 28/28/12 18/18/15 17/17/14
f 17/17/14 13/13/10 28/28/12
f 21/21/7 26/26/23 25/25/19
f 23/23/20 25/25/19 24/24/22
f 23/23/20 24/24/22 15/15/13
f 26/26/23 19/19/82 22/22/21
f 27/27/16 29/29/18 28/28/12
f 28/28/12 14/14/24 27/27/16
f 29/29/18 23/23/20 18/18/15
f 23/23/20 29/29/18 30/30/17
f 30/30/17 20/20/8 23/23/20
f 9/9/83 19/19/82 26/26/23
f 26/26/23 31/31/25 9/9/83
f 34/34/31 16/16/11 13/13/10
f 34/34/31 13/13/10 3/3/29
f 43/43/32 34/34/31 33/33/30
f 43/43/32 33/33/30 35/35/26
f 34/34/31 37/37/39 8/8/33
f 8/8/33 16/16/11 34/34/31
f 49/49/6 48/48/42 46/46/34
f 42/42/38 40/40/5 39/39/44
f 42/42/38 39/39/44 45/45/36
f 42/42/38 44/44/37 43/43/32
f 43/43/32 44/44/37 41/41/40
f 41/41/40 37/37/39 43/43/32
f 42/42/38 36/36/28 32/32/27
f 32/32/27 47/47/41 42/42/38
f 49/49/6 40/40/5 42/42/38
f 40/40/5 50/50/4 11/11/43
f 67/67/47 57/57/53 51/51/68
f 67/67/47 51/51/68 68/68/45
f 31/31/25 12/12/9 5/5/48
f 5/5/48 55/55/50 31/31/25
f 1/1/84 9/9/83 31/31/25
f 61/61/51 53/53/58 31/31/25
f 31/31/25 53/53/58 1/1/84
f 67/67/47 66/66/61 64/64/60
f 64/64/60 52/52/52 67/67/47
f 60/60/56 58/58/46 56/56/62
f 56/56/62 63/63/54 60/60/56
f 60/60/56 62/62/55 61/61/51
f 61/61/51 62/62/55 59/59/57
f 60/60/56 55/55/50 54/54/49
f 60/60/56 54/54/49 65/65/59
f 67/67/47 58/58/46 60/60/56
f 50/50/4 10/10/81 2/2/85
f 50/50/4 69/69/86 84/84/63
f 2/2/85 69/69/86 50/50/4
f 6/6/66 11/11/43 50/50/4
f 50/50/4 71/71/64 6/6/66
f 57/57/53 74/74/78 72/72/80
f 57/57/53 72/72/80 4/4/67
f 7/7/69 73/73/79 74/74/78
f 74/74/78 57/57/53 7/7/69
f 76/76/3 81/81/77 80/80/73
f 78/78/74 80/80/73 79/79/76
f 79/79/76 70/70/65 78/78/74
f 77/77/75 80/80/73 81/81/77
f 81/81/77 73/73/79 77/77/75
f 84/84/63 69/69/86 82/82/70
f 83/83/72 78/78/74 71/71/64
f 78/78/74 83/83/72 85/85/71
f 78/78/74 85/85/71 75/75/1
f 81/81/77 76/76/3 86/86/2
f 86/86/2 72/72/80 81/81/77
