# This file uses centimeters as units for non-parametric coordinates.

mtllib letterf.mtl
g default
v 0.105598 2.258292 0.000000
v 0.305598 2.258292 0.000000
v 0.305598 0.758293 0.000000
v 0.805598 0.758293 0.000000
v 0.805598 2.258292 0.000000
v 1.105598 2.258292 0.000000
v 1.105598 2.558293 0.000000
v 0.805598 2.558293 0.000000
v 1.155599 2.831731 0.000000
v 0.804732 2.642340 0.000000
v 0.975350 2.858913 0.000000
v 1.205598 3.108293 0.000000
v 0.305598 2.558293 0.000000
v 0.830936 3.158392 0.000000
v 0.305227 2.646223 0.000000
v 0.105598 2.558293 0.000000
v 0.305598 1.958297 0.000000
v 0.805598 1.958297 0.000000
v 0.305598 1.358295 0.000000
v 0.805598 1.358295 0.000000
v 0.472265 0.758293 0.000000
v 0.472265 1.358295 0.000000
v 0.305598 1.058294 0.000000
v 0.472265 1.058294 0.000000
v 0.805598 1.058294 0.000000
v 0.472265 1.958297 0.000000
v 0.305598 1.658296 0.000000
v 0.472265 1.658296 0.000000
v 0.805598 1.658296 0.000000
v 0.804760 2.633294 0.000000
v 0.305244 2.633294 0.000000
v 0.472265 2.633294 0.000000
v 0.472265 2.333294 0.000000
v 0.105598 2.333294 0.000000
v 1.105598 2.333294 0.000000
v 0.838932 2.258292 0.000000
v 0.838932 2.333294 0.000000
v 0.838932 2.558293 0.000000
v 0.472024 3.076032 0.000000
v 0.312377 2.802514 0.000000
v 0.472265 2.802502 0.000000
v 0.368888 2.980025 0.000000
v 0.472265 2.980401 0.000000
v 0.832028 2.802428 0.000000
v 0.839012 2.812523 0.000000
v 0.838932 3.158373 0.000000
v 1.182477 2.980401 0.000000
v 0.838932 2.980401 0.000000
v 1.022264 2.856600 0.000000
v 1.022265 2.980401 0.000000
v 1.022265 2.891451 0.000000
v 0.838932 2.891451 0.000000
v 0.930597 2.856167 0.000000
v 0.930598 2.891451 0.000000
v 0.930598 2.980401 0.000000
v 1.022209 3.144980 0.000000
vt 0.000000 0.624998
vt 0.181818 0.624998
vt 0.181818 0.000000
vt 0.636364 0.000000
vt 0.636364 0.624998
vt 0.909091 0.624998
vt 0.909091 0.749997
vt 0.636364 0.749997
vt 0.954546 0.863930
vt 0.635576 0.785017
vt 0.790684 0.875252
vt 1.000000 0.979164
vt 0.181818 0.749997
vt 0.659398 1.000000
vt 0.181501 0.786635
vt 0.000000 0.749997
vt 0.181818 0.500000
vt 0.636364 0.500000
vt 0.181818 0.250000
vt 0.636364 0.250000
vt 0.333333 0.000000
vt 0.333333 0.250000
vt 0.181818 0.125000
vt 0.333333 0.125000
vt 0.636364 0.125000
vt 0.333333 0.500000
vt 0.181818 0.375000
vt 0.333333 0.375000
vt 0.636364 0.375000
vt 0.635602 0.781248
vt 0.181519 0.781248
vt 0.333333 0.781248
vt 0.333333 0.656248
vt 0.000000 0.656248
vt 0.909091 0.656248
vt 0.666667 0.624998
vt 0.666667 0.656248
vt 0.666667 0.749997
vt 0.333333 0.965556
vt 0.188079 0.851751
vt 0.333333 0.851751
vt 0.238844 0.925875
vt 0.333333 0.925875
vt 0.660281 0.851751
vt 0.666667 0.855953
vt 0.666667 0.999991
vt 0.978981 0.925875
vt 0.666667 0.925875
vt 0.833333 0.874294
vt 0.833333 0.925875
vt 0.833333 0.888813
vt 0.666667 0.888813
vt 0.750000 0.874107
vt 0.750000 0.888813
vt 0.750000 0.925875
vt 0.833333 0.994620
vn 0.000000 0.000000 1.000000
vn 0.000000 0.000000 1.000000
vn 0.000000 0.000000 1.000000
vn 0.000000 0.000000 1.000000
vn 0.000000 0.000000 1.000000
vn 0.000000 0.000000 1.000000
vn 0.000000 0.000000 1.000000
vn 0.000000 0.000000 1.000000
vn 0.000000 0.000000 1.000000
vn 0.000000 0.000000 1.000000
vn 0.000000 0.000000 1.000000
vn 0.000000 0.000000 1.000000
vn 0.000000 0.000000 1.000000
vn 0.000000 0.000000 1.000000
vn 0.000000 0.000000 1.000000
vn 0.000000 0.000000 1.000000
vn 0.000000 0.000000 1.000000
vn 0.000000 0.000000 1.000000
vn 0.000000 0.000000 1.000000
vn 0.000000 0.000000 1.000000
vn 0.000000 0.000000 1.000000
vn 0.000000 0.000000 1.000000
vn 0.000000 0.000000 1.000000
vn 0.000000 0.000000 1.000000
vn 0.000000 0.000000 1.000000
vn 0.000000 0.000000 1.000000
vn 0.000000 0.000000 1.000000
vn 0.000000 0.000000 1.000000
vn 0.000000 0.000000 1.000000
vn 0.000000 0.000000 1.000000
vn 0.000000 0.000000 1.000000
vn 0.000000 0.000000 1.000000
vn 0.000000 0.000000 1.000000
vn 0.000000 0.000000 1.000000
vn 0.000000 0.000000 1.000000
vn 0.000000 0.000000 1.000000
vn 0.000000 0.000000 1.000000
vn 0.000000 0.000000 1.000000
vn 0.000000 0.000000 1.000000
vn 0.000000 0.000000 1.000000
vn 0.000000 0.000000 1.000000
vn 0.000000 0.000000 1.000000
vn 0.000000 0.000000 1.000000
vn 0.000000 0.000000 1.000000
vn 0.000000 0.000000 1.000000
vn 0.000000 0.000000 1.000000
vn 0.000000 0.000000 1.000000
vn 0.000000 0.000000 1.000000
vn 0.000000 0.000000 1.000000
vn 0.000000 0.000000 1.000000
vn 0.000000 0.000000 1.000000
vn 0.000000 0.000000 1.000000
vn 0.000000 0.000000 1.000000
vn 0.000000 0.000000 1.000000
vn 0.000000 0.000000 1.000000
vn 0.000000 0.000000 1.000000
s 1
g Trim_Char_f_2_1 Trim_Text_abcdefghijklmnopqrstuvwxyz_1_1
usemtl initialShadingGroup
f 47/47/1 12/12/2 56/56/3
f 29/29/4 18/18/5 28/28/6
f 25/25/7 20/20/8 24/24/9
f 23/23/10 24/24/9 22/22/11
f 3/3/12 21/21/13 24/24/9
f 21/21/13 4/4/14 25/25/7
f 27/27/15 28/28/6 26/26/16
f 19/19/17 22/22/11 28/28/6
f 22/22/11 20/20/8 29/29/4
f 35/35/18 7/7/19 37/37/20
f 33/33/21 32/32/22 13/13/23
f 2/2/24 17/17/25 26/26/16
f 36/36/26 6/6/27 35/35/18
f 5/5/28 37/37/20 33/33/21
f 8/8/29 30/30/30 32/32/22
f 39/39/31 42/42/32 43/43/33
f 15/15/34 31/31/35 32/32/22
f 42/42/32 40/40/36 41/41/37
f 10/10/38 44/44/39 41/41/37
f 14/14/40 39/39/31 43/43/33
f 47/47/1 50/50/41 51/51/42
f 51/51/42 50/50/41 54/54/43
f 11/11/44 49/49/45 51/51/42
f 53/53/46 54/54/43 52/52/47
f 52/52/47 54/54/43 55/55/48
f 46/46/49 48/48/50 55/55/48
f 56/56/3 50/50/41 47/47/1
f 18/18/5 26/26/16 28/28/6
f 20/20/8 22/22/11 24/24/9
f 22/22/11 19/19/17 23/23/10
f 24/24/9 23/23/10 3/3/12
f 25/25/7 24/24/9 21/21/13
f 26/26/16 17/17/25 27/27/15
f 28/28/6 27/27/15 19/19/17
f 29/29/4 28/28/6 22/22/11
f 7/7/19 38/38/51 37/37/20
f 32/32/22 31/31/35 13/13/23
f 16/16/52 34/34/53 33/33/21
f 13/13/23 16/16/52 33/33/21
f 34/34/53 1/1/54 2/2/24
f 33/33/21 34/34/53 2/2/24
f 26/26/16 33/33/21 2/2/24
f 35/35/18 37/37/20 36/36/26
f 5/5/28 36/36/26 37/37/20
f 26/26/16 18/18/5 5/5/28
f 5/5/28 33/33/21 26/26/16
f 37/37/20 38/38/51 8/8/29
f 32/32/22 33/33/21 8/8/29
f 8/8/29 33/33/21 37/37/20
f 32/32/22 41/41/37 40/40/36
f 32/32/22 40/40/36 15/15/34
f 41/41/37 43/43/33 42/42/32
f 32/32/22 30/30/30 10/10/38
f 10/10/38 41/41/37 32/32/22
f 48/48/50 46/46/49 14/14/40
f 41/41/37 44/44/39 52/52/47
f 43/43/33 41/41/37 14/14/40
f 41/41/37 48/48/50 14/14/40
f 52/52/47 44/44/39 45/45/55
f 52/52/47 48/48/50 41/41/37
f 51/51/42 49/49/45 9/9/56
f 9/9/56 47/47/1 51/51/42
f 50/50/41 55/55/48 54/54/43
f 54/54/43 53/53/46 11/11/44
f 11/11/44 51/51/42 54/54/43
f 52/52/47 45/45/55 53/53/46
f 55/55/48 48/48/50 52/52/47
f 50/50/41 56/56/3 46/46/49
f 55/55/48 50/50/41 46/46/49
