# This file uses centimeters as units for non-parametric coordinates.

mtllib lettera.mtl
g default
v 1.057873 1.958293 0.000000
v 1.101623 0.958293 0.000000
v 0.057733 1.283293 0.000000
v 0.598497 0.757858 0.000000
v 1.157873 0.758293 0.000000
v 1.657873 0.758293 0.000000
v 0.157873 2.158293 0.000000
v 1.558026 1.842118 0.000000
v 1.557369 1.440259 0.000000
v 0.871242 2.558445 0.000000
v 0.457873 2.058293 0.000000
v 0.755095 2.258275 0.000000
v 1.057921 1.987542 0.000000
v 1.057873 1.658293 0.000000
v 0.763038 1.058047 0.000000
v 1.057994 1.575888 0.000000
v 0.557682 1.316642 0.000000
v 0.305695 1.733074 0.000000
v 1.558073 1.733312 0.000000
v 0.697935 0.764213 0.000000
v 0.697871 1.070122 0.000000
v 0.697810 1.534240 0.000000
v 0.697873 1.733312 0.000000
v 0.075852 1.133132 0.000000
v 0.616865 1.133033 0.000000
v 0.377872 0.793944 0.000000
v 0.377873 1.133126 0.000000
v 0.168687 0.945637 0.000000
v 0.377873 0.945709 0.000000
v 0.217873 0.892254 0.000000
v 0.217873 0.945709 0.000000
v 0.217873 1.133126 0.000000
v 0.062245 1.358331 0.000000
v 0.560656 1.358344 0.000000
v 0.377873 1.358331 0.000000
v 0.377873 1.733312 0.000000
v 0.118839 1.545842 0.000000
v 0.377873 1.545821 0.000000
v 0.217873 1.358331 0.000000
v 0.217873 1.545821 0.000000
v 0.217968 1.672637 0.000000
v 0.697873 1.545821 0.000000
v 0.537873 1.358331 0.000000
v 0.537873 1.545821 0.000000
v 0.595168 1.452053 0.000000
v 0.537873 1.452076 0.000000
v 0.617891 1.481808 0.000000
v 0.617873 1.545821 0.000000
v 0.537873 1.733312 0.000000
v 1.562607 1.133127 0.000000
v 0.939855 1.133094 0.000000
v 1.017808 0.891364 0.000000
v 1.017873 1.133126 0.000000
v 1.337873 0.758293 0.000000
v 1.337873 1.133126 0.000000
v 1.017873 1.237452 0.000000
v 1.017873 1.641287 0.000000
v 1.017873 1.733312 0.000000
v 1.557537 1.358331 0.000000
v 1.050789 1.358316 0.000000
v 1.337873 1.358331 0.000000
v 1.337873 1.733312 0.000000
v 0.697873 1.854211 0.000000
v 0.697873 2.550577 0.000000
v 0.697877 2.255767 0.000000
v 0.377849 1.766799 0.000000
v 0.244581 2.333386 0.000000
v 0.697873 2.333316 0.000000
v 0.377873 2.084959 0.000000
v 0.377873 2.333316 0.000000
v 0.530632 2.183312 0.000000
v 0.377873 2.183316 0.000000
v 0.537876 2.190597 0.000000
v 0.537873 2.333316 0.000000
v 0.377843 2.456032 0.000000
v 1.553466 2.033317 0.000000
v 1.056897 2.033310 0.000000
v 1.017814 1.941688 0.000000
v 1.337873 2.033317 0.000000
v 1.017871 2.552574 0.000000
v 1.017951 2.172786 0.000000
v 1.017873 2.333316 0.000000
v 1.010048 2.183332 0.000000
v 1.017873 2.183316 0.000000
v 0.857876 2.252040 0.000000
v 0.857873 2.333316 0.000000
v 1.479082 2.333300 0.000000
v 1.337873 2.333316 0.000000
v 1.338090 2.464482 0.000000
vt 0.625000 0.666624
vt 0.652344 0.111104
vt 0.000000 0.291648
vt 0.337891 0.000000
vt 0.687500 0.000000
vt 1.000000 0.000000
vt 0.062500 0.777728
vt 0.937834 0.602087
vt 0.937204 0.378846
vt 0.508356 1.000000
vt 0.250000 0.722176
vt 0.435764 0.833276
vt 0.625037 0.682872
vt 0.625000 0.499968
vt 0.440728 0.166526
vt 0.625076 0.454190
vt 0.312506 0.310174
vt 0.154808 0.541643
vt 0.937558 0.541643
vt 0.400000 0.003548
vt 0.400000 0.173230
vt 0.400000 0.430975
vt 0.400000 0.541643
vt 0.011224 0.208228
vt 0.349446 0.208228
vt 0.200000 0.019805
vt 0.200000 0.208228
vt 0.069316 0.104114
vt 0.200000 0.104114
vt 0.100000 0.074418
vt 0.100000 0.104114
vt 0.100000 0.208228
vt 0.002733 0.333333
vt 0.314296 0.333333
vt 0.200000 0.333333
vt 0.200000 0.541643
vt 0.038129 0.437488
vt 0.200000 0.437488
vt 0.100000 0.333333
vt 0.100000 0.437488
vt 0.100000 0.507997
vt 0.400000 0.437488
vt 0.300000 0.333333
vt 0.300000 0.437488
vt 0.335787 0.385411
vt 0.300000 0.385411
vt 0.350000 0.401937
vt 0.350000 0.437488
vt 0.300000 0.541643
vt 0.940454 0.208228
vt 0.551221 0.208228
vt 0.600000 0.073873
vt 0.600000 0.208228
vt 0.800000 0.000000
vt 0.800000 0.208228
vt 0.600000 0.266183
vt 0.600000 0.490522
vt 0.600000 0.541643
vt 0.937316 0.333333
vt 0.620490 0.333333
vt 0.800000 0.333333
vt 0.800000 0.541643
vt 0.400000 0.608806
vt 0.400000 0.995651
vt 0.400000 0.831899
vt 0.200000 0.560214
vt 0.116752 0.874957
vt 0.400000 0.874957
vt 0.200000 0.736990
vt 0.200000 0.874957
vt 0.295471 0.791629
vt 0.200000 0.791629
vt 0.300000 0.795676
vt 0.300000 0.874957
vt 0.200000 0.943101
vt 0.934739 0.708301
vt 0.624464 0.708301
vt 0.600000 0.657314
vt 0.800000 0.708301
vt 0.600000 0.996772
vt 0.600000 0.785749
vt 0.600000 0.874957
vt 0.595098 0.791629
vt 0.600000 0.791629
vt 0.500000 0.829793
vt 0.500000 0.874957
vt 0.888271 0.874957
vt 0.800000 0.874957
vt 0.800000 0.947617
vn 0.000000 0.000000 1.000000
vn 0.000000 0.000000 1.000000
vn 0.000000 0.000000 1.000000
vn 0.000000 0.000000 1.000000
vn 0.000000 0.000000 1.000000
vn 0.000000 0.000000 1.000000
vn 0.000000 0.000000 1.000000
vn 0.000000 0.000000 1.000000
vn 0.000000 0.000000 1.000000
vn 0.000000 0.000000 1.000000
vn 0.000000 0.000000 1.000000
vn 0.000000 0.000000 1.000000
vn 0.000000 0.000000 1.000000
vn 0.000000 0.000000 1.000000
vn 0.000000 0.000000 1.000000
vn 0.000000 0.000000 1.000000
vn 0.000000 0.000000 1.000000
vn 0.000000 0.000000 1.000000
vn 0.000000 0.000000 1.000000
vn 0.000000 0.000000 1.000000
vn 0.000000 0.000000 1.000000
vn 0.000000 0.000000 1.000000
vn 0.000000 0.000000 1.000000
vn 0.000000 0.000000 1.000000
vn 0.000000 0.000000 1.000000
vn 0.000000 0.000000 1.000000
vn 0.000000 0.000000 1.000000
vn 0.000000 0.000000 1.000000
vn 0.000000 0.000000 1.000000
vn 0.000000 0.000000 1.000000
vn 0.000000 0.000000 1.000000
vn 0.000000 0.000000 1.000000
vn 0.000000 0.000000 1.000000
vn 0.000000 0.000000 1.000000
vn 0.000000 0.000000 1.000000
vn 0.000000 0.000000 1.000000
vn 0.000000 0.000000 1.000000
vn 0.000000 0.000000 1.000000
vn 0.000000 0.000000 1.000000
vn 0.000000 0.000000 1.000000
vn 0.000000 0.000000 1.000000
vn 0.000000 0.000000 1.000000
vn 0.000000 0.000000 1.000000
vn 0.000000 0.000000 1.000000
vn 0.000000 0.000000 1.000000
vn 0.000000 0.000000 1.000000
vn 0.000000 0.000000 1.000000
vn 0.000000 0.000000 1.000000
vn 0.000000 0.000000 1.000000
vn 0.000000 0.000000 1.000000
vn 0.000000 0.000000 1.000000
vn 0.000000 0.000000 1.000000
vn 0.000000 0.000000 1.000000
vn 0.000000 0.000000 1.000000
vn 0.000000 0.000000 1.000000
vn 0.000000 0.000000 1.000000
vn 0.000000 0.000000 1.000000
vn 0.000000 0.000000 1.000000
vn 0.000000 0.000000 1.000000
vn 0.000000 0.000000 1.000000
vn 0.000000 0.000000 1.000000
vn 0.000000 0.000000 1.000000
vn 0.000000 0.000000 1.000000
vn 0.000000 0.000000 1.000000
vn 0.000000 0.000000 1.000000
vn 0.000000 0.000000 1.000000
vn 0.000000 0.000000 1.000000
vn 0.000000 0.000000 1.000000
vn 0.000000 0.000000 1.000000
vn 0.000000 0.000000 1.000000
vn 0.000000 0.000000 1.000000
vn 0.000000 0.000000 1.000000
vn 0.000000 0.000000 1.000000
vn 0.000000 0.000000 1.000000
vn 0.000000 0.000000 1.000000
vn 0.000000 0.000000 1.000000
vn 0.000000 0.000000 1.000000
vn 0.000000 0.000000 1.000000
vn 0.000000 0.000000 1.000000
vn 0.000000 0.000000 1.000000
vn 0.000000 0.000000 1.000000
vn 0.000000 0.000000 1.000000
vn 0.000000 0.000000 1.000000
vn 0.000000 0.000000 1.000000
vn 0.000000 0.000000 1.000000
vn 0.000000 0.000000 1.000000
vn 0.000000 0.000000 1.000000
vn 0.000000 0.000000 1.000000
vn 0.000000 0.000000 1.000000
s 1
g Trim_Char_a_2_1 Trim_Text_abcdefghijklmnopqrstuvwxyz_1_1
usemtl initialShadingGroup
f 87/87/1 89/89/2 88/88/3
f 9/9/4 19/19/5 62/62/6
f 42/42/7 23/23/8 49/49/9
f 4/4/10 20/20/11 21/21/12
f 31/31/13 29/29/14 27/27/15
f 30/30/16 26/26/17 29/29/14
f 28/28/18 30/30/16 31/31/13
f 28/28/18 31/31/13 32/32/19
f 27/27/15 25/25/20 17/17/21
f 24/24/22 32/32/19 39/39/23
f 41/41/24 40/40/25 38/38/26
f 39/39/23 35/35/27 38/38/26
f 37/37/28 33/33/29 39/39/23
f 41/41/24 37/37/28 40/40/25
f 22/22/30 42/42/7 48/48/31
f 35/35/27 43/43/32 46/46/33
f 34/34/34 45/45/35 46/46/33
f 47/47/36 48/48/31 44/44/37
f 38/38/26 44/44/37 49/49/9
f 54/54/38 6/6/39 50/50/40
f 52/52/41 53/53/42 51/51/43
f 5/5/44 54/54/38 55/55/45
f 42/42/7 22/22/30 57/57/46
f 56/56/47 51/51/43 53/53/42
f 59/59/48 61/61/49 55/55/45
f 56/56/47 53/53/42 55/55/45
f 58/58/50 57/57/46 14/14/51
f 75/75/52 70/70/53 74/74/54
f 66/66/55 36/36/56 49/49/9
f 66/66/55 18/18/57 36/36/56
f 65/65/58 68/68/59 74/74/54
f 7/7/60 69/69/61 72/72/62
f 69/69/61 11/11/63 71/71/64
f 73/73/65 74/74/54 70/70/53
f 75/75/52 67/67/66 70/70/53
f 62/62/6 19/19/5 8/8/67
f 63/63/68 23/23/8 58/58/50
f 1/1/69 78/78/70 58/58/50
f 64/64/71 68/68/59 86/86/72
f 83/83/73 84/84/74 82/82/75
f 83/83/73 81/81/76 84/84/74
f 12/12/77 85/85/78 86/86/72
f 87/87/1 88/88/3 79/79/79
f 88/88/3 82/82/75 84/84/74
f 89/89/2 80/80/80 82/82/75
f 61/61/49 59/59/48 9/9/4
f 9/9/4 62/62/6 61/61/49
f 49/49/9 44/44/37 48/48/31
f 48/48/31 42/42/7 49/49/9
f 25/25/20 27/27/15 29/29/14
f 29/29/14 26/26/17 4/4/10
f 21/21/12 29/29/14 4/4/10
f 29/29/14 21/21/12 25/25/20
f 27/27/15 32/32/19 31/31/13
f 29/29/14 31/31/13 30/30/16
f 32/32/19 24/24/22 28/28/18
f 17/17/21 34/34/34 43/43/32
f 43/43/32 35/35/27 27/27/15
f 27/27/15 17/17/21 43/43/32
f 32/32/19 27/27/15 35/35/27
f 39/39/23 33/33/29 3/3/81
f 3/3/81 24/24/22 39/39/23
f 35/35/27 39/39/23 32/32/19
f 38/38/26 36/36/56 18/18/57
f 18/18/57 41/41/24 38/38/26
f 38/38/26 40/40/25 39/39/23
f 39/39/23 40/40/25 37/37/28
f 48/48/31 47/47/36 22/22/30
f 44/44/37 38/38/26 35/35/27
f 46/46/33 44/44/37 35/35/27
f 46/46/33 43/43/32 34/34/34
f 44/44/37 46/46/33 45/45/35
f 45/45/35 47/47/36 44/44/37
f 49/49/9 36/36/56 38/38/26
f 50/50/40 55/55/45 54/54/38
f 15/15/82 21/21/12 20/20/11
f 51/51/43 15/15/82 52/52/41
f 20/20/11 52/52/41 15/15/82
f 53/53/42 52/52/41 2/2/83
f 55/55/45 2/2/83 5/5/44
f 2/2/83 55/55/45 53/53/42
f 57/57/46 58/58/50 23/23/8
f 23/23/8 42/42/7 57/57/46
f 55/55/45 50/50/40 59/59/48
f 55/55/45 61/61/49 60/60/84
f 55/55/45 60/60/84 56/56/47
f 16/16/85 60/60/84 61/61/49
f 14/14/51 62/62/6 58/58/50
f 62/62/6 14/14/51 16/16/85
f 16/16/85 61/61/49 62/62/6
f 74/74/54 68/68/59 64/64/71
f 74/74/54 64/64/71 75/75/52
f 49/49/9 23/23/8 63/63/68
f 49/49/9 63/63/68 66/66/55
f 74/74/54 73/73/65 65/65/58
f 72/72/62 70/70/53 67/67/66
f 72/72/62 67/67/66 7/7/60
f 71/71/64 72/72/62 69/69/61
f 70/70/53 72/72/62 71/71/64
f 70/70/53 71/71/64 73/73/65
f 76/76/86 79/79/79 62/62/6
f 8/8/67 76/76/86 62/62/6
f 58/58/50 78/78/70 63/63/68
f 79/79/79 77/77/87 13/13/88
f 58/58/50 62/62/6 1/1/69
f 1/1/69 62/62/6 79/79/79
f 13/13/88 1/1/69 79/79/79
f 82/82/75 80/80/80 10/10/89
f 86/86/72 82/82/75 10/10/89
f 86/86/72 10/10/89 64/64/71
f 82/82/75 86/86/72 85/85/78
f 82/82/75 85/85/78 83/83/73
f 68/68/59 65/65/58 12/12/77
f 12/12/77 86/86/72 68/68/59
f 79/79/79 76/76/86 87/87/1
f 84/84/74 81/81/76 77/77/87
f 77/77/87 79/79/79 88/88/3
f 84/84/74 77/77/87 88/88/3
f 82/82/75 88/88/3 89/89/2
