# This file uses centimeters as units for non-parametric coordinates.

mtllib letterperiod.mtl
g default
v 0.537503 0.757019 0.000000
v 0.537503 1.257019 0.000000
v 0.037503 1.257019 0.000000
v 0.037503 0.757019 0.000000
v 0.537503 1.007019 0.000000
v 0.037503 1.007019 0.000000
v 0.287503 1.007019 0.000000
v 0.287503 0.757019 0.000000
v 0.037503 0.840353 0.000000
v 0.287503 0.840353 0.000000
v 0.120836 0.757019 0.000000
v 0.120836 0.840353 0.000000
v 0.204169 0.757019 0.000000
v 0.204169 0.840353 0.000000
v 0.120836 1.007019 0.000000
v 0.037503 0.923686 0.000000
v 0.120836 0.923686 0.000000
v 0.287503 0.923686 0.000000
v 0.204169 0.923686 0.000000
v 0.204169 1.007019 0.000000
v 0.537503 0.840353 0.000000
v 0.370836 0.840353 0.000000
v 0.370836 0.757019 0.000000
v 0.454169 0.840353 0.000000
v 0.454169 0.757019 0.000000
v 0.370836 1.007019 0.000000
v 0.370836 0.923686 0.000000
v 0.537503 0.923686 0.000000
v 0.454169 0.923686 0.000000
v 0.454169 1.007019 0.000000
v 0.287503 1.257019 0.000000
v 0.037503 1.090353 0.000000
v 0.287503 1.090353 0.000000
v 0.120836 1.090353 0.000000
v 0.204169 1.090353 0.000000
v 0.120836 1.257019 0.000000
v 0.037503 1.173686 0.000000
v 0.120836 1.173686 0.000000
v 0.287503 1.173686 0.000000
v 0.204169 1.173686 0.000000
v 0.204169 1.257019 0.000000
v 0.537503 1.090353 0.000000
v 0.370836 1.090353 0.000000
v 0.454169 1.090353 0.000000
v 0.370836 1.257019 0.000000
v 0.370836 1.173686 0.000000
v 0.537503 1.173686 0.000000
v 0.454169 1.173686 0.000000
v 0.454169 1.257019 0.000000
vt 1.000000 0.000000
vt 1.000000 1.000000
vt 0.000000 1.000000
vt 0.000000 0.000000
vt 1.000000 0.500000
vt 0.000000 0.500000
vt 0.500000 0.500000
vt 0.500000 0.000000
vt 0.000000 0.166667
vt 0.500000 0.166667
vt 0.166667 0.000000
vt 0.166667 0.166667
vt 0.333333 0.000000
vt 0.333333 0.166667
vt 0.166667 0.500000
vt 0.000000 0.333333
vt 0.166667 0.333333
vt 0.500000 0.333333
vt 0.333333 0.333333
vt 0.333333 0.500000
vt 1.000000 0.166667
vt 0.666667 0.166667
vt 0.666667 0.000000
vt 0.833333 0.166667
vt 0.833333 0.000000
vt 0.666667 0.500000
vt 0.666667 0.333333
vt 1.000000 0.333333
vt 0.833333 0.333333
vt 0.833333 0.500000
vt 0.500000 1.000000
vt 0.000000 0.666667
vt 0.500000 0.666667
vt 0.166667 0.666667
vt 0.333333 0.666667
vt 0.166667 1.000000
vt 0.000000 0.833333
vt 0.166667 0.833333
vt 0.500000 0.833333
vt 0.333333 0.833333
vt 0.333333 1.000000
vt 1.000000 0.666667
vt 0.666667 0.666667
vt 0.833333 0.666667
vt 0.666667 1.000000
vt 0.666667 0.833333
vt 1.000000 0.833333
vt 0.833333 0.833333
vt 0.833333 1.000000
vn 0.000000 0.000000 1.000000
vn 0.000000 0.000000 1.000000
vn 0.000000 0.000000 1.000000
vn 0.000000 0.000000 1.000000
vn 0.000000 0.000000 1.000000
vn 0.000000 0.000000 1.000000
vn 0.000000 0.000000 1.000000
vn 0.000000 0.000000 1.000000
vn 0.000000 0.000000 1.000000
vn 0.000000 0.000000 1.000000
vn 0.000000 0.000000 1.000000
vn 0.000000 0.000000 1.000000
vn 0.000000 0.000000 1.000000
vn 0.000000 0.000000 1.000000
vn 0.000000 0.000000 1.000000
vn 0.000000 0.000000 1.000000
vn 0.000000 0.000000 1.000000
vn 0.000000 0.000000 1.000000
vn 0.000000 0.000000 1.000000
vn 0.000000 0.000000 1.000000
vn 0.000000 0.000000 1.000000
vn 0.000000 0.000000 1.000000
vn 0.000000 0.000000 1.000000
vn 0.000000 0.000000 1.000000
vn 0.000000 0.000000 1.000000
vn 0.000000 0.000000 1.000000
vn 0.000000 0.000000 1.000000
vn 0.000000 0.000000 1.000000
vn 0.000000 0.000000 1.000000
vn 0.000000 0.000000 1.000000
vn 0.000000 0.000000 1.000000
vn 0.000000 0.000000 1.000000
vn 0.000000 0.000000 1.000000
vn 0.000000 0.000000 1.000000
vn 0.000000 0.000000 1.000000
vn 0.000000 0.000000 1.000000
vn 0.000000 0.000000 1.000000
vn 0.000000 0.000000 1.000000
vn 0.000000 0.000000 1.000000
vn 0.000000 0.000000 1.000000
vn 0.000000 0.000000 1.000000
vn 0.000000 0.000000 1.000000
vn 0.000000 0.000000 1.000000
vn 0.000000 0.000000 1.000000
vn 0.000000 0.000000 1.000000
vn 0.000000 0.000000 1.000000
vn 0.000000 0.000000 1.000000
vn 0.000000 0.000000 1.000000
vn 0.000000 0.000000 1.000000
s 1
g Trim_Char_x_1_1 Trim_Text_x_1_1
usemtl initialShadingGroup
f 47/47/1 2/2/2 48/48/3
f 28/28/4 5/5/5 29/29/6
f 19/19/7 18/18/8 7/7/9
f 13/13/10 8/8/11 10/10/12
f 4/4/13 11/11/14 12/12/15
f 11/11/14 13/13/10 14/14/16
f 16/16/17 17/17/18 15/15/19
f 9/9/20 12/12/15 17/17/18
f 14/14/16 10/10/12 18/18/8
f 12/12/15 14/14/16 19/19/7
f 17/17/18 19/19/7 20/20/21
f 1/1/22 21/21/23 25/25/24
f 8/8/11 23/23/25 22/22/26
f 23/23/25 25/25/24 24/24/27
f 18/18/8 27/27/28 26/26/29
f 10/10/12 22/22/26 27/27/28
f 21/21/23 28/28/4 24/24/27
f 22/22/26 24/24/27 29/29/6
f 27/27/28 29/29/6 30/30/30
f 40/40/31 39/39/32 31/31/33
f 20/20/21 7/7/9 33/33/34
f 6/6/35 15/15/19 34/34/36
f 15/15/19 20/20/21 35/35/37
f 37/37/38 38/38/39 36/36/40
f 32/32/41 34/34/36 38/38/39
f 35/35/37 33/33/34 39/39/32
f 34/34/36 35/35/37 40/40/31
f 38/38/39 40/40/31 41/41/42
f 5/5/5 42/42/43 30/30/30
f 7/7/9 26/26/29 43/43/44
f 26/26/29 30/30/30 44/44/45
f 39/39/32 46/46/46 45/45/47
f 33/33/34 43/43/44 46/46/46
f 42/42/43 47/47/1 44/44/45
f 43/43/44 44/44/45 48/48/3
f 46/46/46 48/48/3 49/49/48
f 2/2/2 49/49/48 48/48/3
f 5/5/5 30/30/30 29/29/6
f 7/7/9 20/20/21 19/19/7
f 10/10/12 14/14/16 13/13/10
f 12/12/15 9/9/20 4/4/13
f 14/14/16 12/12/15 11/11/14
f 15/15/19 6/6/35 16/16/17
f 17/17/18 16/16/17 9/9/20
f 18/18/8 19/19/7 14/14/16
f 19/19/7 17/17/18 12/12/15
f 20/20/21 15/15/19 17/17/18
f 21/21/23 24/24/27 25/25/24
f 22/22/26 10/10/12 8/8/11
f 24/24/27 22/22/26 23/23/25
f 26/26/29 7/7/9 18/18/8
f 27/27/28 18/18/8 10/10/12
f 28/28/4 29/29/6 24/24/27
f 29/29/6 27/27/28 22/22/26
f 30/30/30 26/26/29 27/27/28
f 31/31/33 41/41/42 40/40/31
f 33/33/34 35/35/37 20/20/21
f 34/34/36 32/32/41 6/6/35
f 35/35/37 34/34/36 15/15/19
f 36/36/40 3/3/49 37/37/38
f 38/38/39 37/37/38 32/32/41
f 39/39/32 40/40/31 35/35/37
f 40/40/31 38/38/39 34/34/36
f 41/41/42 36/36/40 38/38/39
f 42/42/43 44/44/45 30/30/30
f 43/43/44 33/33/34 7/7/9
f 44/44/45 43/43/44 26/26/29
f 45/45/47 31/31/33 39/39/32
f 46/46/46 39/39/32 33/33/34
f 47/47/1 48/48/3 44/44/45
f 48/48/3 46/46/46 43/43/44
f 49/49/48 45/45/47 46/46/46
