# This file uses centimeters as units for non-parametric coordinates.

mtllib letterd.mtl
g default
v 1.797061 3.158292 0.000000
v 1.297061 3.158292 0.000000
v 1.297061 2.319231 0.000000
v 1.397061 1.009856 0.000000
v 0.096657 1.670873 0.000000
v 0.801268 2.558950 0.000000
v 0.840340 0.757977 0.000000
v 1.397061 0.758293 0.000000
v 1.797061 0.758293 0.000000
v 0.597061 1.692668 0.000000
v 1.297066 1.644231 0.000000
v 0.947062 2.258284 0.000000
v 0.950186 1.058375 0.000000
v 0.100464 1.786834 0.000000
v 1.797061 1.786797 0.000000
v 0.599772 1.786797 0.000000
v 1.291744 1.786794 0.000000
v 0.840744 0.757977 0.000000
v 0.840892 1.079393 0.000000
v 0.237196 1.101062 0.000000
v 0.798605 1.101394 0.000000
v 0.521785 0.835035 0.000000
v 0.521790 1.101049 0.000000
v 0.113718 1.443890 0.000000
v 0.612689 1.443914 0.000000
v 0.521790 1.443923 0.000000
v 0.658885 1.272444 0.000000
v 0.521790 1.272486 0.000000
v 0.681267 1.101049 0.000000
v 0.680645 1.229431 0.000000
v 0.521790 1.786797 0.000000
v 1.797061 1.101049 0.000000
v 1.093057 1.101272 0.000000
v 1.372017 0.977962 0.000000
v 1.371970 1.101049 0.000000
v 1.327551 0.929439 0.000000
v 0.840744 0.929612 0.000000
v 1.106467 0.798745 0.000000
v 1.106357 0.929612 0.000000
v 1.106357 1.101049 0.000000
v 1.797061 1.443923 0.000000
v 1.283379 1.443922 0.000000
v 1.371970 1.443923 0.000000
v 1.233704 1.272486 0.000000
v 1.371970 1.272486 0.000000
v 1.106307 1.110277 0.000000
v 1.371970 1.786797 0.000000
v 1.297061 2.472545 0.000000
v 1.119384 2.472545 0.000000
v 0.470833 2.472542 0.000000
v 1.797061 2.472545 0.000000
v 0.840744 2.472545 0.000000
v 0.840875 2.237438 0.000000
v 0.175632 2.129696 0.000000
v 0.706884 2.129962 0.000000
v 0.521790 2.129671 0.000000
v 0.521790 2.472545 0.000000
v 0.273884 2.301355 0.000000
v 0.521790 2.301108 0.000000
v 0.309244 2.129671 0.000000
v 0.309244 2.301108 0.000000
v 0.308795 2.342942 0.000000
v 1.797061 2.129671 0.000000
v 1.188132 2.129902 0.000000
v 1.371970 2.129671 0.000000
v 1.371970 2.472545 0.000000
v 0.840744 2.301108 0.000000
v 1.371970 2.301108 0.000000
v 1.106249 2.209764 0.000000
v 1.106357 2.301108 0.000000
v 1.106357 2.472545 0.000000
v 0.840756 2.557821 0.000000
v 0.521812 2.498657 0.000000
v 1.297061 2.815419 0.000000
v 1.797061 2.815419 0.000000
v 1.371970 2.815419 0.000000
v 1.371970 3.158292 0.000000
vt 1.000000 1.000000
vt 0.705945 1.000000
vt 0.705945 0.650408
vt 0.764756 0.104862
vt 0.000000 0.380272
vt 0.414364 0.750190
vt 0.437343 0.000000
vt 0.764756 0.000049
vt 1.000000 0.000049
vt 0.294268 0.389353
vt 0.705945 0.369172
vt 0.500107 0.625018
vt 0.501945 0.125043
vt 0.002521 0.428571
vt 1.000000 0.428571
vt 0.295859 0.428571
vt 0.702843 0.428571
vt 0.437580 0.000000
vt 0.437580 0.133685
vt 0.082615 0.142857
vt 0.412670 0.142857
vt 0.250000 0.032027
vt 0.250000 0.142857
vt 0.010131 0.285714
vt 0.303495 0.285714
vt 0.250000 0.285714
vt 0.330682 0.214286
vt 0.250000 0.214286
vt 0.343790 0.142857
vt 0.343790 0.196495
vt 0.250000 0.428571
vt 1.000000 0.142857
vt 0.586052 0.142857
vt 0.750000 0.091590
vt 0.750000 0.142857
vt 0.723776 0.071429
vt 0.437580 0.071429
vt 0.593790 0.017048
vt 0.593790 0.071429
vt 0.593790 0.142857
vt 1.000000 0.285714
vt 0.697895 0.285714
vt 0.750000 0.285714
vt 0.668684 0.214286
vt 0.750000 0.214286
vt 0.593790 0.146673
vt 0.750000 0.428571
vt 0.705945 0.714286
vt 0.601451 0.714286
vt 0.220031 0.714286
vt 1.000000 0.714286
vt 0.437580 0.714286
vt 0.437580 0.616462
vt 0.046457 0.571429
vt 0.359083 0.571429
vt 0.250000 0.571429
vt 0.250000 0.714286
vt 0.104392 0.642857
vt 0.250000 0.642857
vt 0.125000 0.571429
vt 0.125000 0.642857
vt 0.125000 0.660116
vt 1.000000 0.571429
vt 0.641698 0.571429
vt 0.750000 0.571429
vt 0.750000 0.714286
vt 0.437580 0.642857
vt 0.750000 0.642857
vt 0.593790 0.604866
vt 0.593790 0.642857
vt 0.593790 0.714286
vt 0.437580 0.749726
vt 0.250000 0.725186
vt 0.705945 0.857143
vt 1.000000 0.857143
vt 0.750000 0.857143
vt 0.750000 1.000000
vn 0.000000 0.000000 1.000000
vn 0.000000 0.000000 1.000000
vn 0.000000 0.000000 1.000000
vn 0.000000 0.000000 1.000000
vn 0.000000 0.000000 1.000000
vn 0.000000 0.000000 1.000000
vn 0.000000 0.000000 1.000000
vn 0.000000 0.000000 1.000000
vn 0.000000 0.000000 1.000000
vn 0.000000 0.000000 1.000000
vn 0.000000 0.000000 1.000000
vn 0.000000 0.000000 1.000000
vn 0.000000 0.000000 1.000000
vn 0.000000 0.000000 1.000000
vn 0.000000 0.000000 1.000000
vn 0.000000 0.000000 1.000000
vn 0.000000 0.000000 1.000000
vn 0.000000 0.000000 1.000000
vn 0.000000 0.000000 1.000000
vn 0.000000 0.000000 1.000000
vn 0.000000 0.000000 1.000000
vn 0.000000 0.000000 1.000000
vn 0.000000 0.000000 1.000000
vn 0.000000 0.000000 1.000000
vn 0.000000 0.000000 1.000000
vn 0.000000 0.000000 1.000000
vn 0.000000 0.000000 1.000000
vn 0.000000 0.000000 1.000000
vn 0.000000 0.000000 1.000000
vn 0.000000 0.000000 1.000000
vn 0.000000 0.000000 1.000000
vn 0.000000 0.000000 1.000000
vn 0.000000 0.000000 1.000000
vn 0.000000 0.000000 1.000000
vn 0.000000 0.000000 1.000000
vn 0.000000 0.000000 1.000000
vn 0.000000 0.000000 1.000000
vn 0.000000 0.000000 1.000000
vn 0.000000 0.000000 1.000000
vn 0.000000 0.000000 1.000000
vn 0.000000 0.000000 1.000000
vn 0.000000 0.000000 1.000000
vn 0.000000 0.000000 1.000000
vn 0.000000 0.000000 1.000000
vn 0.000000 0.000000 1.000000
vn 0.000000 0.000000 1.000000
vn 0.000000 0.000000 1.000000
vn 0.000000 0.000000 1.000000
vn 0.000000 0.000000 1.000000
vn 0.000000 0.000000 1.000000
vn 0.000000 0.000000 1.000000
vn 0.000000 0.000000 1.000000
vn 0.000000 0.000000 1.000000
vn 0.000000 0.000000 1.000000
vn 0.000000 0.000000 1.000000
vn 0.000000 0.000000 1.000000
vn 0.000000 0.000000 1.000000
vn 0.000000 0.000000 1.000000
vn 0.000000 0.000000 1.000000
vn 0.000000 0.000000 1.000000
vn 0.000000 0.000000 1.000000
vn 0.000000 0.000000 1.000000
vn 0.000000 0.000000 1.000000
vn 0.000000 0.000000 1.000000
vn 0.000000 0.000000 1.000000
vn 0.000000 0.000000 1.000000
vn 0.000000 0.000000 1.000000
vn 0.000000 0.000000 1.000000
vn 0.000000 0.000000 1.000000
vn 0.000000 0.000000 1.000000
vn 0.000000 0.000000 1.000000
vn 0.000000 0.000000 1.000000
vn 0.000000 0.000000 1.000000
vn 0.000000 0.000000 1.000000
vn 0.000000 0.000000 1.000000
vn 0.000000 0.000000 1.000000
vn 0.000000 0.000000 1.000000
s 1
g Trim_Char_d_2_1 Trim_Text_abcdefghijklmnopqrstuvwxyz_1_1
usemtl initialShadingGroup
f 76/76/1 75/75/2 1/1/3
f 41/41/4 15/15/5 43/43/6
f 26/26/7 25/25/8 10/10/9
f 22/22/10 7/7/11 37/37/12
f 20/20/13 22/22/10 23/23/14
f 25/25/8 26/26/7 28/28/15
f 24/24/16 20/20/13 23/23/14
f 29/29/17 21/21/18 30/30/19
f 23/23/14 29/29/17 30/30/19
f 24/24/16 26/26/7 31/31/20
f 4/4/21 8/8/22 9/9/23
f 34/34/24 35/35/25 40/40/26
f 38/38/27 36/36/28 39/39/29
f 38/38/27 39/39/29 37/37/12
f 13/13/30 19/19/31 37/37/12
f 32/32/32 41/41/4 43/43/6
f 42/42/33 44/44/34 45/45/35
f 46/46/36 40/40/26 35/35/25
f 46/46/36 33/33/37 40/40/26
f 11/11/38 42/42/33 43/43/6
f 51/51/39 66/66/40 68/68/41
f 59/59/42 56/56/43 55/55/44
f 16/16/45 55/55/44 56/56/43
f 31/31/20 56/56/43 60/60/46
f 62/62/47 61/61/48 59/59/42
f 60/60/46 56/56/43 59/59/42
f 58/58/49 54/54/50 60/60/46
f 62/62/47 58/58/49 61/61/48
f 15/15/5 63/63/51 47/47/52
f 65/65/53 64/64/54 17/17/55
f 49/49/56 71/71/57 70/70/58
f 64/64/54 65/65/53 68/68/41
f 12/12/59 69/69/60 70/70/58
f 67/67/61 70/70/58 71/71/57
f 73/73/62 57/57/63 52/52/64
f 73/73/62 50/50/65 57/57/63
f 66/66/40 51/51/39 75/75/2
f 48/48/66 66/66/40 76/76/1
f 74/74/67 76/76/1 77/77/68
f 72/72/69 52/52/64 71/71/57
f 1/1/3 77/77/68 76/76/1
f 15/15/5 47/47/52 43/43/6
f 10/10/9 16/16/45 31/31/20
f 31/31/20 26/26/7 10/10/9
f 37/37/12 19/19/31 21/21/18
f 7/7/11 18/18/70 37/37/12
f 29/29/17 23/23/14 22/22/10
f 22/22/10 37/37/12 29/29/17
f 21/21/18 29/29/17 37/37/12
f 28/28/15 27/27/71 25/25/8
f 28/28/15 26/26/7 24/24/16
f 24/24/16 23/23/14 28/28/15
f 27/27/71 28/28/15 23/23/14
f 23/23/14 30/30/19 27/27/71
f 31/31/20 14/14/72 5/5/73
f 5/5/73 24/24/16 31/31/20
f 35/35/25 34/34/24 4/4/21
f 32/32/32 35/35/25 4/4/21
f 9/9/23 32/32/32 4/4/21
f 40/40/26 39/39/29 36/36/28
f 40/40/26 36/36/28 34/34/24
f 37/37/12 18/18/70 38/38/27
f 40/40/26 33/33/37 39/39/29
f 39/39/29 33/33/37 13/13/30
f 37/37/12 39/39/29 13/13/30
f 45/45/35 35/35/25 32/32/32
f 32/32/32 43/43/6 45/45/35
f 45/45/35 43/43/6 42/42/33
f 35/35/25 45/45/35 44/44/34
f 35/35/25 44/44/34 46/46/36
f 47/47/52 17/17/55 11/11/38
f 11/11/38 43/43/6 47/47/52
f 65/65/53 63/63/51 51/51/39
f 68/68/41 65/65/53 51/51/39
f 67/67/61 52/52/64 59/59/42
f 53/53/74 67/67/61 59/59/42
f 59/59/42 55/55/44 53/53/74
f 52/52/64 57/57/63 59/59/42
f 56/56/43 31/31/20 16/16/45
f 60/60/46 54/54/50 14/14/72
f 14/14/72 31/31/20 60/60/46
f 59/59/42 57/57/63 50/50/65
f 59/59/42 50/50/65 62/62/47
f 59/59/42 61/61/48 60/60/46
f 60/60/46 61/61/48 58/58/49
f 63/63/51 65/65/53 47/47/52
f 17/17/55 47/47/52 65/65/53
f 66/66/40 48/48/66 3/3/75
f 3/3/75 69/69/60 68/68/41
f 70/70/58 3/3/75 49/49/56
f 3/3/75 68/68/41 66/66/40
f 69/69/60 3/3/75 70/70/58
f 69/69/60 64/64/54 68/68/41
f 67/67/61 53/53/74 12/12/59
f 12/12/59 70/70/58 67/67/61
f 71/71/57 52/52/64 67/67/61
f 52/52/64 72/72/69 6/6/76
f 52/52/64 6/6/76 73/73/62
f 75/75/2 76/76/1 66/66/40
f 76/76/1 74/74/67 48/48/66
f 77/77/68 2/2/77 74/74/67
f 71/71/57 49/49/56 72/72/69
