# This file uses centimeters as units for non-parametric coordinates.

mtllib letterCapP.mtl
g default
v 0.569045 0.728307 0.000000
v 0.569045 1.628307 0.000000
v 0.069045 3.128307 0.000000
v 1.869462 2.388351 0.000000
v 0.799041 1.627710 0.000000
v 0.777290 3.128617 0.000000
v 0.069045 0.728307 0.000000
v 0.569045 2.028307 0.000000
v 0.569045 2.728307 0.000000
v 1.369046 2.379877 0.000000
v 0.773948 2.729214 0.000000
v 0.755088 2.027601 0.000000
v 1.741638 1.928453 0.000000
v 0.069045 1.928463 0.000000
v 0.789168 1.627712 0.000000
v 0.789168 1.928463 0.000000
v 0.569045 1.128359 0.000000
v 0.069045 1.128359 0.000000
v 0.429106 1.128359 0.000000
v 0.429106 0.728307 0.000000
v 0.569045 1.528411 0.000000
v 0.069045 1.528411 0.000000
v 0.429106 1.528411 0.000000
v 0.429106 1.928463 0.000000
v 1.149260 1.636239 0.000000
v 1.149229 1.928463 0.000000
v 1.509266 1.722167 0.000000
v 1.509290 1.928463 0.000000
v 0.789168 3.128614 0.000000
v 0.789168 2.729188 0.000000
v 0.789168 2.027719 0.000000
v 0.069045 2.328515 0.000000
v 0.569045 2.328515 0.000000
v 0.429106 2.328515 0.000000
v 0.069045 2.828385 0.000000
v 0.789168 2.828385 0.000000
v 0.429106 2.828385 0.000000
v 0.429106 3.128286 0.000000
v 1.867838 2.328510 0.000000
v 1.365912 2.328515 0.000000
v 1.149146 2.058172 0.000000
v 1.509290 2.328515 0.000000
v 1.509290 2.128489 0.000000
v 1.269076 2.128383 0.000000
v 1.329260 1.928463 0.000000
v 1.329260 2.128489 0.000000
v 1.329264 2.208598 0.000000
v 1.149228 3.121759 0.000000
v 1.149054 2.701719 0.000000
v 1.149229 2.828385 0.000000
v 1.752893 2.828409 0.000000
v 1.509290 2.828385 0.000000
v 1.314902 2.578493 0.000000
v 1.509290 2.578450 0.000000
v 1.329344 2.553816 0.000000
v 1.329260 2.578450 0.000000
v 1.329260 2.828385 0.000000
v 1.851742 2.578450 0.000000
v 1.689321 2.578450 0.000000
v 1.689321 2.328515 0.000000
v 1.689321 2.828385 0.000000
v 1.509306 3.048476 0.000000
vt 0.277730 0.000000
vt 0.277730 0.374951
vt 0.000000 0.999870
vt 1.000000 0.691595
vt 0.405484 0.374703
vt 0.393402 1.000000
vt 0.000000 0.000000
vt 0.277730 0.541596
vt 0.277730 0.833225
vt 0.722099 0.688064
vt 0.391546 0.833592
vt 0.381070 0.541354
vt 0.929052 0.500000
vt 0.000000 0.500000
vt 0.400000 0.374705
vt 0.400000 0.500000
vt 0.277730 0.166667
vt 0.000000 0.166667
vt 0.200000 0.166667
vt 0.200000 0.000000
vt 0.277730 0.333333
vt 0.000000 0.333333
vt 0.200000 0.333333
vt 0.200000 0.500000
vt 0.600000 0.378466
vt 0.600000 0.500000
vt 0.800000 0.414036
vt 0.800000 0.500000
vt 0.400000 0.999999
vt 0.400000 0.833585
vt 0.400000 0.541381
vt 0.000000 0.666667
vt 0.277730 0.666667
vt 0.200000 0.666667
vt 0.000000 0.874919
vt 0.400000 0.874919
vt 0.200000 0.874919
vt 0.200000 0.999870
vt 0.999108 0.666667
vt 0.720360 0.666667
vt 0.600000 0.553926
vt 0.800000 0.666667
vt 0.800000 0.583333
vt 0.666514 0.583333
vt 0.700000 0.500000
vt 0.700000 0.583333
vt 0.700000 0.616709
vt 0.600000 0.997152
vt 0.600000 0.822379
vt 0.600000 0.874919
vt 0.935291 0.874919
vt 0.800000 0.874919
vt 0.691988 0.770793
vt 0.800000 0.770793
vt 0.700000 0.760511
vt 0.700000 0.770793
vt 0.700000 0.874919
vt 0.990219 0.770793
vt 0.900000 0.770793
vt 0.900000 0.666667
vt 0.900000 0.874919
vt 0.800000 0.966598
vn 0.000000 0.000000 1.000000
vn 0.000000 0.000000 1.000000
vn 0.000000 0.000000 1.000000
vn 0.000000 0.000000 1.000000
vn 0.000000 0.000000 1.000000
vn 0.000000 0.000000 1.000000
vn 0.000000 0.000000 1.000000
vn 0.000000 0.000000 1.000000
vn 0.000000 0.000000 1.000000
vn 0.000000 0.000000 1.000000
vn 0.000000 0.000000 1.000000
vn 0.000000 0.000000 1.000000
vn 0.000000 0.000000 1.000000
vn 0.000000 0.000000 1.000000
vn 0.000000 0.000000 1.000000
vn 0.000000 0.000000 1.000000
vn 0.000000 0.000000 1.000000
vn 0.000000 0.000000 1.000000
vn 0.000000 0.000000 1.000000
vn 0.000000 0.000000 1.000000
vn 0.000000 0.000000 1.000000
vn 0.000000 0.000000 1.000000
vn 0.000000 0.000000 1.000000
vn 0.000000 0.000000 1.000000
vn 0.000000 0.000000 1.000000
vn 0.000000 0.000000 1.000000
vn 0.000000 0.000000 1.000000
vn 0.000000 0.000000 1.000000
vn 0.000000 0.000000 1.000000
vn 0.000000 0.000000 1.000000
vn 0.000000 0.000000 1.000000
vn 0.000000 0.000000 1.000000
vn 0.000000 0.000000 1.000000
vn 0.000000 0.000000 1.000000
vn 0.000000 0.000000 1.000000
vn 0.000000 0.000000 1.000000
vn 0.000000 0.000000 1.000000
vn 0.000000 0.000000 1.000000
vn 0.000000 0.000000 1.000000
vn 0.000000 0.000000 1.000000
vn 0.000000 0.000000 1.000000
vn 0.000000 0.000000 1.000000
vn 0.000000 0.000000 1.000000
vn 0.000000 0.000000 1.000000
vn 0.000000 0.000000 1.000000
vn 0.000000 0.000000 1.000000
vn 0.000000 0.000000 1.000000
vn 0.000000 0.000000 1.000000
vn 0.000000 0.000000 1.000000
vn 0.000000 0.000000 1.000000
vn 0.000000 0.000000 1.000000
vn 0.000000 0.000000 1.000000
vn 0.000000 0.000000 1.000000
vn 0.000000 0.000000 1.000000
vn 0.000000 0.000000 1.000000
vn 0.000000 0.000000 1.000000
vn 0.000000 0.000000 1.000000
vn 0.000000 0.000000 1.000000
vn 0.000000 0.000000 1.000000
vn 0.000000 0.000000 1.000000
vn 0.000000 0.000000 1.000000
vn 0.000000 0.000000 1.000000
s 1
g Trim_Char_P_1_1 Trim_Text_OPQRSTUVWXYZ_1_1
usemtl initialShadingGroup
f 62/62/1 52/52/2 61/61/3
f 27/27/4 13/13/5 28/28/6
f 2/2/7 15/15/8 16/16/9
f 1/1/10 17/17/11 20/20/12
f 7/7/13 20/20/12 19/19/14
f 17/17/11 21/21/15 19/19/14
f 18/18/16 19/19/14 23/23/17
f 22/22/18 23/23/17 24/24/19
f 25/25/20 26/26/21 16/16/9
f 25/25/20 27/27/4 45/45/22
f 6/6/23 38/38/24 37/37/25
f 16/16/9 31/31/26 12/12/27
f 14/14/28 24/24/19 34/34/29
f 11/11/30 30/30/31 36/36/32
f 32/32/33 34/34/29 37/37/25
f 35/35/34 37/37/25 38/38/24
f 13/13/5 39/39/35 60/60/36
f 31/31/26 16/16/9 26/26/21
f 43/43/37 42/42/38 40/40/39
f 45/45/22 28/28/6 43/43/37
f 41/41/40 26/26/21 45/45/22
f 47/47/41 44/44/42 46/46/43
f 48/48/44 29/29/45 36/36/32
f 30/30/31 49/49/46 50/50/47
f 51/51/48 61/61/3 59/59/49
f 56/56/50 54/54/51 52/52/2
f 10/10/52 42/42/38 54/54/51
f 53/53/53 55/55/54 56/56/50
f 57/57/55 50/50/47 49/49/46
f 58/58/56 59/59/49 60/60/36
f 42/42/38 60/60/36 59/59/49
f 54/54/51 59/59/49 61/61/3
f 48/48/44 50/50/47 57/57/55
f 61/61/3 51/51/48 62/62/1
f 23/23/17 21/21/15 2/2/7
f 24/24/19 23/23/17 2/2/7
f 16/16/9 24/24/19 2/2/7
f 17/17/11 19/19/14 20/20/12
f 19/19/14 18/18/16 7/7/13
f 21/21/15 23/23/17 19/19/14
f 23/23/17 22/22/18 18/18/16
f 24/24/19 14/14/28 22/22/18
f 16/16/9 15/15/8 5/5/57
f 5/5/57 25/25/20 16/16/9
f 45/45/22 26/26/21 25/25/20
f 45/45/22 27/27/4 28/28/6
f 36/36/32 29/29/45 6/6/23
f 6/6/23 37/37/25 36/36/32
f 8/8/58 33/33/59 34/34/29
f 8/8/58 24/24/19 16/16/9
f 12/12/27 8/8/58 16/16/9
f 34/34/29 24/24/19 8/8/58
f 34/34/29 32/32/33 14/14/28
f 34/34/29 33/33/59 9/9/60
f 36/36/32 37/37/25 9/9/60
f 36/36/32 9/9/60 11/11/30
f 9/9/60 37/37/25 34/34/29
f 37/37/25 35/35/34 32/32/33
f 38/38/24 3/3/61 35/35/34
f 60/60/36 42/42/38 43/43/37
f 43/43/37 28/28/6 13/13/5
f 13/13/5 60/60/36 43/43/37
f 26/26/21 41/41/40 31/31/26
f 47/47/41 46/46/43 43/43/37
f 43/43/37 40/40/39 47/47/41
f 43/43/37 46/46/43 45/45/22
f 45/45/22 46/46/43 44/44/42
f 44/44/42 41/41/40 45/45/22
f 36/36/32 50/50/47 48/48/44
f 50/50/47 36/36/32 30/30/31
f 59/59/49 58/58/56 51/51/48
f 52/52/2 57/57/55 56/56/50
f 10/10/52 40/40/39 42/42/38
f 54/54/51 56/56/50 55/55/54
f 55/55/54 10/10/52 54/54/51
f 53/53/53 56/56/50 57/57/55
f 57/57/55 49/49/46 53/53/53
f 60/60/36 39/39/35 4/4/62
f 4/4/62 58/58/56 60/60/36
f 59/59/49 54/54/51 42/42/38
f 61/61/3 52/52/2 54/54/51
f 52/52/2 62/62/1 57/57/55
f 57/57/55 62/62/1 48/48/44
