# This file uses centimeters as units for non-parametric coordinates.

mtllib letterb.mtl
g default
v 0.546396 0.758293 0.000000
v 0.546396 1.009856 0.000000
v 0.646396 2.319231 0.000000
v 1.846618 1.677632 0.000000
v 1.103866 0.757945 0.000000
v 1.142190 2.558951 0.000000
v 0.646396 3.158292 0.000000
v 0.146396 3.158292 0.000000
v 0.146396 0.758293 0.000000
v 0.646396 1.692668 0.000000
v 1.346413 1.647356 0.000000
v 0.996397 2.258411 0.000000
v 1.012023 1.058178 0.000000
v 1.843173 1.786803 0.000000
v 0.146396 1.786777 0.000000
v 0.648979 1.786777 0.000000
v 1.341267 1.786777 0.000000
v 1.102677 0.757945 0.000000
v 1.102581 1.075160 0.000000
v 0.146396 1.101019 0.000000
v 0.861225 1.101350 0.000000
v 0.571397 0.978279 0.000000
v 0.571437 1.101019 0.000000
v 0.616684 0.929434 0.000000
v 1.102677 0.929580 0.000000
v 0.836944 0.799510 0.000000
v 0.837057 0.929580 0.000000
v 0.837057 1.101019 0.000000
v 0.146396 1.443898 0.000000
v 0.664682 1.443887 0.000000
v 0.571437 1.443898 0.000000
v 0.717038 1.272383 0.000000
v 0.571437 1.272459 0.000000
v 0.837272 1.118149 0.000000
v 0.571437 1.786777 0.000000
v 1.707614 1.101033 0.000000
v 1.152617 1.100916 0.000000
v 1.421524 0.833639 0.000000
v 1.421518 1.101019 0.000000
v 1.829083 1.443859 0.000000
v 1.333150 1.443900 0.000000
v 1.421518 1.443898 0.000000
v 1.288131 1.272463 0.000000
v 1.421518 1.272459 0.000000
v 1.262171 1.220512 0.000000
v 1.262098 1.101019 0.000000
v 1.421518 1.786777 0.000000
v 1.472642 2.472533 0.000000
v 0.824058 2.472535 0.000000
v 0.646396 2.472535 0.000000
v 0.146396 2.472535 0.000000
v 1.102677 2.472535 0.000000
v 1.102601 2.238270 0.000000
v 0.146396 2.129656 0.000000
v 0.754341 2.129895 0.000000
v 0.571437 2.129656 0.000000
v 0.571437 2.472535 0.000000
v 0.571437 2.301095 0.000000
v 1.102677 2.301095 0.000000
v 0.837019 2.209884 0.000000
v 0.837057 2.301095 0.000000
v 0.837057 2.472535 0.000000
v 1.768447 2.129695 0.000000
v 1.237162 2.129655 0.000000
v 1.421518 2.129656 0.000000
v 1.421518 2.472535 0.000000
v 1.669853 2.301503 0.000000
v 1.421518 2.301095 0.000000
v 1.634039 2.301095 0.000000
v 1.634039 2.129656 0.000000
v 1.634643 2.343283 0.000000
v 1.102665 2.557820 0.000000
v 0.646396 2.815414 0.000000
v 0.146396 2.815414 0.000000
v 0.571437 2.815414 0.000000
v 0.571437 3.158292 0.000000
v 1.421496 2.498726 0.000000
vt 0.235272 0.000063
vt 0.235272 0.104875
vt 0.294089 0.650413
vt 1.000000 0.383097
vt 0.563163 0.000000
vt 0.585705 0.750194
vt 0.294089 1.000000
vt 0.000000 1.000000
vt 0.000000 0.000063
vt 0.294089 0.389362
vt 0.705815 0.370483
vt 0.499952 0.625024
vt 0.509143 0.125055
vt 0.997787 0.428571
vt 0.000000 0.428571
vt 0.295605 0.428571
vt 0.702798 0.428571
vt 0.562464 0.000000
vt 0.562464 0.131979
vt 0.000000 0.142857
vt 0.420324 0.142857
vt 0.250000 0.091732
vt 0.250000 0.142857
vt 0.276696 0.071429
vt 0.562464 0.071429
vt 0.406232 0.017384
vt 0.406232 0.071429
vt 0.406232 0.142857
vt 0.000000 0.285714
vt 0.304883 0.285714
vt 0.250000 0.285714
vt 0.335732 0.214286
vt 0.250000 0.214286
vt 0.406232 0.149878
vt 0.250000 0.428571
vt 0.918288 0.142857
vt 0.591798 0.142857
vt 0.750000 0.031460
vt 0.750000 0.142857
vt 0.989575 0.285714
vt 0.698029 0.285714
vt 0.750000 0.285714
vt 0.671550 0.214286
vt 0.750000 0.214286
vt 0.656232 0.192660
vt 0.656232 0.142857
vt 0.750000 0.428571
vt 0.780071 0.714286
vt 0.398586 0.714286
vt 0.294089 0.714286
vt 0.000000 0.714286
vt 0.562464 0.714286
vt 0.562464 0.616760
vt 0.000000 0.571429
vt 0.357768 0.571429
vt 0.250000 0.571429
vt 0.250000 0.714286
vt 0.250000 0.642857
vt 0.562464 0.642857
vt 0.406232 0.604831
vt 0.406232 0.642857
vt 0.406232 0.714286
vt 0.954000 0.571429
vt 0.641567 0.571429
vt 0.750000 0.571429
vt 0.750000 0.714286
vt 0.895756 0.642857
vt 0.750000 0.642857
vt 0.875000 0.642857
vt 0.875000 0.571429
vt 0.875000 0.660204
vt 0.562464 0.749728
vt 0.294089 0.857143
vt 0.000000 0.857143
vt 0.250000 0.857143
vt 0.250000 1.000000
vt 0.750000 0.725218
vn 0.000000 0.000000 1.000000
vn 0.000000 0.000000 1.000000
vn 0.000000 0.000000 1.000000
vn 0.000000 0.000000 1.000000
vn 0.000000 0.000000 1.000000
vn 0.000000 0.000000 1.000000
vn 0.000000 0.000000 1.000000
vn 0.000000 0.000000 1.000000
vn 0.000000 0.000000 1.000000
vn 0.000000 0.000000 1.000000
vn 0.000000 0.000000 1.000000
vn 0.000000 0.000000 1.000000
vn 0.000000 0.000000 1.000000
vn 0.000000 0.000000 1.000000
vn 0.000000 0.000000 1.000000
vn 0.000000 0.000000 1.000000
vn 0.000000 0.000000 1.000000
vn 0.000000 0.000000 1.000000
vn 0.000000 0.000000 1.000000
vn 0.000000 0.000000 1.000000
vn 0.000000 0.000000 1.000000
vn 0.000000 0.000000 1.000000
vn 0.000000 0.000000 1.000000
vn 0.000000 0.000000 1.000000
vn 0.000000 0.000000 1.000000
vn 0.000000 0.000000 1.000000
vn 0.000000 0.000000 1.000000
vn 0.000000 0.000000 1.000000
vn 0.000000 0.000000 1.000000
vn 0.000000 0.000000 1.000000
vn 0.000000 0.000000 1.000000
vn 0.000000 0.000000 1.000000
vn 0.000000 0.000000 1.000000
vn 0.000000 0.000000 1.000000
vn 0.000000 0.000000 1.000000
vn 0.000000 0.000000 1.000000
vn 0.000000 0.000000 1.000000
vn 0.000000 0.000000 1.000000
vn 0.000000 0.000000 1.000000
vn 0.000000 0.000000 1.000000
vn 0.000000 0.000000 1.000000
vn 0.000000 0.000000 1.000000
vn 0.000000 0.000000 1.000000
vn 0.000000 0.000000 1.000000
vn 0.000000 0.000000 1.000000
vn 0.000000 0.000000 1.000000
vn 0.000000 0.000000 1.000000
vn 0.000000 0.000000 1.000000
vn 0.000000 0.000000 1.000000
vn 0.000000 0.000000 1.000000
vn 0.000000 0.000000 1.000000
vn 0.000000 0.000000 1.000000
vn 0.000000 0.000000 1.000000
vn 0.000000 0.000000 1.000000
vn 0.000000 0.000000 1.000000
vn 0.000000 0.000000 1.000000
vn 0.000000 0.000000 1.000000
vn 0.000000 0.000000 1.000000
vn 0.000000 0.000000 1.000000
vn 0.000000 0.000000 1.000000
vn 0.000000 0.000000 1.000000
vn 0.000000 0.000000 1.000000
vn 0.000000 0.000000 1.000000
vn 0.000000 0.000000 1.000000
vn 0.000000 0.000000 1.000000
vn 0.000000 0.000000 1.000000
vn 0.000000 0.000000 1.000000
vn 0.000000 0.000000 1.000000
vn 0.000000 0.000000 1.000000
vn 0.000000 0.000000 1.000000
vn 0.000000 0.000000 1.000000
vn 0.000000 0.000000 1.000000
vn 0.000000 0.000000 1.000000
vn 0.000000 0.000000 1.000000
vn 0.000000 0.000000 1.000000
vn 0.000000 0.000000 1.000000
vn 0.000000 0.000000 1.000000
s 1
g Trim_Char_b_2_1 Trim_Text_abcdefghijklmnopqrstuvwxyz_1_1
usemtl initialShadingGroup
f 48/48/1 77/77/2 66/66/3
f 4/4/4 14/14/5 47/47/6
f 31/31/7 30/30/8 10/10/9
f 27/27/10 25/25/11 13/13/12
f 2/2/13 23/23/14 20/20/15
f 26/26/16 18/18/17 25/25/11
f 24/24/18 26/26/16 27/27/10
f 24/24/18 27/27/10 28/28/19
f 30/30/8 31/31/7 33/33/20
f 20/20/15 23/23/14 33/33/20
f 28/28/19 21/21/21 34/34/22
f 23/23/14 28/28/19 34/34/22
f 29/29/23 31/31/7 35/35/24
f 38/38/25 36/36/26 39/39/27
f 38/38/25 39/39/27 46/46/28
f 40/40/29 42/42/30 44/44/31
f 41/41/32 43/43/33 44/44/31
f 45/45/34 46/46/28 39/39/27
f 45/45/34 37/37/35 46/46/28
f 11/11/36 41/41/32 42/42/30
f 67/67/37 71/71/38 69/69/39
f 61/61/40 59/59/41 52/52/42
f 16/16/43 55/55/44 56/56/45
f 15/15/46 35/35/24 56/56/45
f 51/51/47 54/54/48 56/56/45
f 12/12/49 53/53/50 59/59/41
f 58/58/51 56/56/45 55/55/44
f 3/3/52 60/60/53 61/61/40
f 70/70/54 65/65/55 47/47/6
f 65/65/55 64/64/56 17/17/57
f 64/64/56 65/65/55 68/68/58
f 67/67/37 69/69/39 70/70/54
f 65/65/55 70/70/54 69/69/39
f 48/48/1 66/66/3 68/68/58
f 73/73/59 7/7/60 75/75/61
f 72/72/62 49/49/63 62/62/64
f 51/51/47 57/57/65 75/75/61
f 74/74/66 75/75/61 76/76/67
f 6/6/68 72/72/62 52/52/42
f 50/50/69 73/73/59 57/57/65
f 47/47/6 42/42/30 40/40/29
f 47/47/6 40/40/29 4/4/4
f 10/10/9 16/16/43 35/35/24
f 35/35/24 31/31/7 10/10/9
f 25/25/11 19/19/70 13/13/12
f 21/21/21 28/28/19 27/27/10
f 27/27/10 13/13/12 21/21/21
f 2/2/13 22/22/71 23/23/14
f 9/9/72 1/1/73 2/2/13
f 2/2/13 20/20/15 9/9/72
f 25/25/11 27/27/10 26/26/16
f 28/28/19 23/23/14 22/22/71
f 22/22/71 24/24/18 28/28/19
f 33/33/20 32/32/74 30/30/8
f 31/31/7 29/29/23 20/20/15
f 33/33/20 31/31/7 20/20/15
f 32/32/74 33/33/20 23/23/14
f 34/34/22 32/32/74 23/23/14
f 35/35/24 15/15/46 29/29/23
f 37/37/35 19/19/70 25/25/11
f 25/25/11 18/18/17 5/5/75
f 25/25/11 5/5/75 38/38/25
f 46/46/28 25/25/11 38/38/25
f 25/25/11 46/46/28 37/37/35
f 39/39/27 36/36/26 40/40/29
f 44/44/31 39/39/27 40/40/29
f 44/44/31 42/42/30 41/41/32
f 39/39/27 44/44/31 43/43/33
f 43/43/33 45/45/34 39/39/27
f 47/47/6 17/17/57 11/11/36
f 11/11/36 42/42/30 47/47/6
f 52/52/42 62/62/64 61/61/40
f 56/56/45 35/35/24 16/16/43
f 56/56/45 54/54/48 15/15/46
f 58/58/51 57/57/65 51/51/47
f 51/51/47 56/56/45 58/58/51
f 61/61/40 60/60/53 12/12/49
f 59/59/41 61/61/40 12/12/49
f 60/60/53 3/3/52 58/58/51
f 58/58/51 55/55/44 60/60/53
f 3/3/52 50/50/69 57/57/65
f 61/61/40 62/62/64 49/49/63
f 49/49/63 3/3/52 61/61/40
f 57/57/65 58/58/51 3/3/52
f 14/14/5 63/63/76 70/70/54
f 70/70/54 47/47/6 14/14/5
f 17/17/57 47/47/6 65/65/55
f 68/68/58 66/66/3 59/59/41
f 68/68/58 59/59/41 53/53/50
f 53/53/50 64/64/56 68/68/58
f 66/66/3 52/52/42 59/59/41
f 70/70/54 63/63/76 67/67/37
f 69/69/39 68/68/58 65/65/55
f 68/68/58 69/69/39 71/71/38
f 71/71/38 48/48/1 68/68/58
f 7/7/60 76/76/67 75/75/61
f 62/62/64 52/52/42 72/72/62
f 75/75/61 74/74/66 51/51/47
f 76/76/67 8/8/77 74/74/66
f 52/52/42 66/66/3 77/77/2
f 77/77/2 6/6/68 52/52/42
f 73/73/59 75/75/61 57/57/65
