# This file uses centimeters as units for non-parametric coordinates.

mtllib letterm.mtl
g default
v 0.067338 0.751237 0.000000
v 0.567338 0.751237 0.000000
v 1.167338 0.751237 0.000000
v 0.566499 1.523425 0.000000
v 0.923975 2.251379 0.000000
v 1.667338 0.751237 0.000000
v 2.267338 0.751237 0.000000
v 2.019155 2.251491 0.000000
v 2.267973 1.760196 0.000000
v 2.767338 0.751237 0.000000
v 1.607963 2.315300 0.000000
v 2.767579 1.760395 0.000000
v 2.170960 2.551683 0.000000
v 0.467338 2.318425 0.000000
v 1.068415 2.552014 0.000000
v 0.467338 2.551237 0.000000
v 0.067338 2.551237 0.000000
v 1.224582 0.751237 0.000000
v 1.224708 2.539667 0.000000
v 0.567123 1.651608 0.000000
v 1.167434 1.651607 0.000000
v 1.224582 1.651607 0.000000
v 0.067338 1.651607 0.000000
v 0.453086 0.751237 0.000000
v 0.453086 1.651607 0.000000
v 0.453086 1.201422 0.000000
v 0.067338 1.201422 0.000000
v 0.566472 1.201420 0.000000
v 1.167338 1.201422 0.000000
v 1.224582 1.201422 0.000000
v 0.453086 2.551237 0.000000
v 0.067338 2.101792 0.000000
v 0.453086 2.101792 0.000000
v 0.644498 2.101750 0.000000
v 1.141123 2.101762 0.000000
v 1.224582 2.101792 0.000000
v 0.838825 2.241322 0.000000
v 0.838811 2.523885 0.000000
v 1.224582 2.326885 0.000000
v 0.838834 2.326885 0.000000
v 1.031785 2.232251 0.000000
v 1.031708 2.326885 0.000000
v 1.064056 2.214373 0.000000
v 1.224582 2.214339 0.000000
v 1.128141 2.135607 0.000000
v 1.128145 2.214339 0.000000
v 1.128145 2.326885 0.000000
v 1.031707 2.551272 0.000000
v 1.667365 1.651607 0.000000
v 2.267531 1.651606 0.000000
v 2.767521 1.651607 0.000000
v 1.667338 1.201422 0.000000
v 2.267338 1.201422 0.000000
v 2.767338 1.201422 0.000000
v 2.381826 0.751237 0.000000
v 2.381826 1.201422 0.000000
v 2.381826 1.651607 0.000000
v 1.996076 2.250623 0.000000
v 1.996019 2.533376 0.000000
v 1.748912 2.101747 0.000000
v 1.705008 2.005276 0.000000
v 1.704992 2.101792 0.000000
v 1.705031 2.398906 0.000000
v 1.619897 2.326883 0.000000
v 1.599199 2.326881 0.000000
v 1.704992 2.326885 0.000000
v 1.464787 2.326885 0.000000
v 1.464787 2.101792 0.000000
v 1.464611 2.450118 0.000000
v 1.996078 2.326885 0.000000
v 1.850379 2.203620 0.000000
v 1.850535 2.326885 0.000000
v 1.850540 2.485015 0.000000
v 2.238105 2.101756 0.000000
v 2.754080 2.101817 0.000000
v 2.381826 2.101792 0.000000
v 2.381839 2.523900 0.000000
v 2.381826 2.326885 0.000000
v 2.189011 2.186610 0.000000
v 2.188952 2.326885 0.000000
v 2.155110 2.214341 0.000000
v 2.188952 2.214339 0.000000
v 2.092507 2.241988 0.000000
v 2.092515 2.326885 0.000000
v 2.188953 2.551436 0.000000
v 2.669335 2.326939 0.000000
v 2.574700 2.101792 0.000000
v 2.574700 2.326885 0.000000
v 2.574700 2.427958 0.000000
vt 0.000000 0.000000
vt 0.185169 0.000000
vt 0.407372 0.000000
vt 0.184905 0.428817
vt 0.317246 0.832989
vt 0.592541 0.000000
vt 0.814744 0.000000
vt 0.722832 0.833111
vt 0.814947 0.560302
vt 0.999913 0.000000
vt 0.570552 0.868567
vt 1.000000 0.560413
vt 0.779051 0.999768
vt 0.148135 0.870302
vt 0.370737 1.000000
vt 0.148135 0.999589
vt 0.000000 0.999589
vt 0.428571 0.000000
vt 0.428571 0.992750
vt 0.185123 0.500000
vt 0.407372 0.500000
vt 0.428571 0.500000
vt 0.000000 0.500000
vt 0.142857 0.000000
vt 0.142857 0.500000
vt 0.142857 0.250000
vt 0.000000 0.250000
vt 0.185169 0.250000
vt 0.407372 0.250000
vt 0.428571 0.250000
vt 0.142857 0.999589
vt 0.000000 0.750000
vt 0.142857 0.750000
vt 0.213720 0.750000
vt 0.397699 0.750000
vt 0.428571 0.750000
vt 0.285714 0.827466
vt 0.285714 0.984350
vt 0.428571 0.875000
vt 0.285714 0.875000
vt 0.357143 0.822348
vt 0.357143 0.875000
vt 0.369114 0.812500
vt 0.428571 0.812500
vt 0.392857 0.768779
vt 0.392857 0.812500
vt 0.392857 0.875000
vt 0.357143 0.999605
vt 0.592567 0.500000
vt 0.814774 0.500000
vt 0.999963 0.500000
vt 0.592541 0.250000
vt 0.814744 0.250000
vt 0.999913 0.250000
vt 0.857143 0.000000
vt 0.857143 0.250000
vt 0.857143 0.500000
vt 0.714286 0.832635
vt 0.714286 0.989524
vt 0.622724 0.750000
vt 0.606486 0.696405
vt 0.606486 0.750000
vt 0.606486 0.915024
vt 0.574971 0.875000
vt 0.567308 0.875000
vt 0.606486 0.875000
vt 0.517528 0.875000
vt 0.517528 0.750000
vt 0.517528 0.943587
vt 0.714286 0.875000
vt 0.660386 0.806407
vt 0.660386 0.875000
vt 0.660386 0.962820
vt 0.803960 0.750000
vt 0.994941 0.750000
vt 0.857143 0.750000
vt 0.857143 0.984382
vt 0.857143 0.875000
vt 0.785714 0.797069
vt 0.785714 0.875000
vt 0.773181 0.812500
vt 0.785714 0.812500
vt 0.750000 0.827871
vt 0.750000 0.875000
vt 0.785714 0.999664
vt 0.963589 0.875000
vt 0.928571 0.750000
vt 0.928571 0.875000
vt 0.928571 0.931128
vn 0.000000 0.000000 1.000000
vn 0.000000 0.000000 1.000000
vn 0.000000 0.000000 1.000000
vn 0.000000 0.000000 1.000000
vn 0.000000 0.000000 1.000000
vn 0.000000 0.000000 1.000000
vn 0.000000 0.000000 1.000000
vn 0.000000 0.000000 1.000000
vn 0.000000 0.000000 1.000000
vn 0.000000 0.000000 1.000000
vn 0.000000 0.000000 1.000000
vn 0.000000 0.000000 1.000000
vn 0.000000 0.000000 1.000000
vn 0.000000 0.000000 1.000000
vn 0.000000 0.000000 1.000000
vn 0.000000 0.000000 1.000000
vn 0.000000 0.000000 1.000000
vn 0.000000 0.000000 1.000000
vn 0.000000 0.000000 1.000000
vn 0.000000 0.000000 1.000000
vn 0.000000 0.000000 1.000000
vn 0.000000 0.000000 1.000000
vn 0.000000 0.000000 1.000000
vn 0.000000 0.000000 1.000000
vn 0.000000 0.000000 1.000000
vn 0.000000 0.000000 1.000000
vn 0.000000 0.000000 1.000000
vn 0.000000 0.000000 1.000000
vn 0.000000 0.000000 1.000000
vn 0.000000 0.000000 1.000000
vn 0.000000 0.000000 1.000000
vn 0.000000 0.000000 1.000000
vn 0.000000 0.000000 1.000000
vn 0.000000 0.000000 1.000000
vn 0.000000 0.000000 1.000000
vn 0.000000 0.000000 1.000000
vn 0.000000 0.000000 1.000000
vn 0.000000 0.000000 1.000000
vn 0.000000 0.000000 1.000000
vn 0.000000 0.000000 1.000000
vn 0.000000 0.000000 1.000000
vn 0.000000 0.000000 1.000000
vn 0.000000 0.000000 1.000000
vn 0.000000 0.000000 1.000000
vn 0.000000 0.000000 1.000000
vn 0.000000 0.000000 1.000000
vn 0.000000 0.000000 1.000000
vn 0.000000 0.000000 1.000000
vn 0.000000 0.000000 1.000000
vn 0.000000 0.000000 1.000000
vn 0.000000 0.000000 1.000000
vn 0.000000 0.000000 1.000000
vn 0.000000 0.000000 1.000000
vn 0.000000 0.000000 1.000000
vn 0.000000 0.000000 1.000000
vn 0.000000 0.000000 1.000000
vn 0.000000 0.000000 1.000000
vn 0.000000 0.000000 1.000000
vn 0.000000 0.000000 1.000000
vn 0.000000 0.000000 1.000000
vn 0.000000 0.000000 1.000000
vn 0.000000 0.000000 1.000000
vn 0.000000 0.000000 1.000000
vn 0.000000 0.000000 1.000000
vn 0.000000 0.000000 1.000000
vn 0.000000 0.000000 1.000000
vn 0.000000 0.000000 1.000000
vn 0.000000 0.000000 1.000000
vn 0.000000 0.000000 1.000000
vn 0.000000 0.000000 1.000000
vn 0.000000 0.000000 1.000000
vn 0.000000 0.000000 1.000000
vn 0.000000 0.000000 1.000000
vn 0.000000 0.000000 1.000000
vn 0.000000 0.000000 1.000000
vn 0.000000 0.000000 1.000000
vn 0.000000 0.000000 1.000000
vn 0.000000 0.000000 1.000000
vn 0.000000 0.000000 1.000000
vn 0.000000 0.000000 1.000000
vn 0.000000 0.000000 1.000000
vn 0.000000 0.000000 1.000000
vn 0.000000 0.000000 1.000000
vn 0.000000 0.000000 1.000000
vn 0.000000 0.000000 1.000000
vn 0.000000 0.000000 1.000000
vn 0.000000 0.000000 1.000000
vn 0.000000 0.000000 1.000000
vn 0.000000 0.000000 1.000000
s 1
g Trim_Char_m_3_1 Trim_Text_mnopqrstuvwxyz_1_1
usemtl initialShadingGroup
f 86/86/1 89/89/2 88/88/3
f 15/15/4 48/48/5 42/42/6
f 29/29/7 30/30/8 22/22/9
f 26/26/10 25/25/11 27/27/12
f 1/1/13 24/24/14 26/26/10
f 3/3/15 18/18/16 30/30/8
f 24/24/14 2/2/17 28/28/18
f 4/4/19 20/20/20 25/25/11
f 32/32/21 14/14/22 31/31/23
f 23/23/24 25/25/11 33/33/25
f 36/36/26 35/35/27 21/21/28
f 20/20/20 34/34/29 33/33/25
f 40/40/30 38/38/31 14/14/22
f 46/46/32 44/44/33 39/39/34
f 5/5/35 41/41/36 42/42/6
f 35/35/27 36/36/26 44/44/33
f 43/43/37 45/45/38 46/46/32
f 43/43/37 46/46/32 47/47/39
f 38/38/31 40/40/30 42/42/6
f 57/57/40 56/56/41 54/54/42
f 52/52/43 49/49/44 22/22/9
f 18/18/16 6/6/45 52/52/43
f 55/55/46 10/10/47 54/54/42
f 7/7/48 55/55/46 56/56/41
f 50/50/49 53/53/50 56/56/41
f 70/70/51 59/59/52 73/73/53
f 61/61/54 60/60/55 62/62/56
f 68/68/57 36/36/26 22/22/9
f 63/63/58 64/64/59 66/66/60
f 65/65/61 67/67/62 68/68/57
f 44/44/33 36/36/26 68/68/57
f 69/69/63 19/19/64 39/39/34
f 58/58/65 70/70/51 72/72/66
f 71/71/67 72/72/66 66/66/60
f 63/63/58 66/66/60 72/72/66
f 57/57/40 51/51/68 12/12/69
f 9/9/70 50/50/49 57/57/40
f 77/77/71 85/85/72 80/80/73
f 74/74/74 76/76/75 78/78/76
f 81/81/77 82/82/78 80/80/73
f 81/81/77 79/79/79 82/82/78
f 8/8/80 83/83/81 84/84/82
f 59/59/52 70/70/51 84/84/82
f 87/87/83 75/75/84 86/86/1
f 76/76/75 87/87/83 88/88/3
f 89/89/2 77/77/71 78/78/76
f 65/65/61 69/69/63 67/67/62
f 47/47/39 39/39/34 19/19/64
f 42/42/6 19/19/64 15/15/4
f 19/19/64 42/42/6 47/47/39
f 22/22/9 21/21/28 29/29/7
f 25/25/11 23/23/24 27/27/12
f 26/26/10 27/27/12 1/1/13
f 30/30/8 29/29/7 3/3/15
f 28/28/18 26/26/10 24/24/14
f 26/26/10 28/28/18 4/4/19
f 25/25/11 26/26/10 4/4/19
f 31/31/23 17/17/85 32/32/21
f 33/33/25 32/32/21 23/23/24
f 21/21/28 22/22/9 36/36/26
f 33/33/25 25/25/11 20/20/20
f 14/14/22 16/16/86 31/31/23
f 14/14/22 33/33/25 34/34/29
f 14/14/22 34/34/29 37/37/87
f 14/14/22 37/37/87 40/40/30
f 14/14/22 32/32/21 33/33/25
f 39/39/34 47/47/39 46/46/32
f 40/40/30 37/37/87 5/5/35
f 5/5/35 42/42/6 40/40/30
f 44/44/33 46/46/32 45/45/38
f 44/44/33 45/45/38 35/35/27
f 47/47/39 42/42/6 41/41/36
f 47/47/39 41/41/36 43/43/37
f 42/42/6 48/48/5 38/38/31
f 54/54/42 51/51/68 57/57/40
f 22/22/9 30/30/8 52/52/43
f 52/52/43 30/30/8 18/18/16
f 54/54/42 56/56/41 55/55/46
f 56/56/41 53/53/50 7/7/48
f 56/56/41 57/57/40 50/50/49
f 73/73/53 72/72/66 70/70/51
f 61/61/54 62/62/56 68/68/57
f 22/22/9 49/49/44 61/61/54
f 22/22/9 61/61/54 68/68/57
f 62/62/56 66/66/60 64/64/59
f 68/68/57 11/11/88 65/65/61
f 11/11/88 68/68/57 62/62/56
f 64/64/59 11/11/88 62/62/56
f 68/68/57 67/67/62 39/39/34
f 68/68/57 39/39/34 44/44/33
f 39/39/34 67/67/62 69/69/63
f 72/72/66 71/71/67 58/58/65
f 66/66/60 62/62/56 60/60/55
f 60/60/55 71/71/67 66/66/60
f 72/72/66 73/73/53 63/63/58
f 87/87/83 76/76/75 57/57/40
f 12/12/69 75/75/84 57/57/40
f 57/57/40 75/75/84 87/87/83
f 76/76/75 74/74/74 9/9/70
f 57/57/40 76/76/75 9/9/70
f 80/80/73 78/78/76 77/77/71
f 82/82/78 79/79/79 74/74/74
f 78/78/76 80/80/73 82/82/78
f 82/82/78 74/74/74 78/78/76
f 80/80/73 84/84/82 83/83/81
f 80/80/73 83/83/81 81/81/77
f 70/70/51 58/58/65 8/8/80
f 8/8/80 84/84/82 70/70/51
f 80/80/73 85/85/72 13/13/89
f 84/84/82 80/80/73 59/59/52
f 13/13/89 59/59/52 80/80/73
f 86/86/1 88/88/3 87/87/83
f 88/88/3 78/78/76 76/76/75
f 78/78/76 88/88/3 89/89/2
