# This file uses centimeters as units for non-parametric coordinates.

mtllib letterCapX.mtl
g default
v 0.584490 0.728307 0.000000
v 1.092301 1.586120 0.000000
v 1.600114 0.728307 0.000000
v 2.142302 0.728307 0.000000
v 1.382928 2.012683 0.000000
v 2.042302 3.128307 0.000000
v 1.500113 3.128307 0.000000
v 1.092301 2.453307 0.000000
v 0.684490 3.128307 0.000000
v 0.142302 3.128307 0.000000
v 0.803239 2.012683 0.000000
v 0.042302 0.728307 0.000000
v 1.432814 1.928307 0.000000
v 0.753249 1.928307 0.000000
v 0.882302 1.231381 0.000000
v 0.882302 1.928307 0.000000
v 0.821284 1.128307 0.000000
v 0.279284 1.128307 0.000000
v 0.462302 1.128307 0.000000
v 0.462302 0.728307 0.000000
v 0.882302 1.528307 0.000000
v 0.516267 1.528307 0.000000
v 0.462302 1.437220 0.000000
v 1.363320 1.128307 0.000000
v 1.905806 1.128307 0.000000
v 1.722302 0.728307 0.000000
v 1.722302 1.128307 0.000000
v 1.302302 1.231380 0.000000
v 1.302302 1.928307 0.000000
v 1.058078 1.528307 0.000000
v 1.126527 1.528307 0.000000
v 1.302302 1.528307 0.000000
v 1.669310 1.528307 0.000000
v 1.722302 1.438678 0.000000
v 0.882302 2.800893 0.000000
v 0.616252 2.328307 0.000000
v 0.882302 2.328307 0.000000
v 0.379277 2.728307 0.000000
v 0.882302 2.728307 0.000000
v 0.462302 2.588165 0.000000
v 0.462302 2.728307 0.000000
v 0.462302 3.128307 0.000000
v 1.569472 2.328307 0.000000
v 1.302302 2.328307 0.000000
v 1.302302 2.800894 0.000000
v 1.258446 2.728307 0.000000
v 0.926156 2.728307 0.000000
v 1.302302 2.728307 0.000000
v 1.805888 2.728307 0.000000
v 1.722302 2.586885 0.000000
v 1.722302 2.728307 0.000000
v 1.722302 3.128307 0.000000
vt 0.258185 0.000000
vt 0.500000 0.357422
vt 0.741815 0.000000
vt 1.000000 0.000000
vt 0.638393 0.535157
vt 0.952381 1.000000
vt 0.694196 1.000000
vt 0.500000 0.718750
vt 0.305804 1.000000
vt 0.047619 1.000000
vt 0.362351 0.535157
vt 0.000000 0.000000
vt 0.662149 0.500000
vt 0.338546 0.500000
vt 0.400000 0.209615
vt 0.400000 0.500000
vt 0.370944 0.166667
vt 0.112849 0.166667
vt 0.200000 0.166667
vt 0.200000 0.000000
vt 0.400000 0.333333
vt 0.225698 0.333333
vt 0.200000 0.295380
vt 0.629056 0.166667
vt 0.887383 0.166667
vt 0.800000 0.000000
vt 0.800000 0.166667
vt 0.600000 0.209614
vt 0.600000 0.500000
vt 0.483702 0.333333
vt 0.516297 0.333333
vt 0.600000 0.333333
vt 0.774766 0.333333
vt 0.800000 0.295988
vt 0.400000 0.863578
vt 0.273309 0.666667
vt 0.400000 0.666667
vt 0.160464 0.833333
vt 0.400000 0.833333
vt 0.200000 0.774941
vt 0.200000 0.833333
vt 0.200000 1.000000
vt 0.727224 0.666667
vt 0.600000 0.666667
vt 0.600000 0.863578
vt 0.579117 0.833333
vt 0.420883 0.833333
vt 0.600000 0.833333
vt 0.839803 0.833333
vt 0.800000 0.774408
vt 0.800000 0.833333
vt 0.800000 1.000000
vn 0.000000 0.000000 1.000000
vn 0.000000 0.000000 1.000000
vn 0.000000 0.000000 1.000000
vn 0.000000 0.000000 1.000000
vn 0.000000 0.000000 1.000000
vn 0.000000 0.000000 1.000000
vn 0.000000 0.000000 1.000000
vn 0.000000 0.000000 1.000000
vn 0.000000 0.000000 1.000000
vn 0.000000 0.000000 1.000000
vn 0.000000 0.000000 1.000000
vn 0.000000 0.000000 1.000000
vn 0.000000 0.000000 1.000000
vn 0.000000 0.000000 1.000000
vn 0.000000 0.000000 1.000000
vn 0.000000 0.000000 1.000000
vn 0.000000 0.000000 1.000000
vn 0.000000 0.000000 1.000000
vn 0.000000 0.000000 1.000000
vn 0.000000 0.000000 1.000000
vn 0.000000 0.000000 1.000000
vn 0.000000 0.000000 1.000000
vn 0.000000 0.000000 1.000000
vn 0.000000 0.000000 1.000000
vn 0.000000 0.000000 1.000000
vn 0.000000 0.000000 1.000000
vn 0.000000 0.000000 1.000000
vn 0.000000 0.000000 1.000000
vn 0.000000 0.000000 1.000000
vn 0.000000 0.000000 1.000000
vn 0.000000 0.000000 1.000000
vn 0.000000 0.000000 1.000000
vn 0.000000 0.000000 1.000000
vn 0.000000 0.000000 1.000000
vn 0.000000 0.000000 1.000000
vn 0.000000 0.000000 1.000000
vn 0.000000 0.000000 1.000000
vn 0.000000 0.000000 1.000000
vn 0.000000 0.000000 1.000000
vn 0.000000 0.000000 1.000000
vn 0.000000 0.000000 1.000000
vn 0.000000 0.000000 1.000000
vn 0.000000 0.000000 1.000000
vn 0.000000 0.000000 1.000000
vn 0.000000 0.000000 1.000000
vn 0.000000 0.000000 1.000000
vn 0.000000 0.000000 1.000000
vn 0.000000 0.000000 1.000000
vn 0.000000 0.000000 1.000000
vn 0.000000 0.000000 1.000000
vn 0.000000 0.000000 1.000000
vn 0.000000 0.000000 1.000000
s 1
g Trim_Char_X_1_1 Trim_Text_OPQRSTUVWXYZ_1_1
usemtl initialShadingGroup
f 49/49/1 6/6/2 52/52/3
f 13/13/4 29/29/5 32/32/6
f 21/21/7 16/16/8 14/14/9
f 1/1/10 17/17/11 19/19/12
f 18/18/13 12/12/14 20/20/15
f 21/21/7 22/22/16 19/19/12
f 23/23/17 18/18/13 19/19/12
f 26/26/18 4/4/19 25/25/20
f 3/3/21 26/26/18 27/27/22
f 31/31/23 32/32/6 29/29/5
f 15/15/24 30/30/25 21/21/7
f 27/27/22 25/25/20 34/34/26
f 27/27/22 33/33/27 32/32/6
f 9/9/28 42/42/29 41/41/30
f 11/11/31 14/14/9 16/16/8
f 36/36/32 37/37/33 39/39/34
f 38/38/35 40/40/36 41/41/30
f 42/42/29 10/10/37 38/38/35
f 5/5/38 43/43/39 44/44/40
f 16/16/8 29/29/5 44/44/40
f 45/45/41 46/46/42 48/48/43
f 8/8/44 37/37/33 44/44/40
f 50/50/45 49/49/1 51/51/46
f 50/50/45 51/51/46 48/48/43
f 45/45/41 48/48/43 51/51/46
f 32/32/6 31/31/23 28/28/47
f 47/47/48 35/35/49 39/39/34
f 52/52/3 51/51/46 49/49/1
f 32/32/6 33/33/27 13/13/4
f 14/14/9 22/22/16 21/21/7
f 19/19/12 20/20/15 1/1/10
f 20/20/15 19/19/12 18/18/13
f 22/22/16 23/23/17 19/19/12
f 19/19/12 17/17/11 15/15/24
f 15/15/24 21/21/7 19/19/12
f 25/25/20 27/27/22 26/26/18
f 27/27/22 24/24/50 3/3/21
f 16/16/8 21/21/7 30/30/25
f 29/29/5 2/2/51 31/31/23
f 2/2/51 29/29/5 16/16/8
f 30/30/25 2/2/51 16/16/8
f 27/27/22 34/34/26 33/33/27
f 28/28/47 24/24/50 27/27/22
f 27/27/22 32/32/6 28/28/47
f 41/41/30 39/39/34 35/35/49
f 35/35/49 9/9/28 41/41/30
f 37/37/33 36/36/32 11/11/31
f 16/16/8 37/37/33 11/11/31
f 39/39/34 41/41/30 40/40/36
f 40/40/36 36/36/32 39/39/34
f 38/38/35 41/41/30 42/42/29
f 29/29/5 13/13/4 5/5/38
f 5/5/38 44/44/40 29/29/5
f 44/44/40 37/37/33 16/16/8
f 47/47/48 39/39/34 37/37/33
f 44/44/40 48/48/43 46/46/42
f 46/46/42 8/8/44 44/44/40
f 37/37/33 8/8/44 47/47/48
f 48/48/43 44/44/40 43/43/39
f 48/48/43 43/43/39 50/50/45
f 51/51/46 52/52/3 7/7/52
f 51/51/46 7/7/52 45/45/41
