# This file uses centimeters as units for non-parametric coordinates.

mtllib letterCapJ.mtl
g default
v 0.550712 1.554696 0.000000
v 0.050712 1.554696 0.000000
v 1.550712 3.154696 0.000000
v 1.551661 1.733840 0.000000
v 0.779012 0.754353 0.000000
v 1.050712 3.154696 0.000000
v 1.051139 1.634531 0.000000
v 0.803883 1.154711 0.000000
v 1.551800 1.783072 0.000000
v 1.050916 1.783073 0.000000
v 0.709387 0.756572 0.000000
v 0.709377 1.172761 0.000000
v 0.143593 1.097203 0.000000
v 0.709382 1.097261 0.000000
v 0.425871 0.822459 0.000000
v 0.425876 1.097261 0.000000
v 0.270103 0.925739 0.000000
v 0.425876 0.925808 0.000000
v 0.238212 0.957995 0.000000
v 0.238294 1.097261 0.000000
v 0.055496 1.440165 0.000000
v 0.558205 1.440133 0.000000
v 0.425876 1.440167 0.000000
v 0.607646 1.268851 0.000000
v 0.425876 1.268714 0.000000
v 0.567629 1.097261 0.000000
v 0.567629 1.268714 0.000000
v 0.567577 1.381610 0.000000
v 0.425876 1.554696 0.000000
v 1.449670 1.097301 0.000000
v 1.176060 0.836469 0.000000
v 1.176204 1.097261 0.000000
v 1.542673 1.440158 0.000000
v 1.043449 1.440166 0.000000
v 1.176204 1.440167 0.000000
v 1.006561 1.268712 0.000000
v 1.176204 1.268714 0.000000
v 0.942782 1.191556 0.000000
v 0.942793 1.097261 0.000000
v 1.176204 1.783072 0.000000
v 1.550712 2.468884 0.000000
v 1.050712 2.468884 0.000000
v 1.550718 2.125978 0.000000
v 1.050712 2.125978 0.000000
v 1.176204 2.125978 0.000000
v 1.176204 2.468884 0.000000
v 1.550712 2.811790 0.000000
v 1.050712 2.811790 0.000000
v 1.176204 2.811790 0.000000
v 1.176204 3.154696 0.000000
vt 0.333187 0.333428
vt 0.000000 0.333428
vt 0.999562 1.000000
vt 1.000000 0.408061
vt 0.485321 0.000000
vt 0.666375 1.000000
vt 0.666836 0.366687
vt 0.501894 0.166793
vt 0.999936 0.428571
vt 0.666375 0.428571
vt 0.438921 0.000894
vt 0.438921 0.174316
vt 0.061971 0.142857
vt 0.438921 0.142857
vt 0.250000 0.028378
vt 0.250000 0.142857
vt 0.146240 0.071429
vt 0.250000 0.071429
vt 0.125000 0.084869
vt 0.125000 0.142857
vt 0.003198 0.285714
vt 0.338371 0.285714
vt 0.250000 0.285714
vt 0.370963 0.214286
vt 0.250000 0.214286
vt 0.344460 0.142857
vt 0.344460 0.214286
vt 0.344460 0.261324
vt 0.250000 0.333428
vt 0.932278 0.142857
vt 0.750000 0.034090
vt 0.750000 0.142857
vt 0.994137 0.285714
vt 0.661534 0.285714
vt 0.750000 0.285714
vt 0.636952 0.214286
vt 0.750000 0.214286
vt 0.594460 0.182135
vt 0.594460 0.142857
vt 0.750000 0.428571
vt 0.999562 0.714286
vt 0.666375 0.714286
vt 0.999562 0.571429
vt 0.666375 0.571429
vt 0.750000 0.571429
vt 0.750000 0.714286
vt 0.999562 0.857143
vt 0.666375 0.857143
vt 0.750000 0.857143
vt 0.750000 1.000000
vn 0.000000 0.000000 1.000000
vn 0.000000 0.000000 1.000000
vn 0.000000 0.000000 1.000000
vn 0.000000 0.000000 1.000000
vn 0.000000 0.000000 1.000000
vn 0.000000 0.000000 1.000000
vn 0.000000 0.000000 1.000000
vn 0.000000 0.000000 1.000000
vn 0.000000 0.000000 1.000000
vn 0.000000 0.000000 1.000000
vn 0.000000 0.000000 1.000000
vn 0.000000 0.000000 1.000000
vn 0.000000 0.000000 1.000000
vn 0.000000 0.000000 1.000000
vn 0.000000 0.000000 1.000000
vn 0.000000 0.000000 1.000000
vn 0.000000 0.000000 1.000000
vn 0.000000 0.000000 1.000000
vn 0.000000 0.000000 1.000000
vn 0.000000 0.000000 1.000000
vn 0.000000 0.000000 1.000000
vn 0.000000 0.000000 1.000000
vn 0.000000 0.000000 1.000000
vn 0.000000 0.000000 1.000000
vn 0.000000 0.000000 1.000000
vn 0.000000 0.000000 1.000000
vn 0.000000 0.000000 1.000000
vn 0.000000 0.000000 1.000000
vn 0.000000 0.000000 1.000000
vn 0.000000 0.000000 1.000000
vn 0.000000 0.000000 1.000000
vn 0.000000 0.000000 1.000000
vn 0.000000 0.000000 1.000000
vn 0.000000 0.000000 1.000000
vn 0.000000 0.000000 1.000000
vn 0.000000 0.000000 1.000000
vn 0.000000 0.000000 1.000000
vn 0.000000 0.000000 1.000000
vn 0.000000 0.000000 1.000000
vn 0.000000 0.000000 1.000000
vn 0.000000 0.000000 1.000000
vn 0.000000 0.000000 1.000000
vn 0.000000 0.000000 1.000000
vn 0.000000 0.000000 1.000000
vn 0.000000 0.000000 1.000000
vn 0.000000 0.000000 1.000000
vn 0.000000 0.000000 1.000000
vn 0.000000 0.000000 1.000000
vn 0.000000 0.000000 1.000000
vn 0.000000 0.000000 1.000000
s 1
g Trim_Char_J_1_1 Trim_Text_ABCDEFGHIJKLMN_1_1
usemtl initialShadingGroup
f 47/47/1 3/3/2 49/49/3
f 4/4/4 9/9/5 40/40/6
f 1/1/7 29/29/8 23/23/9
f 11/11/10 14/14/11 26/26/12
f 18/18/13 16/16/14 20/20/15
f 17/17/16 15/15/17 18/18/13
f 13/13/18 19/19/19 20/20/15
f 24/24/20 28/28/21 27/27/22
f 21/21/23 13/13/18 20/20/15
f 26/26/12 14/14/11 12/12/24
f 16/16/14 26/26/12 27/27/22
f 28/28/21 22/22/25 23/23/9
f 29/29/8 2/2/26 21/21/23
f 31/31/27 30/30/28 32/32/29
f 31/31/27 32/32/29 39/39/30
f 33/33/31 35/35/32 37/37/33
f 34/34/34 36/36/35 37/37/33
f 38/38/36 39/39/30 32/32/29
f 8/8/37 12/12/24 14/14/11
f 7/7/38 34/34/34 35/35/32
f 43/43/39 41/41/40 45/45/41
f 43/43/39 45/45/41 40/40/6
f 10/10/42 40/40/6 45/45/41
f 44/44/43 45/45/41 46/46/44
f 41/41/40 47/47/1 46/46/44
f 42/42/45 46/46/44 49/49/3
f 48/48/46 49/49/3 50/50/47
f 3/3/2 50/50/47 49/49/3
f 40/40/6 35/35/32 33/33/31
f 40/40/6 33/33/31 4/4/4
f 23/23/9 22/22/25 1/1/7
f 26/26/12 16/16/14 18/18/13
f 18/18/13 15/15/17 11/11/10
f 11/11/10 26/26/12 18/18/13
f 19/19/19 17/17/16 18/18/13
f 18/18/13 20/20/15 19/19/19
f 20/20/15 16/16/14 25/25/48
f 25/25/48 23/23/9 21/21/23
f 20/20/15 25/25/48 21/21/23
f 24/24/20 27/27/22 26/26/12
f 26/26/12 12/12/24 24/24/20
f 27/27/22 25/25/48 16/16/14
f 25/25/48 27/27/22 28/28/21
f 23/23/9 25/25/48 28/28/21
f 21/21/23 23/23/9 29/29/8
f 14/14/11 11/11/10 5/5/49
f 39/39/30 14/14/11 5/5/49
f 39/39/30 5/5/49 31/31/27
f 32/32/29 30/30/28 33/33/31
f 37/37/33 32/32/29 33/33/31
f 37/37/33 35/35/32 34/34/34
f 32/32/29 37/37/33 36/36/35
f 32/32/29 36/36/35 38/38/36
f 39/39/30 38/38/36 8/8/37
f 14/14/11 39/39/30 8/8/37
f 40/40/6 10/10/42 7/7/38
f 7/7/38 35/35/32 40/40/6
f 41/41/40 46/46/44 45/45/41
f 40/40/6 9/9/5 43/43/39
f 45/45/41 44/44/43 10/10/42
f 46/46/44 42/42/45 44/44/43
f 47/47/1 49/49/3 46/46/44
f 49/49/3 48/48/46 42/42/45
f 50/50/47 6/6/50 48/48/46
