# This file uses centimeters as units for non-parametric coordinates.

mtllib letterCapH.mtl
g default
v 0.570182 0.754696 0.000000
v 0.570182 1.854696 0.000000
v 1.470183 1.854696 0.000000
v 1.470183 0.754696 0.000000
v 1.970183 0.754696 0.000000
v 1.970183 3.154696 0.000000
v 1.470183 3.154696 0.000000
v 1.470183 2.254696 0.000000
v 0.570182 2.254696 0.000000
v 0.570182 3.154696 0.000000
v 0.070182 3.154696 0.000000
v 0.070182 0.754696 0.000000
v 1.970183 1.954696 0.000000
v 0.070182 1.954696 0.000000
v 0.830183 1.854696 0.000000
v 0.830183 1.954696 0.000000
v 0.570182 1.154696 0.000000
v 0.070182 1.154696 0.000000
v 0.450183 1.154696 0.000000
v 0.450183 0.754696 0.000000
v 0.570182 1.554696 0.000000
v 0.070182 1.554696 0.000000
v 0.450183 1.554696 0.000000
v 0.450183 1.954696 0.000000
v 1.470183 1.154696 0.000000
v 1.970183 1.154696 0.000000
v 1.590183 0.754696 0.000000
v 1.590183 1.154696 0.000000
v 1.210183 1.854696 0.000000
v 1.210183 1.954696 0.000000
v 1.470183 1.554696 0.000000
v 1.970183 1.554696 0.000000
v 1.590183 1.554696 0.000000
v 1.590183 1.954696 0.000000
v 0.830183 2.254696 0.000000
v 0.570182 2.354696 0.000000
v 0.070182 2.354696 0.000000
v 0.450183 2.354696 0.000000
v 0.570182 2.754696 0.000000
v 0.070182 2.754696 0.000000
v 0.450183 2.754696 0.000000
v 0.450183 3.154696 0.000000
v 1.970183 2.354696 0.000000
v 1.470183 2.354696 0.000000
v 1.210183 2.254696 0.000000
v 1.590183 2.354696 0.000000
v 1.970183 2.754696 0.000000
v 1.470183 2.754696 0.000000
v 1.590183 2.754696 0.000000
v 1.590183 3.154696 0.000000
vt 0.263158 0.000000
vt 0.263158 0.458333
vt 0.736842 0.458333
vt 0.736842 0.000000
vt 1.000000 0.000000
vt 1.000000 1.000000
vt 0.736842 1.000000
vt 0.736842 0.625000
vt 0.263158 0.625000
vt 0.263158 1.000000
vt 0.000000 1.000000
vt 0.000000 0.000000
vt 1.000000 0.500000
vt 0.000000 0.500000
vt 0.400000 0.458333
vt 0.400000 0.500000
vt 0.263158 0.166667
vt 0.000000 0.166667
vt 0.200000 0.166667
vt 0.200000 0.000000
vt 0.263158 0.333333
vt 0.000000 0.333333
vt 0.200000 0.333333
vt 0.200000 0.500000
vt 0.736842 0.166667
vt 1.000000 0.166667
vt 0.800000 0.000000
vt 0.800000 0.166667
vt 0.600000 0.458333
vt 0.600000 0.500000
vt 0.736842 0.333333
vt 1.000000 0.333333
vt 0.800000 0.333333
vt 0.800000 0.500000
vt 0.400000 0.625000
vt 0.263158 0.666667
vt 0.000000 0.666667
vt 0.200000 0.666667
vt 0.263158 0.833333
vt 0.000000 0.833333
vt 0.200000 0.833333
vt 0.200000 1.000000
vt 1.000000 0.666667
vt 0.736842 0.666667
vt 0.600000 0.625000
vt 0.800000 0.666667
vt 1.000000 0.833333
vt 0.736842 0.833333
vt 0.800000 0.833333
vt 0.800000 1.000000
vn 0.000000 0.000000 1.000000
vn 0.000000 0.000000 1.000000
vn 0.000000 0.000000 1.000000
vn 0.000000 0.000000 1.000000
vn 0.000000 0.000000 1.000000
vn 0.000000 0.000000 1.000000
vn 0.000000 0.000000 1.000000
vn 0.000000 0.000000 1.000000
vn 0.000000 0.000000 1.000000
vn 0.000000 0.000000 1.000000
vn 0.000000 0.000000 1.000000
vn 0.000000 0.000000 1.000000
vn 0.000000 0.000000 1.000000
vn 0.000000 0.000000 1.000000
vn 0.000000 0.000000 1.000000
vn 0.000000 0.000000 1.000000
vn 0.000000 0.000000 1.000000
vn 0.000000 0.000000 1.000000
vn 0.000000 0.000000 1.000000
vn 0.000000 0.000000 1.000000
vn 0.000000 0.000000 1.000000
vn 0.000000 0.000000 1.000000
vn 0.000000 0.000000 1.000000
vn 0.000000 0.000000 1.000000
vn 0.000000 0.000000 1.000000
vn 0.000000 0.000000 1.000000
vn 0.000000 0.000000 1.000000
vn 0.000000 0.000000 1.000000
vn 0.000000 0.000000 1.000000
vn 0.000000 0.000000 1.000000
vn 0.000000 0.000000 1.000000
vn 0.000000 0.000000 1.000000
vn 0.000000 0.000000 1.000000
vn 0.000000 0.000000 1.000000
vn 0.000000 0.000000 1.000000
vn 0.000000 0.000000 1.000000
vn 0.000000 0.000000 1.000000
vn 0.000000 0.000000 1.000000
vn 0.000000 0.000000 1.000000
vn 0.000000 0.000000 1.000000
vn 0.000000 0.000000 1.000000
vn 0.000000 0.000000 1.000000
vn 0.000000 0.000000 1.000000
vn 0.000000 0.000000 1.000000
vn 0.000000 0.000000 1.000000
vn 0.000000 0.000000 1.000000
vn 0.000000 0.000000 1.000000
vn 0.000000 0.000000 1.000000
vn 0.000000 0.000000 1.000000
vn 0.000000 0.000000 1.000000
s 1
g Trim_Char_H_1_1 Trim_Text_ABCDEFGHIJKLMN_1_1
usemtl initialShadingGroup
f 47/47/1 6/6/2 49/49/3
f 33/33/4 32/32/5 13/13/6
f 2/2/7 16/16/8 24/24/9
f 1/1/10 17/17/11 20/20/12
f 12/12/13 20/20/12 19/19/14
f 17/17/11 21/21/15 19/19/14
f 18/18/16 19/19/14 23/23/17
f 22/22/18 23/23/17 24/24/9
f 27/27/19 5/5/20 26/26/21
f 4/4/22 27/27/19 28/28/23
f 15/15/24 29/29/25 30/30/26
f 28/28/23 26/26/21 32/32/5
f 25/25/27 28/28/23 33/33/4
f 3/3/28 31/31/29 33/33/4
f 39/39/30 10/10/31 41/41/32
f 9/9/33 38/38/34 24/24/9
f 14/14/35 24/24/9 38/38/34
f 36/36/36 39/39/30 38/38/34
f 37/37/37 38/38/34 41/41/32
f 40/40/38 41/41/32 42/42/39
f 13/13/6 43/43/40 34/34/41
f 16/16/8 30/30/26 45/45/42
f 8/8/43 45/45/42 30/30/26
f 43/43/40 47/47/1 46/46/44
f 44/44/45 46/46/44 49/49/3
f 48/48/46 49/49/3 50/50/47
f 6/6/2 50/50/47 49/49/3
f 13/13/6 34/34/41 33/33/4
f 2/2/7 15/15/24 16/16/8
f 23/23/17 21/21/15 2/2/7
f 2/2/7 24/24/9 23/23/17
f 17/17/11 19/19/14 20/20/12
f 19/19/14 18/18/16 12/12/13
f 21/21/15 23/23/17 19/19/14
f 23/23/17 22/22/18 18/18/16
f 24/24/9 14/14/35 22/22/18
f 26/26/21 28/28/23 27/27/19
f 28/28/23 25/25/27 4/4/22
f 30/30/26 16/16/8 15/15/24
f 32/32/5 33/33/4 28/28/23
f 33/33/4 31/31/29 25/25/27
f 30/30/26 29/29/25 3/3/28
f 34/34/41 30/30/26 3/3/28
f 33/33/4 34/34/41 3/3/28
f 10/10/31 42/42/39 41/41/32
f 9/9/33 36/36/36 38/38/34
f 16/16/8 35/35/48 9/9/33
f 9/9/33 24/24/9 16/16/8
f 38/38/34 37/37/37 14/14/35
f 39/39/30 41/41/32 38/38/34
f 41/41/32 40/40/38 37/37/37
f 42/42/39 11/11/49 40/40/38
f 43/43/40 46/46/44 34/34/41
f 45/45/42 35/35/48 16/16/8
f 46/46/44 44/44/45 8/8/43
f 34/34/41 46/46/44 8/8/43
f 30/30/26 34/34/41 8/8/43
f 47/47/1 49/49/3 46/46/44
f 49/49/3 48/48/46 44/44/45
f 50/50/47 7/7/50 48/48/46
