# This file uses centimeters as units for non-parametric coordinates.

mtllib letterz.mtl
g default
v 1.595481 0.751237 0.000000
v 1.595481 1.051237 0.000000
v 0.595481 1.051237 0.000000
v 1.495481 2.251237 0.000000
v 1.495481 2.551237 0.000000
v 0.195482 2.551237 0.000000
v 0.195482 2.251237 0.000000
v 0.995481 2.251237 0.000000
v 0.095481 1.051237 0.000000
v 0.095481 0.751237 0.000000
v 1.052499 1.651237 0.000000
v 0.539691 1.651237 0.000000
v 0.695482 1.051237 0.000000
v 0.695482 1.178571 0.000000
v 0.695482 1.651237 0.000000
v 0.695482 0.751237 0.000000
v 0.095481 0.976237 0.000000
v 0.695482 0.976237 0.000000
v 0.395480 0.751237 0.000000
v 0.395480 0.976237 0.000000
v 0.695482 1.351237 0.000000
v 0.317586 1.351237 0.000000
v 0.395480 1.351237 0.000000
v 0.395480 1.456450 0.000000
v 1.595481 0.976237 0.000000
v 1.070482 0.976237 0.000000
v 1.070482 0.751237 0.000000
v 1.295482 0.976237 0.000000
v 1.295482 0.751237 0.000000
v 1.070482 1.051237 0.000000
v 0.830547 1.351633 0.000000
v 1.295482 1.051237 0.000000
v 0.695482 2.551237 0.000000
v 0.695482 2.251237 0.000000
v 0.695216 1.861860 0.000000
v 0.395480 2.551237 0.000000
v 0.395480 2.251237 0.000000
v 1.273990 1.951237 0.000000
v 0.761787 1.951250 0.000000
v 1.070482 1.675592 0.000000
v 1.070482 1.951237 0.000000
v 1.070482 2.551237 0.000000
v 0.934011 2.175986 0.000000
v 1.070482 2.176237 0.000000
v 1.440109 2.176237 0.000000
v 1.295482 1.980345 0.000000
v 1.295482 2.176237 0.000000
v 1.295482 2.551237 0.000000
vt 1.000000 0.000000
vt 1.000000 0.166667
vt 0.333333 0.166667
vt 0.933333 0.833333
vt 0.933333 1.000000
vt 0.066667 1.000000
vt 0.066667 0.833333
vt 0.600000 0.833333
vt 0.000000 0.166667
vt 0.000000 0.000000
vt 0.638012 0.500000
vt 0.296140 0.500000
vt 0.400000 0.166667
vt 0.400000 0.237408
vt 0.400000 0.500000
vt 0.400000 0.000000
vt 0.000000 0.125000
vt 0.400000 0.125000
vt 0.200000 0.000000
vt 0.200000 0.125000
vt 0.400000 0.333333
vt 0.148070 0.333333
vt 0.200000 0.333333
vt 0.200000 0.391785
vt 1.000000 0.125000
vt 0.650000 0.125000
vt 0.650000 0.000000
vt 0.800000 0.125000
vt 0.800000 0.000000
vt 0.650000 0.166667
vt 0.490390 0.333333
vt 0.800000 0.166667
vt 0.400000 1.000000
vt 0.400000 0.833333
vt 0.400000 0.616904
vt 0.200000 1.000000
vt 0.200000 0.833333
vt 0.785673 0.666667
vt 0.444215 0.666667
vt 0.650000 0.513531
vt 0.650000 0.666667
vt 0.650000 1.000000
vt 0.558809 0.791667
vt 0.650000 0.791667
vt 0.896418 0.791667
vt 0.800000 0.682838
vt 0.800000 0.791667
vt 0.800000 1.000000
vn 0.000000 0.000000 1.000000
vn 0.000000 0.000000 1.000000
vn 0.000000 0.000000 1.000000
vn 0.000000 0.000000 1.000000
vn 0.000000 0.000000 1.000000
vn 0.000000 0.000000 1.000000
vn 0.000000 0.000000 1.000000
vn 0.000000 0.000000 1.000000
vn 0.000000 0.000000 1.000000
vn 0.000000 0.000000 1.000000
vn 0.000000 0.000000 1.000000
vn 0.000000 0.000000 1.000000
vn 0.000000 0.000000 1.000000
vn 0.000000 0.000000 1.000000
vn 0.000000 0.000000 1.000000
vn 0.000000 0.000000 1.000000
vn 0.000000 0.000000 1.000000
vn 0.000000 0.000000 1.000000
vn 0.000000 0.000000 1.000000
vn 0.000000 0.000000 1.000000
vn 0.000000 0.000000 1.000000
vn 0.000000 0.000000 1.000000
vn 0.000000 0.000000 1.000000
vn 0.000000 0.000000 1.000000
vn 0.000000 0.000000 1.000000
vn 0.000000 0.000000 1.000000
vn 0.000000 0.000000 1.000000
vn 0.000000 0.000000 1.000000
vn 0.000000 0.000000 1.000000
vn 0.000000 0.000000 1.000000
vn 0.000000 0.000000 1.000000
vn 0.000000 0.000000 1.000000
vn 0.000000 0.000000 1.000000
vn 0.000000 0.000000 1.000000
vn 0.000000 0.000000 1.000000
vn 0.000000 0.000000 1.000000
vn 0.000000 0.000000 1.000000
vn 0.000000 0.000000 1.000000
vn 0.000000 0.000000 1.000000
vn 0.000000 0.000000 1.000000
vn 0.000000 0.000000 1.000000
vn 0.000000 0.000000 1.000000
vn 0.000000 0.000000 1.000000
vn 0.000000 0.000000 1.000000
vn 0.000000 0.000000 1.000000
vn 0.000000 0.000000 1.000000
vn 0.000000 0.000000 1.000000
vn 0.000000 0.000000 1.000000
s 1
g Trim_Char_z_3_1 Trim_Text_mnopqrstuvwxyz_1_1
usemtl initialShadingGroup
f 4/4/1 5/5/2 48/48/3
f 25/25/4 2/2/5 28/28/6
f 21/21/7 15/15/8 12/12/9
f 19/19/10 16/16/11 18/18/12
f 10/10/13 19/19/10 20/20/14
f 3/3/15 20/20/14 18/18/12
f 9/9/16 17/17/17 20/20/14
f 24/24/18 22/22/19 23/23/20
f 1/1/21 25/25/4 29/29/22
f 16/16/11 27/27/23 26/26/24
f 27/27/23 29/29/22 28/28/6
f 15/15/8 21/21/7 31/31/25
f 18/18/12 26/26/24 30/30/26
f 26/26/24 28/28/6 32/32/27
f 37/37/28 34/34/29 33/33/30
f 35/35/31 12/12/9 15/15/8
f 7/7/32 37/37/28 36/36/33
f 40/40/34 38/38/35 41/41/36
f 35/35/31 15/15/8 11/11/37
f 33/33/30 34/34/29 8/8/38
f 43/43/39 39/39/40 41/41/36
f 46/46/41 45/45/42 47/47/43
f 46/46/41 47/47/43 44/44/44
f 44/44/44 47/47/43 48/48/3
f 31/31/25 21/21/7 14/14/45
f 48/48/3 47/47/43 45/45/42
f 45/45/42 4/4/1 48/48/3
f 2/2/5 32/32/27 28/28/6
f 24/24/18 23/23/20 21/21/7
f 21/21/7 12/12/9 24/24/18
f 18/18/12 20/20/14 19/19/10
f 20/20/14 17/17/17 10/10/13
f 14/14/45 21/21/7 23/23/20
f 18/18/12 13/13/46 3/3/15
f 23/23/20 20/20/14 3/3/15
f 23/23/20 3/3/15 14/14/45
f 20/20/14 23/23/20 22/22/19
f 20/20/14 22/22/19 9/9/16
f 25/25/4 28/28/6 29/29/22
f 26/26/24 18/18/12 16/16/11
f 28/28/6 26/26/24 27/27/23
f 31/31/25 11/11/37 15/15/8
f 30/30/26 13/13/46 18/18/12
f 32/32/27 30/30/26 26/26/24
f 33/33/30 36/36/33 37/37/28
f 36/36/33 6/6/47 7/7/32
f 11/11/37 40/40/34 41/41/36
f 11/11/37 41/41/36 39/39/40
f 11/11/37 39/39/40 35/35/31
f 8/8/38 43/43/39 44/44/44
f 8/8/38 44/44/44 42/42/48
f 8/8/38 42/42/48 33/33/30
f 41/41/36 44/44/44 43/43/39
f 44/44/44 41/41/36 38/38/35
f 38/38/35 46/46/41 44/44/44
f 48/48/3 42/42/48 44/44/44
