# This file uses centimeters as units for non-parametric coordinates.

mtllib number6.mtl
g default
v 0.538354 2.036263 0.000000
v 1.075853 2.436263 0.000000
v 0.853978 2.736463 0.000000
v 1.575853 2.490952 0.000000
v 0.855536 0.735988 0.000000
v 0.920032 3.136236 0.000000
v 0.075091 1.929412 0.000000
v 1.575982 1.498644 0.000000
v 0.935715 2.236313 0.000000
v 0.575853 1.509702 0.000000
v 1.075856 1.476889 0.000000
v 0.824291 1.836302 0.000000
v 0.841476 1.135948 0.000000
v 0.078691 1.764653 0.000000
v 1.538638 1.764685 0.000000
v 0.657843 1.764836 0.000000
v 0.990748 1.764900 0.000000
v 0.918426 0.738368 0.000000
v 0.918433 1.149812 0.000000
v 0.248987 1.079044 0.000000
v 0.918426 1.078895 0.000000
v 0.450510 0.861694 0.000000
v 0.450540 1.078895 0.000000
v 0.918426 0.907447 0.000000
v 0.450540 0.907447 0.000000
v 0.684485 0.755207 0.000000
v 0.684483 0.907447 0.000000
v 0.684483 1.078895 0.000000
v 0.120483 1.421914 0.000000
v 0.581185 1.421792 0.000000
v 0.450540 1.421792 0.000000
v 0.643778 1.250360 0.000000
v 0.450540 1.250343 0.000000
v 0.684393 1.203714 0.000000
v 0.450540 1.764688 0.000000
v 1.474735 1.078892 0.000000
v 1.200843 0.815203 0.000000
v 1.200828 1.078895 0.000000
v 1.573202 1.421791 0.000000
v 1.074451 1.421791 0.000000
v 1.200828 1.421792 0.000000
v 1.032327 1.250344 0.000000
v 1.200828 1.250343 0.000000
v 1.059627 1.078895 0.000000
v 1.059627 1.250343 0.000000
v 1.059626 1.320000 0.000000
v 1.200828 1.764688 0.000000
v 1.067906 1.593240 0.000000
v 1.200828 1.593240 0.000000
v 1.059627 1.764688 0.000000
v 1.059634 1.633873 0.000000
v 0.588883 2.450558 0.000000
v 1.074434 2.450480 0.000000
v 1.205827 2.450480 0.000000
v 0.128085 2.450576 0.000000
v 0.918426 2.236044 0.000000
v 0.918339 1.816590 0.000000
v 0.542552 2.107584 0.000000
v 0.080593 2.107587 0.000000
v 0.603810 2.107616 0.000000
v 0.918426 2.107584 0.000000
v 0.450540 2.107584 0.000000
v 0.450540 1.936136 0.000000
v 0.918426 1.936136 0.000000
v 0.684347 1.788893 0.000000
v 0.684483 1.936136 0.000000
v 0.684483 2.107584 0.000000
v 0.450540 2.450480 0.000000
v 0.558789 2.279032 0.000000
v 0.450540 2.279032 0.000000
v 0.684464 2.168911 0.000000
v 1.304721 2.107584 0.000000
v 1.200828 2.107584 0.000000
v 1.459832 1.936151 0.000000
v 1.200828 1.936136 0.000000
v 1.388400 1.936136 0.000000
v 1.388400 1.764688 0.000000
v 1.388505 2.029232 0.000000
v 1.200828 2.450480 0.000000
v 1.200828 2.449933 0.000000
v 1.200823 2.174208 0.000000
v 0.918426 2.726311 0.000000
v 0.918426 3.136238 0.000000
v 0.918426 2.793376 0.000000
v 0.268423 2.793233 0.000000
v 0.450540 2.793376 0.000000
v 0.661121 2.621929 0.000000
v 0.450540 2.621928 0.000000
v 0.684483 2.651997 0.000000
v 0.684483 2.793376 0.000000
v 0.749324 2.707652 0.000000
v 0.684483 2.707652 0.000000
v 0.801454 2.729613 0.000000
v 0.801454 2.793376 0.000000
v 0.450458 2.986199 0.000000
v 0.918426 2.964824 0.000000
v 0.450540 2.964824 0.000000
v 0.684483 2.964824 0.000000
v 0.684485 3.103930 0.000000
v 1.485655 2.793376 0.000000
v 1.200828 2.793376 0.000000
v 1.029705 2.621929 0.000000
v 1.200828 2.621928 0.000000
v 1.059646 2.537541 0.000000
v 1.059627 2.621928 0.000000
v 1.059627 2.793376 0.000000
v 0.957077 2.707640 0.000000
v 1.059627 2.707652 0.000000
v 0.989025 2.681058 0.000000
v 0.989026 2.707652 0.000000
v 0.989026 2.793376 0.000000
v 1.200864 3.078136 0.000000
v 1.363239 2.964766 0.000000
v 1.200828 2.964824 0.000000
v 1.388350 2.938330 0.000000
v 1.388400 2.793376 0.000000
vt 0.308520 0.541715
vt 0.666715 0.708363
vt 0.518856 0.833349
vt 0.999920 0.731147
vt 0.519893 0.000000
vt 0.562875 1.000000
vt 0.000000 0.497198
vt 1.000000 0.317733
vt 0.573326 0.625055
vt 0.333510 0.322340
vt 0.666715 0.308669
vt 0.499072 0.458391
vt 0.510526 0.166758
vt 0.002661 0.428571
vt 0.975125 0.428571
vt 0.388252 0.428571
vt 0.609852 0.428571
vt 0.561804 0.000987
vt 0.561804 0.172411
vt 0.115524 0.142857
vt 0.561804 0.142857
vt 0.250000 0.052384
vt 0.250000 0.142857
vt 0.561804 0.071429
vt 0.250000 0.071429
vt 0.405902 0.007998
vt 0.405902 0.071429
vt 0.405902 0.142857
vt 0.029660 0.285714
vt 0.337063 0.285714
vt 0.250000 0.285714
vt 0.378760 0.214286
vt 0.250000 0.214286
vt 0.405902 0.194899
vt 0.250000 0.428571
vt 0.932530 0.142857
vt 0.750000 0.033010
vt 0.750000 0.142857
vt 0.998145 0.285714
vt 0.665780 0.285714
vt 0.750000 0.285714
vt 0.637709 0.214286
vt 0.750000 0.214286
vt 0.655902 0.142857
vt 0.655902 0.214286
vt 0.655902 0.243306
vt 0.750000 0.428571
vt 0.661417 0.357143
vt 0.750000 0.357143
vt 0.655902 0.428571
vt 0.655902 0.374071
vt 0.342409 0.714286
vt 0.665769 0.714286
vt 0.753332 0.714286
vt 0.035383 0.714286
vt 0.561804 0.624948
vt 0.561804 0.450275
vt 0.311318 0.571429
vt 0.003497 0.571429
vt 0.352161 0.571429
vt 0.561804 0.571429
vt 0.250000 0.571429
vt 0.250000 0.500000
vt 0.561804 0.500000
vt 0.405902 0.438584
vt 0.405902 0.500000
vt 0.405902 0.571429
vt 0.250000 0.714286
vt 0.322139 0.642857
vt 0.250000 0.642857
vt 0.405902 0.596966
vt 0.819235 0.571429
vt 0.750000 0.571429
vt 0.922586 0.500000
vt 0.750000 0.500000
vt 0.875000 0.500000
vt 0.875000 0.428571
vt 0.875000 0.538746
vt 0.750000 0.714286
vt 0.750000 0.714058
vt 0.750000 0.599190
vt 0.561804 0.829202
vt 0.561804 0.999999
vt 0.561804 0.857143
vt 0.128492 0.857143
vt 0.250000 0.857143
vt 0.390334 0.785714
vt 0.250000 0.785714
vt 0.405902 0.798242
vt 0.405902 0.857143
vt 0.449113 0.821429
vt 0.405902 0.821429
vt 0.483853 0.830578
vt 0.483853 0.857143
vt 0.250000 0.937431
vt 0.561804 0.928571
vt 0.250000 0.928571
vt 0.405902 0.928571
vt 0.405902 0.986530
vt 0.939811 0.857143
vt 0.750000 0.857143
vt 0.635959 0.785714
vt 0.750000 0.785714
vt 0.655902 0.750555
vt 0.655902 0.785714
vt 0.655902 0.857143
vt 0.587567 0.821429
vt 0.655902 0.821429
vt 0.608853 0.810349
vt 0.608853 0.821429
vt 0.608853 0.857143
vt 0.750000 0.975747
vt 0.858270 0.928571
vt 0.750000 0.928571
vt 0.875000 0.917552
vt 0.875000 0.857143
vn 0.000000 0.000000 1.000000
vn 0.000000 0.000000 1.000000
vn 0.000000 0.000000 1.000000
vn 0.000000 0.000000 1.000000
vn 0.000000 0.000000 1.000000
vn 0.000000 0.000000 1.000000
vn 0.000000 0.000000 1.000000
vn 0.000000 0.000000 1.000000
vn 0.000000 0.000000 1.000000
vn 0.000000 0.000000 1.000000
vn 0.000000 0.000000 1.000000
vn 0.000000 0.000000 1.000000
vn 0.000000 0.000000 1.000000
vn 0.000000 0.000000 1.000000
vn 0.000000 0.000000 1.000000
vn 0.000000 0.000000 1.000000
vn 0.000000 0.000000 1.000000
vn 0.000000 0.000000 1.000000
vn 0.000000 0.000000 1.000000
vn 0.000000 0.000000 1.000000
vn 0.000000 0.000000 1.000000
vn 0.000000 0.000000 1.000000
vn 0.000000 0.000000 1.000000
vn 0.000000 0.000000 1.000000
vn 0.000000 0.000000 1.000000
vn 0.000000 0.000000 1.000000
vn 0.000000 0.000000 1.000000
vn 0.000000 0.000000 1.000000
vn 0.000000 0.000000 1.000000
vn 0.000000 0.000000 1.000000
vn 0.000000 0.000000 1.000000
vn 0.000000 0.000000 1.000000
vn 0.000000 0.000000 1.000000
vn 0.000000 0.000000 1.000000
vn 0.000000 0.000000 1.000000
vn 0.000000 0.000000 1.000000
vn 0.000000 0.000000 1.000000
vn 0.000000 0.000000 1.000000
vn 0.000000 0.000000 1.000000
vn 0.000000 0.000000 1.000000
vn 0.000000 0.000000 1.000000
vn 0.000000 0.000000 1.000000
vn 0.000000 0.000000 1.000000
vn 0.000000 0.000000 1.000000
vn 0.000000 0.000000 1.000000
vn 0.000000 0.000000 1.000000
vn 0.000000 0.000000 1.000000
vn 0.000000 0.000000 1.000000
vn 0.000000 0.000000 1.000000
vn 0.000000 0.000000 1.000000
vn 0.000000 0.000000 1.000000
vn 0.000000 0.000000 1.000000
vn 0.000000 0.000000 1.000000
vn 0.000000 0.000000 1.000000
vn 0.000000 0.000000 1.000000
vn 0.000000 0.000000 1.000000
vn 0.000000 0.000000 1.000000
vn 0.000000 0.000000 1.000000
vn 0.000000 0.000000 1.000000
vn 0.000000 0.000000 1.000000
vn 0.000000 0.000000 1.000000
vn 0.000000 0.000000 1.000000
vn 0.000000 0.000000 1.000000
vn 0.000000 0.000000 1.000000
vn 0.000000 0.000000 1.000000
vn 0.000000 0.000000 1.000000
vn 0.000000 0.000000 1.000000
vn 0.000000 0.000000 1.000000
vn 0.000000 0.000000 1.000000
vn 0.000000 0.000000 1.000000
vn 0.000000 0.000000 1.000000
vn 0.000000 0.000000 1.000000
vn 0.000000 0.000000 1.000000
vn 0.000000 0.000000 1.000000
vn 0.000000 0.000000 1.000000
vn 0.000000 0.000000 1.000000
vn 0.000000 0.000000 1.000000
vn 0.000000 0.000000 1.000000
vn 0.000000 0.000000 1.000000
vn 0.000000 0.000000 1.000000
vn 0.000000 0.000000 1.000000
vn 0.000000 0.000000 1.000000
vn 0.000000 0.000000 1.000000
vn 0.000000 0.000000 1.000000
vn 0.000000 0.000000 1.000000
vn 0.000000 0.000000 1.000000
vn 0.000000 0.000000 1.000000
vn 0.000000 0.000000 1.000000
vn 0.000000 0.000000 1.000000
vn 0.000000 0.000000 1.000000
vn 0.000000 0.000000 1.000000
vn 0.000000 0.000000 1.000000
vn 0.000000 0.000000 1.000000
vn 0.000000 0.000000 1.000000
vn 0.000000 0.000000 1.000000
vn 0.000000 0.000000 1.000000
vn 0.000000 0.000000 1.000000
vn 0.000000 0.000000 1.000000
vn 0.000000 0.000000 1.000000
vn 0.000000 0.000000 1.000000
vn 0.000000 0.000000 1.000000
vn 0.000000 0.000000 1.000000
vn 0.000000 0.000000 1.000000
vn 0.000000 0.000000 1.000000
vn 0.000000 0.000000 1.000000
vn 0.000000 0.000000 1.000000
vn 0.000000 0.000000 1.000000
vn 0.000000 0.000000 1.000000
vn 0.000000 0.000000 1.000000
vn 0.000000 0.000000 1.000000
vn 0.000000 0.000000 1.000000
vn 0.000000 0.000000 1.000000
vn 0.000000 0.000000 1.000000
vn 0.000000 0.000000 1.000000
vn 0.000000 0.000000 1.000000
vn 0.000000 0.000000 1.000000
s 1
g Trim_Char_x_22_1 Trim_Text_xxxxxxxxxx_1_1
usemtl initialShadingGroup
f 113/113/1 112/112/2 114/114/3
f 8/8/4 15/15/5 49/49/6
f 10/10/7 16/16/8 35/35/9
f 24/24/10 21/21/11 27/27/12
f 20/20/13 22/22/14 25/25/15
f 5/5/16 18/18/17 24/24/10
f 22/22/14 26/26/18 27/27/12
f 25/25/15 27/27/12 28/28/19
f 30/30/20 31/31/21 33/33/22
f 20/20/13 23/23/23 33/33/22
f 21/21/11 19/19/24 13/13/25
f 23/23/23 28/28/19 34/34/26
f 29/29/27 31/31/21 35/35/9
f 37/37/28 36/36/29 38/38/30
f 37/37/28 38/38/30 44/44/31
f 39/39/32 41/41/33 43/43/34
f 46/46/35 45/45/36 43/43/34
f 44/44/31 38/38/30 43/43/34
f 19/19/24 21/21/11 44/44/31
f 46/46/35 42/42/37 45/45/36
f 47/47/38 50/50/39 51/51/40
f 11/11/41 40/40/42 41/41/33
f 50/50/39 17/17/43 51/51/40
f 54/54/44 79/79/45 80/80/46
f 69/69/47 52/52/48 68/68/49
f 66/66/50 64/64/51 61/61/52
f 7/7/53 14/14/54 35/35/9
f 12/12/55 57/57/56 64/64/51
f 63/63/57 35/35/9 16/16/8
f 66/66/50 67/67/58 60/60/59
f 68/68/49 55/55/60 59/59/61
f 71/71/62 67/67/58 61/61/52
f 58/58/63 69/69/47 70/70/64
f 74/74/65 78/78/66 76/76/67
f 64/64/51 50/50/39 75/75/68
f 74/74/65 76/76/67 77/77/69
f 47/47/38 77/77/69 76/76/67
f 72/72/70 73/73/71 75/75/68
f 53/53/72 2/2/73 80/80/46
f 96/96/74 83/83/75 99/99/76
f 3/3/77 82/82/78 84/84/79
f 55/55/60 68/68/49 88/88/80
f 52/52/48 87/87/81 88/88/80
f 86/86/82 88/88/80 87/87/81
f 89/89/83 91/91/84 92/92/85
f 93/93/86 94/94/87 90/90/88
f 85/85/89 86/86/82 97/97/90
f 96/96/74 98/98/91 90/90/88
f 86/86/82 90/90/88 98/98/91
f 95/95/92 97/97/90 98/98/91
f 4/4/93 100/100/94 103/103/95
f 105/105/96 103/103/95 101/101/97
f 53/53/72 79/79/45 103/103/95
f 102/102/98 104/104/99 105/105/96
f 110/110/100 108/108/101 106/106/102
f 102/102/98 105/105/96 108/108/101
f 107/107/103 109/109/104 110/110/100
f 107/107/103 110/110/100 111/111/105
f 106/106/102 101/101/97 114/114/3
f 100/100/94 115/115/106 116/116/107
f 114/114/3 101/101/97 116/116/107
f 72/72/70 81/81/108 73/73/71
f 71/71/62 60/60/59 67/67/58
f 9/9/109 56/56/110 61/61/52
f 77/77/69 47/47/38 49/49/6
f 41/41/33 39/39/32 8/8/4
f 8/8/4 49/49/6 41/41/33
f 49/49/6 15/15/5 77/77/69
f 31/31/21 30/30/20 10/10/7
f 10/10/7 35/35/9 31/31/21
f 21/21/11 28/28/19 27/27/12
f 25/25/15 23/23/23 20/20/13
f 24/24/10 27/27/12 26/26/18
f 24/24/10 26/26/18 5/5/16
f 27/27/12 25/25/15 22/22/14
f 28/28/19 23/23/23 25/25/15
f 33/33/22 32/32/111 30/30/20
f 33/33/22 31/31/21 29/29/27
f 33/33/22 29/29/27 20/20/13
f 13/13/25 34/34/26 28/28/19
f 13/13/25 28/28/19 21/21/11
f 32/32/111 33/33/22 23/23/23
f 34/34/26 32/32/111 23/23/23
f 35/35/9 14/14/54 29/29/27
f 44/44/31 21/21/11 24/24/10
f 24/24/10 18/18/17 37/37/28
f 44/44/31 24/24/10 37/37/28
f 38/38/30 36/36/29 39/39/32
f 43/43/34 38/38/30 39/39/32
f 43/43/34 41/41/33 40/40/42
f 43/43/34 40/40/42 46/46/35
f 43/43/34 45/45/36 44/44/31
f 44/44/31 45/45/36 42/42/37
f 42/42/37 19/19/24 44/44/31
f 51/51/40 48/48/112 49/49/6
f 49/49/6 47/47/38 51/51/40
f 49/49/6 48/48/112 11/11/41
f 41/41/33 49/49/6 11/11/41
f 68/68/49 70/70/64 69/69/47
f 61/61/52 67/67/58 66/66/50
f 63/63/57 62/62/113 59/59/61
f 35/35/9 59/59/61 7/7/53
f 59/59/61 35/35/9 63/63/57
f 66/66/50 65/65/114 12/12/55
f 64/64/51 66/66/50 12/12/55
f 65/65/114 66/66/50 63/63/57
f 63/63/57 16/16/8 65/65/114
f 1/1/115 58/58/63 62/62/113
f 1/1/115 63/63/57 66/66/50
f 60/60/59 1/1/115 66/66/50
f 62/62/113 63/63/57 1/1/115
f 59/59/61 62/62/113 70/70/64
f 70/70/64 68/68/49 59/59/61
f 61/61/52 56/56/110 71/71/62
f 70/70/64 62/62/113 58/58/63
f 64/64/51 57/57/56 17/17/43
f 50/50/39 47/47/38 75/75/68
f 75/75/68 73/73/71 64/64/51
f 73/73/71 61/61/52 64/64/51
f 17/17/43 50/50/39 64/64/51
f 77/77/69 15/15/5 74/74/65
f 76/76/67 75/75/68 47/47/38
f 75/75/68 76/76/67 78/78/66
f 78/78/66 72/72/70 75/75/68
f 80/80/46 79/79/45 53/53/72
f 99/99/76 98/98/91 96/96/74
f 94/94/87 93/93/86 3/3/77
f 3/3/77 84/84/79 94/94/87
f 88/88/80 86/86/82 85/85/89
f 85/85/89 55/55/60 88/88/80
f 88/88/80 68/68/49 52/52/48
f 87/87/81 89/89/83 92/92/85
f 92/92/85 90/90/88 86/86/82
f 86/86/82 87/87/81 92/92/85
f 90/90/88 92/92/85 91/91/84
f 91/91/84 93/93/86 90/90/88
f 97/97/90 95/95/92 85/85/89
f 94/94/87 84/84/79 96/96/74
f 96/96/74 90/90/88 94/94/87
f 98/98/91 97/97/90 86/86/82
f 98/98/91 99/99/76 95/95/92
f 116/116/107 101/101/97 103/103/95
f 103/103/95 79/79/45 54/54/44
f 54/54/44 4/4/93 103/103/95
f 103/103/95 100/100/94 116/116/107
f 101/101/97 106/106/102 108/108/101
f 108/108/101 105/105/96 101/101/97
f 103/103/95 105/105/96 104/104/99
f 104/104/99 53/53/72 103/103/95
f 106/106/102 111/111/105 110/110/100
f 108/108/101 110/110/100 109/109/104
f 109/109/104 102/102/98 108/108/101
f 111/111/105 84/84/79 82/82/78
f 111/111/105 82/82/78 107/107/103
f 6/6/116 83/83/75 96/96/74
f 96/96/74 84/84/79 111/111/105
f 114/114/3 111/111/105 106/106/102
f 111/111/105 114/114/3 96/96/74
f 96/96/74 114/114/3 112/112/2
f 96/96/74 112/112/2 6/6/116
f 115/115/106 113/113/1 114/114/3
f 114/114/3 116/116/107 115/115/106
f 61/61/52 73/73/71 81/81/108
f 61/61/52 81/81/108 9/9/109
