# This file uses centimeters as units for non-parametric coordinates.

mtllib number9.mtl
g default
v 1.110032 1.834702 0.000000
v 0.570970 1.436263 0.000000
v 0.797535 1.136065 0.000000
v 0.070970 1.381577 0.000000
v 0.790219 3.136537 0.000000
v 0.723484 0.736217 0.000000
v 1.571731 1.940581 0.000000
v 0.070809 2.374663 0.000000
v 0.707987 1.636226 0.000000
v 1.070970 2.364389 0.000000
v 0.570972 2.394077 0.000000
v 0.824095 2.036269 0.000000
v 0.803784 2.736507 0.000000
v 1.105670 1.764918 0.000000
v 1.566351 1.764915 0.000000
v 0.341282 1.764910 0.000000
v 1.044892 1.764898 0.000000
v 0.729557 1.146578 0.000000
v 0.729564 0.736230 0.000000
v 0.729564 1.764918 0.000000
v 0.729564 1.636643 0.000000
v 0.156782 1.079135 0.000000
v 0.729564 1.079115 0.000000
v 0.445833 0.789442 0.000000
v 0.445971 1.079115 0.000000
v 0.274122 0.907250 0.000000
v 0.445971 0.907664 0.000000
v 0.258011 0.924453 0.000000
v 0.258395 1.079115 0.000000
v 0.572384 1.422016 0.000000
v 0.440708 1.422016 0.000000
v 0.445971 1.422016 0.000000
v 0.616966 1.250562 0.000000
v 0.445971 1.250566 0.000000
v 0.587768 1.250566 0.000000
v 0.587768 1.079115 0.000000
v 0.690978 1.164859 0.000000
v 0.587768 1.164840 0.000000
v 0.658666 1.164840 0.000000
v 0.658666 1.079115 0.000000
v 0.658668 1.191010 0.000000
v 0.587730 1.331958 0.000000
v 0.445971 1.422592 0.000000
v 0.445971 1.764918 0.000000
v 0.445966 1.697598 0.000000
v 1.378385 1.079266 0.000000
v 1.196358 0.886401 0.000000
v 1.196271 1.079115 0.000000
v 0.729564 0.907664 0.000000
v 1.196271 0.907664 0.000000
v 0.962916 0.768961 0.000000
v 0.962917 0.907664 0.000000
v 0.962917 1.079115 0.000000
v 1.058504 1.421940 0.000000
v 1.518922 1.421924 0.000000
v 1.196271 1.422016 0.000000
v 0.986647 1.250551 0.000000
v 1.196271 1.250566 0.000000
v 0.962918 1.219730 0.000000
v 0.899823 1.164840 0.000000
v 0.962917 1.164840 0.000000
v 0.846241 1.142234 0.000000
v 0.846241 1.079115 0.000000
v 1.196271 1.764918 0.000000
v 1.088923 1.593467 0.000000
v 1.196271 1.593467 0.000000
v 0.962917 1.764918 0.000000
v 0.962931 1.703627 0.000000
v 1.526144 2.450593 0.000000
v 0.073572 2.450720 0.000000
v 0.572393 2.450720 0.000000
v 1.065694 2.450720 0.000000
v 0.729642 2.055595 0.000000
v 0.108049 2.107820 0.000000
v 0.656088 2.107587 0.000000
v 0.445971 2.107819 0.000000
v 0.186416 1.936358 0.000000
v 0.445971 1.936368 0.000000
v 0.258295 1.842528 0.000000
v 0.258395 1.936368 0.000000
v 0.258395 2.107819 0.000000
v 0.445971 2.450720 0.000000
v 0.445971 2.279269 0.000000
v 0.578843 2.279269 0.000000
v 0.587768 2.107819 0.000000
v 0.587755 2.236147 0.000000
v 1.568025 2.107854 0.000000
v 0.988367 2.107629 0.000000
v 1.196271 2.107819 0.000000
v 1.196271 1.936368 0.000000
v 0.729564 1.936368 0.000000
v 0.962917 1.936368 0.000000
v 0.963094 2.084421 0.000000
v 1.196271 2.450720 0.000000
v 0.729564 3.134298 0.000000
v 0.729554 2.723691 0.000000
v 0.172998 2.793624 0.000000
v 0.729564 2.793621 0.000000
v 0.445971 2.793621 0.000000
v 0.613991 2.622171 0.000000
v 0.445971 2.622171 0.000000
v 0.587767 2.555291 0.000000
v 0.587768 2.622171 0.000000
v 0.587768 2.793621 0.000000
v 0.445957 3.056590 0.000000
v 1.397803 2.793465 0.000000
v 1.196271 2.793621 0.000000
v 1.003124 2.622189 0.000000
v 1.196271 2.622171 0.000000
v 0.962917 2.793621 0.000000
v 0.963036 2.668633 0.000000
v 1.196302 3.010722 0.000000
v 0.729564 2.965072 0.000000
v 1.196271 2.965072 0.000000
v 0.962917 2.965072 0.000000
v 0.962915 3.116967 0.000000
vt 0.692531 0.457645
vt 0.333299 0.291650
vt 0.484281 0.166666
vt 0.000099 0.268867
vt 0.479407 1.000000
vt 0.434935 0.000000
vt 1.000000 0.501756
vt 0.000000 0.682599
vt 0.424608 0.374965
vt 0.666499 0.678319
vt 0.333299 0.690687
vt 0.501982 0.541618
vt 0.488446 0.833247
vt 0.689623 0.428571
vt 0.996592 0.428571
vt 0.180239 0.428571
vt 0.649109 0.428571
vt 0.438987 0.170972
vt 0.438987 0.000008
vt 0.438987 0.428571
vt 0.438987 0.375131
vt 0.057257 0.142857
vt 0.438987 0.142857
vt 0.250000 0.022308
vt 0.250000 0.142857
vt 0.135763 0.071429
vt 0.250000 0.071429
vt 0.125000 0.078567
vt 0.125000 0.142857
vt 0.334244 0.285714
vt 0.246493 0.285714
vt 0.250000 0.285714
vt 0.363957 0.214286
vt 0.250000 0.214286
vt 0.344493 0.214286
vt 0.344493 0.142857
vt 0.413265 0.178571
vt 0.344493 0.178571
vt 0.391740 0.178571
vt 0.391740 0.142857
vt 0.391740 0.189473
vt 0.344493 0.248199
vt 0.250000 0.285954
vt 0.250000 0.428571
vt 0.250000 0.400530
vt 0.871513 0.142857
vt 0.750000 0.062618
vt 0.750000 0.142857
vt 0.438987 0.071429
vt 0.750000 0.071429
vt 0.594493 0.013641
vt 0.594493 0.071429
vt 0.594493 0.142857
vt 0.657982 0.285714
vt 0.964755 0.285714
vt 0.750000 0.285714
vt 0.610292 0.214286
vt 0.750000 0.214286
vt 0.594493 0.201439
vt 0.552447 0.178571
vt 0.594493 0.178571
vt 0.516740 0.169154
vt 0.516740 0.142857
vt 0.750000 0.428571
vt 0.678463 0.357143
vt 0.750000 0.357143
vt 0.594493 0.428571
vt 0.594493 0.403046
vt 0.970227 0.714286
vt 0.001833 0.714286
vt 0.334248 0.714286
vt 0.662983 0.714286
vt 0.438987 0.549598
vt 0.024807 0.571429
vt 0.390184 0.571429
vt 0.250000 0.571429
vt 0.077044 0.500000
vt 0.250000 0.500000
vt 0.125000 0.460943
vt 0.125000 0.500000
vt 0.125000 0.571429
vt 0.250000 0.714286
vt 0.250000 0.642857
vt 0.338548 0.642857
vt 0.344493 0.571429
vt 0.344493 0.624893
vt 0.997268 0.571429
vt 0.611320 0.571429
vt 0.750000 0.571429
vt 0.750000 0.500000
vt 0.438987 0.500000
vt 0.594493 0.500000
vt 0.594493 0.561773
vt 0.750000 0.714286
vt 0.438987 0.999073
vt 0.438987 0.827998
vt 0.068094 0.857143
vt 0.438987 0.857143
vt 0.250000 0.857143
vt 0.361968 0.785714
vt 0.250000 0.785714
vt 0.344493 0.757851
vt 0.344493 0.785714
vt 0.344493 0.857143
vt 0.250000 0.966688
vt 0.884469 0.857143
vt 0.750000 0.857143
vt 0.621270 0.785714
vt 0.750000 0.785714
vt 0.594493 0.857143
vt 0.594493 0.805019
vt 0.750000 0.947573
vt 0.438987 0.928571
vt 0.750000 0.928571
vt 0.594493 0.928571
vt 0.594493 0.991858
vn 0.000000 0.000000 1.000000
vn 0.000000 0.000000 1.000000
vn 0.000000 0.000000 1.000000
vn 0.000000 0.000000 1.000000
vn 0.000000 0.000000 1.000000
vn 0.000000 0.000000 1.000000
vn 0.000000 0.000000 1.000000
vn 0.000000 0.000000 1.000000
vn 0.000000 0.000000 1.000000
vn 0.000000 0.000000 1.000000
vn 0.000000 0.000000 1.000000
vn 0.000000 0.000000 1.000000
vn 0.000000 0.000000 1.000000
vn 0.000000 0.000000 1.000000
vn 0.000000 0.000000 1.000000
vn 0.000000 0.000000 1.000000
vn 0.000000 0.000000 1.000000
vn 0.000000 0.000000 1.000000
vn 0.000000 0.000000 1.000000
vn 0.000000 0.000000 1.000000
vn 0.000000 0.000000 1.000000
vn 0.000000 0.000000 1.000000
vn 0.000000 0.000000 1.000000
vn 0.000000 0.000000 1.000000
vn 0.000000 0.000000 1.000000
vn 0.000000 0.000000 1.000000
vn 0.000000 0.000000 1.000000
vn 0.000000 0.000000 1.000000
vn 0.000000 0.000000 1.000000
vn 0.000000 0.000000 1.000000
vn 0.000000 0.000000 1.000000
vn 0.000000 0.000000 1.000000
vn 0.000000 0.000000 1.000000
vn 0.000000 0.000000 1.000000
vn 0.000000 0.000000 1.000000
vn 0.000000 0.000000 1.000000
vn 0.000000 0.000000 1.000000
vn 0.000000 0.000000 1.000000
vn 0.000000 0.000000 1.000000
vn 0.000000 0.000000 1.000000
vn 0.000000 0.000000 1.000000
vn 0.000000 0.000000 1.000000
vn 0.000000 0.000000 1.000000
vn 0.000000 0.000000 1.000000
vn 0.000000 0.000000 1.000000
vn 0.000000 0.000000 1.000000
vn 0.000000 0.000000 1.000000
vn 0.000000 0.000000 1.000000
vn 0.000000 0.000000 1.000000
vn 0.000000 0.000000 1.000000
vn 0.000000 0.000000 1.000000
vn 0.000000 0.000000 1.000000
vn 0.000000 0.000000 1.000000
vn 0.000000 0.000000 1.000000
vn 0.000000 0.000000 1.000000
vn 0.000000 0.000000 1.000000
vn 0.000000 0.000000 1.000000
vn 0.000000 0.000000 1.000000
vn 0.000000 0.000000 1.000000
vn 0.000000 0.000000 1.000000
vn 0.000000 0.000000 1.000000
vn 0.000000 0.000000 1.000000
vn 0.000000 0.000000 1.000000
vn 0.000000 0.000000 1.000000
vn 0.000000 0.000000 1.000000
vn 0.000000 0.000000 1.000000
vn 0.000000 0.000000 1.000000
vn 0.000000 0.000000 1.000000
vn 0.000000 0.000000 1.000000
vn 0.000000 0.000000 1.000000
vn 0.000000 0.000000 1.000000
vn 0.000000 0.000000 1.000000
vn 0.000000 0.000000 1.000000
vn 0.000000 0.000000 1.000000
vn 0.000000 0.000000 1.000000
vn 0.000000 0.000000 1.000000
vn 0.000000 0.000000 1.000000
vn 0.000000 0.000000 1.000000
vn 0.000000 0.000000 1.000000
vn 0.000000 0.000000 1.000000
vn 0.000000 0.000000 1.000000
vn 0.000000 0.000000 1.000000
vn 0.000000 0.000000 1.000000
vn 0.000000 0.000000 1.000000
vn 0.000000 0.000000 1.000000
vn 0.000000 0.000000 1.000000
vn 0.000000 0.000000 1.000000
vn 0.000000 0.000000 1.000000
vn 0.000000 0.000000 1.000000
vn 0.000000 0.000000 1.000000
vn 0.000000 0.000000 1.000000
vn 0.000000 0.000000 1.000000
vn 0.000000 0.000000 1.000000
vn 0.000000 0.000000 1.000000
vn 0.000000 0.000000 1.000000
vn 0.000000 0.000000 1.000000
vn 0.000000 0.000000 1.000000
vn 0.000000 0.000000 1.000000
vn 0.000000 0.000000 1.000000
vn 0.000000 0.000000 1.000000
vn 0.000000 0.000000 1.000000
vn 0.000000 0.000000 1.000000
vn 0.000000 0.000000 1.000000
vn 0.000000 0.000000 1.000000
vn 0.000000 0.000000 1.000000
vn 0.000000 0.000000 1.000000
vn 0.000000 0.000000 1.000000
vn 0.000000 0.000000 1.000000
vn 0.000000 0.000000 1.000000
vn 0.000000 0.000000 1.000000
vn 0.000000 0.000000 1.000000
vn 0.000000 0.000000 1.000000
vn 0.000000 0.000000 1.000000
vn 0.000000 0.000000 1.000000
vn 0.000000 0.000000 1.000000
vn 0.000000 0.000000 1.000000
s 1
g Trim_Char_x_25_1 Trim_Text_xxxxxxxxxx_1_1
usemtl initialShadingGroup
f 106/106/1 112/112/2 114/114/3
f 56/56/4 55/55/5 15/15/6
f 30/30/7 2/2/8 43/43/9
f 36/36/10 25/25/11 27/27/12
f 27/27/12 25/25/11 29/29/13
f 26/26/14 24/24/15 27/27/12
f 22/22/16 28/28/17 29/29/13
f 33/33/18 42/42/19 35/35/20
f 4/4/21 22/22/16 34/34/22
f 37/37/23 41/41/24 39/39/25
f 34/34/22 25/25/11 36/36/10
f 37/37/23 39/39/25 40/40/26
f 36/36/10 40/40/26 39/39/25
f 33/33/18 35/35/20 38/38/27
f 30/30/7 32/32/28 34/34/22
f 43/43/9 31/31/29 32/32/28
f 46/46/30 48/48/31 50/50/32
f 52/52/33 50/50/32 48/48/31
f 47/47/34 50/50/32 52/52/33
f 49/49/35 19/19/36 51/51/37
f 23/23/38 49/49/35 52/52/33
f 55/55/5 56/56/4 58/58/39
f 54/54/40 57/57/41 58/58/39
f 48/48/31 58/58/39 57/57/41
f 59/59/42 60/60/43 61/61/44
f 62/62/45 63/63/46 53/53/47
f 3/3/48 18/18/49 23/23/38
f 14/14/50 65/65/51 66/66/52
f 65/65/51 54/54/40 56/56/4
f 20/20/53 21/21/54 68/68/55
f 69/69/56 94/94/57 89/89/58
f 83/83/59 84/84/60 11/11/61
f 91/91/62 85/85/63 78/78/64
f 80/80/65 78/78/64 76/76/66
f 16/16/67 44/44/68 78/78/64
f 77/77/69 79/79/70 80/80/65
f 77/77/69 80/80/65 81/81/71
f 8/8/72 74/74/73 83/83/59
f 85/85/63 75/75/74 86/86/75
f 76/76/66 85/85/63 86/86/75
f 7/7/76 87/87/77 89/89/58
f 90/90/78 89/89/58 88/88/79
f 92/92/80 67/67/81 17/17/82
f 20/20/53 67/67/81 92/92/80
f 12/12/83 73/73/84 91/91/62
f 10/10/85 88/88/79 89/89/58
f 105/105/86 99/99/87 104/104/88
f 96/96/89 98/98/90 104/104/88
f 70/70/91 82/82/92 101/101/93
f 102/102/94 100/100/95 103/103/96
f 102/102/94 103/103/96 101/101/93
f 101/101/93 103/103/96 104/104/88
f 105/105/86 97/97/97 99/99/87
f 106/106/1 107/107/98 109/109/99
f 107/107/98 110/110/100 111/111/101
f 72/72/102 94/94/57 109/109/99
f 98/98/90 96/96/89 13/13/103
f 112/112/2 116/116/104 115/115/105
f 110/110/100 107/107/98 114/114/3
f 98/98/90 110/110/100 115/115/105
f 5/5/106 95/95/107 113/113/108
f 20/20/53 44/44/68 45/45/109
f 44/44/68 16/16/67 45/45/109
f 17/17/82 67/67/81 68/68/55
f 114/114/3 107/107/98 106/106/1
f 15/15/6 64/64/110 66/66/52
f 66/66/52 56/56/4 15/15/6
f 43/43/9 32/32/28 30/30/7
f 6/6/111 19/19/36 49/49/35
f 49/49/35 23/23/38 40/40/26
f 27/27/12 40/40/26 36/36/10
f 40/40/26 27/27/12 49/49/35
f 49/49/35 27/27/12 24/24/15
f 49/49/35 24/24/15 6/6/111
f 28/28/17 26/26/14 27/27/12
f 27/27/12 29/29/13 28/28/17
f 29/29/13 25/25/11 34/34/22
f 34/34/22 32/32/28 31/31/29
f 31/31/29 4/4/21 34/34/22
f 34/34/22 22/22/16 29/29/13
f 38/38/27 35/35/20 34/34/22
f 34/34/22 36/36/10 38/38/27
f 40/40/26 23/23/38 18/18/49
f 40/40/26 18/18/49 37/37/23
f 39/39/25 38/38/27 36/36/10
f 38/38/27 39/39/25 41/41/24
f 41/41/24 33/33/18 38/38/27
f 34/34/22 35/35/20 42/42/19
f 42/42/19 30/30/7 34/34/22
f 50/50/32 47/47/34 46/46/30
f 48/48/31 53/53/47 52/52/33
f 52/52/33 51/51/37 47/47/34
f 51/51/37 52/52/33 49/49/35
f 52/52/33 53/53/47 63/63/46
f 63/63/46 23/23/38 52/52/33
f 58/58/39 48/48/31 46/46/30
f 46/46/30 55/55/5 58/58/39
f 58/58/39 56/56/4 54/54/40
f 57/57/41 59/59/42 61/61/44
f 61/61/44 53/53/47 48/48/31
f 48/48/31 57/57/41 61/61/44
f 53/53/47 61/61/44 60/60/43
f 60/60/43 62/62/45 53/53/47
f 63/63/46 62/62/45 3/3/48
f 3/3/48 23/23/38 63/63/46
f 66/66/52 64/64/110 14/14/50
f 56/56/4 66/66/52 65/65/51
f 68/68/55 67/67/81 20/20/53
f 89/89/58 87/87/77 69/69/56
f 11/11/61 71/71/112 82/82/92
f 82/82/92 83/83/59 11/11/61
f 91/91/62 73/73/84 75/75/74
f 85/85/63 76/76/66 78/78/64
f 44/44/68 20/20/53 91/91/62
f 91/91/62 78/78/64 44/44/68
f 75/75/74 85/85/63 91/91/62
f 76/76/66 81/81/71 80/80/65
f 78/78/64 80/80/65 79/79/70
f 79/79/70 16/16/67 78/78/64
f 81/81/71 74/74/73 77/77/69
f 81/81/71 76/76/66 83/83/59
f 82/82/92 70/70/91 8/8/72
f 8/8/72 83/83/59 82/82/92
f 83/83/59 74/74/73 81/81/71
f 86/86/75 84/84/60 83/83/59
f 83/83/59 76/76/66 86/86/75
f 90/90/78 64/64/110 15/15/6
f 89/89/58 15/15/6 7/7/76
f 15/15/6 89/89/58 90/90/78
f 93/93/113 92/92/80 90/90/78
f 90/90/78 88/88/79 93/93/113
f 1/1/114 14/14/50 64/64/110
f 1/1/114 90/90/78 92/92/80
f 17/17/82 1/1/114 92/92/80
f 64/64/110 90/90/78 1/1/114
f 92/92/80 91/91/62 20/20/53
f 92/92/80 93/93/113 12/12/83
f 91/91/62 92/92/80 12/12/83
f 94/94/57 72/72/102 10/10/85
f 10/10/85 89/89/58 94/94/57
f 104/104/88 98/98/90 113/113/108
f 113/113/108 95/95/107 105/105/86
f 104/104/88 113/113/108 105/105/86
f 104/104/88 103/103/96 100/100/95
f 100/100/95 96/96/89 104/104/88
f 99/99/87 97/97/97 70/70/91
f 101/101/93 99/99/87 70/70/91
f 101/101/93 82/82/92 71/71/112
f 101/101/93 71/71/112 102/102/94
f 104/104/88 99/99/87 101/101/93
f 109/109/99 94/94/57 69/69/56
f 109/109/99 69/69/56 106/106/1
f 108/108/115 109/109/99 107/107/98
f 111/111/101 108/108/115 107/107/98
f 109/109/99 108/108/115 72/72/102
f 13/13/103 111/111/101 110/110/100
f 13/13/103 110/110/100 98/98/90
f 115/115/105 114/114/3 112/112/2
f 114/114/3 115/115/105 110/110/100
f 115/115/105 113/113/108 98/98/90
f 113/113/108 115/115/105 116/116/104
f 113/113/108 116/116/104 5/5/106
f 9/9/116 21/21/54 20/20/53
f 20/20/53 45/45/109 9/9/116
