# This file uses centimeters as units for non-parametric coordinates.

mtllib number1.mtl
g default
v 1.177551 3.136263 0.000000
v 0.788489 3.136263 0.000000
v 0.077551 2.536264 0.000000
v 0.077551 2.136263 0.000000
v 0.677551 2.470639 0.000000
v 0.677551 0.736263 0.000000
v 1.177551 0.736263 0.000000
v 0.677551 1.936263 0.000000
v 1.177551 1.936263 0.000000
v 0.677551 1.336263 0.000000
v 1.177551 1.336263 0.000000
v 0.677551 1.036263 0.000000
v 1.177551 1.036263 0.000000
v 0.810884 0.736263 0.000000
v 0.810884 1.036263 0.000000
v 0.810884 1.336263 0.000000
v 0.677551 1.636263 0.000000
v 1.177551 1.636263 0.000000
v 0.810884 1.636263 0.000000
v 0.810884 1.936263 0.000000
v 0.256764 2.611352 0.000000
v 1.177551 2.611263 0.000000
v 0.444218 2.299216 0.000000
v 0.444218 2.611263 0.000000
v 0.077551 2.236263 0.000000
v 0.328770 2.236263 0.000000
v 0.677551 2.236263 0.000000
v 1.177551 2.236263 0.000000
v 0.810884 2.236263 0.000000
v 0.810884 2.611263 0.000000
v 0.444378 2.726676 0.000000
v 0.581671 2.836264 0.000000
v 1.177551 2.836264 0.000000
v 0.810884 2.836264 0.000000
v 0.810884 3.136263 0.000000
vt 1.000000 1.000000
vt 0.646307 1.000000
vt 0.000000 0.750000
vt 0.000000 0.583333
vt 0.545455 0.722656
vt 0.545455 0.000000
vt 1.000000 0.000000
vt 0.545455 0.500000
vt 1.000000 0.500000
vt 0.545455 0.250000
vt 1.000000 0.250000
vt 0.545455 0.125000
vt 1.000000 0.125000
vt 0.666667 0.000000
vt 0.666667 0.125000
vt 0.666667 0.250000
vt 0.545455 0.375000
vt 1.000000 0.375000
vt 0.666667 0.375000
vt 0.666667 0.500000
vt 0.162962 0.781250
vt 1.000000 0.781250
vt 0.333333 0.651230
vt 0.333333 0.781250
vt 0.000000 0.625000
vt 0.228381 0.625000
vt 0.545455 0.625000
vt 1.000000 0.625000
vt 0.666667 0.625000
vt 0.666667 0.781250
vt 0.333333 0.829433
vt 0.458291 0.875000
vt 1.000000 0.875000
vt 0.666667 0.875000
vt 0.666667 1.000000
vn 0.000000 0.000000 1.000000
vn 0.000000 0.000000 1.000000
vn 0.000000 0.000000 1.000000
vn 0.000000 0.000000 1.000000
vn 0.000000 0.000000 1.000000
vn 0.000000 0.000000 1.000000
vn 0.000000 0.000000 1.000000
vn 0.000000 0.000000 1.000000
vn 0.000000 0.000000 1.000000
vn 0.000000 0.000000 1.000000
vn 0.000000 0.000000 1.000000
vn 0.000000 0.000000 1.000000
vn 0.000000 0.000000 1.000000
vn 0.000000 0.000000 1.000000
vn 0.000000 0.000000 1.000000
vn 0.000000 0.000000 1.000000
vn 0.000000 0.000000 1.000000
vn 0.000000 0.000000 1.000000
vn 0.000000 0.000000 1.000000
vn 0.000000 0.000000 1.000000
vn 0.000000 0.000000 1.000000
vn 0.000000 0.000000 1.000000
vn 0.000000 0.000000 1.000000
vn 0.000000 0.000000 1.000000
vn 0.000000 0.000000 1.000000
vn 0.000000 0.000000 1.000000
vn 0.000000 0.000000 1.000000
vn 0.000000 0.000000 1.000000
vn 0.000000 0.000000 1.000000
vn 0.000000 0.000000 1.000000
vn 0.000000 0.000000 1.000000
vn 0.000000 0.000000 1.000000
vn 0.000000 0.000000 1.000000
vn 0.000000 0.000000 1.000000
vn 0.000000 0.000000 1.000000
s 1
g Trim_Char_x_17_1 Trim_Text_xxxxxxxxxx_1_1
usemtl initialShadingGroup
f 34/34/1 33/33/2 1/1/3
f 19/19/4 18/18/5 9/9/6
f 15/15/7 13/13/8 11/11/9
f 14/14/10 7/7/11 13/13/8
f 6/6/12 14/14/10 15/15/7
f 12/12/13 15/15/7 16/16/14
f 16/16/14 11/11/9 18/18/5
f 10/10/15 16/16/14 19/19/4
f 17/17/16 19/19/4 20/20/17
f 29/29/18 28/28/19 22/22/20
f 3/3/21 25/25/22 26/26/23
f 25/25/22 4/4/24 26/26/23
f 20/20/17 9/9/6 28/28/19
f 8/8/25 20/20/17 29/29/18
f 5/5/26 27/27/27 29/29/18
f 31/31/28 21/21/29 24/24/30
f 30/30/31 22/22/20 33/33/2
f 31/31/28 24/24/30 30/30/31
f 2/2/32 32/32/33 34/34/1
f 1/1/3 35/35/34 34/34/1
f 9/9/6 20/20/17 19/19/4
f 11/11/9 16/16/14 15/15/7
f 13/13/8 15/15/7 14/14/10
f 15/15/7 12/12/13 6/6/12
f 16/16/14 10/10/15 12/12/13
f 18/18/5 19/19/4 16/16/14
f 19/19/4 17/17/16 10/10/15
f 20/20/17 8/8/25 17/17/16
f 22/22/20 30/30/31 29/29/18
f 23/23/35 24/24/30 21/21/29
f 26/26/23 23/23/35 21/21/29
f 21/21/29 3/3/21 26/26/23
f 28/28/19 29/29/18 20/20/17
f 29/29/18 27/27/27 8/8/25
f 24/24/30 23/23/35 5/5/26
f 29/29/18 30/30/31 5/5/26
f 5/5/26 30/30/31 24/24/30
f 33/33/2 34/34/1 30/30/31
f 30/30/31 34/34/1 32/32/33
f 30/30/31 32/32/33 31/31/28
f 34/34/1 35/35/34 2/2/32
