# This file uses centimeters as units for non-parametric coordinates.

mtllib number8.mtl
g default
v 1.114646 1.950326 0.000000
v 0.484958 1.950326 0.000000
v 0.802146 3.136294 0.000000
v 1.552557 2.478445 0.000000
v 0.051771 2.478444 0.000000
v 0.814647 0.736130 0.000000
v 0.051529 1.397213 0.000000
v 1.552213 1.415953 0.000000
v 0.552146 2.439389 0.000000
v 1.052184 2.440951 0.000000
v 0.805271 2.736275 0.000000
v 0.800585 2.135941 0.000000
v 0.552146 1.450326 0.000000
v 1.052317 1.445639 0.000000
v 0.802150 1.736575 0.000000
v 0.806837 1.135857 0.000000
v 0.189923 1.764541 0.000000
v 1.417157 1.764842 0.000000
v 0.708378 0.740183 0.000000
v 0.708453 1.720586 0.000000
v 0.708391 1.153107 0.000000
v 0.708396 1.764835 0.000000
v 0.121270 1.078910 0.000000
v 0.708396 1.079121 0.000000
v 0.426906 0.804007 0.000000
v 0.427146 1.079121 0.000000
v 0.254009 0.908269 0.000000
v 0.427146 0.907692 0.000000
v 0.239870 0.920857 0.000000
v 0.239646 1.079121 0.000000
v 0.052454 1.421990 0.000000
v 0.552845 1.421978 0.000000
v 0.427146 1.421978 0.000000
v 0.597266 1.250540 0.000000
v 0.427146 1.250549 0.000000
v 0.567771 1.079121 0.000000
v 0.567771 1.250549 0.000000
v 0.567836 1.323496 0.000000
v 0.427146 1.764835 0.000000
v 0.087670 1.593313 0.000000
v 0.427146 1.593406 0.000000
v 0.239646 1.421978 0.000000
v 0.239646 1.593406 0.000000
v 0.239646 1.764835 0.000000
v 0.583619 1.593561 0.000000
v 0.567957 1.552063 0.000000
v 0.567771 1.593406 0.000000
v 0.567771 1.764835 0.000000
v 0.642032 1.679108 0.000000
v 0.567771 1.679121 0.000000
v 0.638087 1.675234 0.000000
v 0.638084 1.679121 0.000000
v 0.638084 1.764835 0.000000
v 1.488482 1.079121 0.000000
v 1.177145 0.798708 0.000000
v 1.177145 1.079121 0.000000
v 1.359376 0.907748 0.000000
v 1.177145 0.907692 0.000000
v 1.364580 0.912281 0.000000
v 1.364645 1.079121 0.000000
v 1.552110 1.421978 0.000000
v 1.051853 1.421972 0.000000
v 1.177145 1.421978 0.000000
v 1.007676 1.250552 0.000000
v 1.177145 1.250549 0.000000
v 0.942765 1.179017 0.000000
v 0.942771 1.079121 0.000000
v 1.177145 1.764835 0.000000
v 1.022654 1.593404 0.000000
v 1.177145 1.593406 0.000000
v 0.942787 1.691789 0.000000
v 0.942771 1.764835 0.000000
v 1.522810 1.593496 0.000000
v 1.364645 1.593406 0.000000
v 1.364645 1.421978 0.000000
v 1.364645 1.764835 0.000000
v 1.551465 2.450547 0.000000
v 0.052997 2.450558 0.000000
v 0.552285 2.450549 0.000000
v 1.052052 2.450549 0.000000
v 0.708439 2.152485 0.000000
v 0.210875 2.107955 0.000000
v 0.708396 2.107692 0.000000
v 0.427120 1.972361 0.000000
v 0.427118 1.927978 0.000000
v 0.427146 2.107692 0.000000
v 0.427146 2.450549 0.000000
v 0.092925 2.279200 0.000000
v 0.427146 2.279121 0.000000
v 0.239646 2.107692 0.000000
v 0.239646 2.279121 0.000000
v 0.239646 2.450549 0.000000
v 0.580943 2.279127 0.000000
v 0.567771 2.107692 0.000000
v 0.567771 2.279121 0.000000
v 0.642008 2.193435 0.000000
v 0.567771 2.193406 0.000000
v 0.638084 2.107692 0.000000
v 0.638084 2.193406 0.000000
v 0.638099 2.197024 0.000000
v 0.567771 2.315695 0.000000
v 1.386230 2.107121 0.000000
v 1.177199 1.974816 0.000000
v 1.177145 2.107692 0.000000
v 1.177146 1.926441 0.000000
v 1.177145 2.450549 0.000000
v 1.177145 2.279121 0.000000
v 1.021391 2.279089 0.000000
v 0.942771 2.107692 0.000000
v 0.942818 2.178442 0.000000
v 1.510646 2.279261 0.000000
v 1.364645 2.279121 0.000000
v 1.364645 2.107692 0.000000
v 1.364645 2.450549 0.000000
v 0.708391 3.133028 0.000000
v 0.708364 2.718807 0.000000
v 0.127312 2.793317 0.000000
v 0.708396 2.793406 0.000000
v 0.427146 2.793406 0.000000
v 0.597464 2.622028 0.000000
v 0.427146 2.621978 0.000000
v 0.567756 2.552799 0.000000
v 0.567771 2.621978 0.000000
v 0.567771 2.793406 0.000000
v 0.427150 3.068129 0.000000
v 0.264128 2.964770 0.000000
v 0.427146 2.964835 0.000000
v 0.239608 2.941999 0.000000
v 0.239646 2.793406 0.000000
v 1.476391 2.793324 0.000000
v 1.177145 2.793406 0.000000
v 1.007895 2.622103 0.000000
v 1.177145 2.621978 0.000000
v 0.942771 2.793406 0.000000
v 0.942863 2.694867 0.000000
v 1.177145 3.067198 0.000000
v 1.338658 2.964976 0.000000
v 1.177145 2.964835 0.000000
v 1.364909 2.940757 0.000000
v 1.364645 2.793406 0.000000
vt 0.708334 0.505859
vt 0.288542 0.505859
vt 0.500001 1.000000
vt 1.000000 0.725912
vt 0.000000 0.725912
vt 0.508334 0.000000
vt 0.000000 0.275391
vt 1.000000 0.283204
vt 0.333333 0.709635
vt 0.666667 0.710286
vt 0.502084 0.833333
vt 0.498959 0.583333
vt 0.333333 0.297526
vt 0.666667 0.295573
vt 0.500001 0.416667
vt 0.503126 0.166667
vt 0.091628 0.428571
vt 0.910003 0.428571
vt 0.437500 0.001728
vt 0.437500 0.410196
vt 0.437500 0.173690
vt 0.437500 0.428571
vt 0.046364 0.142857
vt 0.437500 0.142857
vt 0.250000 0.028470
vt 0.250000 0.142857
vt 0.134244 0.071429
vt 0.250000 0.071429
vt 0.125000 0.076812
vt 0.125000 0.142857
vt 0.000345 0.285714
vt 0.333790 0.285714
vt 0.250000 0.285714
vt 0.363424 0.214286
vt 0.250000 0.214286
vt 0.343750 0.142857
vt 0.343750 0.214286
vt 0.343750 0.244673
vt 0.250000 0.428571
vt 0.023517 0.357143
vt 0.250000 0.357143
vt 0.125000 0.285714
vt 0.125000 0.357143
vt 0.125000 0.428571
vt 0.354544 0.357143
vt 0.343750 0.339940
vt 0.343750 0.357143
vt 0.343750 0.428571
vt 0.393249 0.392857
vt 0.343750 0.392857
vt 0.390625 0.391239
vt 0.390625 0.392857
vt 0.390625 0.428571
vt 0.957558 0.142857
vt 0.750000 0.026019
vt 0.750000 0.142857
vt 0.871519 0.071429
vt 0.750000 0.071429
vt 0.875000 0.073310
vt 0.875000 0.142857
vt 0.999980 0.285714
vt 0.666383 0.285714
vt 0.750000 0.285714
vt 0.637024 0.214286
vt 0.750000 0.214286
vt 0.593750 0.184477
vt 0.593750 0.142857
vt 0.750000 0.428571
vt 0.647009 0.357143
vt 0.750000 0.357143
vt 0.593750 0.398126
vt 0.593750 0.428571
vt 0.980276 0.357143
vt 0.875000 0.357143
vt 0.875000 0.285714
vt 0.875000 0.428571
vt 0.999519 0.714286
vt 0.000485 0.714286
vt 0.333425 0.714286
vt 0.666597 0.714286
vt 0.437500 0.590047
vt 0.105651 0.571429
vt 0.437500 0.571429
vt 0.250000 0.515067
vt 0.250000 0.496521
vt 0.250000 0.571429
vt 0.250000 0.714286
vt 0.027061 0.642857
vt 0.250000 0.642857
vt 0.125000 0.571429
vt 0.125000 0.642857
vt 0.125000 0.714286
vt 0.352522 0.642857
vt 0.343750 0.571429
vt 0.343750 0.642857
vt 0.393225 0.607143
vt 0.343750 0.607143
vt 0.390625 0.571429
vt 0.390625 0.607143
vt 0.390625 0.608643
vt 0.343750 0.658097
vt 0.889037 0.571429
vt 0.750000 0.516115
vt 0.750000 0.571429
vt 0.750000 0.495907
vt 0.750000 0.714286
vt 0.750000 0.642857
vt 0.646116 0.642857
vt 0.593750 0.571429
vt 0.593750 0.600935
vt 0.972548 0.642857
vt 0.875000 0.642857
vt 0.875000 0.571429
vt 0.875000 0.714286
vt 0.437500 0.998626
vt 0.437500 0.826026
vt 0.050001 0.857143
vt 0.437500 0.857143
vt 0.250000 0.857143
vt 0.363602 0.785714
vt 0.250000 0.785714
vt 0.343750 0.756888
vt 0.343750 0.785714
vt 0.343750 0.857143
vt 0.250000 0.971615
vt 0.141284 0.928571
vt 0.250000 0.928571
vt 0.125000 0.919040
vt 0.125000 0.857143
vt 0.949599 0.857143
vt 0.750000 0.857143
vt 0.637022 0.785714
vt 0.750000 0.785714
vt 0.593750 0.857143
vt 0.593750 0.816032
vt 0.750000 0.971223
vt 0.857593 0.928571
vt 0.750000 0.928571
vt 0.875000 0.918427
vt 0.875000 0.857143
vn 0.000000 0.000000 1.000000
vn 0.000000 0.000000 1.000000
vn 0.000000 0.000000 1.000000
vn 0.000000 0.000000 1.000000
vn 0.000000 0.000000 1.000000
vn 0.000000 0.000000 1.000000
vn 0.000000 0.000000 1.000000
vn 0.000000 0.000000 1.000000
vn 0.000000 0.000000 1.000000
vn 0.000000 0.000000 1.000000
vn 0.000000 0.000000 1.000000
vn 0.000000 0.000000 1.000000
vn 0.000000 0.000000 1.000000
vn 0.000000 0.000000 1.000000
vn 0.000000 0.000000 1.000000
vn 0.000000 0.000000 1.000000
vn 0.000000 0.000000 1.000000
vn 0.000000 0.000000 1.000000
vn 0.000000 0.000000 1.000000
vn 0.000000 0.000000 1.000000
vn 0.000000 0.000000 1.000000
vn 0.000000 0.000000 1.000000
vn 0.000000 0.000000 1.000000
vn 0.000000 0.000000 1.000000
vn 0.000000 0.000000 1.000000
vn 0.000000 0.000000 1.000000
vn 0.000000 0.000000 1.000000
vn 0.000000 0.000000 1.000000
vn 0.000000 0.000000 1.000000
vn 0.000000 0.000000 1.000000
vn 0.000000 0.000000 1.000000
vn 0.000000 0.000000 1.000000
vn 0.000000 0.000000 1.000000
vn 0.000000 0.000000 1.000000
vn 0.000000 0.000000 1.000000
vn 0.000000 0.000000 1.000000
vn 0.000000 0.000000 1.000000
vn 0.000000 0.000000 1.000000
vn 0.000000 0.000000 1.000000
vn 0.000000 0.000000 1.000000
vn 0.000000 0.000000 1.000000
vn 0.000000 0.000000 1.000000
vn 0.000000 0.000000 1.000000
vn 0.000000 0.000000 1.000000
vn 0.000000 0.000000 1.000000
vn 0.000000 0.000000 1.000000
vn 0.000000 0.000000 1.000000
vn 0.000000 0.000000 1.000000
vn 0.000000 0.000000 1.000000
vn 0.000000 0.000000 1.000000
vn 0.000000 0.000000 1.000000
vn 0.000000 0.000000 1.000000
vn 0.000000 0.000000 1.000000
vn 0.000000 0.000000 1.000000
vn 0.000000 0.000000 1.000000
vn 0.000000 0.000000 1.000000
vn 0.000000 0.000000 1.000000
vn 0.000000 0.000000 1.000000
vn 0.000000 0.000000 1.000000
vn 0.000000 0.000000 1.000000
vn 0.000000 0.000000 1.000000
vn 0.000000 0.000000 1.000000
vn 0.000000 0.000000 1.000000
vn 0.000000 0.000000 1.000000
vn 0.000000 0.000000 1.000000
vn 0.000000 0.000000 1.000000
vn 0.000000 0.000000 1.000000
vn 0.000000 0.000000 1.000000
vn 0.000000 0.000000 1.000000
vn 0.000000 0.000000 1.000000
vn 0.000000 0.000000 1.000000
vn 0.000000 0.000000 1.000000
vn 0.000000 0.000000 1.000000
vn 0.000000 0.000000 1.000000
vn 0.000000 0.000000 1.000000
vn 0.000000 0.000000 1.000000
vn 0.000000 0.000000 1.000000
vn 0.000000 0.000000 1.000000
vn 0.000000 0.000000 1.000000
vn 0.000000 0.000000 1.000000
vn 0.000000 0.000000 1.000000
vn 0.000000 0.000000 1.000000
vn 0.000000 0.000000 1.000000
vn 0.000000 0.000000 1.000000
vn 0.000000 0.000000 1.000000
vn 0.000000 0.000000 1.000000
vn 0.000000 0.000000 1.000000
vn 0.000000 0.000000 1.000000
vn 0.000000 0.000000 1.000000
vn 0.000000 0.000000 1.000000
vn 0.000000 0.000000 1.000000
vn 0.000000 0.000000 1.000000
vn 0.000000 0.000000 1.000000
vn 0.000000 0.000000 1.000000
vn 0.000000 0.000000 1.000000
vn 0.000000 0.000000 1.000000
vn 0.000000 0.000000 1.000000
vn 0.000000 0.000000 1.000000
vn 0.000000 0.000000 1.000000
vn 0.000000 0.000000 1.000000
vn 0.000000 0.000000 1.000000
vn 0.000000 0.000000 1.000000
vn 0.000000 0.000000 1.000000
vn 0.000000 0.000000 1.000000
vn 0.000000 0.000000 1.000000
vn 0.000000 0.000000 1.000000
vn 0.000000 0.000000 1.000000
vn 0.000000 0.000000 1.000000
vn 0.000000 0.000000 1.000000
vn 0.000000 0.000000 1.000000
vn 0.000000 0.000000 1.000000
vn 0.000000 0.000000 1.000000
vn 0.000000 0.000000 1.000000
vn 0.000000 0.000000 1.000000
vn 0.000000 0.000000 1.000000
vn 0.000000 0.000000 1.000000
vn 0.000000 0.000000 1.000000
vn 0.000000 0.000000 1.000000
vn 0.000000 0.000000 1.000000
vn 0.000000 0.000000 1.000000
vn 0.000000 0.000000 1.000000
vn 0.000000 0.000000 1.000000
vn 0.000000 0.000000 1.000000
vn 0.000000 0.000000 1.000000
vn 0.000000 0.000000 1.000000
vn 0.000000 0.000000 1.000000
vn 0.000000 0.000000 1.000000
vn 0.000000 0.000000 1.000000
vn 0.000000 0.000000 1.000000
vn 0.000000 0.000000 1.000000
vn 0.000000 0.000000 1.000000
vn 0.000000 0.000000 1.000000
vn 0.000000 0.000000 1.000000
vn 0.000000 0.000000 1.000000
vn 0.000000 0.000000 1.000000
vn 0.000000 0.000000 1.000000
vn 0.000000 0.000000 1.000000
vn 0.000000 0.000000 1.000000
vn 0.000000 0.000000 1.000000
vn 0.000000 0.000000 1.000000
s 1
g Trim_Char_x_24_1 Trim_Text_xxxxxxxxxx_1_1
usemtl initialShadingGroup
f 137/137/1 136/136/2 138/138/3
f 18/18/4 76/76/5 74/74/6
f 20/20/7 22/22/8 53/53/9
f 19/19/10 24/24/11 36/36/12
f 27/27/13 28/28/14 26/26/15
f 27/27/13 25/25/16 28/28/14
f 23/23/17 29/29/18 30/30/19
f 34/34/20 38/38/21 37/37/22
f 35/35/23 33/33/24 42/42/25
f 36/36/12 24/24/11 21/21/26
f 26/26/15 36/36/12 37/37/22
f 32/32/27 33/33/24 35/35/23
f 43/43/28 41/41/29 39/39/30
f 42/42/25 33/33/24 41/41/29
f 40/40/31 31/31/32 42/42/25
f 17/17/33 40/40/31 43/43/28
f 46/46/34 45/45/35 47/47/36
f 46/46/34 47/47/36 41/41/29
f 48/48/37 39/39/30 41/41/29
f 51/51/38 49/49/39 52/52/40
f 51/51/38 52/52/40 50/50/41
f 50/50/41 52/52/40 53/53/9
f 59/59/42 54/54/43 60/60/44
f 6/6/45 55/55/46 67/67/47
f 55/55/46 57/57/48 58/58/49
f 59/59/42 60/60/44 56/56/50
f 54/54/43 8/8/51 75/75/52
f 62/62/53 64/64/54 65/65/55
f 66/66/56 67/67/47 56/56/50
f 16/16/57 21/21/26 24/24/11
f 69/69/58 70/70/59 68/68/60
f 14/14/61 62/62/53 63/63/62
f 15/15/63 71/71/64 72/72/65
f 73/73/66 74/74/6 75/75/52
f 63/63/62 75/75/52 74/74/6
f 70/70/59 74/74/6 76/76/5
f 111/111/67 77/77/68 114/114/69
f 95/95/70 93/93/71 101/101/72
f 53/53/9 22/22/8 83/83/73
f 84/84/74 86/86/75 90/90/76
f 91/91/77 89/89/78 87/87/79
f 90/90/76 86/86/75 89/89/78
f 82/82/80 90/90/76 91/91/77
f 92/92/81 78/78/82 88/88/83
f 96/96/84 100/100/85 99/99/86
f 86/86/75 94/94/87 97/97/88
f 98/98/89 83/83/73 81/81/90
f 94/94/87 98/98/89 99/99/86
f 93/93/71 95/95/70 97/97/88
f 89/89/78 95/95/70 101/101/72
f 103/103/91 102/102/92 113/113/93
f 72/72/65 68/68/60 105/105/94
f 106/106/95 80/80/96 10/10/97
f 104/104/98 107/107/99 108/108/100
f 109/109/101 110/110/102 12/12/103
f 102/102/92 111/111/67 112/112/104
f 104/104/98 113/113/93 112/112/104
f 107/107/99 112/112/104 114/114/69
f 115/115/105 125/125/106 127/127/107
f 116/116/108 118/118/109 124/124/110
f 117/117/111 5/5/112 92/92/81
f 122/122/113 120/120/114 123/123/115
f 122/122/113 123/123/115 121/121/116
f 121/121/116 123/123/115 124/124/110
f 125/125/106 126/126/117 127/127/107
f 128/128/118 129/129/119 119/119/120
f 128/128/118 117/117/111 129/129/119
f 133/133/121 106/106/95 114/114/69
f 131/131/122 134/134/123 135/135/124
f 80/80/96 106/106/95 133/133/121
f 118/118/109 116/116/108 11/11/125
f 3/3/126 115/115/105 118/118/109
f 130/130/127 139/139/128 140/140/129
f 137/137/1 138/138/3 131/131/122
f 85/85/130 17/17/33 44/44/131
f 105/105/94 68/68/60 76/76/5
f 74/74/6 73/73/66 18/18/4
f 53/53/9 52/52/40 49/49/39
f 49/49/39 20/20/7 53/53/9
f 36/36/12 26/26/15 28/28/14
f 28/28/14 25/25/16 19/19/10
f 19/19/10 36/36/12 28/28/14
f 26/26/15 30/30/19 29/29/18
f 29/29/18 27/27/13 26/26/15
f 30/30/19 26/26/15 35/35/23
f 42/42/25 31/31/32 7/7/132
f 42/42/25 7/7/132 23/23/17
f 42/42/25 23/23/17 35/35/23
f 35/35/23 23/23/17 30/30/19
f 34/34/20 37/37/22 36/36/12
f 36/36/12 21/21/26 34/34/20
f 37/37/22 35/35/23 26/26/15
f 35/35/23 37/37/22 38/38/21
f 38/38/21 32/32/27 35/35/23
f 39/39/30 44/44/131 43/43/28
f 41/41/29 43/43/28 42/42/25
f 42/42/25 43/43/28 40/40/31
f 43/43/28 44/44/131 17/17/33
f 33/33/24 32/32/27 13/13/133
f 41/41/29 33/33/24 13/13/133
f 41/41/29 13/13/133 46/46/34
f 41/41/29 47/47/36 50/50/41
f 50/50/41 48/48/37 41/41/29
f 50/50/41 47/47/36 45/45/35
f 50/50/41 45/45/35 51/51/38
f 53/53/9 48/48/37 50/50/41
f 58/58/49 56/56/50 67/67/47
f 24/24/11 19/19/10 6/6/45
f 6/6/45 67/67/47 24/24/11
f 67/67/47 55/55/46 58/58/49
f 56/56/50 58/58/49 57/57/48
f 56/56/50 57/57/48 59/59/42
f 65/65/55 56/56/50 60/60/44
f 8/8/51 61/61/134 75/75/52
f 75/75/52 63/63/62 65/65/55
f 65/65/55 54/54/43 75/75/52
f 60/60/44 54/54/43 65/65/55
f 65/65/55 63/63/62 62/62/53
f 56/56/50 65/65/55 64/64/54
f 56/56/50 64/64/54 66/66/56
f 67/67/47 66/66/56 16/16/57
f 24/24/11 67/67/47 16/16/57
f 68/68/60 72/72/65 71/71/64
f 71/71/64 69/69/58 68/68/60
f 70/70/59 69/69/58 14/14/61
f 63/63/62 70/70/59 14/14/61
f 22/22/8 20/20/7 15/15/63
f 15/15/63 72/72/65 22/22/8
f 75/75/52 61/61/134 73/73/66
f 74/74/6 70/70/59 63/63/62
f 76/76/5 68/68/60 70/70/59
f 114/114/69 112/112/104 111/111/67
f 94/94/87 86/86/75 84/84/74
f 85/85/130 39/39/30 48/48/37
f 83/83/73 2/2/135 48/48/37
f 83/83/73 48/48/37 53/53/9
f 48/48/37 2/2/135 85/85/130
f 2/2/135 83/83/73 98/98/89
f 84/84/74 2/2/135 94/94/87
f 98/98/89 94/94/87 2/2/135
f 90/90/76 82/82/80 84/84/74
f 87/87/79 92/92/81 91/91/77
f 89/89/78 91/91/77 90/90/76
f 91/91/77 88/88/83 82/82/80
f 88/88/83 91/91/77 92/92/81
f 95/95/70 89/89/78 86/86/75
f 97/97/88 95/95/70 86/86/75
f 96/96/84 99/99/86 98/98/89
f 98/98/89 81/81/90 96/96/84
f 99/99/86 97/97/88 94/94/87
f 97/97/88 99/99/86 100/100/85
f 100/100/85 93/93/71 97/97/88
f 9/9/136 79/79/137 87/87/79
f 9/9/136 87/87/79 89/89/78
f 101/101/72 9/9/136 89/89/78
f 113/113/93 104/104/98 103/103/91
f 109/109/101 83/83/73 22/22/8
f 1/1/138 22/22/8 72/72/65
f 105/105/94 1/1/138 72/72/65
f 1/1/138 103/103/91 104/104/98
f 1/1/138 104/104/98 109/109/101
f 109/109/101 22/22/8 1/1/138
f 10/10/97 108/108/100 107/107/99
f 10/10/97 107/107/99 106/106/95
f 110/110/102 109/109/101 104/104/98
f 104/104/98 108/108/100 110/110/102
f 12/12/103 81/81/90 83/83/73
f 83/83/73 109/109/101 12/12/103
f 112/112/104 113/113/93 102/102/92
f 112/112/104 107/107/99 104/104/98
f 114/114/69 106/106/95 107/107/99
f 127/127/107 119/119/120 124/124/110
f 124/124/110 118/118/109 115/115/105
f 127/127/107 124/124/110 115/115/105
f 124/124/110 123/123/115 120/120/114
f 120/120/114 116/116/108 124/124/110
f 121/121/116 119/119/120 129/129/119
f 5/5/112 78/78/82 92/92/81
f 92/92/81 87/87/79 121/121/116
f 121/121/116 117/117/111 92/92/81
f 129/129/119 117/117/111 121/121/116
f 121/121/116 87/87/79 79/79/137
f 121/121/116 79/79/137 122/122/113
f 124/124/110 119/119/120 121/121/116
f 119/119/120 127/127/107 126/126/117
f 119/119/120 126/126/117 128/128/118
f 140/140/129 131/131/122 133/133/121
f 114/114/69 77/77/68 4/4/139
f 114/114/69 4/4/139 130/130/127
f 114/114/69 130/130/127 133/133/121
f 133/133/121 130/130/127 140/140/129
f 132/132/140 133/133/121 131/131/122
f 135/135/124 132/132/140 131/131/122
f 133/133/121 132/132/140 80/80/96
f 11/11/125 135/135/124 134/134/123
f 11/11/125 134/134/123 118/118/109
f 134/134/123 131/131/122 138/138/3
f 134/134/123 136/136/2 3/3/126
f 118/118/109 134/134/123 3/3/126
f 138/138/3 136/136/2 134/134/123
f 131/131/122 140/140/129 139/139/128
f 139/139/128 137/137/1 131/131/122
f 44/44/131 39/39/30 85/85/130
f 76/76/5 18/18/4 105/105/94
