# This file uses centimeters as units for non-parametric coordinates.

mtllib number4.mtl
g default
v 0.959719 0.736263 0.000000
v 0.959719 1.236263 0.000000
v 0.059719 1.236263 0.000000
v 0.059719 1.634702 0.000000
v 1.025345 3.136263 0.000000
v 1.459719 3.136263 0.000000
v 1.459719 1.636263 0.000000
v 1.759719 1.636263 0.000000
v 1.759719 1.236263 0.000000
v 1.459719 1.236263 0.000000
v 1.459719 0.736263 0.000000
v 0.959719 1.636263 0.000000
v 0.959719 2.325327 0.000000
v 0.515970 1.636263 0.000000
v 0.143405 1.764835 0.000000
v 1.459719 1.764835 0.000000
v 0.959719 1.764835 0.000000
v 0.598769 1.764835 0.000000
v 0.909719 1.236263 0.000000
v 0.909719 1.636263 0.000000
v 0.959719 1.079121 0.000000
v 1.459719 1.079121 0.000000
v 1.334719 1.079121 0.000000
v 1.334719 0.736263 0.000000
v 0.909719 1.421978 0.000000
v 1.759719 1.421978 0.000000
v 1.334719 1.421978 0.000000
v 1.334719 1.764835 0.000000
v 0.059719 1.421978 0.000000
v 0.484719 1.236263 0.000000
v 0.484719 1.421978 0.000000
v 0.484719 1.764835 0.000000
v 0.584375 2.450549 0.000000
v 1.459719 2.450549 0.000000
v 0.909719 2.450549 0.000000
v 0.909719 2.247686 0.000000
v 1.459719 2.107692 0.000000
v 0.959719 2.107692 0.000000
v 1.334719 2.107692 0.000000
v 1.334719 2.450549 0.000000
v 0.363890 2.107692 0.000000
v 0.819565 2.107692 0.000000
v 0.484719 2.107692 0.000000
v 0.484719 2.295583 0.000000
v 0.909719 2.956463 0.000000
v 1.459719 2.793406 0.000000
v 0.909719 2.793406 0.000000
v 1.334719 2.793406 0.000000
v 1.334719 3.136263 0.000000
v 0.804860 2.793406 0.000000
vt 0.470588 0.000000
vt 0.470588 0.208333
vt 1.000000 0.208333
vt 1.000000 0.374350
vt 0.431985 1.000000
vt 0.176471 1.000000
vt 0.176471 0.375000
vt 0.000000 0.375000
vt 0.000000 0.208333
vt 0.176471 0.208333
vt 0.176471 0.000000
vt 0.470588 0.375000
vt 0.470588 0.662110
vt 0.731617 0.375000
vt 0.950773 0.428571
vt 0.176471 0.428571
vt 0.470588 0.428571
vt 0.682912 0.428571
vt 0.500000 0.208333
vt 0.500000 0.375000
vt 0.470588 0.142857
vt 0.176471 0.142857
vt 0.250000 0.142857
vt 0.250000 0.000000
vt 0.500000 0.285714
vt 0.000000 0.285714
vt 0.250000 0.285714
vt 0.250000 0.428571
vt 1.000000 0.285714
vt 0.750000 0.208333
vt 0.750000 0.285714
vt 0.750000 0.428571
vt 0.691379 0.714286
vt 0.176471 0.714286
vt 0.500000 0.714286
vt 0.500000 0.629759
vt 0.176471 0.571429
vt 0.470588 0.571429
vt 0.250000 0.571429
vt 0.250000 0.714286
vt 0.821076 0.571429
vt 0.553032 0.571429
vt 0.750000 0.571429
vt 0.750000 0.649716
vt 0.500000 0.925083
vt 0.176471 0.857143
vt 0.500000 0.857143
vt 0.250000 0.857143
vt 0.250000 1.000000
vt 0.561682 0.857143
vn 0.000000 0.000000 -1.000000
vn 0.000000 0.000000 -1.000000
vn 0.000000 0.000000 -1.000000
vn 0.000000 0.000000 -1.000000
vn 0.000000 0.000000 -1.000000
vn 0.000000 0.000000 -1.000000
vn 0.000000 0.000000 -1.000000
vn 0.000000 0.000000 -1.000000
vn 0.000000 0.000000 -1.000000
vn 0.000000 0.000000 -1.000000
vn 0.000000 0.000000 -1.000000
vn 0.000000 0.000000 -1.000000
vn 0.000000 0.000000 -1.000000
vn 0.000000 0.000000 -1.000000
vn 0.000000 0.000000 -1.000000
vn 0.000000 0.000000 -1.000000
vn 0.000000 0.000000 -1.000000
vn 0.000000 0.000000 -1.000000
vn 0.000000 0.000000 -1.000000
vn 0.000000 0.000000 -1.000000
vn 0.000000 0.000000 -1.000000
vn 0.000000 0.000000 -1.000000
vn 0.000000 0.000000 -1.000000
vn 0.000000 0.000000 -1.000000
vn 0.000000 0.000000 -1.000000
vn 0.000000 0.000000 -1.000000
vn 0.000000 0.000000 -1.000000
vn 0.000000 0.000000 -1.000000
vn 0.000000 0.000000 -1.000000
vn 0.000000 0.000000 -1.000000
vn 0.000000 0.000000 -1.000000
vn 0.000000 0.000000 -1.000000
vn 0.000000 0.000000 -1.000000
vn 0.000000 0.000000 -1.000000
vn 0.000000 0.000000 -1.000000
vn 0.000000 0.000000 -1.000000
vn 0.000000 0.000000 -1.000000
vn 0.000000 0.000000 -1.000000
vn 0.000000 0.000000 -1.000000
vn 0.000000 0.000000 -1.000000
vn 0.000000 0.000000 -1.000000
vn 0.000000 0.000000 -1.000000
vn 0.000000 0.000000 -1.000000
vn 0.000000 0.000000 -1.000000
vn 0.000000 0.000000 -1.000000
vn 0.000000 0.000000 -1.000000
vn 0.000000 0.000000 -1.000000
vn 0.000000 0.000000 -1.000000
vn 0.000000 0.000000 -1.000000
vn 0.000000 0.000000 -1.000000
s 1
g Trim_Char_x_20_1 Trim_Text_xxxxxxxxxx_1_1
usemtl initialShadingGroup
f 50/50/1 45/45/2 47/47/3
f 15/15/4 14/14/5 31/31/6
f 12/12/7 17/17/8 28/28/9
f 1/1/10 21/21/11 24/24/12
f 11/11/13 24/24/12 23/23/14
f 2/2/15 19/19/16 25/25/17
f 26/26/18 9/9/19 10/10/20
f 7/7/21 8/8/22 26/26/18
f 30/30/23 3/3/24 29/29/25
f 19/19/16 30/30/23 31/31/6
f 14/14/5 20/20/26 25/25/17
f 41/41/27 44/44/28 43/43/29
f 39/39/30 38/38/31 13/13/32
f 28/28/9 17/17/8 38/38/31
f 16/16/33 28/28/9 39/39/30
f 37/37/34 39/39/30 40/40/35
f 41/41/27 43/43/29 32/32/36
f 43/43/29 42/42/37 18/18/38
f 33/33/39 35/35/40 42/42/37
f 5/5/41 49/49/42 48/48/43
f 40/40/35 35/35/40 47/47/3
f 34/34/44 40/40/35 48/48/43
f 46/46/45 48/48/43 49/49/42
f 50/50/1 47/47/3 35/35/40
f 31/31/6 29/29/25 4/4/46
f 4/4/46 15/15/4 31/31/6
f 25/25/17 20/20/26 12/12/7
f 28/28/9 27/27/47 12/12/7
f 12/12/7 27/27/47 25/25/17
f 21/21/11 23/23/14 24/24/12
f 23/23/14 22/22/48 11/11/13
f 23/23/14 21/21/11 2/2/15
f 25/25/17 27/27/47 2/2/15
f 2/2/15 27/27/47 23/23/14
f 10/10/20 22/22/48 23/23/14
f 10/10/20 23/23/14 27/27/47
f 10/10/20 27/27/47 26/26/18
f 28/28/9 16/16/33 7/7/21
f 27/27/47 28/28/9 7/7/21
f 26/26/18 27/27/47 7/7/21
f 29/29/25 31/31/6 30/30/23
f 31/31/6 25/25/17 19/19/16
f 32/32/36 18/18/38 14/14/5
f 14/14/5 15/15/4 32/32/36
f 25/25/17 31/31/6 14/14/5
f 13/13/32 36/36/49 35/35/40
f 13/13/32 35/35/40 40/40/35
f 13/13/32 40/40/35 39/39/30
f 38/38/31 39/39/30 28/28/9
f 39/39/30 37/37/34 16/16/33
f 40/40/35 34/34/44 37/37/34
f 32/32/36 15/15/4 41/41/27
f 18/18/38 32/32/36 43/43/29
f 35/35/40 36/36/49 42/42/37
f 42/42/37 43/43/29 44/44/28
f 44/44/28 33/33/39 42/42/37
f 48/48/43 47/47/3 45/45/2
f 45/45/2 5/5/41 48/48/43
f 47/47/3 48/48/43 40/40/35
f 48/48/43 46/46/45 34/34/44
f 49/49/42 6/6/50 46/46/45
f 35/35/40 33/33/39 50/50/1
