# This file uses centimeters as units for non-parametric coordinates.

mtllib number3.mtl
g default
v 1.106400 2.089389 0.000000
v 0.079837 2.503452 0.000000
v 1.480432 2.563840 0.000000
v 0.793898 3.136656 0.000000
v 0.579837 2.436263 0.000000
v 0.714212 2.236263 0.000000
v 0.980047 2.505100 0.000000
v 0.795546 2.737140 0.000000
v 0.728774 2.235998 0.000000
v 0.679837 1.903452 0.000000
v 0.579837 1.536263 0.000000
v 1.080427 1.547878 0.000000
v 0.830529 1.936093 0.000000
v 0.831762 1.135934 0.000000
v 0.079837 1.475327 0.000000
v 0.822381 0.735952 0.000000
v 1.580577 1.506925 0.000000
v 1.044167 1.764568 0.000000
v 1.527943 1.764596 0.000000
v 0.736623 1.164279 0.000000
v 0.736642 0.740321 0.000000
v 0.205877 1.078764 0.000000
v 0.736650 1.078878 0.000000
v 0.455001 0.830340 0.000000
v 0.455014 1.078878 0.000000
v 0.595265 1.421828 0.000000
v 0.086486 1.421790 0.000000
v 0.455014 1.421776 0.000000
v 0.656483 1.249908 0.000000
v 0.455014 1.250327 0.000000
v 0.595832 1.250327 0.000000
v 0.595832 1.078878 0.000000
v 0.596098 1.417666 0.000000
v 0.455014 1.521051 0.000000
v 1.455565 1.078934 0.000000
v 1.205370 0.836545 0.000000
v 1.205369 1.078878 0.000000
v 1.070452 1.421750 0.000000
v 1.576140 1.421751 0.000000
v 1.205369 1.421776 0.000000
v 1.009761 1.250327 0.000000
v 1.205369 1.250327 0.000000
v 0.971009 1.200006 0.000000
v 0.971009 1.078878 0.000000
v 0.928315 1.164690 0.000000
v 0.971009 1.164603 0.000000
v 0.853831 1.137431 0.000000
v 0.853829 1.078878 0.000000
v 1.205369 1.764673 0.000000
v 1.466198 2.450312 0.000000
v 0.474127 2.450468 0.000000
v 0.581169 2.450468 0.000000
v 0.975842 2.450512 0.000000
v 0.736650 2.236079 0.000000
v 0.736697 1.921530 0.000000
v 0.700920 2.107571 0.000000
v 0.736650 2.107571 0.000000
v 1.143351 2.107592 0.000000
v 1.205413 2.060813 0.000000
v 0.736650 1.936122 0.000000
v 0.825720 1.936019 0.000000
v 0.835285 1.936075 0.000000
v 1.205369 1.936122 0.000000
v 0.971009 1.936122 0.000000
v 0.971365 1.879243 0.000000
v 0.853829 1.936122 0.000000
v 0.853837 1.935086 0.000000
v 0.971009 2.107571 0.000000
v 1.406794 1.936223 0.000000
v 1.392958 1.764673 0.000000
v 1.392958 1.936122 0.000000
v 1.393073 1.948881 0.000000
v 1.205314 2.141974 0.000000
v 1.205369 2.450468 0.000000
v 1.205369 2.279020 0.000000
v 0.881416 2.279005 0.000000
v 0.971009 2.279020 0.000000
v 0.970536 2.422699 0.000000
v 1.373523 2.278907 0.000000
v 1.393198 2.303170 0.000000
v 1.392958 2.450468 0.000000
v 0.736646 3.134543 0.000000
v 0.736610 2.726199 0.000000
v 0.172030 2.793376 0.000000
v 0.736650 2.793366 0.000000
v 0.455014 2.453037 0.000000
v 0.455014 2.793366 0.000000
v 0.627402 2.621965 0.000000
v 0.455014 2.621917 0.000000
v 0.595887 2.537021 0.000000
v 0.595832 2.621917 0.000000
v 0.595832 2.793366 0.000000
v 0.455061 3.065022 0.000000
v 0.302524 2.964762 0.000000
v 0.455014 2.964815 0.000000
v 0.267533 2.930374 0.000000
v 0.267426 2.793366 0.000000
v 1.422293 2.793283 0.000000
v 1.205369 2.793366 0.000000
v 0.959527 2.621912 0.000000
v 1.205369 2.621917 0.000000
v 0.970997 2.586040 0.000000
v 0.971009 2.621917 0.000000
v 0.971009 2.793366 0.000000
v 0.891433 2.707155 0.000000
v 0.971009 2.707641 0.000000
v 0.853829 2.793366 0.000000
v 0.853795 2.726555 0.000000
v 1.205065 3.025950 0.000000
v 0.736650 2.964815 0.000000
v 1.205369 2.964815 0.000000
v 0.971009 2.964815 0.000000
v 0.971027 3.119731 0.000000
vt 0.684052 0.563854
vt 0.000000 0.736360
vt 0.933224 0.761518
vt 0.475817 1.000000
vt 0.333176 0.708368
vt 0.422717 0.625044
vt 0.599770 0.737046
vt 0.476913 0.833556
vt 0.432420 0.624933
vt 0.399811 0.486389
vt 0.333176 0.333412
vt 0.666358 0.338250
vt 0.500224 0.500019
vt 0.501046 0.166669
vt 0.000000 0.308024
vt 0.494796 0.000000
vt 1.000000 0.321189
vt 0.642764 0.428571
vt 0.965063 0.428571
vt 0.437668 0.178454
vt 0.437668 0.001838
vt 0.084113 0.142857
vt 0.437668 0.142857
vt 0.250000 0.039321
vt 0.250000 0.142857
vt 0.343282 0.285714
vt 0.004370 0.285714
vt 0.250000 0.285714
vt 0.384715 0.214286
vt 0.250000 0.214286
vt 0.343834 0.214286
vt 0.343834 0.142857
vt 0.343834 0.283979
vt 0.250000 0.327074
vt 0.916774 0.142857
vt 0.750000 0.041898
vt 0.750000 0.142857
vt 0.659994 0.285714
vt 0.996909 0.285714
vt 0.750000 0.285714
vt 0.619656 0.214286
vt 0.750000 0.214286
vt 0.593834 0.193321
vt 0.593834 0.142857
vt 0.565421 0.178571
vt 0.593834 0.178571
vt 0.515751 0.167257
vt 0.515751 0.142857
vt 0.750000 0.428571
vt 0.923414 0.714286
vt 0.262736 0.714286
vt 0.334061 0.714286
vt 0.597246 0.714286
vt 0.437668 0.624967
vt 0.437668 0.493993
vt 0.413860 0.571429
vt 0.437668 0.571429
vt 0.708681 0.571429
vt 0.750000 0.551899
vt 0.437668 0.500000
vt 0.497019 0.500000
vt 0.503395 0.500000
vt 0.750000 0.500000
vt 0.593834 0.500000
vt 0.593834 0.476153
vt 0.515751 0.500000
vt 0.515751 0.499537
vt 0.593834 0.571429
vt 0.884156 0.500000
vt 0.875000 0.428571
vt 0.875000 0.500000
vt 0.875000 0.505262
vt 0.750000 0.585723
vt 0.750000 0.714286
vt 0.750000 0.642857
vt 0.534127 0.642857
vt 0.593834 0.642857
vt 0.593834 0.702670
vt 0.861962 0.642857
vt 0.875000 0.652995
vt 0.875000 0.714286
vt 0.437668 0.999261
vt 0.437668 0.829118
vt 0.061445 0.857143
vt 0.437668 0.857143
vt 0.250000 0.715356
vt 0.250000 0.857143
vt 0.364930 0.785714
vt 0.250000 0.785714
vt 0.343834 0.750351
vt 0.343834 0.785714
vt 0.343834 0.857143
vt 0.250000 0.970361
vt 0.148356 0.928571
vt 0.250000 0.928571
vt 0.125000 0.914264
vt 0.125000 0.857143
vt 0.894653 0.857143
vt 0.750000 0.857143
vt 0.586191 0.785714
vt 0.750000 0.785714
vt 0.593834 0.770769
vt 0.593834 0.785714
vt 0.593834 0.857143
vt 0.541028 0.821429
vt 0.593834 0.821429
vt 0.515751 0.857143
vt 0.515751 0.829347
vt 0.750000 0.954238
vt 0.437668 0.928571
vt 0.750000 0.928571
vt 0.593834 0.928571
vt 0.593834 0.993075
vn 0.000000 0.000000 1.000000
vn 0.000000 0.000000 1.000000
vn 0.000000 0.000000 1.000000
vn 0.000000 0.000000 1.000000
vn 0.000000 0.000000 1.000000
vn 0.000000 0.000000 1.000000
vn 0.000000 0.000000 1.000000
vn 0.000000 0.000000 1.000000
vn 0.000000 0.000000 1.000000
vn 0.000000 0.000000 1.000000
vn 0.000000 0.000000 1.000000
vn 0.000000 0.000000 1.000000
vn 0.000000 0.000000 1.000000
vn 0.000000 0.000000 1.000000
vn 0.000000 0.000000 1.000000
vn 0.000000 0.000000 1.000000
vn 0.000000 0.000000 1.000000
vn 0.000000 0.000000 1.000000
vn 0.000000 0.000000 1.000000
vn 0.000000 0.000000 1.000000
vn 0.000000 0.000000 1.000000
vn 0.000000 0.000000 1.000000
vn 0.000000 0.000000 1.000000
vn 0.000000 0.000000 1.000000
vn 0.000000 0.000000 1.000000
vn 0.000000 0.000000 1.000000
vn 0.000000 0.000000 1.000000
vn 0.000000 0.000000 1.000000
vn 0.000000 0.000000 1.000000
vn 0.000000 0.000000 1.000000
vn 0.000000 0.000000 1.000000
vn 0.000000 0.000000 1.000000
vn 0.000000 0.000000 1.000000
vn 0.000000 0.000000 1.000000
vn 0.000000 0.000000 1.000000
vn 0.000000 0.000000 1.000000
vn 0.000000 0.000000 1.000000
vn 0.000000 0.000000 1.000000
vn 0.000000 0.000000 1.000000
vn 0.000000 0.000000 1.000000
vn 0.000000 0.000000 1.000000
vn 0.000000 0.000000 1.000000
vn 0.000000 0.000000 1.000000
vn 0.000000 0.000000 1.000000
vn 0.000000 0.000000 1.000000
vn 0.000000 0.000000 1.000000
vn 0.000000 0.000000 1.000000
vn 0.000000 0.000000 1.000000
vn 0.000000 0.000000 1.000000
vn 0.000000 0.000000 1.000000
vn 0.000000 0.000000 1.000000
vn 0.000000 0.000000 1.000000
vn 0.000000 0.000000 1.000000
vn 0.000000 0.000000 1.000000
vn 0.000000 0.000000 1.000000
vn 0.000000 0.000000 1.000000
vn 0.000000 0.000000 1.000000
vn 0.000000 0.000000 1.000000
vn 0.000000 0.000000 1.000000
vn 0.000000 0.000000 1.000000
vn 0.000000 0.000000 1.000000
vn 0.000000 0.000000 1.000000
vn 0.000000 0.000000 1.000000
vn 0.000000 0.000000 1.000000
vn 0.000000 0.000000 1.000000
vn 0.000000 0.000000 1.000000
vn 0.000000 0.000000 1.000000
vn 0.000000 0.000000 1.000000
vn 0.000000 0.000000 1.000000
vn 0.000000 0.000000 1.000000
vn 0.000000 0.000000 1.000000
vn 0.000000 0.000000 1.000000
vn 0.000000 0.000000 1.000000
vn 0.000000 0.000000 1.000000
vn 0.000000 0.000000 1.000000
vn 0.000000 0.000000 1.000000
vn 0.000000 0.000000 1.000000
vn 0.000000 0.000000 1.000000
vn 0.000000 0.000000 1.000000
vn 0.000000 0.000000 1.000000
vn 0.000000 0.000000 1.000000
vn 0.000000 0.000000 1.000000
vn 0.000000 0.000000 1.000000
vn 0.000000 0.000000 1.000000
vn 0.000000 0.000000 1.000000
vn 0.000000 0.000000 1.000000
vn 0.000000 0.000000 1.000000
vn 0.000000 0.000000 1.000000
vn 0.000000 0.000000 1.000000
vn 0.000000 0.000000 1.000000
vn 0.000000 0.000000 1.000000
vn 0.000000 0.000000 1.000000
vn 0.000000 0.000000 1.000000
vn 0.000000 0.000000 1.000000
vn 0.000000 0.000000 1.000000
vn 0.000000 0.000000 1.000000
vn 0.000000 0.000000 1.000000
vn 0.000000 0.000000 1.000000
vn 0.000000 0.000000 1.000000
vn 0.000000 0.000000 1.000000
vn 0.000000 0.000000 1.000000
vn 0.000000 0.000000 1.000000
vn 0.000000 0.000000 1.000000
vn 0.000000 0.000000 1.000000
vn 0.000000 0.000000 1.000000
vn 0.000000 0.000000 1.000000
vn 0.000000 0.000000 1.000000
vn 0.000000 0.000000 1.000000
vn 0.000000 0.000000 1.000000
vn 0.000000 0.000000 1.000000
vn 0.000000 0.000000 1.000000
vn 0.000000 0.000000 1.000000
vn 0.000000 0.000000 1.000000
s 1
g Trim_Char_x_19_1 Trim_Text_xxxxxxxxxx_1_1
usemtl initialShadingGroup
f 98/98/1 109/109/2 111/111/3
f 40/40/4 39/39/5 17/17/6
f 26/26/7 11/11/8 34/34/9
f 21/21/10 23/23/11 32/32/12
f 22/22/13 24/24/14 25/25/15
f 29/29/16 33/33/17 31/31/18
f 27/27/19 22/22/13 25/25/15
f 29/29/16 31/31/18 32/32/12
f 25/25/15 32/32/12 31/31/18
f 33/33/17 26/26/7 28/28/20
f 34/34/9 15/15/21 27/27/19
f 36/36/22 35/35/23 37/37/24
f 16/16/25 36/36/22 37/37/24
f 37/37/24 35/35/23 39/39/5
f 38/38/26 41/41/27 42/42/28
f 37/37/24 42/42/28 41/41/27
f 43/43/29 45/45/30 46/46/31
f 47/47/32 48/48/33 44/44/34
f 14/14/35 20/20/36 23/23/11
f 12/12/37 38/38/26 40/40/4
f 80/80/38 50/50/39 81/81/40
f 52/52/41 51/51/42 5/5/43
f 10/10/44 55/55/45 60/60/46
f 69/69/47 72/72/48 71/71/49
f 1/1/50 58/58/51 68/68/52
f 63/63/53 64/64/54 65/65/55
f 64/64/54 66/66/56 67/67/57
f 60/60/46 55/55/45 61/61/58
f 57/57/59 60/60/46 61/61/58
f 70/70/60 19/19/61 69/69/47
f 49/49/62 70/70/60 71/71/49
f 72/72/48 59/59/63 63/63/53
f 74/74/64 53/53/65 78/78/66
f 73/73/67 75/75/68 77/77/69
f 54/54/70 57/57/59 68/68/52
f 78/78/66 76/76/71 77/77/69
f 73/73/67 79/79/72 75/75/68
f 81/81/40 74/74/64 75/75/68
f 92/92/73 85/85/74 110/110/75
f 83/83/76 85/85/74 92/92/73
f 2/2/77 86/86/78 89/89/79
f 90/90/80 88/88/81 91/91/82
f 90/90/80 91/91/82 89/89/79
f 89/89/79 91/91/82 92/92/73
f 93/93/83 94/94/84 95/95/85
f 97/97/86 87/87/87 95/95/85
f 96/96/88 84/84/89 97/97/86
f 101/101/90 74/74/64 81/81/40
f 106/106/91 103/103/92 101/101/90
f 74/74/64 101/101/90 103/103/92
f 100/100/93 102/102/94 103/103/92
f 104/104/95 107/107/96 108/108/97
f 100/100/93 103/103/92 106/106/91
f 85/85/74 83/83/76 8/8/98
f 109/109/2 113/113/99 112/112/100
f 104/104/95 99/99/101 111/111/3
f 110/110/75 85/85/74 107/107/96
f 4/4/102 82/82/103 110/110/75
f 6/6/104 56/56/105 57/57/59
f 66/66/56 62/62/106 67/67/57
f 111/111/3 99/99/101 98/98/1
f 17/17/6 19/19/61 70/70/60
f 70/70/60 49/49/62 40/40/4
f 17/17/6 70/70/60 40/40/4
f 34/34/9 28/28/20 26/26/7
f 25/25/15 24/24/14 21/21/10
f 32/32/12 25/25/15 21/21/10
f 30/30/107 28/28/20 27/27/19
f 27/27/19 25/25/15 30/30/107
f 32/32/12 23/23/11 20/20/36
f 32/32/12 20/20/36 29/29/16
f 31/31/18 30/30/107 25/25/15
f 30/30/107 31/31/18 33/33/17
f 28/28/20 30/30/107 33/33/17
f 27/27/19 28/28/20 34/34/9
f 48/48/33 23/23/11 21/21/10
f 44/44/34 48/48/33 16/16/25
f 16/16/25 37/37/24 44/44/34
f 21/21/10 16/16/25 48/48/33
f 39/39/5 40/40/4 42/42/28
f 42/42/28 37/37/24 39/39/5
f 42/42/28 40/40/4 38/38/26
f 41/41/27 43/43/29 46/46/31
f 46/46/31 44/44/34 37/37/24
f 37/37/24 41/41/27 46/46/31
f 44/44/34 46/46/31 45/45/30
f 45/45/30 47/47/32 44/44/34
f 48/48/33 47/47/32 14/14/35
f 14/14/35 23/23/11 48/48/33
f 49/49/62 18/18/108 12/12/37
f 40/40/4 49/49/62 12/12/37
f 60/60/46 57/57/59 56/56/105
f 60/60/46 56/56/105 10/10/44
f 64/64/54 63/63/53 59/59/63
f 68/68/52 64/64/54 1/1/50
f 59/59/63 1/1/50 64/64/54
f 18/18/108 49/49/62 63/63/53
f 65/65/55 18/18/108 63/63/53
f 67/67/57 65/65/55 64/64/54
f 66/66/56 64/64/54 68/68/52
f 13/13/109 68/68/52 57/57/59
f 57/57/59 61/61/58 13/13/109
f 68/68/52 13/13/109 62/62/106
f 62/62/106 66/66/56 68/68/52
f 69/69/47 71/71/49 70/70/60
f 71/71/49 63/63/53 49/49/62
f 63/63/53 71/71/49 72/72/48
f 77/77/69 75/75/68 74/74/64
f 78/78/66 77/77/69 74/74/64
f 77/77/69 68/68/52 58/58/51
f 77/77/69 58/58/51 73/73/67
f 68/68/52 77/77/69 76/76/71
f 76/76/71 54/54/70 68/68/52
f 75/75/68 79/79/72 80/80/38
f 80/80/38 81/81/40 75/75/68
f 110/110/75 82/82/103 93/93/83
f 110/110/75 95/95/85 92/92/73
f 92/92/73 95/95/85 87/87/87
f 93/93/83 95/95/85 110/110/75
f 92/92/73 91/91/82 88/88/81
f 88/88/81 83/83/76 92/92/73
f 89/89/79 87/87/87 97/97/86
f 97/97/86 84/84/89 2/2/77
f 2/2/77 89/89/79 97/97/86
f 86/86/78 51/51/42 89/89/79
f 89/89/79 51/51/42 52/52/41
f 89/89/79 52/52/41 90/90/80
f 92/92/73 87/87/87 89/89/79
f 95/95/85 94/94/84 96/96/88
f 96/96/88 97/97/86 95/95/85
f 98/98/1 99/99/101 101/101/90
f 81/81/40 50/50/39 3/3/110
f 3/3/110 101/101/90 81/81/40
f 101/101/90 3/3/110 98/98/1
f 101/101/90 99/99/101 104/104/95
f 101/101/90 104/104/95 106/106/91
f 103/103/92 102/102/94 74/74/64
f 7/7/111 53/53/65 74/74/64
f 74/74/64 102/102/94 7/7/111
f 105/105/112 106/106/91 104/104/95
f 108/108/97 105/105/112 104/104/95
f 106/106/91 105/105/112 100/100/93
f 8/8/98 108/108/97 107/107/96
f 107/107/96 85/85/74 8/8/98
f 112/112/100 111/111/3 109/109/2
f 111/111/3 112/112/100 104/104/95
f 104/104/95 112/112/100 110/110/75
f 107/107/96 104/104/95 110/110/75
f 110/110/75 112/112/100 113/113/99
f 110/110/75 113/113/99 4/4/102
f 57/57/59 54/54/70 9/9/113
f 9/9/113 6/6/104 57/57/59
