# This file uses centimeters as units for non-parametric coordinates.

mtllib number1.mtl
g default
v 0.074556 0.068571 0.000000
v 0.358785 0.068571 0.000000
v 0.074556 2.096075 0.000000
v 0.358785 2.096075 0.000000
vt 0.000000 0.000000
vt 0.166667 0.000000
vt 0.000000 1.000000
vt 0.166667 1.000000
vn 0.000000 0.000000 1.000000
vn 0.000000 0.000000 1.000000
vn 0.000000 0.000000 1.000000
vn 0.000000 0.000000 1.000000
s 1
g pasted__pasted__pPlane1 pasted__group37 group39
usemtl initialShadingGroup
f 1/1/1 2/2/2 3/3/3
f 3/3/3 2/2/2 4/4/4
