# This file uses centimeters as units for non-parametric coordinates.

mtllib number7.mtl
g default
v 0.920464 0.272646 0.000000
v 1.195008 0.346210 0.000000
v 0.447894 2.036301 0.000000
v 0.722438 2.109865 0.000000
vt 0.000000 0.000000
vt 0.166667 0.000000
vt 0.000000 1.000000
vt 0.166667 1.000000
vn 0.000000 0.000000 1.000000
vn 0.000000 0.000000 1.000000
vn 0.000000 0.000000 1.000000
vn 0.000000 0.000000 1.000000
s 1
g pasted__pPlane1 group37
usemtl initialShadingGroup
f 1/1/1 2/2/2 3/3/3
f 3/3/3 2/2/2 4/4/4
g default
v 1.198356 0.359789 0.000000
v 0.072064 0.359789 0.000000
v 1.198356 0.075560 0.000000
v 0.072064 0.075560 0.000000
vt 0.000000 0.000000
vt 1.000000 0.000000
vt 0.000000 0.224138
vt 1.000000 0.224138
vn 0.000000 -0.000000 1.000000
vn 0.000000 -0.000000 1.000000
vn 0.000000 -0.000000 1.000000
vn 0.000000 -0.000000 1.000000
s 1
g pasted__pasted__pasted__pasted__pPlane2 pasted__pasted__pasted__group12 pasted__pasted__group40 pasted__group46 group55
usemtl initialShadingGroup
f 5/5/5 6/6/6 7/7/7
f 7/7/7 6/6/6 8/8/8
