# This file uses centimeters as units for non-parametric coordinates.

mtllib number0.mtl
g default
v 0.057725 0.068571 0.000000
v 0.341954 0.068571 0.000000
v 0.057725 2.096075 0.000000
v 0.341954 2.096075 0.000000
vt 0.000000 0.000000
vt 0.166667 0.000000
vt 0.000000 1.000000
vt 0.166667 1.000000
vn 0.000000 0.000000 1.000000
vn 0.000000 0.000000 1.000000
vn 0.000000 0.000000 1.000000
vn 0.000000 0.000000 1.000000
s 1
g pPlane1
usemtl initialShadingGroup
f 1/1/1 2/2/2 3/3/3
f 3/3/3 2/2/2 4/4/4
g default
v 1.233057 0.351921 0.000000
v 0.106766 0.351921 0.000000
v 1.233057 0.067691 0.000000
v 0.106766 0.067691 0.000000
vt 0.000000 0.000000
vt 1.000000 0.000000
vt 0.000000 0.224138
vt 1.000000 0.224138
vn 0.000000 -0.000000 1.000000
vn 0.000000 -0.000000 1.000000
vn 0.000000 -0.000000 1.000000
vn 0.000000 -0.000000 1.000000
s 1
g pasted__pPlane2 group12
usemtl initialShadingGroup
f 5/5/5 6/6/6 7/7/7
f 7/7/7 6/6/6 8/8/8
g default
v 0.954965 0.068571 0.000000
v 1.239195 0.068571 0.000000
v 0.954965 2.096075 0.000000
v 1.239195 2.096075 0.000000
vt 0.000000 0.000000
vt 0.166667 0.000000
vt 0.000000 1.000000
vt 0.166667 1.000000
vn 0.000000 0.000000 1.000000
vn 0.000000 0.000000 1.000000
vn 0.000000 0.000000 1.000000
vn 0.000000 0.000000 1.000000
s 1
g pasted__pPlane1 group37
usemtl initialShadingGroup
f 9/9/9 10/10/10 11/11/11
f 11/11/11 10/10/10 12/12/12
g default
v 1.233057 2.097779 0.000000
v 0.106766 2.097779 0.000000
v 1.233057 1.813550 0.000000
v 0.106766 1.813550 0.000000
vt 0.000000 0.000000
vt 1.000000 0.000000
vt 0.000000 0.224138
vt 1.000000 0.224138
vn 0.000000 -0.000000 1.000000
vn 0.000000 -0.000000 1.000000
vn 0.000000 -0.000000 1.000000
vn 0.000000 -0.000000 1.000000
s 1
g pasted__pasted__pPlane2 pasted__group12 group38
usemtl initialShadingGroup
f 13/13/13 14/14/14 15/15/15
f 15/15/15 14/14/14 16/16/16
