# This file uses centimeters as units for non-parametric coordinates.

mtllib number4.mtl
g default
v 0.808422 0.068571 0.000000
v 1.092652 0.068571 0.000000
v 0.808422 2.096075 0.000000
v 1.092652 2.096075 0.000000
vt 0.000000 0.000000
vt 0.166667 0.000000
vt 0.000000 1.000000
vt 0.166667 1.000000
vn 0.000000 0.000000 1.000000
vn 0.000000 0.000000 1.000000
vn 0.000000 0.000000 1.000000
vn 0.000000 0.000000 1.000000
s 1
g pasted__pasted__pPlane1 pasted__group37 group52
usemtl initialShadingGroup
f 1/1/1 2/2/2 3/3/3
f 3/3/3 2/2/2 4/4/4
g default
v 0.891741 0.827428 0.000000
v 0.891741 1.111657 0.000000
v 0.064379 0.827428 0.000000
v 0.064379 1.111657 0.000000
vt 0.000000 0.000000
vt 0.166667 0.000000
vt 0.000000 1.000000
vt 0.166667 1.000000
vn 0.000000 0.000000 1.000000
vn 0.000000 0.000000 1.000000
vn 0.000000 0.000000 1.000000
vn 0.000000 0.000000 1.000000
s 1
g pasted__pasted__pasted__pPlane1 pasted__pasted__group37 pasted__group52 group53
usemtl initialShadingGroup
f 5/5/5 6/6/6 7/7/7
f 7/7/7 6/6/6 8/8/8
g default
v 0.348297 0.896606 0.000000
v 0.064067 0.896606 0.000000
v 0.348297 0.069245 0.000000
v 0.064067 0.069245 0.000000
vt 0.000000 0.000000
vt 0.166667 0.000000
vt 0.000000 1.000000
vt 0.166667 1.000000
vn 0.000000 -0.000000 1.000000
vn 0.000000 -0.000000 1.000000
vn 0.000000 -0.000000 1.000000
vn 0.000000 -0.000000 1.000000
s 1
g pasted__pasted__pasted__pasted__pPlane1 pasted__pasted__pasted__group37 pasted__pasted__group52 pasted__group53 group54
usemtl initialShadingGroup
f 9/9/9 10/10/10 11/11/11
f 11/11/11 10/10/10 12/12/12
