# This file uses centimeters as units for non-parametric coordinates.

mtllib symbolcolon.mtl
g default
v 0.119266 1.073394 0.000000
v 0.339450 1.073394 0.000000
v 0.119266 1.311927 0.000000
v 0.339450 1.311927 0.000000
vt 0.000000 0.000000
vt 0.923077 0.000000
vt 0.000000 1.000000
vt 0.923077 1.000000
vn 0.000000 0.000000 1.000000
vn 0.000000 0.000000 1.000000
vn 0.000000 0.000000 1.000000
vn 0.000000 0.000000 1.000000
s 1
g pPlane1
usemtl initialShadingGroup
f 1/1/1 2/2/2 3/3/3
f 3/3/3 2/2/2 4/4/4
g default
v 0.119266 0.522936 0.000000
v 0.339450 0.522936 0.000000
v 0.119266 0.761468 0.000000
v 0.339450 0.761468 0.000000
vt 0.000000 0.000000
vt 0.923077 0.000000
vt 0.000000 1.000000
vt 0.923077 1.000000
vn 0.000000 0.000000 1.000000
vn 0.000000 0.000000 1.000000
vn 0.000000 0.000000 1.000000
vn 0.000000 0.000000 1.000000
s 1
g pasted__pPlane1 group
usemtl initialShadingGroup
f 5/5/5 6/6/6 7/7/7
f 7/7/7 6/6/6 8/8/8
