# This file uses centimeters as units for non-parametric coordinates.

mtllib letterC.mtl
g default
v 0.863651 0.059582 0.000000
v 0.868698 1.459447 0.000000
v 1.331061 0.558926 0.000000
v 1.476608 0.398116 0.000000
v 0.854791 0.358979 0.000000
v 0.376176 0.766507 0.000000
v 1.476088 1.427342 0.000000
v 1.331695 1.259330 0.000000
v 0.862060 1.759722 0.000000
v 0.075153 0.758913 0.000000
v 0.396474 0.909620 0.000000
v 0.088852 0.909651 0.000000
v 0.636041 0.399493 0.000000
v 0.636042 0.084405 0.000000
v 0.214946 0.342989 0.000000
v 0.636042 0.342918 0.000000
v 0.355909 0.210295 0.000000
v 0.355996 0.342918 0.000000
v 0.399917 0.626254 0.000000
v 0.087101 0.626188 0.000000
v 0.355996 0.626254 0.000000
v 0.496892 0.484581 0.000000
v 0.355996 0.484586 0.000000
v 0.496019 0.484586 0.000000
v 0.496019 0.342918 0.000000
v 0.496015 0.485380 0.000000
v 0.355996 0.909591 0.000000
v 1.464316 0.342919 0.000000
v 0.916079 0.062632 0.000000
v 0.916088 0.342918 0.000000
v 1.196167 0.145950 0.000000
v 1.196133 0.342918 0.000000
v 1.308350 0.201197 0.000000
v 1.196133 0.201250 0.000000
v 1.336177 0.217629 0.000000
v 1.336156 0.342918 0.000000
v 0.916087 0.362988 0.000000
v 1.196132 0.490931 0.000000
v 1.451814 0.484626 0.000000
v 1.196133 0.484586 0.000000
v 1.336156 0.484586 0.000000
v 1.336162 0.559182 0.000000
v 1.362234 0.556283 0.000000
v 1.336156 0.555420 0.000000
v 1.406486 0.534962 0.000000
v 1.406168 0.484586 0.000000
v 0.636286 1.340516 0.000000
v 0.636030 1.709108 0.000000
v 0.526043 1.193153 0.000000
v 0.181411 1.192634 0.000000
v 0.355996 1.192927 0.000000
v 0.636042 1.476263 0.000000
v 0.358160 1.476380 0.000000
v 0.355853 1.473482 0.000000
v 0.916110 1.458334 0.000000
v 0.916105 1.757559 0.000000
v 0.916088 1.476263 0.000000
v 0.776057 1.442805 0.000000
v 0.776065 1.476263 0.000000
v 1.468880 1.476143 0.000000
v 1.196324 1.348517 0.000000
v 1.196133 1.476263 0.000000
v 1.056111 1.434425 0.000000
v 1.056111 1.476263 0.000000
v 1.209518 1.334652 0.000000
v 1.451506 1.334381 0.000000
v 1.336164 1.259380 0.000000
v 1.336156 1.334595 0.000000
v 1.299411 1.263797 0.000000
v 1.336156 1.263761 0.000000
v 1.266163 1.280535 0.000000
v 1.266145 1.334595 0.000000
v 1.365192 1.263712 0.000000
v 1.406141 1.283402 0.000000
v 1.406168 1.334595 0.000000
v 1.336156 1.476263 0.000000
v 1.196164 1.690629 0.000000
v 1.345929 1.617869 0.000000
v 1.196133 1.617932 0.000000
v 1.336156 1.617932 0.000000
v 1.336119 1.623997 0.000000
vt 0.562551 0.000000
vt 0.566155 0.823476
vt 0.896326 0.294105
vt 0.999987 0.199138
vt 0.556224 0.176088
vt 0.214314 0.415834
vt 1.000000 0.804557
vt 0.896815 0.705866
vt 0.561415 1.000000
vt 0.000000 0.411368
vt 0.228985 0.500000
vt 0.009457 0.500000
vt 0.400000 0.199947
vt 0.400000 0.014602
vt 0.099203 0.166667
vt 0.400000 0.166667
vt 0.200000 0.088726
vt 0.200000 0.166667
vt 0.231367 0.333333
vt 0.008220 0.333333
vt 0.200000 0.333333
vt 0.300626 0.250000
vt 0.200000 0.250000
vt 0.300000 0.250000
vt 0.300000 0.166667
vt 0.300000 0.250470
vt 0.200000 0.500000
vt 0.991530 0.166667
vt 0.600000 0.001748
vt 0.600000 0.166667
vt 0.800000 0.050850
vt 0.800000 0.166667
vt 0.880120 0.083333
vt 0.800000 0.083333
vt 0.900000 0.092987
vt 0.900000 0.166667
vt 0.600000 0.178471
vt 0.800000 0.253731
vt 0.982552 0.250000
vt 0.800000 0.250000
vt 0.900000 0.250000
vt 0.900000 0.294013
vt 0.918473 0.291667
vt 0.900000 0.291667
vt 0.950000 0.279378
vt 0.950000 0.250000
vt 0.400000 0.753618
vt 0.400000 0.970284
vt 0.321703 0.666667
vt 0.074873 0.666667
vt 0.200000 0.666667
vt 0.400000 0.833333
vt 0.201649 0.833333
vt 0.200000 0.831630
vt 0.600000 0.822577
vt 0.600000 0.998678
vt 0.600000 0.833333
vt 0.500000 0.813641
vt 0.500000 0.833333
vt 0.995083 0.833333
vt 0.800000 0.758082
vt 0.800000 0.833333
vt 0.700000 0.808722
vt 0.700000 0.833333
vt 0.809516 0.750000
vt 0.982118 0.750000
vt 0.900000 0.705903
vt 0.900000 0.750000
vt 0.873750 0.708333
vt 0.900000 0.708333
vt 0.850000 0.718185
vt 0.850000 0.750000
vt 0.920726 0.708333
vt 0.950000 0.719865
vt 0.950000 0.750000
vt 0.900000 0.833333
vt 0.800000 0.959381
vt 0.907008 0.916667
vt 0.800000 0.916667
vt 0.900000 0.916667
vt 0.900000 0.920271
vn 0.000000 0.000000 1.000000
vn 0.000000 0.000000 1.000000
vn 0.000000 0.000000 1.000000
vn 0.000000 0.000000 1.000000
vn 0.000000 0.000000 1.000000
vn 0.000000 0.000000 1.000000
vn 0.000000 0.000000 1.000000
vn 0.000000 0.000000 1.000000
vn 0.000000 0.000000 1.000000
vn 0.000000 0.000000 1.000000
vn 0.000000 0.000000 1.000000
vn 0.000000 0.000000 1.000000
vn 0.000000 0.000000 1.000000
vn 0.000000 0.000000 1.000000
vn 0.000000 0.000000 1.000000
vn 0.000000 0.000000 1.000000
vn 0.000000 0.000000 1.000000
vn 0.000000 0.000000 1.000000
vn 0.000000 0.000000 1.000000
vn 0.000000 0.000000 1.000000
vn 0.000000 0.000000 1.000000
vn 0.000000 0.000000 1.000000
vn 0.000000 0.000000 1.000000
vn 0.000000 0.000000 1.000000
vn 0.000000 0.000000 1.000000
vn 0.000000 0.000000 1.000000
vn 0.000000 0.000000 1.000000
vn 0.000000 0.000000 1.000000
vn 0.000000 0.000000 1.000000
vn 0.000000 0.000000 1.000000
vn 0.000000 0.000000 1.000000
vn 0.000000 0.000000 1.000000
vn 0.000000 0.000000 1.000000
vn 0.000000 0.000000 1.000000
vn 0.000000 0.000000 1.000000
vn 0.000000 0.000000 1.000000
vn 0.000000 0.000000 1.000000
vn 0.000000 0.000000 1.000000
vn 0.000000 0.000000 1.000000
vn 0.000000 0.000000 1.000000
vn 0.000000 0.000000 1.000000
vn 0.000000 0.000000 1.000000
vn 0.000000 0.000000 1.000000
vn 0.000000 0.000000 1.000000
vn 0.000000 0.000000 1.000000
vn 0.000000 0.000000 1.000000
vn 0.000000 0.000000 1.000000
vn 0.000000 0.000000 1.000000
vn 0.000000 0.000000 1.000000
vn 0.000000 0.000000 1.000000
vn 0.000000 0.000000 1.000000
vn 0.000000 0.000000 1.000000
vn 0.000000 0.000000 1.000000
vn 0.000000 0.000000 1.000000
vn 0.000000 0.000000 1.000000
vn 0.000000 0.000000 1.000000
vn 0.000000 0.000000 1.000000
vn 0.000000 0.000000 1.000000
vn 0.000000 0.000000 1.000000
vn 0.000000 0.000000 1.000000
vn 0.000000 0.000000 1.000000
vn 0.000000 0.000000 1.000000
vn 0.000000 0.000000 1.000000
vn 0.000000 0.000000 1.000000
vn 0.000000 0.000000 1.000000
vn 0.000000 0.000000 1.000000
vn 0.000000 0.000000 1.000000
vn 0.000000 0.000000 1.000000
vn 0.000000 0.000000 1.000000
vn 0.000000 0.000000 1.000000
vn 0.000000 0.000000 1.000000
vn 0.000000 0.000000 1.000000
vn 0.000000 0.000000 1.000000
vn 0.000000 0.000000 1.000000
vn 0.000000 0.000000 1.000000
vn 0.000000 0.000000 1.000000
vn 0.000000 0.000000 1.000000
vn 0.000000 0.000000 1.000000
vn 0.000000 0.000000 1.000000
vn 0.000000 0.000000 1.000000
vn 0.000000 0.000000 1.000000
s 1
g Trim_Char_c_1_1 Trim_Text_abcdefghijklmnopqrstuvwxyzxxxxxxxxxxx_1_1
usemtl initialShadingGroup
f 78/78/1 81/81/2 80/80/3
f 43/43/4 42/42/5 44/44/6
f 6/6/7 11/11/8 27/27/9
f 14/14/10 16/16/11 25/25/12
f 15/15/13 17/17/14 18/18/15
f 22/22/16 26/26/17 24/24/18
f 15/15/13 18/18/15 23/23/19
f 22/22/16 24/24/18 25/25/12
f 18/18/15 25/25/12 24/24/18
f 19/19/20 21/21/21 23/23/19
f 10/10/22 20/20/23 21/21/21
f 35/35/24 28/28/25 36/36/26
f 14/14/10 5/5/27 16/16/11
f 34/34/28 32/32/29 30/30/30
f 31/31/31 33/33/32 34/34/28
f 35/35/24 36/36/26 32/32/29
f 5/5/27 13/13/33 16/16/11
f 37/37/34 30/30/30 32/32/29
f 46/46/35 41/41/36 36/36/26
f 32/32/29 36/36/26 41/41/36
f 38/38/37 40/40/38 41/41/36
f 39/39/39 45/45/40 46/46/35
f 43/43/4 44/44/6 41/41/36
f 52/52/41 48/48/42 53/53/43
f 11/11/8 49/49/44 51/51/45
f 50/50/46 12/12/47 27/27/9
f 47/47/48 52/52/41 54/54/49
f 54/54/49 50/50/46 51/51/45
f 9/9/50 48/48/42 59/59/51
f 2/2/52 55/55/53 57/57/54
f 58/58/55 59/59/51 52/52/41
f 7/7/56 60/60/57 76/76/58
f 63/63/59 61/61/60 62/62/61
f 55/55/53 63/63/59 64/64/62
f 74/74/63 66/66/64 75/75/65
f 69/69/66 70/70/67 68/68/68
f 8/8/69 67/67/70 70/70/67
f 65/65/71 71/71/72 72/72/73
f 67/67/70 73/73/74 70/70/67
f 74/74/63 75/75/65 68/68/68
f 76/76/58 62/62/61 61/61/60
f 56/56/75 57/57/54 64/64/62
f 78/78/1 80/80/3 76/76/58
f 62/62/61 76/76/58 80/80/3
f 81/81/2 77/77/76 79/79/77
f 21/21/21 19/19/20 6/6/7
f 6/6/7 12/12/47 21/21/21
f 25/25/12 18/18/15 17/17/14
f 17/17/14 14/14/10 25/25/12
f 23/23/19 21/21/21 20/20/23
f 23/23/19 20/20/23 15/15/13
f 25/25/12 16/16/11 13/13/33
f 25/25/12 13/13/33 22/22/16
f 24/24/18 23/23/19 18/18/15
f 23/23/19 24/24/18 26/26/17
f 26/26/17 19/19/20 23/23/19
f 12/12/47 6/6/7 27/27/9
f 21/21/21 12/12/47 10/10/22
f 1/1/78 29/29/79 30/30/30
f 30/30/30 14/14/10 1/1/78
f 29/29/79 31/31/31 34/34/28
f 34/34/28 30/30/30 29/29/79
f 32/32/29 34/34/28 33/33/32
f 32/32/29 33/33/32 35/35/24
f 30/30/30 37/37/34 5/5/27
f 5/5/27 14/14/10 30/30/30
f 40/40/38 38/38/37 37/37/34
f 32/32/29 40/40/38 37/37/34
f 4/4/80 39/39/39 46/46/35
f 36/36/26 28/28/25 4/4/80
f 4/4/80 46/46/35 36/36/26
f 41/41/36 40/40/38 32/32/29
f 44/44/6 42/42/5 3/3/81
f 44/44/6 3/3/81 38/38/37
f 38/38/37 41/41/36 44/44/6
f 41/41/36 46/46/35 45/45/40
f 41/41/36 45/45/40 43/43/4
f 51/51/45 27/27/9 11/11/8
f 27/27/9 51/51/45 50/50/46
f 52/52/41 53/53/43 54/54/49
f 54/54/49 51/51/45 49/49/44
f 54/54/49 49/49/44 47/47/48
f 48/48/42 52/52/41 59/59/51
f 57/57/54 56/56/75 9/9/50
f 9/9/50 59/59/51 57/57/54
f 59/59/51 58/58/55 2/2/52
f 57/57/54 59/59/51 2/2/52
f 52/52/41 47/47/48 58/58/55
f 76/76/58 68/68/68 75/75/65
f 76/76/58 66/66/64 7/7/56
f 75/75/65 66/66/64 76/76/58
f 62/62/61 64/64/62 63/63/59
f 64/64/62 57/57/54 55/55/53
f 68/68/68 72/72/73 71/71/72
f 68/68/68 71/71/72 69/69/66
f 70/70/67 69/69/66 8/8/69
f 68/68/68 70/70/67 73/73/74
f 73/73/74 74/74/63 68/68/68
f 61/61/60 65/65/71 72/72/73
f 72/72/73 68/68/68 76/76/58
f 76/76/58 61/61/60 72/72/73
f 64/64/62 62/62/61 79/79/77
f 79/79/77 77/77/76 56/56/75
f 56/56/75 64/64/62 79/79/77
f 76/76/58 60/60/57 78/78/1
f 80/80/3 79/79/77 62/62/61
f 79/79/77 80/80/3 81/81/2
