# This file uses centimeters as units for non-parametric coordinates.

mtllib letterD.mtl
g default
v 1.548284 1.520520 0.000000
v 1.348284 0.204895 0.000000
v 1.601296 0.206458 0.000000
v 1.470056 0.059313 0.000000
v 1.104534 1.700207 0.000000
v 0.048096 0.847520 0.000000
v 0.838837 0.059377 0.000000
v 0.829239 1.759695 0.000000
v 1.248284 1.589270 0.000000
v 1.421723 2.659790 0.000000
v 0.865471 1.459582 0.000000
v 1.252971 0.583019 0.000000
v 0.347914 0.858859 0.000000
v 0.821454 0.359326 0.000000
v 1.252971 1.209582 0.000000
v 1.248960 0.882397 0.000000
v 1.548065 1.173734 0.000000
v 0.090069 1.173734 0.000000
v 0.400091 1.173746 0.000000
v 1.252363 1.173735 0.000000
v 0.919376 0.061982 0.000000
v 0.919371 0.367906 0.000000
v 1.572727 0.430811 0.000000
v 1.075288 0.430860 0.000000
v 1.213101 0.126128 0.000000
v 1.213096 0.430811 0.000000
v 1.597861 0.245041 0.000000
v 1.213096 0.245080 0.000000
v 1.407235 0.085246 0.000000
v 1.407253 0.245080 0.000000
v 1.591970 0.152325 0.000000
v 1.407253 0.152215 0.000000
v 1.504367 0.065054 0.000000
v 1.504331 0.152215 0.000000
v 1.565447 0.105551 0.000000
v 1.504331 0.105782 0.000000
v 1.553270 0.092976 0.000000
v 1.552870 0.105782 0.000000
v 1.552870 0.152215 0.000000
v 1.504331 0.245080 0.000000
v 1.407253 0.430811 0.000000
v 1.551791 0.802280 0.000000
v 1.249441 0.802274 0.000000
v 1.213073 0.539442 0.000000
v 0.153728 0.430791 0.000000
v 0.576096 0.430798 0.000000
v 0.436505 0.156845 0.000000
v 0.436469 0.430811 0.000000
v 0.049004 0.802273 0.000000
v 0.350036 0.802278 0.000000
v 0.436926 0.564946 0.000000
v 1.259133 1.916658 0.000000
v 1.548284 1.916658 0.000000
v 0.919348 1.755227 0.000000
v 0.919364 1.456924 0.000000
v 1.548284 1.545196 0.000000
v 0.919364 1.545196 0.000000
v 1.213096 1.545196 0.000000
v 1.213096 1.281301 0.000000
v 1.213096 1.359466 0.000000
v 1.146463 1.359466 0.000000
v 1.066230 1.545196 0.000000
v 1.066230 1.415063 0.000000
v 1.213096 1.616425 0.000000
v 0.299182 1.545196 0.000000
v 0.436462 1.248897 0.000000
v 0.436469 1.545196 0.000000
v 0.531223 1.359563 0.000000
v 0.436469 1.359466 0.000000
v 0.677852 1.435053 0.000000
v 0.677916 1.545196 0.000000
v 0.436459 1.655222 0.000000
v 1.276327 2.288125 0.000000
v 1.548284 2.288120 0.000000
v 1.289181 2.473852 0.000000
v 1.548852 2.473843 0.000000
v 1.407253 2.473851 0.000000
v 1.407253 2.288120 0.000000
v 1.407232 2.659125 0.000000
v 1.542035 2.566752 0.000000
v 1.407253 2.566716 0.000000
v 1.504331 2.473851 0.000000
v 1.504331 2.566716 0.000000
v 1.504656 2.633886 0.000000
v 1.304672 2.566732 0.000000
v 1.310174 2.566716 0.000000
v 1.310174 2.473851 0.000000
v 1.310134 2.581931 0.000000
v 1.326944 2.613148 0.000000
v 1.407253 2.613149 0.000000
v 1.358714 2.613149 0.000000
v 1.358714 2.566716 0.000000
v 1.358693 2.643410 0.000000
vt 0.034203 0.561938
vt 0.162965 0.055974
vt 0.000000 0.056575
vt 0.084567 0.000000
vt 0.319893 0.631043
vt 1.000000 0.303116
vt 0.490952 0.000060
vt 0.497131 0.653895
vt 0.227346 0.588378
vt 0.115684 1.000000
vt 0.473804 0.538503
vt 0.224328 0.201394
vt 0.807086 0.307476
vt 0.502143 0.115300
vt 0.224328 0.442358
vt 0.227120 0.316528
vt 0.034203 0.428571
vt 0.973018 0.428571
vt 0.773402 0.428571
vt 0.224720 0.428571
vt 0.439107 0.001082
vt 0.439107 0.118679
vt 0.018466 0.142857
vt 0.338702 0.142857
vt 0.250000 0.025686
vt 0.250000 0.142857
vt 0.002108 0.071429
vt 0.250000 0.071429
vt 0.125000 0.009967
vt 0.125000 0.071429
vt 0.005875 0.035714
vt 0.125000 0.035714
vt 0.062500 0.002238
vt 0.062500 0.035714
vt 0.023328 0.017857
vt 0.062500 0.017857
vt 0.031250 0.013102
vt 0.031250 0.017857
vt 0.031250 0.035714
vt 0.062500 0.071429
vt 0.125000 0.142857
vt 0.032152 0.285714
vt 0.226686 0.285714
vt 0.250000 0.184625
vt 0.932009 0.142857
vt 0.660101 0.142857
vt 0.750000 0.037470
vt 0.750000 0.142857
vt 0.999447 0.285714
vt 0.805686 0.285714
vt 0.750000 0.194319
vt 0.220361 0.714286
vt 0.034203 0.714286
vt 0.439107 0.652260
vt 0.439107 0.537481
vt 0.034203 0.571429
vt 0.439107 0.571429
vt 0.250000 0.571429
vt 0.250000 0.469939
vt 0.250000 0.500000
vt 0.292899 0.500000
vt 0.344554 0.571429
vt 0.344554 0.521382
vt 0.250000 0.598822
vt 0.838387 0.571429
vt 0.750000 0.457476
vt 0.750000 0.571429
vt 0.688946 0.500000
vt 0.750000 0.500000
vt 0.594554 0.528986
vt 0.594554 0.571429
vt 0.750000 0.613736
vt 0.209231 0.857143
vt 0.034203 0.857143
vt 0.201009 0.928571
vt 0.034203 0.928571
vt 0.125000 0.928571
vt 0.125000 0.857143
vt 0.125000 0.999741
vt 0.038326 0.964286
vt 0.125000 0.964286
vt 0.062500 0.928571
vt 0.062500 0.964286
vt 0.062500 0.989969
vt 0.191011 0.964286
vt 0.187500 0.964286
vt 0.187500 0.928571
vt 0.187500 0.970131
vt 0.176704 0.982143
vt 0.125000 0.982143
vt 0.156250 0.982143
vt 0.156250 0.964286
vt 0.156250 0.993768
vn 0.000000 0.000000 -1.000000
vn 0.000000 0.000000 -1.000000
vn 0.000000 0.000000 -1.000000
vn 0.000000 0.000000 -1.000000
vn 0.000000 0.000000 -1.000000
vn 0.000000 0.000000 -1.000000
vn 0.000000 0.000000 -1.000000
vn 0.000000 0.000000 -1.000000
vn 0.000000 0.000000 -1.000000
vn 0.000000 0.000000 -1.000000
vn 0.000000 0.000000 -1.000000
vn 0.000000 0.000000 -1.000000
vn 0.000000 0.000000 -1.000000
vn 0.000000 0.000000 -1.000000
vn 0.000000 0.000000 -1.000000
vn 0.000000 0.000000 -1.000000
vn 0.000000 0.000000 -1.000000
vn 0.000000 0.000000 -1.000000
vn 0.000000 0.000000 -1.000000
vn 0.000000 0.000000 -1.000000
vn 0.000000 0.000000 -1.000000
vn 0.000000 0.000000 -1.000000
vn 0.000000 0.000000 -1.000000
vn 0.000000 0.000000 -1.000000
vn 0.000000 0.000000 -1.000000
vn 0.000000 0.000000 -1.000000
vn 0.000000 0.000000 -1.000000
vn 0.000000 0.000000 -1.000000
vn 0.000000 0.000000 -1.000000
vn 0.000000 0.000000 -1.000000
vn 0.000000 0.000000 -1.000000
vn 0.000000 0.000000 -1.000000
vn 0.000000 0.000000 -1.000000
vn 0.000000 0.000000 -1.000000
vn 0.000000 0.000000 -1.000000
vn 0.000000 0.000000 -1.000000
vn 0.000000 0.000000 -1.000000
vn 0.000000 0.000000 -1.000000
vn 0.000000 0.000000 -1.000000
vn 0.000000 0.000000 -1.000000
vn 0.000000 0.000000 -1.000000
vn 0.000000 0.000000 -1.000000
vn 0.000000 0.000000 -1.000000
vn 0.000000 0.000000 -1.000000
vn 0.000000 0.000000 -1.000000
vn 0.000000 0.000000 -1.000000
vn 0.000000 0.000000 -1.000000
vn 0.000000 0.000000 -1.000000
vn 0.000000 0.000000 -1.000000
vn 0.000000 0.000000 -1.000000
vn 0.000000 0.000000 -1.000000
vn 0.000000 0.000000 -1.000000
vn 0.000000 0.000000 -1.000000
vn 0.000000 0.000000 -1.000000
vn 0.000000 0.000000 -1.000000
vn 0.000000 0.000000 -1.000000
vn 0.000000 0.000000 -1.000000
vn 0.000000 0.000000 -1.000000
vn 0.000000 0.000000 -1.000000
vn 0.000000 0.000000 -1.000000
vn 0.000000 0.000000 -1.000000
vn 0.000000 0.000000 -1.000000
vn 0.000000 0.000000 -1.000000
vn 0.000000 0.000000 -1.000000
vn 0.000000 0.000000 -1.000000
vn 0.000000 0.000000 -1.000000
vn 0.000000 0.000000 -1.000000
vn 0.000000 0.000000 -1.000000
vn 0.000000 0.000000 -1.000000
vn 0.000000 0.000000 -1.000000
vn 0.000000 0.000000 -1.000000
vn 0.000000 0.000000 -1.000000
vn 0.000000 0.000000 -1.000000
vn 0.000000 0.000000 -1.000000
vn 0.000000 0.000000 -1.000000
vn 0.000000 0.000000 -1.000000
vn 0.000000 0.000000 -1.000000
vn 0.000000 0.000000 -1.000000
vn 0.000000 0.000000 -1.000000
vn 0.000000 0.000000 -1.000000
vn 0.000000 0.000000 -1.000000
vn 0.000000 0.000000 -1.000000
vn 0.000000 0.000000 -1.000000
vn 0.000000 0.000000 -1.000000
vn 0.000000 0.000000 -1.000000
vn 0.000000 0.000000 -1.000000
vn 0.000000 0.000000 -1.000000
vn 0.000000 0.000000 -1.000000
vn 0.000000 0.000000 -1.000000
vn 0.000000 0.000000 -1.000000
vn 0.000000 0.000000 -1.000000
vn 0.000000 0.000000 -1.000000
vn 0.000000 0.000000 -1.000000
s 1
g Trim_Char_d_1_1 Trim_Text_abcdefghijklmnopqrstuvwxyzxxxxxxxxxxx_1_1
usemtl initialShadingGroup
f 85/85/1 88/88/2 86/86/3
f 18/18/4 19/19/5 13/13/6
f 42/42/7 43/43/8 16/16/9
f 25/25/10 21/21/11 22/22/12
f 30/30/13 28/28/14 26/26/15
f 2/2/16 25/25/10 28/28/14
f 34/34/17 32/32/18 30/30/13
f 29/29/19 32/32/18 34/34/17
f 38/38/20 36/36/21 34/34/17
f 37/37/22 33/33/23 36/36/21
f 35/35/24 37/37/22 38/38/20
f 35/35/24 38/38/20 39/39/25
f 39/39/25 34/34/17 40/40/26
f 23/23/27 27/27/28 40/40/26
f 26/26/15 24/24/29 44/44/30
f 42/42/7 23/23/27 41/41/31
f 47/47/32 45/45/33 48/48/34
f 47/47/32 48/48/34 46/46/35
f 45/45/33 49/49/36 50/50/37
f 51/51/38 46/46/35 48/48/34
f 65/65/39 72/72/40 67/67/41
f 5/5/42 64/64/43 62/62/44
f 62/62/44 63/63/45 55/55/46
f 17/17/47 20/20/48 15/15/49
f 60/60/50 59/59/51 61/61/52
f 58/58/53 60/60/50 61/61/52
f 9/9/54 52/52/55 53/53/56
f 65/65/39 67/67/41 69/69/57
f 68/68/58 69/69/57 67/67/41
f 68/68/58 66/66/59 69/69/57
f 11/11/60 70/70/61 71/71/62
f 8/8/63 57/57/64 71/71/62
f 52/52/55 73/73/65 78/78/66
f 73/73/65 75/75/67 87/87/68
f 82/82/69 76/76/70 74/74/71
f 84/84/72 83/83/73 81/81/74
f 82/82/69 77/77/75 81/81/74
f 80/80/76 76/76/70 82/82/69
f 84/84/72 80/80/76 83/83/73
f 85/85/1 86/86/3 87/87/68
f 92/92/77 81/81/74 77/77/75
f 89/89/78 93/93/79 91/91/80
f 89/89/78 91/91/80 92/92/77
f 81/81/74 92/92/77 91/91/80
f 93/93/79 79/79/81 90/90/82
f 13/13/6 50/50/37 49/49/36
f 13/13/6 49/49/36 6/6/83
f 13/13/6 6/6/83 18/18/4
f 20/20/48 17/17/47 42/42/7
f 16/16/9 20/20/48 42/42/7
f 24/24/29 26/26/15 28/28/14
f 22/22/12 24/24/29 28/28/14
f 28/28/14 25/25/10 22/22/12
f 26/26/15 41/41/31 30/30/13
f 32/32/18 29/29/19 2/2/16
f 30/30/13 32/32/18 2/2/16
f 2/2/16 28/28/14 30/30/13
f 30/30/13 40/40/26 34/34/17
f 36/36/21 33/33/23 4/4/84
f 36/36/21 4/4/84 29/29/19
f 29/29/19 34/34/17 36/36/21
f 34/34/17 39/39/25 38/38/20
f 36/36/21 38/38/20 37/37/22
f 39/39/25 31/31/85 35/35/24
f 3/3/86 31/31/85 39/39/25
f 40/40/26 27/27/28 3/3/86
f 3/3/86 39/39/25 40/40/26
f 30/30/13 41/41/31 23/23/27
f 40/40/26 30/30/13 23/23/27
f 41/41/31 26/26/15 44/44/30
f 12/12/87 43/43/8 42/42/7
f 41/41/31 12/12/87 42/42/7
f 44/44/30 12/12/87 41/41/31
f 14/14/88 22/22/12 21/21/11
f 14/14/88 7/7/89 47/47/32
f 46/46/35 14/14/88 47/47/32
f 21/21/11 7/7/89 14/14/88
f 51/51/38 48/48/34 45/45/33
f 45/45/33 50/50/37 51/51/38
f 64/64/43 58/58/53 62/62/44
f 62/62/44 57/57/64 54/54/90
f 54/54/90 5/5/42 62/62/44
f 55/55/46 57/57/64 62/62/44
f 58/58/53 56/56/91 1/1/92
f 15/15/49 59/59/51 1/1/92
f 15/15/49 1/1/92 17/17/47
f 1/1/92 59/59/51 60/60/50
f 1/1/92 60/60/50 58/58/53
f 63/63/45 62/62/44 58/58/53
f 61/61/52 63/63/45 58/58/53
f 58/58/53 64/64/43 9/9/54
f 56/56/91 58/58/53 9/9/54
f 53/53/56 56/56/91 9/9/54
f 69/69/57 66/66/59 19/19/5
f 69/69/57 19/19/5 18/18/4
f 69/69/57 18/18/4 65/65/39
f 67/67/41 71/71/62 70/70/61
f 67/67/41 70/70/61 68/68/58
f 57/57/64 55/55/46 11/11/60
f 11/11/60 71/71/62 57/57/64
f 8/8/63 54/54/90 57/57/64
f 71/71/62 67/67/41 72/72/40
f 72/72/40 8/8/63 71/71/62
f 74/74/71 53/53/56 52/52/55
f 78/78/66 74/74/71 52/52/55
f 77/77/75 78/78/66 73/73/65
f 87/87/68 77/77/75 73/73/65
f 74/74/71 78/78/66 77/77/75
f 74/74/71 77/77/75 82/82/69
f 90/90/82 79/79/81 10/10/93
f 90/90/82 10/10/93 84/84/72
f 84/84/72 81/81/74 90/90/82
f 81/81/74 83/83/73 82/82/69
f 82/82/69 83/83/73 80/80/76
f 87/87/68 75/75/67 85/85/1
f 77/77/75 87/87/68 86/86/3
f 77/77/75 86/86/3 92/92/77
f 92/92/77 86/86/3 88/88/2
f 88/88/2 89/89/78 92/92/77
f 91/91/80 90/90/82 81/81/74
f 90/90/82 91/91/80 93/93/79
